<svg height="511pt" viewBox="-18 0 511 511.99969" width="511pt" xmlns="http://www.w3.org/2000/svg"><path d="m263.984375 114.757812c0 68.65625-55.515625 124.179688-124.175781 124.179688-44.695313 0-83.871094-23.613281-105.738282-59.039062-4.890624-7.921876 2.835938-17.695313 11.664063-14.734376 11.359375 3.804688 23.515625 5.871094 36.15625 5.882813 62.933594.0625 114.207031-51.164063 114.207031-114.097656 0-12.679688-2.070312-24.878907-5.886718-36.273438-2.957032-8.820312 6.816406-16.546875 14.734374-11.65625 35.429688 21.871094 59.039063 61.046875 59.039063 105.738281zm0 0" fill="#f6cb43"/><path d="m263.984375 114.757812c0 68.578126-55.597656 124.179688-124.175781 124.179688-42.171875 0-79.433594-21.023438-101.863282-53.160156 20.121094 14.050781 44.597657 22.285156 70.988282 22.285156 68.578125 0 124.175781-55.601562 124.175781-124.175781 0-26.40625-8.242187-50.882813-22.289063-71.003907 32.144532 22.441407 53.164063 59.699219 53.164063 101.875zm0 0" fill="#fab03c"/><path d="m412.714844 224.785156c-3.429688-56.667968-50.46875-101.570312-108.003906-101.570312-46.398438 0-85.972657 29.207031-101.351563 70.238281-39.957031.484375-72.203125 33.007813-72.203125 73.078125 0 40.371094 32.726562 73.101562 73.101562 73.101562h206.449219c31.726563 0 57.449219-25.722656 57.449219-57.449218 0-31.054688-24.644531-56.339844-55.441406-57.398438zm0 0" fill="#a09d9c"/><path d="m468.15625 282.183594c0 31.726562-25.722656 57.453125-57.453125 57.453125h-4.449219c4.164063-7.953125 6.523438-17.007813 6.523438-26.605469 0-31.050781-24.644532-56.339844-55.441406-57.402344-3.429688-56.664062-50.472657-101.570312-108.007813-101.570312-7.757813 0-15.320313.816406-22.609375 2.367187 19.679688-20.46875 47.347656-33.210937 77.992188-33.210937 57.535156 0 104.574218 44.898437 108.003906 101.574218 30.800781 1.054688 55.441406 26.339844 55.441406 57.394532zm0 0" fill="#82807f"/><path d="m109.941406 257.527344c2.453125-40.515625 36.078125-72.617188 77.210938-72.617188 33.171875 0 61.464844 20.882813 72.460937 50.214844 28.566407.347656 51.617188 23.597656 51.617188 52.246094 0 28.863281-23.398438 52.261718-52.257813 52.261718-12.082031 0-135.183594 0-147.597656 0-22.683594 0-41.070312-18.386718-41.070312-41.070312 0-22.203125 17.621093-40.277344 39.636718-41.035156zm0 0" fill="#38aaff"/><path d="m311.234375 287.375c0 28.617188-23.011719 51.859375-51.542969 52.25 8.554688-9.3125 13.769532-21.714844 13.769532-35.34375 0-28.644531-23.050782-51.898438-51.625-52.246094-10.992188-29.328125-39.28125-50.214844-72.457032-50.214844-3.921875 0-7.769531.296876-11.535156.859376 13.382812-11.097657 30.5625-17.765626 49.304688-17.765626 33.179687 0 61.464843 20.878907 72.460937 50.214844 28.574219.347656 51.625 23.59375 51.625 52.246094zm0 0" fill="#2081f6"/><g fill="#f0f5f7"><path d="m239.117188 302.582031h-220.308594c-5.96875 0-10.808594-4.839843-10.808594-10.808593s4.839844-10.808594 10.808594-10.808594h220.308594c15.332031 0 27.804687-12.472656 27.804687-27.804688 0-15.332031-12.472656-27.808594-27.804687-27.808594-15.335938 0-27.808594 12.476563-27.808594 27.808594 0 5.96875-4.839844 10.804688-10.808594 10.804688s-10.808594-4.835938-10.808594-10.804688c0-27.253906 22.171875-49.421875 49.421875-49.421875 27.253907 0 49.421875 22.167969 49.421875 49.421875.003906 27.25-22.167968 49.421875-49.417968 49.421875zm0 0"/><path d="m208.953125 368.148438h-126.742187c-5.96875 0-10.804688 4.839843-10.804688 10.808593s4.835938 10.808594 10.804688 10.808594h126.742187c15.332031 0 27.808594 12.472656 27.808594 27.804687 0 15.332032-12.476563 27.808594-27.808594 27.808594s-27.808594-12.476562-27.808594-27.808594c0-5.96875-4.835937-10.804687-10.808593-10.804687-5.96875 0-10.804688 4.835937-10.804688 10.804687 0 27.253907 22.167969 49.421876 49.421875 49.421876 27.25 0 49.421875-22.167969 49.421875-49.421876 0-27.25-22.171875-49.421874-49.421875-49.421874zm0 0"/><path d="m324.121094 325.210938h-272.183594c-5.96875 0-10.808594 4.835937-10.808594 10.808593 0 5.96875 4.839844 10.804688 10.808594 10.804688h272.183594c15.332031 0 27.808594 12.476562 27.808594 27.808593 0 15.332032-12.476563 27.804688-27.808594 27.804688-15.332032 0-27.808594-12.472656-27.808594-27.804688 0-5.96875-4.835938-10.808593-10.808594-10.808593-5.96875 0-10.804687 4.839843-10.804687 10.808593 0 27.25 22.167969 49.421876 49.421875 49.421876 27.25 0 49.421875-22.171876 49.421875-49.421876s-22.171875-49.421874-49.421875-49.421874zm0 0"/></g><path d="m457.371094 237.019531c-10.199219-10.53125-23.414063-17.195312-37.746094-19.160156-6.75-57.78125-56.019531-102.144531-114.914062-102.144531-11.394532 0-22.625 1.671875-33.371094 4.902344.085937-1.953126.144531-3.90625.144531-5.859376 0-46.007812-23.402344-87.921874-62.597656-112.121093-6.332031-3.910157-14.207031-3.4375-20.058594 1.203125-5.839844 4.628906-8.089844 12.175781-5.730469 19.21875 3.648438 10.886718 5.5 22.292968 5.5 33.890625 0 20.800781-6.035156 40.976562-17.449218 58.351562-2.273438 3.460938-1.3125 8.113281 2.148437 10.386719s8.113281 1.3125 10.386719-2.148438c13.027344-19.828124 19.914062-42.851562 19.914062-66.585937 0-13.226563-2.113281-26.230469-6.277344-38.65625-.445312-1.335937.203126-2.210937.828126-2.703125.519531-.410156 1.578124-.980469 2.859374-.191406 34.738282 21.445312 55.476563 58.589844 55.476563 99.355468 0 3.917969-.195313 7.855469-.582031 11.746094-4.730469 2.203125-9.328125 4.722656-13.753906 7.574219-17.199219 11.078125-31.113282 26.441406-40.414063 44.570313-4.765625-.816407-9.636719-1.238282-14.582031-1.238282-34.261719 0-64.070313 20.488282-77.40625 50.109375-28.558594-7.613281-53.667969-26.246093-69.292969-51.5625-.75-1.214843-.3125-2.222656.1875-2.855469.496094-.625 1.371094-1.277343 2.710937-.828124 12.386719 4.148437 25.351563 6.261718 38.53125 6.273437h.113282c28.734375 0 56.644531-10.261719 78.59375-28.902344 3.15625-2.683593 3.546875-7.414062.863281-10.570312-2.679687-3.160157-7.414063-3.546875-10.570313-.863281-19.246093 16.339843-43.703124 25.335937-68.886718 25.335937-.03125 0-.066406 0-.101563 0-11.5625-.011719-22.925781-1.859375-33.78125-5.496094-7.039062-2.363281-14.589843-.113281-19.222656 5.726563-4.640625 5.851562-5.113281 13.722656-1.203125 20.058594 17.433594 28.242187 45.34375 49.117187 77.136719 57.886718-.734375 2.9375-1.332031 5.929688-1.746094 8.984375-13.867187 2.375-25.972656 10.644531-33.277344 22.757813h-50.992187c-10.097656 0-18.308594 8.210937-18.308594 18.308594 0 10.09375 8.210938 18.308593 18.308594 18.308593h45.398437c.636719 2.609375 1.484375 5.160157 2.542969 7.625h-14.8125c-10.09375 0-18.308594 8.214844-18.308594 18.308594 0 10.097656 8.214844 18.308594 18.308594 18.308594h272.183594c11.199218 0 20.308594 9.109375 20.308594 20.308593 0 11.195313-9.109376 20.304688-20.308594 20.304688-11.195313 0-20.304688-9.109375-20.304688-20.304688 0-10.097656-8.214844-18.308593-18.308594-18.308593-10.097656 0-18.308593 8.210937-18.308593 18.308593 0 31.386719 25.535156 56.917969 56.921875 56.917969 31.386718 0 56.921875-25.53125 56.921875-56.917969 0-9.96875-2.582031-19.34375-7.105469-27.5h36.769531c35.8125 0 64.949219-29.136718 64.949219-64.949218 0-16.949219-6.496094-32.992188-18.285156-45.164063zm-347.171875 28.003907c3.863281-.132813 6.996093-3.183594 7.230469-7.042969 2.222656-36.769531 32.851562-65.570313 69.722656-65.570313 11.214844 0 21.960937 2.597656 31.6875 7.574219-21.402344 8.1875-36.644532 28.929687-36.644532 53.175781 0 10.09375 8.210938 18.308594 18.308594 18.308594 10.09375 0 18.308594-8.214844 18.308594-18.308594 0-11.199218 9.105469-20.304687 20.304688-20.304687 11.199218 0 20.308593 9.105469 20.308593 20.304687 0 11.195313-9.109375 20.304688-20.308593 20.304688h-150.050782c5.738282-5.105469 13.148438-8.167969 21.132813-8.441406zm-30.347657 45.058593h89.699219c4.144531 0 7.5-3.359375 7.5-7.5s-3.355469-7.5-7.5-7.5h-150.742187c-1.824219 0-3.308594-1.484375-3.308594-3.308593 0-1.824219 1.484375-3.308594 3.308594-3.308594h220.308594c19.464843 0 35.304687-15.835938 35.304687-35.304688s-15.839844-35.308594-35.304687-35.308594c-19.46875 0-35.308594 15.839844-35.308594 35.308594 0 1.824219-1.484375 3.304688-3.308594 3.304688s-3.308594-1.480469-3.308594-3.304688c0-23.117187 18.808594-41.921875 41.921875-41.921875 23.117188 0 41.921875 18.804688 41.921875 41.921875 0 23.113282-18.804687 41.921875-41.921875 41.921875h-36.34375c-4.144531 0-7.5 3.355469-7.5 7.5 0 4.140625 3.355469 7.5 7.5 7.5h36.347657c28.574218 0 52.289062-21.167969 56.3125-48.644531 5.320312 7.476562 8.300781 16.507812 8.300781 25.933594 0 11.292968-4.210938 22.050781-11.855469 30.335937h-208.058594c-1.648437-2.363281-2.980468-4.929687-3.964844-7.625zm244.269532 106.472657c-23.117188 0-41.921875-18.808594-41.921875-41.921876 0-1.824218 1.484375-3.308593 3.308593-3.308593 1.824219 0 3.308594 1.484375 3.308594 3.308593 0 19.46875 15.835938 35.304688 35.304688 35.304688s35.308594-15.835938 35.308594-35.304688-15.839844-35.308593-35.308594-35.308593h-272.183594c-1.824219 0-3.308594-1.484375-3.308594-3.304688 0-1.824219 1.484375-3.308593 3.308594-3.308593h272.183594c23.117187 0 41.921875 18.804687 41.921875 41.921874 0 23.113282-18.804688 41.921876-41.921875 41.921876zm86.585937-84.421876h-48.773437c-10.0625-8.960937-23.308594-14.421874-37.8125-14.421874h-13.667969c5.382813-9.117188 8.277344-19.542969 8.277344-30.339844 0-19.074219-9.101563-36.949219-24.4375-48.195313-6.144531-24.234375-27.875-42.300781-53.847657-42.902343-.15625-.148438-.316406-.292969-.488281-.433594-7.160156-5.695313-15.019531-10.105469-23.355469-13.191406 8.0625-14.542969 19.597657-26.898438 33.667969-35.960938 16.222657-10.449219 35.050781-15.972656 54.441407-15.972656 53.15625 0 97.308593 41.523437 100.515624 94.527344.230469 3.859374 3.363282 6.910156 7.226563 7.039062 27.03125.929688 48.203125 22.851562 48.203125 49.902344 0 27.542968-22.40625 49.949218-49.949219 49.949218zm0 0"/><path d="m390.558594 210.5c-.976563-4.023438-5.03125-6.496094-9.058594-5.519531-4.023438.980469-6.496094 5.035156-5.515625 9.058593 1.015625 4.191407 1.664063 8.515626 1.929687 12.855469.238282 3.976563 3.542969 7.046875 7.476563 7.046875.152344 0 .308594-.007812.460937-.015625 4.136719-.25 7.285157-3.804687 7.035157-7.9375-.316407-5.226562-1.101563-10.4375-2.328125-15.488281zm0 0"/><path d="m381.976562 188.570312c-11.789062-21.1875-31.988281-36.773437-55.417968-42.753906-4.015625-1.023437-8.097656 1.394532-9.121094 5.410156-1.027344 4.011719 1.394531 8.097657 5.410156 9.125 19.453125 4.964844 36.226563 17.910157 46.019532 35.511719 1.371093 2.464844 3.925781 3.855469 6.5625 3.855469 1.230468 0 2.484374-.304688 3.640624-.945312 3.617188-2.015626 4.917969-6.582032 2.90625-10.203126zm0 0"/><path d="m208.953125 360.648438h-43.8125c-4.140625 0-7.5 3.359374-7.5 7.5 0 4.140624 3.359375 7.5 7.5 7.5h43.8125c23.113281 0 41.921875 18.804687 41.921875 41.921874 0 23.117188-18.808594 41.921876-41.921875 41.921876-23.117187 0-41.921875-18.804688-41.921875-41.921876 0-1.824218 1.480469-3.308593 3.304688-3.308593 1.828124 0 3.308593 1.484375 3.308593 3.308593 0 19.46875 15.839844 35.304688 35.308594 35.304688s35.308594-15.835938 35.308594-35.304688-15.839844-35.304687-35.308594-35.304687h-126.742187c-1.820313 0-3.304688-1.484375-3.304688-3.308594s1.480469-3.308593 3.304688-3.308593h48.945312c4.144531 0 7.5-3.359376 7.5-7.5 0-4.140626-3.355469-7.5-7.5-7.5h-48.945312c-10.09375 0-18.304688 8.214843-18.304688 18.308593s8.210938 18.308594 18.304688 18.308594h126.742187c11.195313 0 20.308594 9.109375 20.308594 20.304687 0 11.199219-9.109375 20.304688-20.308594 20.304688s-20.308594-9.105469-20.308594-20.304688c0-10.09375-8.210937-18.308593-18.308593-18.308593-10.09375 0-18.304688 8.214843-18.304688 18.308593 0 31.386719 25.535156 56.921876 56.921875 56.921876s56.921875-25.535157 56.921875-56.921876c0-31.386718-25.535156-56.921874-56.921875-56.921874zm0 0"/><path d="m103.089844 418.75c-2.929688-2.929688-7.679688-2.929688-10.609375 0l-71.101563 71.101562c-2.929687 2.929688-2.929687 7.679688 0 10.605469 1.464844 1.464844 3.382813 2.199219 5.304688 2.199219 1.917968 0 3.839844-.734375 5.304687-2.199219l71.101563-71.101562c2.929687-2.929688 2.929687-7.675781 0-10.605469zm0 0"/><path d="m114.617188 440.886719-36.875 36.871093c-2.925782 2.929688-2.925782 7.679688 0 10.605469 1.464843 1.464844 3.386718 2.199219 5.304687 2.199219 1.921875 0 3.839844-.734375 5.304687-2.199219l36.875-36.871093c2.925782-2.929688 2.925782-7.679688 0-10.605469-2.933593-2.929688-7.679687-2.929688-10.609374 0zm0 0"/><path d="m436.472656 369.328125-129.867187 129.867187c-2.929688 2.929688-2.929688 7.679688 0 10.605469 1.464843 1.464844 3.386719 2.199219 5.304687 2.199219 1.917969 0 3.839844-.730469 5.304688-2.199219l129.867187-129.867187c2.929688-2.929688 2.929688-7.675782 0-10.605469-2.929687-2.929687-7.679687-2.929687-10.609375 0zm0 0"/><path d="m408.492188 440.886719-16.269532 16.269531c-2.929687 2.929688-2.929687 7.675781 0 10.605469 1.464844 1.464843 3.386719 2.195312 5.304688 2.195312 1.917968 0 3.839844-.730469 5.304687-2.195312l16.269531-16.269531c2.929688-2.929688 2.929688-7.679688 0-10.605469-2.929687-2.929688-7.679687-2.929688-10.609374 0zm0 0"/><path d="m307.964844 440.886719c-2.929688-2.929688-7.679688-2.929688-10.609375 0l-16.269531 16.269531c-2.929688 2.929688-2.929688 7.675781 0 10.605469 1.464843 1.464843 3.386718 2.195312 5.304687 2.195312s3.839844-.730469 5.304687-2.195312l16.269532-16.269531c2.929687-2.929688 2.929687-7.675782 0-10.605469zm0 0"/><path d="m159.839844 481.71875-16.269532 16.269531c-2.929687 2.929688-2.929687 7.675781 0 10.605469 1.464844 1.464844 3.382813 2.195312 5.304688 2.195312 1.917969 0 3.835938-.730468 5.304688-2.195312l16.269531-16.269531c2.925781-2.929688 2.925781-7.679688 0-10.605469-2.929688-2.929688-7.679688-2.929688-10.609375 0zm0 0"/></svg>