<svg height="511pt" viewBox="1 -14 511.999 511" width="511pt" xmlns="http://www.w3.org/2000/svg"><path d="m464.59375 343.714844-196.226562 131.304687c-5.5625 3.722657-11.433594 1.761719-14.664063-2.289062-3.152344-3.964844-3.800781-9.921875.832031-14.554688l96.644532-96.644531h-64.25c-9.746094 0-14.640626-11.792969-7.742188-18.695312l103.390625-103.378907h92.332031l-84.207031 84.207031h67.800781c10.820313-.003906 15.082032 14.027344 6.089844 20.050782zm0 0" fill="#f6cb43"/><path d="m464.59375 343.714844-196.226562 131.304687c-5.5625 3.722657-11.433594 1.761719-14.664063-2.289062l162.320313-129.730469h-64.382813c-9.753906 0-14.640625-11.792969-7.742187-18.691406l84.839843-84.851563h46.171875l-84.207031 84.203125h67.800781c10.820313 0 15.082032 14.03125 6.089844 20.054688zm0 0" fill="#fab03c"/><path d="m120.066406 122.839844c3.914063-64.660156 57.582032-115.890625 123.222656-115.890625 52.945313 0 98.09375 33.324219 115.640626 80.140625 45.589843.550781 82.382812 37.660156 82.382812 83.378906 0 46.066406-37.339844 83.40625-83.40625 83.40625-19.28125 0-215.738281 0-235.550781 0-36.203125 0-65.546875-29.34375-65.546875-65.546875 0-35.433594 28.121094-64.28125 63.257812-65.488281zm0 0" fill="#a09d9c"/><path d="m441.3125 170.46875c0 43.855469-33.851562 79.816406-76.871094 83.15625 10.699219-14.015625 17.042969-31.53125 17.042969-50.515625 0-45.722656-36.796875-82.828125-82.386719-83.386719-17.542968-46.8125-62.695312-80.132812-115.640625-80.132812-9.222656 0-18.214843 1.011718-26.859375 2.933594 22.285156-22 52.894532-35.574219 86.6875-35.574219 52.945313 0 98.097656 33.324219 115.640625 80.140625 45.597657.550781 82.386719 37.65625 82.386719 83.378906zm0 0" fill="#82807f"/><path d="m459.277344 160.195312c-2.800782-46.226562-41.167969-82.851562-88.097656-82.851562-37.847657 0-70.128907 23.824219-82.671876 57.292969-32.59375.394531-58.898437 26.921875-58.898437 59.609375 0 32.933594 26.695313 59.628906 59.628906 59.628906h168.402344c25.878906 0 46.859375-20.980469 46.859375-46.859375 0-25.332031-20.101562-45.957031-45.222656-46.820313zm0 0" fill="#f0f5f7"/><path d="m504.5 207.015625c0 25.679687-20.660156 46.53125-46.261719 46.851563 4.175781-7.011719 6.585938-15.214844 6.585938-23.964844 0-25.332032-20.105469-45.953125-45.222657-46.820313-2.792968-46.222656-41.167968-82.855469-88.09375-82.855469-7.847656 0-15.464843 1.019532-22.703124 2.953126 15.953124-15.960938 38.007812-25.839844 62.378906-25.839844 46.925781 0 85.292968 36.632812 88.09375 82.855468 25.121094.867188 45.222656 21.492188 45.222656 46.820313zm0 0" fill="#dde9ed"/><g fill="#a0ecff"><path d="m237.636719 219.371094h-219.375c-5.945313 0-10.761719-4.820313-10.761719-10.761719 0-5.945313 4.816406-10.765625 10.761719-10.765625h219.375c15.265625 0 27.6875-12.417969 27.6875-27.6875 0-15.265625-12.421875-27.6875-27.6875-27.6875-15.269531 0-27.691407 12.421875-27.691407 27.6875 0 5.945312-4.816406 10.761719-10.761718 10.761719-5.941406 0-10.761719-4.816407-10.761719-10.761719 0-27.136719 22.078125-49.210938 49.214844-49.210938 27.132812 0 49.210937 22.074219 49.210937 49.210938s-22.074218 49.214844-49.210937 49.214844zm0 0"/><path d="m207.601562 284.660156h-126.203124c-5.945313 0-10.761719 4.816406-10.761719 10.761719 0 5.941406 4.816406 10.761719 10.761719 10.761719h126.203124c15.265626 0 27.6875 12.421875 27.6875 27.6875 0 15.269531-12.421874 27.6875-27.6875 27.6875-15.269531 0-27.691406-12.417969-27.691406-27.6875 0-5.941406-4.816406-10.761719-10.761718-10.761719-5.941407 0-10.761719 4.816406-10.761719 10.761719 0 27.136718 22.078125 49.210937 49.214843 49.210937 27.132813 0 49.210938-22.074219 49.210938-49.210937 0-27.136719-22.078125-49.210938-49.210938-49.210938zm0 0"/><path d="m322.28125 241.902344h-271.03125c-5.941406 0-10.761719 4.816406-10.761719 10.761718 0 5.945313 4.820313 10.761719 10.761719 10.761719h271.03125c15.269531 0 27.691406 12.421875 27.691406 27.691407 0 15.265624-12.421875 27.6875-27.691406 27.6875-15.265625 0-27.6875-12.421876-27.6875-27.6875 0-5.945313-4.820312-10.761719-10.761719-10.761719-5.945312 0-10.761719 4.816406-10.761719 10.761719 0 27.132812 22.074219 49.210937 49.210938 49.210937s49.210938-22.078125 49.210938-49.210937c0-27.136719-22.074219-49.214844-49.210938-49.214844zm0 0"/></g><path d="m153.164062 53.546875c2 0 4-.796875 5.476563-2.375 18.226563-19.46875 42.742187-32.140625 69.03125-35.679687 4.101563-.550782 6.984375-4.328126 6.429687-8.433594-.550781-4.105469-4.332031-6.9843752-8.433593-6.433594-29.699219 4-57.394531 18.308594-77.976563 40.292969-2.832031 3.023437-2.675781 7.769531.347656 10.601562 1.445313 1.355469 3.289063 2.027344 5.125 2.027344zm0 0"/><path d="m466.15625 153.324219c-6.058594-47.304688-46.59375-83.480469-94.976562-83.480469-3.835938 0-7.640626.242188-11.394532.699219-19.71875-38.371094-56.625-64.417969-99.488281-69.980469-4.109375-.53125-7.871094 2.363281-8.402344 6.472656-.535156 4.105469 2.363281 7.871094 6.46875 8.402344 36.550781 4.746094 68.207031 26.320312 86.09375 58.265625-26.917969 7.898437-49.648437 27.421875-61.101562 53.683594-2.472657.214843-4.925781.574219-7.347657 1.058593-10.105468-9.304687-23.585937-15-38.371093-15-31.273438 0-56.714844 25.441407-56.714844 56.714844 0 10.066406 8.191406 18.261719 18.261719 18.261719 10.070312 0 18.261718-8.191406 18.261718-18.261719 0-11.132812 9.058594-20.191406 20.191407-20.191406.375 0 .742187.039062 1.109375.058594-9.820313 11.1875-15.65625 25.316406-16.519532 40.320312h-157.855468c-.023438-.675781-.0625-1.347656-.0625-2.019531 0-31.4375 24.605468-56.914063 56.015625-57.992187 3.863281-.132813 6.992187-3.183594 7.226562-7.042969 1-16.46875 5.386719-32.203125 13.046875-46.769531 1.929688-3.667969.519532-8.203126-3.144531-10.128907-3.667969-1.929687-8.199219-.519531-10.128906 3.144531-7.644531 14.535157-12.402344 30.089844-14.191407 46.335938-16.429687 2.066406-31.597656 9.617188-43.257812 21.65625-13.261719 13.691406-20.566406 31.730469-20.566406 50.796875 0 .671875.011718 1.34375.03125 2.019531h-31.078125c-10.070313 0-18.261719 8.191406-18.261719 18.261719s8.191406 18.261719 18.261719 18.261719h42.054687c1.636719 2.628906 3.421875 5.148437 5.363282 7.53125h-14.429688c-10.066406 0-18.261719 8.191406-18.261719 18.261718 0 10.070313 8.191407 18.261719 18.261719 18.261719h271.03125c5.066406 0 9.6875 1.890625 13.238281 4.980469l-28.445312 28.445312c-3.09375-3.546874-4.980469-8.171874-4.980469-13.234374 0-10.070313-8.191406-18.261719-18.261719-18.261719-10.070312 0-18.261719 8.191406-18.261719 18.261719 0 15.132812 5.96875 28.890624 15.664063 39.074218l-7.347656 7.347656c-5.292969 5.292969-6.863281 13.1875-4 20.105469 2.867187 6.921875 9.558593 11.390625 17.046875 11.390625h46.136718l-83.835937 83.835938c-6.855469 6.855468-7.363281 17.265625-1.210937 24.757812 3.6875 4.488282 8.863281 6.835938 14.15625 6.835938 3.542968 0 7.132812-1.050782 10.363281-3.210938l119.566406-80.011718c3.441406-2.304688 4.363281-6.960938 2.0625-10.40625-2.304687-3.441407-6.964844-4.363282-10.40625-2.0625l-119.566406 80.011718c-2.148438 1.441406-3.679688.425782-4.585938-.675781-.90625-1.105469-1.601562-2.804687.226563-4.632813l96.640625-96.640624c2.144531-2.144532 2.785156-5.371094 1.625-8.171876-1.160157-2.804687-3.894531-4.628906-6.929688-4.628906h-64.242187c-2.082032 0-2.921875-1.492187-3.1875-2.132812s-.722656-2.289063.75-3.757813l8.488281-8.492187c8.554687 5.183594 18.582031 8.171875 29.296875 8.171875 31.269531 0 56.710938-25.441407 56.710938-56.710938 0-10.902343-3.097657-21.085937-8.449219-29.742187h71.835937l-56.980468 56.984375c-2.144532 2.144531-2.789063 5.371093-1.628907 8.171875 1.164063 2.804687 3.898438 4.628906 6.929688 4.628906h67.800781c2.226562 0 3.023438 1.535156 3.300781 2.449219.277344.914062.46875 2.632812-1.382812 3.871093l-48.980469 32.777344c-3.441406 2.304688-4.363281 6.960938-2.0625 10.40625 1.445312 2.160156 3.820312 3.328125 6.242188 3.328125 1.433593 0 2.882812-.410156 4.164062-1.265625l48.980469-32.777344c6.90625-4.625 9.808593-12.746093 7.394531-20.699218-2.414062-7.949219-9.34375-13.089844-17.65625-13.089844h-49.691406l55.164062-55.164062c27-3.152344 48.027344-26.148438 48.027344-53.980469 0-27.191407-19.660156-49.621094-45.84375-53.6875zm-213.292969 3.617187c3.078125 3.546875 4.960938 8.160156 4.960938 13.214844 0 11.132812-9.058594 20.191406-20.1875 20.191406h-.363281c.945312-12.691406 6.46875-24.523437 15.589843-33.40625zm-237.863281 51.667969c0-1.796875 1.464844-3.261719 3.261719-3.261719h219.375c19.402343 0 35.1875-15.785156 35.1875-35.191406 0-19.402344-15.785157-35.1875-35.1875-35.1875-19.402344 0-35.1875 15.785156-35.1875 35.1875 0 1.800781-1.464844 3.261719-3.261719 3.261719-1.800781 0-3.261719-1.460938-3.261719-3.261719 0-23 18.710938-41.710938 41.710938-41.710938s41.710937 18.710938 41.710937 41.710938-18.710937 41.714844-41.710937 41.714844h-219.375c-1.796875 0-3.261719-1.464844-3.261719-3.261719zm71.894531 25.679687c-2.890625-2.238281-5.542969-4.71875-7.941406-7.417968h151.625c1.464844 2.625 3.082031 5.144531 4.867187 7.53125h-148.417968c-.042969-.035156-.085938-.078125-.132813-.113282zm255.578125 56.824219c0 11.132813-9.058594 20.1875-20.191406 20.1875-.304688 0-.601562-.03125-.902344-.042969l21.046875-21.046874c.011719.304687.046875.601562.046875.902343zm-20.191406 41.714844c-23 0-41.710938-18.714844-41.710938-41.714844 0-1.796875 1.460938-3.261719 3.261719-3.261719s3.261719 1.464844 3.261719 3.261719c0 19.40625 15.785156 35.1875 35.1875 35.1875 19.40625 0 35.191406-15.785156 35.191406-35.1875 0-19.402343-15.785156-35.1875-35.191406-35.1875h-271.03125c-1.796875 0-3.261719-1.464843-3.261719-3.261719 0-1.800781 1.464844-3.261718 3.261719-3.261718h271.03125c23 0 41.710938 18.710937 41.710938 41.710937s-18.710938 41.714844-41.710938 41.714844zm135.359375-86.453125h-100.570313c-9.613281-7.492188-21.683593-11.972656-34.789062-11.972656h-66.285156c-.003906-.003906-.003906-.003906-.007813-.007813-3.046875-2.527343-5.757812-5.363281-8.136719-8.464843 26.410157-4.828126 46.496094-27.988282 46.496094-55.773438 0-10.164062-2.699218-19.699219-7.402344-27.960938.550782-.023437 1.101563-.054687 1.652344-.0625 3.09375-.035156 5.847656-1.96875 6.933594-4.863281 11.75-31.359375 42.152344-52.429687 75.648438-52.429687 42.628906 0 78.039062 33.300781 80.609374 75.808594.234376 3.859374 3.363282 6.910156 7.230469 7.039062 21.296875.734375 37.980469 18.007812 37.980469 39.328125 0 21.703125-17.65625 39.359375-39.359375 39.359375zm0 0"/><path d="m435.78125 153.125c-.78125-4.066406-4.710938-6.734375-8.777344-5.953125-4.070312.78125-6.734375 4.714844-5.953125 8.78125.410157 2.132813.683594 4.320313.816407 6.503906.242187 3.980469 3.542968 7.046875 7.480468 7.046875.148438 0 .304688-.003906.457032-.015625 4.132812-.25 7.285156-3.800781 7.035156-7.9375-.171875-2.824219-.527344-5.660156-1.058594-8.425781zm0 0"/><path d="m425.242188 142.519531c3.566406-2.105469 4.75-6.707031 2.648437-10.273437-5.773437-9.777344-14.027344-17.953125-23.871094-23.636719-3.589843-2.070313-8.175781-.84375-10.246093 2.746094-2.074219 3.585937-.84375 8.171875 2.742187 10.246093 7.613281 4.394532 13.996094 10.710938 18.453125 18.269532 1.398438 2.371094 3.898438 3.6875 6.46875 3.6875 1.292969 0 2.605469-.335938 3.804688-1.039063zm0 0"/><path d="m264.3125 333.871094c0-31.269532-25.441406-56.710938-56.710938-56.710938h-126.203124c-10.070313 0-18.261719 8.191406-18.261719 18.261719s8.191406 18.261719 18.261719 18.261719h126.203124c11.128907 0 20.1875 9.058594 20.1875 20.1875 0 11.132812-9.058593 20.191406-20.1875 20.191406-11.132812 0-20.191406-9.058594-20.191406-20.191406 0-10.066406-8.191406-18.261719-18.261718-18.261719-10.070313 0-18.261719 8.191406-18.261719 18.261719 0 31.273437 25.441406 56.714844 56.710937 56.714844 31.273438 0 56.714844-25.441407 56.714844-56.714844zm-56.710938 41.710937c-23 0-41.710937-18.710937-41.710937-41.710937 0-1.796875 1.460937-3.261719 3.261719-3.261719 1.796875 0 3.261718 1.460937 3.261718 3.261719 0 19.402344 15.785157 35.1875 35.1875 35.1875 19.402344 0 35.1875-15.785156 35.1875-35.1875s-15.785156-35.1875-35.1875-35.1875h-126.203124c-1.800782 0-3.261719-1.464844-3.261719-3.265625 0-1.796875 1.460937-3.261719 3.261719-3.261719h126.203124c23 0 41.710938 18.714844 41.710938 41.714844s-18.710938 41.710937-41.710938 41.710937zm0 0"/><path d="m185.175781 432.835938h-12.113281l7.804688-7.808594c2.929687-2.925782 2.929687-7.675782 0-10.605469-2.925782-2.929687-7.675782-2.929687-10.605469 0l-20.609375 20.609375c-2.144532 2.144531-2.785156 5.371094-1.625 8.175781 1.160156 2.800781 3.894531 4.628907 6.929687 4.628907h12.113281l-17.417968 17.417968c-2.929688 2.929688-2.929688 7.675782 0 10.605469 1.464844 1.464844 3.382812 2.195313 5.300781 2.195313 1.921875 0 3.839844-.730469 5.304687-2.195313l30.21875-30.21875c2.144532-2.148437 2.789063-5.371094 1.628907-8.175781-1.164063-2.800782-3.898438-4.628906-6.929688-4.628906zm0 0"/><path d="m471.535156 414.089844h-12.113281l7.804687-7.808594c2.929688-2.929688 2.929688-7.675781 0-10.605469-2.925781-2.929687-7.675781-2.929687-10.605468 0l-20.609375 20.609375c-2.144531 2.144532-2.789063 5.371094-1.625 8.171875 1.160156 2.804688 3.894531 4.632813 6.925781 4.632813h12.117188l-17.417969 17.414062c-2.929688 2.929688-2.929688 7.679688 0 10.609375 1.464843 1.460938 3.382812 2.195313 5.300781 2.195313 1.921875 0 3.839844-.730469 5.304688-2.195313l30.21875-30.222656c2.144531-2.144531 2.789062-5.371094 1.628906-8.171875-1.164063-2.804688-3.898438-4.628906-6.929688-4.628906zm0 0"/><path d="m112.730469 341.480469-42.378907 42.378906c-2.144531 2.144531-2.789062 5.371094-1.625 8.171875 1.160157 2.804688 3.894532 4.632812 6.925782 4.632812h12.113281l-17.414063 17.414063c-2.929687 2.929687-2.929687 7.679687 0 10.609375 1.460938 1.460938 3.382813 2.195312 5.300782 2.195312 1.917968 0 3.839844-.730468 5.304687-2.195312l30.21875-30.222656c2.144531-2.144532 2.789063-5.371094 1.625-8.171875-1.160156-2.804688-3.894531-4.628907-6.929687-4.628907h-12.109375l29.574219-29.578124c2.929687-2.929688 2.929687-7.675782 0-10.605469-2.929688-2.929688-7.679688-2.929688-10.605469 0zm0 0"/></svg>