<svg height="512pt" viewBox="0 -23 512 512" width="512pt" xmlns="http://www.w3.org/2000/svg"><path d="m112.554688 177.351562c3.992187-65.921874 58.707031-118.152343 125.632812-118.152343 53.976562 0 100.011719 33.976562 117.898438 81.703125 46.480468.5625 83.992187 38.398437 83.992187 85.007812 0 46.964844-38.070313 85.035156-85.035156 85.035156-19.65625 0-219.953125 0-240.152344 0-36.910156 0-66.828125-29.917968-66.828125-66.824218 0-36.125 28.667969-65.535156 64.492188-66.769532zm0 0" fill="#6d6d6d"/><path d="m440.078125 225.914062c0 44.710938-34.511719 81.371094-78.371094 84.777344 10.90625-14.289062 17.375-32.144531 17.375-51.503906 0-46.613281-37.515625-84.445312-83.996093-85.015625-17.882813-47.722656-63.921876-81.695313-117.898438-81.695313-9.402344 0-18.570312 1.03125-27.386719 2.992188 22.726563-22.429688 53.929688-36.269531 88.382813-36.269531 53.980468 0 100.015625 33.972656 117.902344 81.707031 46.484374.5625 83.992187 38.390625 83.992187 85.007812zm0 0" fill="#565656"/><path d="m458.390625 215.4375c-2.851563-47.128906-41.96875-84.472656-89.816406-84.472656-38.585938 0-71.5 24.292968-84.289063 58.414062-33.226562.402344-60.046875 27.449219-60.046875 60.773438 0 33.574218 27.21875 60.792968 60.792969 60.792968h171.691406c26.386719 0 47.777344-21.390624 47.777344-47.773437 0-25.828125-20.496094-46.855469-46.109375-47.734375zm0 0" fill="#a09d9c"/><path d="m504.5 263.175781c0 26.179688-21.066406 47.4375-47.164062 47.761719 4.257812-7.144531 6.710937-15.507812 6.710937-24.429688 0-25.828124-20.496094-46.851562-46.105469-47.734374-2.84375-47.128907-41.972656-84.476563-89.8125-84.476563-8 0-15.765625 1.039063-23.148437 3.011719 16.265625-16.273438 38.753906-26.34375 63.597656-26.34375 47.84375 0 86.960937 37.347656 89.816406 84.472656 25.609375.886719 46.105469 21.910156 46.105469 47.738281zm0 0" fill="#82807f"/><path d="m421.097656 375.148438c0 10.765624 8.726563 19.492187 19.496094 19.492187 10.765625 0 19.492188-8.726563 19.492188-19.492187 0-7.066407-8.394532-20.929688-14.167969-29.628907-2.527344-3.816406-8.121094-3.816406-10.652344 0-5.773437 8.699219-14.167969 22.5625-14.167969 29.628907zm0 0" fill="#a0ecff"/><path d="m421.101562 375.148438c0 10.761718 8.722657 19.492187 19.492188 19.492187 2.699219 0 5.269531-.550781 7.609375-1.539063-6.988281-2.960937-11.886719-9.886718-11.886719-17.953124 0-6.175782 6.414063-17.550782 11.882813-26.128907-.785157-1.230469-1.546875-2.398437-2.269531-3.488281-2.53125-3.820312-8.128907-3.832031-10.660157-.011719-5.773437 8.695313-14.167969 22.5625-14.167969 29.628907zm0 0" fill="#60daff"/><path d="m333.140625 375.148438c0 10.765624 8.726563 19.492187 19.492187 19.492187 10.765626 0 19.496094-8.726563 19.496094-19.492187 0-7.066407-8.398437-20.929688-14.167968-29.628907-2.53125-3.816406-8.125-3.816406-10.652344 0-5.773438 8.699219-14.167969 22.5625-14.167969 29.628907zm0 0" fill="#a0ecff"/><path d="m333.144531 375.148438c0 10.761718 8.722657 19.492187 19.492188 19.492187 2.699219 0 5.265625-.550781 7.609375-1.539063-6.992188-2.960937-11.890625-9.886718-11.890625-17.953124 0-6.175782 6.414062-17.550782 11.882812-26.128907-.78125-1.230469-1.546875-2.398437-2.269531-3.488281-2.53125-3.820312-8.128906-3.832031-10.660156-.011719-5.773438 8.695313-14.164063 22.5625-14.164063 29.628907zm0 0" fill="#60daff"/><path d="m377.121094 439.164062c0 10.765626 8.726562 19.492188 19.492187 19.492188s19.492188-8.726562 19.492188-19.492188c0-7.066406-8.394531-20.929687-14.164063-29.628906-2.53125-3.8125-8.125-3.8125-10.65625 0-5.769531 8.695313-14.164062 22.5625-14.164062 29.628906zm0 0" fill="#a0ecff"/><path d="m377.121094 439.164062c0 10.765626 8.722656 19.492188 19.492187 19.492188 2.699219 0 5.269531-.550781 7.609375-1.539062-6.988281-2.960938-11.886718-9.886719-11.886718-17.953126 0-6.175781 6.414062-17.550781 11.882812-26.128906-.785156-1.226562-1.546875-2.398437-2.269531-3.488281-2.53125-3.820313-8.128907-3.828125-10.660157-.011719-5.773437 8.695313-14.167968 22.5625-14.167968 29.628906zm0 0" fill="#60daff"/><path d="m289.160156 439.164062c0 10.765626 8.730469 19.492188 19.496094 19.492188s19.492188-8.726562 19.492188-19.492188c0-7.066406-8.394532-20.929687-14.167969-29.628906-2.527344-3.8125-8.121094-3.8125-10.652344 0-5.769531 8.695313-14.167969 22.5625-14.167969 29.628906zm0 0" fill="#a0ecff"/><path d="m289.164062 439.164062c0 10.765626 8.722657 19.492188 19.492188 19.492188 2.699219 0 5.269531-.550781 7.609375-1.539062-6.988281-2.960938-11.886719-9.886719-11.886719-17.953126 0-6.175781 6.414063-17.550781 11.882813-26.128906-.785157-1.226562-1.546875-2.398437-2.269531-3.488281-2.53125-3.820313-8.128907-3.828125-10.664063-.011719-5.769531 8.695313-14.164063 22.5625-14.164063 29.628906zm0 0" fill="#60daff"/><path d="m221.09375 114.296875c0 58.980469-47.816406 106.792969-106.796875 106.792969-58.984375 0-106.796875-47.8125-106.796875-106.792969 0-58.984375 47.8125-106.796875 106.796875-106.796875 58.980469 0 106.796875 47.8125 106.796875 106.796875zm0 0" fill="#dde9ed"/><path d="m465.277344 208.558594c-6.121094-48.207032-47.414063-85.089844-96.703125-85.089844-3.9375 0-7.847657.242188-11.714844.707031-10.726563-20.867187-26.75-38.558593-46.554687-51.316406-21.5-13.84375-46.4375-21.164063-72.117188-21.164063-8.957031 0-17.886719.894532-26.601562 2.65625-5.726563-9.300781-12.808594-17.824218-21.105469-25.25-3.085938-2.761718-7.828125-2.496093-10.589844.589844-2.761719 3.085938-2.5 7.828125.589844 10.589844 21.042969 18.828125 33.109375 45.808594 33.109375 74.015625 0 28.851563-12.527344 56.238281-34.375 75.132813-3.136719 2.710937-3.480469 7.445312-.769532 10.578124 1.484376 1.714844 3.574219 2.59375 5.675782 2.59375 1.738281 0 3.484375-.597656 4.902344-1.824218 25.148437-21.746094 39.566406-53.269532 39.566406-86.480469 0-16.007813-3.378906-31.660156-9.703125-46.023437 6.355469-1.042969 12.816406-1.578126 19.300781-1.578126 22.792969 0 44.921875 6.492188 63.992188 18.777344 16.394531 10.554688 29.867187 24.917969 39.332031 41.820313-9.917969 2.863281-19.367188 7.296875-28.023438 13.238281-3.417969 2.34375-4.285156 7.011719-1.941406 10.429688 2.34375 3.414062 7.015625 4.28125 10.429687 1.9375 13.757813-9.441407 29.871094-14.433594 46.597657-14.433594 43.539062 0 79.703125 34.011718 82.332031 77.425781.234375 3.859375 3.363281 6.910156 7.230469 7.042969 21.792969.75 38.863281 18.421875 38.863281 40.238281 0 22.207031-18.066406 40.273437-40.277344 40.273437h-171.6875c-29.386718 0-53.292968-23.90625-53.292968-53.292968 0-29.023438 23.613281-52.921875 52.636718-53.273438 3.09375-.039062 5.847656-1.972656 6.933594-4.867187 2.363281-6.308594 5.539062-12.359375 9.4375-17.980469 2.359375-3.40625 1.515625-8.078125-1.890625-10.4375-3.40625-2.363281-8.078125-1.511719-10.4375 1.890625-3.644531 5.257813-6.761719 10.839844-9.285156 16.644531-34.84375 3.019532-62.394531 32.53125-62.394531 68.023438 0 21.539062 10.03125 40.769531 25.65625 53.292968h-127.507813c-32.714844 0-59.328125-26.613281-59.328125-59.328124 0-9.820313 2.410156-19.371094 6.988281-27.929688 15.546875 7.925781 33.132813 12.402344 51.746094 12.402344 15.324219 0 30.207031-2.988282 44.230469-8.878906 3.820312-1.605469 5.613281-6 4.011718-9.820313-1.605468-3.816406-6.003906-5.613281-9.820312-4.007813-12.175781 5.113282-25.101562 7.707032-38.421875 7.707032-54.753906 0-99.296875-44.542969-99.296875-99.292969 0-54.753906 44.542969-99.296875 99.296875-99.296875 13.941406 0 27.429687 2.835938 40.085937 8.429688 3.789063 1.675781 8.21875-.039063 9.890626-3.828126 1.675781-3.789062-.039063-8.214843-3.828126-9.890624-14.578124-6.445313-30.105468-9.710938-46.148437-9.710938-63.023437 0-114.296875 51.273438-114.296875 114.296875 0 39.046875 19.6875 73.578125 49.652344 94.203125-5.957032 10.886719-9.089844 23.078125-9.089844 35.621094 0 40.984375 33.34375 74.324218 74.328125 74.324218h341.832031c30.480469 0 55.277344-24.796874 55.277344-55.273437 0-27.691406-20.042969-50.523437-46.722656-54.613281zm0 0"/><path d="m419.566406 211.085938c.417969 2.183593.699219 4.421874.832032 6.648437.242187 3.980469 3.542968 7.046875 7.480468 7.046875.148438 0 .304688-.003906.457032-.011719 4.136718-.25 7.285156-3.804687 7.035156-7.9375-.175782-2.871093-.535156-5.757812-1.074219-8.574219-.78125-4.066406-4.710937-6.730468-8.78125-5.953124-4.066406.78125-6.730469 4.710937-5.949219 8.78125zm0 0"/><path d="m401.980469 162.972656c-3.589844-2.074218-8.171875-.84375-10.246094 2.742188-2.070313 3.589844-.839844 8.175781 2.746094 10.246094 7.785156 4.496093 14.308593 10.957031 18.867187 18.683593 1.398438 2.371094 3.898438 3.6875 6.464844 3.6875 1.296875 0 2.609375-.335937 3.804688-1.042969 3.566406-2.105468 4.753906-6.703124 2.648437-10.269531-5.871094-9.949219-14.265625-18.261719-24.285156-24.046875zm0 0"/><path d="m440.589844 335.160156c-4.664063 0-8.992188 2.320313-11.574219 6.210938-15.417969 23.238281-15.417969 31.171875-15.417969 33.777344 0 14.882812 12.109375 26.992187 26.996094 26.992187 14.882812 0 26.992188-12.109375 26.992188-26.992187 0-2.605469 0-10.542969-15.417969-33.777344-2.582031-3.890625-6.910157-6.214844-11.578125-6.210938zm.003906 51.980469c-6.613281 0-11.996094-5.378906-11.996094-11.992187 0-2.167969 2.558594-9.636719 11.996094-24.082032 9.4375 14.445313 11.992188 21.914063 11.992188 24.082032 0 6.613281-5.382813 11.992187-11.992188 11.992187zm0 0"/><path d="m379.628906 375.148438c0-2.609376 0-10.542969-15.417968-33.777344-2.582032-3.890625-6.910157-6.214844-11.578126-6.214844-4.664062 0-8.992187 2.324219-11.574218 6.214844-15.417969 23.234375-15.417969 31.167968-15.417969 33.777344 0 14.882812 12.109375 26.992187 26.992187 26.992187 14.886719 0 26.996094-12.109375 26.996094-26.992187zm-26.996094 11.992187c-6.613281 0-11.992187-5.378906-11.992187-11.992187 0-2.167969 2.554687-9.636719 11.992187-24.082032 9.4375 14.445313 11.996094 21.914063 11.996094 24.082032 0 6.613281-5.382812 11.992187-11.996094 11.992187zm0 0"/><path d="m396.613281 399.175781c-4.667969 0-8.996093 2.320313-11.578125 6.210938-15.414062 23.234375-15.414062 31.167969-15.414062 33.777343 0 14.882813 12.109375 26.992188 26.992187 26.992188 14.882813 0 26.992188-12.109375 26.992188-26.992188 0-2.609374 0-10.542968-15.417969-33.777343-2.578125-3.890625-6.90625-6.210938-11.574219-6.210938zm0 51.980469c-6.613281 0-11.992187-5.378906-11.992187-11.992188 0-2.167968 2.554687-9.636718 11.992187-24.082031 9.4375 14.445313 11.992188 21.914063 11.992188 24.082031 0 6.613282-5.378907 11.992188-11.992188 11.992188zm0 0"/><path d="m308.65625 399.175781c-4.667969 0-8.996094 2.320313-11.578125 6.210938-15.417969 23.234375-15.417969 31.167969-15.417969 33.777343 0 14.882813 12.109375 26.992188 26.992188 26.992188 14.886718 0 26.996094-12.109375 26.996094-26.992188 0-2.609374 0-10.542968-15.417969-33.777343-2.582031-3.890625-6.910157-6.210938-11.574219-6.210938zm-.003906 51.980469c-6.609375 0-11.992188-5.378906-11.992188-11.992188 0-2.167968 2.558594-9.636718 11.992188-24.082031 9.441406 14.445313 11.996094 21.914063 11.996094 24.082031 0 6.613282-5.378907 11.992188-11.996094 11.992188zm0 0"/><path d="m158.855469 67.753906-1.257813 11.527344c-2.339844-1.773438-5.605468-2.082031-8.304687-.519531-3.082031 1.789062-4.410157 5.433593-3.402344 8.699219l-7.96875 4.585937.652344-5.980469c.324219-2.953125-1.128907-5.816406-3.699219-7.304687s-5.773438-1.320313-8.175781.433593l-4.898438 3.574219v-9.136719c3.347657-.75 5.851563-3.738281 5.851563-7.3125 0-3.097656-1.878906-5.757812-4.558594-6.902343l9.351562-6.824219c3.34375-2.441406 4.078126-7.132812 1.636719-10.476562-2.441406-3.347657-7.132812-4.082032-10.476562-1.640626l-1.84375 1.347657c-.394531-3.773438-3.582031-6.71875-7.460938-6.71875-3.878906 0-7.070312 2.945312-7.457031 6.722656l-1.851562-1.347656c-3.347657-2.441407-8.039063-1.710938-10.480469 1.636719-2.441407 3.347656-1.707031 8.039062 1.636719 10.480468l9.355468 6.824219c-2.683594 1.140625-4.5625 3.800781-4.5625 6.898437 0 3.582032 2.507813 6.570313 5.859375 7.316407v9.140625l-4.90625-3.582032c-2.402343-1.75-5.609375-1.917968-8.179687-.429687-2.570313 1.488281-4.019532 4.351563-3.699219 7.304687l.65625 5.980469-7.972656-4.585937c1.011719-3.265625-.316407-6.914063-3.402344-8.699219-2.695313-1.5625-5.964844-1.253906-8.300781.519531l-1.257813-11.527344c-.449219-4.117187-4.152343-7.097656-8.269531-6.644531-4.117188.449219-7.09375 4.152344-6.644531 8.269531l.242187 2.226563c-3.46875-1.558594-7.625-.265625-9.566406 3.105469-1.925781 3.347656-.976562 7.5625 2.074219 9.792968l-2.039063.894532c-3.792968 1.667968-5.515625 6.089844-3.847656 9.882812 1.234375 2.8125 3.984375 4.484375 6.871094 4.484375 1.007812 0 2.03125-.203125 3.011718-.636719l10.664063-4.683593c-.355469 2.894531 1.003906 5.855469 3.6875 7.40625 1.183594.6875 2.476563 1.011719 3.75 1.011719 2.0625 0 4.070313-.863282 5.507813-2.421876l7.949218 4.574219-5.5 2.414063c-2.722656 1.199218-4.480468 3.890625-4.480468 6.867187 0 2.972657 1.757812 5.667969 4.480468 6.863281l5.5 2.417969-7.9375 4.570313c-2.328125-2.53125-6.175781-3.203125-9.269531-1.410156-2.683594 1.554687-4.042969 4.515624-3.6875 7.410156l-10.664063-4.6875c-3.792968-1.664063-8.214843.058594-9.882812 3.851562-1.667969 3.789063.054688 8.214844 3.847656 9.882813l2.039063.898437c-3.050781 2.226563-4 6.441406-2.074219 9.792969 1.390625 2.410156 3.914062 3.757813 6.507812 3.757813 1.03125 0 2.074219-.222657 3.0625-.667969l-.246093 2.238281c-.445313 4.117188 2.527343 7.816406 6.644531 8.265625.277344.03125.550781.046875.820312.046875 3.777344 0 7.03125-2.847656 7.449219-6.6875l1.257813-11.53125c1.3125.996094 2.914062 1.535156 4.550781 1.535156 1.273437 0 2.566406-.328125 3.75-1.011718 3.085937-1.789063 4.414063-5.433594 3.402344-8.699219l7.972656-4.585938-.65625 5.980469c-.320313 2.953125 1.128906 5.816406 3.699219 7.304688 1.167968.675781 2.464844 1.007812 3.757812 1.007812 1.558594 0 3.109375-.484375 4.421875-1.441406l4.90625-3.578125v9.140625c-3.351562.746094-5.859375 3.734375-5.859375 7.3125 0 3.101562 1.878906 5.757812 4.5625 6.902344l-9.351562 6.824218c-3.347656 2.441406-4.082032 7.132813-1.640625 10.476563 2.441406 3.347656 7.132812 4.082031 10.480469 1.640625l1.851562-1.351563c.386719 3.777344 3.578125 6.722657 7.460938 6.722657 3.878906 0 7.066406-2.941407 7.457031-6.71875l1.84375 1.347656c1.332031.972656 2.878906 1.441406 4.414062 1.441406 2.3125 0 4.597657-1.066406 6.066407-3.082031 2.4375-3.34375 1.707031-8.035157-1.640626-10.476563l-9.351562-6.824218c2.679688-1.144532 4.558594-3.800782 4.558594-6.902344 0-3.574219-2.503906-6.558594-5.851563-7.3125v-9.136719l4.898438 3.578125c2.398437 1.75 5.605469 1.917969 8.179687.433594 2.570313-1.488282 4.019532-4.355469 3.699219-7.308594l-.652344-5.976562 7.96875 4.585937c-1.011719 3.265625.320313 6.910156 3.402344 8.695313 1.183594.6875 2.476563 1.011718 3.753906 1.011718 1.632813 0 3.234375-.535156 4.546875-1.535156l1.257813 11.53125c.417969 3.84375 3.667969 6.6875 7.449219 6.6875.269531 0 .542968-.015625.820312-.042969 4.117188-.449219 7.09375-4.152343 6.644531-8.269531l-.246093-2.238281c.988281.445312 2.027343.671875 3.058593.671875 2.597657 0 5.121094-1.351563 6.507813-3.761719 1.929687-3.351563.980468-7.566406-2.074219-9.792969l2.042969-.898437c3.792968-1.667969 5.515625-6.089844 3.847656-9.882813-1.664062-3.792968-6.089844-5.511718-9.882812-3.847656l-10.664063 4.683594c.355469-2.894532-1.003906-5.851563-3.683594-7.410156-3.097656-1.792969-6.945312-1.117188-9.273437 1.410156l-7.9375-4.566406 5.5-2.417969c2.722656-1.195313 4.480468-3.890625 4.480468-6.867188 0-2.972656-1.757812-5.667969-4.480468-6.863281l-5.5-2.417969 7.949218-4.574219c1.4375 1.5625 3.445313 2.425782 5.507813 2.425782 1.273437 0 2.566406-.324219 3.753906-1.011719 2.679688-1.554687 4.039063-4.515625 3.683594-7.410156l10.664063 4.6875c.980468.429687 2.003906.636719 3.011718.636719 2.886719 0 5.636719-1.675782 6.871094-4.488282 1.667969-3.789062-.054688-8.214844-3.847656-9.882812l-2.039063-.894532c3.050781-2.226562 4-6.441406 2.070313-9.789062-1.9375-3.371094-6.09375-4.664062-9.5625-3.105469l.242187-2.226562c.449219-4.117188-2.527343-7.820313-6.644531-8.269531-4.121094-.457032-7.820312 2.519531-8.269531 6.636718zm-40.136719 57.25c-.023438-.015625-.050781-.027344-.074219-.042968-.285156-.203126-.585937-.386719-.898437-.550782-.054688-.027344-.109375-.050781-.164063-.078125-.296875-.144531-.601562-.273437-.917969-.378906-.03125-.011719-.0625-.023437-.09375-.035156-.320312-.101563-.648437-.175781-.984374-.234375-.09375-.015625-.183594-.027344-.277344-.039063-.296875-.042969-.601563-.070312-.910156-.074219-.035157 0-.070313-.007812-.101563-.007812-.039063 0-.078125.007812-.113281.011719-.300782.003906-.59375.027343-.882813.066406-.105469.015625-.207031.03125-.308593.046875-.320313.058594-.640626.128906-.945313.226562-.0625.019532-.121094.046876-.183594.066407-.273437.09375-.539062.203125-.796875.328125-.082031.039062-.167968.078125-.25.121094-.285156.148437-.558594.320312-.824218.503906-.035157.027344-.078126.046875-.113282.074218l-3.109375 2.265626.414063-3.777344c.003906-.035156 0-.070313.003906-.105469.03125-.339844.042969-.679687.027344-1.023437 0-.074219-.011719-.144532-.015625-.21875-.019531-.316407-.0625-.632813-.125-.949219-.007813-.039063-.011719-.082031-.019531-.121094-.074219-.324219-.171876-.648437-.289063-.964844-.035156-.089843-.066406-.175781-.101563-.261719-.121093-.292968-.257812-.582031-.417968-.867187-.027344-.046875-.054688-.09375-.085938-.140625-.15625-.265625-.328125-.515625-.511718-.75-.058594-.074219-.117188-.148438-.179688-.222656-.214844-.257813-.441406-.5-.683594-.722656-.042968-.039063-.089844-.074219-.132812-.113282-.230469-.199218-.472656-.382812-.722656-.554687-.0625-.042969-.125-.085938-.1875-.128907-.285157-.179687-.582032-.335937-.886719-.476562-.039063-.019531-.070313-.042969-.109375-.058594l-3.457032-1.519531 3.457032-1.519531c.070312-.03125.132812-.074219.203125-.109375.242187-.113281.476562-.238281.703125-.378907.109375-.066406.214844-.136718.320312-.210937.203125-.136719.398438-.289063.589844-.449219.09375-.082031.191406-.160156.285156-.246094.183594-.175781.359375-.363281.527344-.558593.074219-.085938.15625-.164063.226562-.253907.191407-.242187.363282-.5.527344-.769531.03125-.050781.070313-.097656.101563-.148437.171875-.300782.3125-.609375.4375-.921875.03125-.078125.0625-.15625.09375-.238281.121093-.320313.222656-.648438.292969-.980469.007812-.035157.011718-.070313.019531-.105469.0625-.320312.105469-.640625.125-.964844.007812-.070312.015625-.136718.015625-.210937.015625-.339844.003906-.683594-.027344-1.023438-.003906-.035156 0-.070312-.003906-.109375l-.414063-3.777344 3.109375 2.269532c.027344.019531.058594.03125.089844.054687.277344.199219.570312.375.875.535157.058594.03125.121094.058593.183594.089843.289062.140625.589844.265625.902344.371094.035156.007813.0625.023437.09375.035156.328124.101563.664062.179688 1.007812.238281.074219.011719.152344.023438.230469.035157.335937.046875.679687.078125 1.035156.078125h.003906c.359375 0 .707031-.035156 1.050781-.082032.066407-.007812.132813-.019531.199219-.03125.359375-.058593.707031-.136718 1.042969-.246093.003906 0 .003906 0 .007812-.003907.355469-.113281.695313-.257812 1.023438-.421874.035156-.015626.066406-.027344.101562-.046876.328126-.167968.644532-.363281.945313-.578124.015625-.011719.03125-.019532.046875-.03125l3.105469-2.265626-.410157 3.777344c-.003906.027344 0 .050782-.003906.078125-.035156.359375-.046875.71875-.027344 1.085938 0 .042969.003907.085937.007813.132812.023437.363281.066406.722657.144531 1.082031v.011719c.078125.351563.183594.695313.3125 1.035157.019532.0625.042969.117187.066406.175781.128907.324219.273438.644531.453126.957031.191406.332031.40625.636719.640624.929688.050782.066406.113282.128906.171876.191406.183593.21875.378906.425781.582031.617187.082031.078125.167969.144531.25.214844.203125.171875.410156.335937.628906.484375.09375.066406.1875.128906.289063.1875.238281.148438.488281.28125.742187.402344.0625.027344.117187.070312.179687.097656l3.457032 1.515625-3.457032 1.519531c-.03125.011719-.054687.035156-.089843.046875-.316407.144531-.625.308594-.921875.5-.050782.03125-.09375.0625-.140625.09375-.277344.1875-.542969.386719-.792969.609375-.027344.023438-.054688.042969-.082031.066406-.253907.234376-.492188.488282-.714844.757813-.046875.058594-.09375.117187-.140625.175781-.207031.265625-.40625.542969-.578125.84375-.003906.007813-.011719.015625-.015625.023438-.003906.003906-.003906.007812-.007812.007812-.175782.308594-.320313.625-.449219.941406-.023438.066407-.050781.132813-.074219.199219-.125.335938-.230469.675781-.304688 1.019531-.003906.007813-.003906.015626-.003906.027344-.074218.355469-.121094.710938-.144531 1.070313 0 .046875-.007813.089843-.007813.136719-.019531.363281-.007812.726562.027344 1.085937.003906.027344 0 .050781.003906.074219l.410157 3.777344zm0 0"/><path d="m280.796875 336.894531c-.015625 0-.027344 0-.039063 0-4.125 0-7.480468 3.335938-7.5 7.464844l-.011718 2.863281c-.019532 4.140625 3.320312 7.515625 7.464844 7.535156h.035156c4.125 0 7.480468-3.332031 7.5-7.460937l.011718-2.863281c.019532-4.144532-3.320312-7.519532-7.460937-7.539063zm0 0"/><path d="m288.15625 376.4375.011719-2.863281c.019531-4.140625-3.320313-7.515625-7.464844-7.535157-.011719 0-.023437 0-.035156 0-4.125 0-7.480469 3.332032-7.5 7.464844l-.011719 2.863282c-.019531 4.140624 3.320312 7.515624 7.460938 7.535156h.039062c4.125 0 7.480469-3.335938 7.5-7.464844zm0 0"/><path d="m293.839844 367.9375 2.867187.011719h.039063c4.125 0 7.476562-3.332031 7.496094-7.460938.023437-4.144531-3.320313-7.515625-7.460938-7.539062l-2.871094-.011719c-.011718 0-.023437 0-.035156 0-4.125 0-7.480469 3.332031-7.5 7.464844-.019531 4.140625 3.320312 7.515625 7.464844 7.535156zm0 0"/><path d="m267.574219 352.859375-2.867188-.011719c-.011719 0-.023437 0-.035156 0-4.125 0-7.480469 3.332032-7.5 7.464844-.019531 4.140625 3.320313 7.515625 7.464844 7.535156l2.867187.011719h.035156c4.125 0 7.480469-3.332031 7.5-7.460937.019532-4.144532-3.320312-7.515626-7.464843-7.539063zm0 0"/><path d="m108.441406 363.011719h.035156c4.125 0 7.480469-3.335938 7.5-7.464844l.011719-2.863281c.023438-4.140625-3.320312-7.515625-7.460937-7.535156-4.1875-.027344-7.519532 3.320312-7.539063 7.464843l-.011719 2.863281c-.019531 4.140626 3.324219 7.515626 7.464844 7.535157zm0 0"/><path d="m115.898438 381.828125c.023437-4.144531-3.320313-7.515625-7.460938-7.539063-.015625 0-.027344 0-.039062 0-4.125 0-7.476563 3.335938-7.5 7.464844l-.011719 2.863282c-.019531 4.144531 3.320312 7.515624 7.464843 7.535156h.035157c4.125 0 7.480469-3.332032 7.5-7.460938zm0 0"/><path d="m124.511719 361.203125-2.867188-.015625c-.015625 0-.027343 0-.039062 0-4.125 0-7.476563 3.335938-7.5 7.464844-.019531 4.144531 3.324219 7.515625 7.464843 7.535156l2.871094.015625h.035156c4.125 0 7.480469-3.335937 7.5-7.464844.019532-4.140625-3.324218-7.515625-7.464843-7.535156zm0 0"/><path d="m95.308594 361.113281-2.871094-.015625c-.011719 0-.023438 0-.035156 0-4.125 0-7.480469 3.335938-7.5 7.464844-.019532 4.140625 3.324218 7.515625 7.464844 7.535156l2.867187.015625h.039063c4.125 0 7.480468-3.335937 7.5-7.464843.015624-4.140626-3.324219-7.515626-7.464844-7.535157zm0 0"/><path d="m158.0625 337.808594h-.101562c-.011719 0-.023438 0-.035157 0-4.125 0-7.480469 3.335937-7.5 7.464844-.019531 4.140624 3.320313 7.515624 7.464844 7.535156h.101563.035156c4.125 0 7.480468-3.332032 7.5-7.460938.019531-4.144531-3.324219-7.519531-7.464844-7.539062zm0 0"/><path d="m187.792969 363.332031h-.101563c-4.140625 0-7.5 3.359375-7.5 7.5 0 4.144531 3.359375 7.5 7.5 7.5h.101563c4.144531 0 7.5-3.355469 7.5-7.5 0-4.140625-3.355469-7.5-7.5-7.5zm0 0"/><path d="m121.746094 412.519531h-.101563c-.011719 0-.023437 0-.035156 0-4.125 0-7.480469 3.332031-7.5 7.460938-.019531 4.144531 3.320313 7.515625 7.464844 7.539062h.101562.035157c4.125 0 7.480468-3.335937 7.5-7.464843.019531-4.144532-3.320313-7.515626-7.464844-7.535157zm0 0"/><path d="m52.089844 314.246094h-.101563c-.015625 0-.023437 0-.039062 0-4.125 0-7.476563 3.332031-7.5 7.460937-.019531 4.144531 3.324219 7.519531 7.464843 7.539063h.101563.039063c4.125 0 7.476562-3.335938 7.496093-7.464844.019531-4.140625-3.320312-7.515625-7.460937-7.535156zm0 0"/><path d="m419.71875 87.914062h.101562.039063c4.125 0 7.476563-3.332031 7.496094-7.460937.023437-4.144531-3.320313-7.519531-7.460938-7.539063h-.101562c-.015625 0-.023438 0-.039063 0-4.125 0-7.476562 3.335938-7.496094 7.464844-.023437 4.140625 3.320313 7.515625 7.460938 7.535156zm0 0"/><path d="m382.585938 109.410156h.101562.039062c4.125 0 7.476563-3.332031 7.496094-7.460937.019532-4.144531-3.320312-7.519531-7.460937-7.539063h-.101563c-.015625 0-.023437 0-.039062 0-4.125 0-7.476563 3.335938-7.5 7.464844-.015625 4.140625 3.324218 7.515625 7.464844 7.535156zm0 0"/><path d="m209.765625 418.367188h-.101563c-4.140624 0-7.5 3.355468-7.5 7.5 0 4.140624 3.359376 7.5 7.5 7.5h.101563c4.144531 0 7.5-3.359376 7.5-7.5 0-4.144532-3.355469-7.5-7.5-7.5zm0 0"/><path d="m228.234375 339.757812h-.101563c-4.144531 0-7.5 3.359376-7.5 7.5 0 4.144532 3.355469 7.5 7.5 7.5h.101563c4.144531 0 7.5-3.355468 7.5-7.5 0-4.140624-3.355469-7.5-7.5-7.5zm0 0"/><path d="m341.152344 17.863281h.035156c4.125 0 7.480469-3.335937 7.5-7.464843l.015625-2.863282c.019531-4.140625-3.324219-7.5156248-7.464844-7.535156-.011719 0-.023437 0-.039062 0-4.125 0-7.476563 3.335938-7.496094 7.464844l-.015625 2.863281c-.019531 4.140625 3.324219 7.515625 7.464844 7.535156zm0 0"/><path d="m341.148438 29.140625c-.011719 0-.023438 0-.039063 0-4.125 0-7.476563 3.335937-7.496094 7.464844l-.015625 2.863281c-.019531 4.140625 3.324219 7.515625 7.464844 7.535156h.035156c4.125 0 7.480469-3.332031 7.5-7.464844l.015625-2.859374c.019531-4.144532-3.324219-7.519532-7.464843-7.539063zm0 0"/><path d="m354.28125 31.039062 2.867188.015626h.039062c4.125 0 7.476562-3.332032 7.5-7.464844.019531-4.140625-3.324219-7.515625-7.464844-7.535156l-2.867187-.015626c-.015625 0-.027344 0-.039063 0-4.125 0-7.476562 3.335938-7.5 7.464844-.015625 4.144532 3.324219 7.515625 7.464844 7.535156zm0 0"/><path d="m325.078125 30.949219 2.867187.015625h.039063c4.125 0 7.476563-3.332032 7.496094-7.464844.023437-4.140625-3.320313-7.515625-7.460938-7.535156l-2.871093-.015625c-.011719 0-.023438 0-.035157 0-4.125 0-7.480469 3.335937-7.5 7.464843-.019531 4.144532 3.324219 7.515626 7.464844 7.535157zm0 0"/></svg>