<svg height="512pt" viewBox="-57 0 512 512.001" width="512pt" xmlns="http://www.w3.org/2000/svg"><path d="m225.839844 145.496094-47.015625 108.222656h30.730469c9.035156 0 13.964843 10.535156 8.179687 17.472656l-87.621094 105.035156-103.75 124.371094c-7.273437 8.714844-21.316406 1.527344-18.496093-9.46875l49.632812-193.5625h-37.253906c-7.671875 0-12.824219-7.863281-9.769532-14.894531l47.023438-108.210937h-37.253906c-7.671875 0-12.824219-7.859376-9.769532-14.894532l63.292969-145.660156c1.691407-3.890625 5.527344-6.40625 9.769531-6.40625h132.53125c7.671876 0 12.824219 7.863281 9.769532 14.894531l-47.015625 108.210938h37.246093c7.667969-.003907 12.824219 7.859375 9.769532 14.890625zm0 0" fill="#f6cb43"/><path d="m225.839844 145.496094-47.015625 108.222656h30.730469c9.035156 0 13.964843 10.535156 8.179687 17.472656l-87.621094 105.035156 16.96875-66.179687c1.621094-6.324219-3.15625-12.480469-9.6875-12.480469h-24.367187c-7.667969 0-12.824219-7.863281-9.765625-14.894531l40.945312-94.226563c2.867188-6.601562-1.972656-13.984374-9.171875-13.984374h-22.007812c-7.667969 0-12.824219-7.859376-9.765625-14.894532l66.074219-152.066406h46.734374c7.667969 0 12.824219 7.859375 9.769532 14.894531l-47.015625 108.210938h37.246093c7.667969-.003907 12.824219 7.859375 9.769532 14.890625zm0 0" fill="#fab03c"/><path d="m389.84375 223.640625-24.320312 55.980469h15.898437c4.671875 0 7.222656 5.449218 4.230469 9.039062l-126.617188 137.398438 31.730469-123.757813h-19.269531c-3.96875 0-6.632813-4.066406-5.054688-7.703125l24.324219-55.976562h-19.269531c-3.96875 0-6.632813-4.0625-5.054688-7.703125l32.742188-75.347657c.875-2.011718 2.859375-3.3125 5.054687-3.3125h80.554688c3.964843 0 6.632812 4.066407 5.054687 7.703126l-24.320312 55.976562h19.265625c3.964843 0 6.632812 4.066406 5.050781 7.703125zm0 0" fill="#fab03c"/><path d="m389.847656 223.640625-24.320312 55.976563h15.890625c4.679687 0 7.230469 5.449218 4.230469 9.039062l-126.613282 137.40625 18.835938-73.46875 58.917968-63.9375c3-3.589844.449219-9.039062-4.230468-9.039062h-8.265625c-3.597657 0-6.019531-3.691407-4.585938-6.992188l21.28125-48.984375c1.582031-3.640625-1.089843-7.699219-5.058593-7.699219h-11.636719c-3.597657 0-6.019531-3.691406-4.585938-6.992187l21.28125-48.988281c1.582031-3.636719-1.089843-7.707032-5.058593-7.707032h48.859374c3.96875 0 6.636719 4.070313 5.058594 7.707032l-24.320312 55.980468h19.261718c3.96875 0 6.636719 4.058594 5.058594 7.699219zm0 0" fill="#f6cb43"/><path d="m216.070312 123.105469h-25.808593l9.03125-20.789063c1.652343-3.800781-.089844-8.21875-3.890625-9.871094-3.796875-1.648437-8.214844.09375-9.867188 3.890626l-13.589844 31.277343c-1.007812 2.320313-.777343 4.988281.609376 7.101563 1.382812 2.113281 3.742187 3.386718 6.269531 3.386718h37.246093c1.480469 0 2.285157.890626 2.632813 1.425782.351563.53125.847656 1.625.257813 2.980468l-47.015626 108.222657c-1.007812 2.316406-.777343 4.988281.609376 7.101562 1.382812 2.113281 3.742187 3.386719 6.269531 3.386719h30.730469c1.742187 0 2.535156 1.136719 2.855468 1.816406.316406.675782.679688 2.011719-.4375 3.351563l-66.347656 79.539062 8.722656-34.015625c1.351563-5.277344.210938-10.769531-3.128906-15.074218-3.335938-4.300782-8.375-6.769532-13.824219-6.769532h-24.367187c-1.480469 0-2.285156-.894531-2.636719-1.421875-.347656-.53125-.84375-1.625-.253906-2.984375l40.945312-94.226562c2.359375-5.425782 1.828125-11.621094-1.414062-16.570313-3.246094-4.949219-8.71875-7.902343-14.636719-7.902343h-22.003906c-1.480469 0-2.289063-.890626-2.636719-1.421876s-.84375-1.625-.253906-2.984374l64.117187-147.554688h41.816406c1.480469 0 2.285157.890625 2.636719 1.421875.347657.53125.84375 1.625.253907 2.984375l-19.234376 44.273438c-1.652343 3.796874.089844 8.214843 3.890626 9.867187 3.792968 1.648437 8.214843-.09375 9.867187-3.890625l19.234375-44.273438c2.445312-5.628906 1.894531-12.054687-1.46875-17.1875-3.367188-5.132812-9.042969-8.195312-15.179688-8.195312h-132.535156c-7.230468 0-13.761718 4.285156-16.644531 10.917969l-63.292969 145.660156c-2.445312 5.628906-1.894531 12.054687 1.46875 17.183594 3.367188 5.132812 9.042969 8.199219 15.179688 8.199219h25.820312l-15.519531 35.710937c-1.652344 3.796875.089844 8.214844 3.886719 9.867187.972656.421876 1.988281.625 2.984375.625 2.898437 0 5.65625-1.691406 6.882812-4.515624l20.074219-46.199219c1.007812-2.316407.78125-4.988281-.605469-7.101563-1.386719-2.113281-3.742187-3.386718-6.269531-3.386718h-37.253906c-1.480469 0-2.289063-.890626-2.636719-1.421876s-.84375-1.625-.253906-2.984374l63.292969-145.660157c.5-1.148437 1.632812-1.894531 2.886718-1.894531h74.363282l-61.515626 141.578125c-2.449218 5.628906-1.898437 12.050781 1.464844 17.183594 3.367188 5.132812 9.042969 8.199219 15.179688 8.199219h22.007812c1.171875 0 1.8125.707031 2.089844 1.128906.273438.421875.667969 1.289062.203125 2.367187l-40.945313 94.222657c-2.449218 5.632812-1.898437 12.054687 1.46875 17.1875 3.363282 5.132812 9.039063 8.199218 15.175782 8.199218h24.367187c1.066407 0 1.695313.605469 1.976563.964844.28125.363281.710937 1.121094.445312 2.15625l-16.550781 64.539062-102.660156 123.066407c-1.40625 1.683593-3.019531 1.214843-3.855469.785156-.839844-.429687-2.160156-1.464844-1.617188-3.585937l49.632813-193.566407c.574219-2.242187.078125-4.628906-1.339844-6.457031-1.421875-1.832031-3.609375-2.902344-5.925781-2.902344h-37.253906c-1.480469 0-2.289063-.894531-2.636719-1.421875-.347656-.53125-.84375-1.625-.253906-2.984375l12.753906-29.351562c1.652344-3.796875-.089844-8.214844-3.886719-9.867188-3.800781-1.652344-8.21875.089844-9.867187 3.890625l-12.757813 29.347657c-2.445312 5.632812-1.894531 12.054687 1.46875 17.1875 3.367188 5.132812 9.042969 8.199218 15.179688 8.199218h27.589844l-47.234376 184.199219c-2.152343 8.40625 1.585938 16.710937 9.3125 20.664063 2.722657 1.394531 5.59375 2.070312 8.414063 2.070312 5.183594 0 10.195313-2.28125 13.792969-6.597656l191.371094-229.40625c4.5625-5.46875 5.519531-12.871094 2.503906-19.320313-3.019532-6.449219-9.320313-10.457031-16.441406-10.457031h-19.292969l42.457031-97.734375c2.445312-5.628906 1.894531-12.054687-1.472656-17.183594-3.367188-5.132812-9.039063-8.195312-15.175782-8.195312zm0 0"/><path d="m395.671875 214.3125c-2.414063-3.679688-6.480469-5.875-10.878906-5.875h-7.832031l19.761718-45.488281c1.753906-4.035157 1.359375-8.640625-1.054687-12.316407-2.410157-3.679687-6.476563-5.875-10.875-5.875h-80.558594c-5.183594 0-9.863281 3.070313-11.929687 7.824219l-32.742188 75.347657c-1.753906 4.035156-1.355469 8.640624 1.054688 12.320312 2.414062 3.675781 6.480468 5.871094 10.878906 5.871094h7.835937l-19.769531 45.488281c-1.75 4.035156-1.355469 8.640625 1.054688 12.316406 2.414062 3.679688 6.480468 5.875 10.878906 5.875h9.605468l-29.332031 114.394531c-.855469 3.328126.664063 6.8125 3.683594 8.453126 1.128906.613281 2.359375.910156 3.578125.910156 2.042969 0 4.058594-.835938 5.519531-2.417969l65.148438-70.695313c2.804687-3.046874 2.609375-7.789062-.4375-10.597656-3.042969-2.804687-7.789063-2.613281-10.597657.433594l-44.972656 48.800781 10.972656-42.792969 57.640626-62.550781c.082031-.089843.160156-.179687.238281-.273437 3.277343-3.917969 3.96875-9.226563 1.804687-13.851563-2.160156-4.625-6.679687-7.496093-11.789062-7.496093h-4.453125l19.765625-45.492188c1.75-4.03125 1.355468-8.636719-1.054688-12.308594-2.414062-3.679687-6.484375-5.875-10.886718-5.875h-7.824219l19.761719-45.492187c.453124-1.042969.644531-2.128907.613281-3.191407h33.277343l-23.109374 53.1875c-1.007813 2.320313-.78125 4.988282.605468 7.101563 1.386719 2.113281 3.746094 3.386719 6.273438 3.386719h16.230468l-23.109374 53.199218c-1.007813 2.316407-.78125 4.988282.605468 7.101563 1.386719 2.113281 3.742188 3.386719 6.269532 3.386719h11.347656l-36.054688 39.121094c-2.804687 3.046874-2.613281 7.792968.433594 10.597656 3.046875 2.808594 7.789062 2.617187 10.597656-.429688l39.320313-42.667968c.082031-.09375.164062-.183594.242187-.277344 3.269532-3.921875 3.957032-9.226563 1.792969-13.851563-2.164063-4.621093-6.679687-7.492187-11.78125-7.492187h-4.460937l19.761718-45.492188c1.753906-4.035156 1.359375-8.636718-1.050781-12.316406zm-82.84375-8.351562c-1.683594 3.875-1.304687 8.300781 1.015625 11.835937 2.316406 3.53125 6.226562 5.644531 10.449219 5.644531h8.605469l-20.070313 46.195313c-1.683594 3.878906-1.304687 8.300781 1.015625 11.835937 2.316406 3.535156 6.226562 5.644532 10.449219 5.644532h3.71875l-35.480469 38.503906 5.5-21.457032c.578125-2.242187.082031-4.628906-1.335938-6.457031-1.421874-1.832031-3.609374-2.902343-5.925781-2.902343h-16.238281l23.117188-53.191407c1.003906-2.320312.777343-4.988281-.609376-7.101562-1.386718-2.113281-3.742187-3.386719-6.269531-3.386719h-16.238281l31.011719-71.367188h27.363281zm0 0"/></svg>