<svg height="512pt" viewBox="-79 0 512 512" width="512pt" xmlns="http://www.w3.org/2000/svg"><path d="m135.761719 369.953125v-311.226563c0-28.289062-22.9375-51.226562-51.226563-51.226562-28.292968 0-51.230468 22.933594-51.230468 51.226562v311.226563c-15.828126 14.109375-25.804688 34.640625-25.804688 57.511719 0 42.546875 34.488281 77.035156 77.035156 77.035156 42.542969 0 77.03125-34.488281 77.03125-77.035156 0-22.871094-9.976562-43.402344-25.804687-57.511719zm0 0" fill="#a09d9c"/><path d="m126.90625 427.46875c0 23.355469-19.003906 42.371094-42.371094 42.371094-23.367187 0-42.371094-19.015625-42.371094-42.371094 0-12.0625 5.179688-23.589844 14.210938-31.636719l11.59375-10.335937v-326.765625c0-8.898438 7.054688-16.179688 15.863281-16.546875.234375-.019532.46875-.019532.703125-.019532 9.132813 0 16.566406 7.433594 16.566406 16.566407v326.765625l11.589844 10.335937c9.035156 8.046875 14.214844 19.574219 14.214844 31.636719zm0 0" fill="#c4e1e8"/><path d="m101.101562 58.730469v269.652343h-17.269531v-286.199218c.234375-.019532.46875-.019532.703125-.019532 9.132813 0 16.566406 7.433594 16.566406 16.566407zm0 0" fill="#a4d5dd"/><path d="m126.90625 427.46875c0 18.738281-12.234375 34.683594-29.140625 40.25-4.167969 1.375-8.613281 2.121094-13.230469 2.121094-23.367187 0-42.371094-19.015625-42.371094-42.371094 0-12.0625 5.179688-23.589844 14.210938-31.636719l11.59375-10.335937v-67.308594h33.132812v67.308594l11.589844 10.335937c9.035156 8.046875 14.214844 19.574219 14.214844 31.636719zm0 0" fill="#38aaff"/><path d="m126.90625 427.46875c0 18.738281-12.234375 34.683594-29.140625 40.25 7.339844-7.617188 11.867187-17.984375 11.867187-29.382812 0-12.050782-5.179687-23.582032-14.199218-31.636719l-11.605469-10.335938v-78.175781h17.273437v67.308594l11.589844 10.335937c9.035156 8.046875 14.214844 19.574219 14.214844 31.636719zm0 0" fill="#2081f6"/><path d="m282.96875 300.824219c-41.046875 0-74.441406-33.394531-74.441406-74.441407 0-41.046874 33.394531-74.445312 74.441406-74.445312 24.183594 0 46.933594 11.804688 60.859375 31.574219 4.875 6.921875 3.21875 16.484375-3.703125 21.355469-6.917969 4.875-16.480469 3.21875-21.355469-3.703126-8.191406-11.628906-21.574219-18.570312-35.800781-18.570312-11.589844 0-22.558594 4.582031-30.882812 12.90625-8.324219 8.324219-12.90625 19.292969-12.90625 30.882812 0 11.589844 4.582031 22.558594 12.90625 30.882813 8.324218 8.320313 19.292968 12.90625 30.882812 12.90625 13.753906 0 26.878906-6.582031 35.101562-17.609375 5.0625-6.785156 14.664063-8.183594 21.449219-3.121094 6.785157 5.0625 8.183594 14.664063 3.121094 21.449219-13.980469 18.742187-36.289063 29.933594-59.671875 29.933594zm0 0" fill="#60daff"/><path d="m225.945312 135.980469c0 11.023437-8.9375 19.957031-19.960937 19.957031s-19.957031-8.933594-19.957031-19.957031c0-11.023438 8.933594-19.960938 19.957031-19.960938s19.960937 8.9375 19.960937 19.960938zm0 0" fill="#38aaff"/><path d="m67.96875 265.832031c-4.144531 0-7.5 3.355469-7.5 7.5v108.796875l-9.089844 8.101563c-10.621094 9.46875-16.714844 23.039062-16.714844 37.234375 0 27.5 22.371094 49.871094 49.871094 49.871094 27.496094 0 49.867188-22.371094 49.867188-49.871094 0-14.191406-6.089844-27.765625-16.714844-37.234375l-9.089844-8.101563v-35.046875h3.460938c4.144531 0 7.5-3.359375 7.5-7.5 0-4.144531-3.355469-7.5-7.5-7.5h-3.460938v-39.796875h3.460938c4.144531 0 7.5-3.355468 7.5-7.5 0-4.140625-3.355469-7.5-7.5-7.5h-3.460938v-39.792968h3.460938c4.144531 0 7.5-3.359376 7.5-7.5 0-4.144532-3.355469-7.5-7.5-7.5h-3.460938v-39.796876h3.460938c4.144531 0 7.5-3.355468 7.5-7.5 0-4.140624-3.355469-7.5-7.5-7.5h-3.460938v-39.792968h3.460938c4.144531 0 7.5-3.359375 7.5-7.5s-3.355469-7.5-7.5-7.5h-3.460938v-54.175782c0-13.265624-10.792968-24.0625-24.0625-24.0625-13.269531 0-24.066406 10.796876-24.066406 24.0625v181.945313c0 4.140625 3.355469 7.5 7.5 7.5s7.5-3.359375 7.5-7.5v-181.945313c0-4.996093 4.066406-9.0625 9.066406-9.0625 4.996094 0 9.0625 4.066407 9.0625 9.0625v251.960938h-18.128906v-37.355469c0-4.144531-3.355469-7.5-7.5-7.5zm25.628906 59.855469v59.800781c0 2.140625.914063 4.175781 2.511719 5.601563l11.601563 10.339844c7.429687 6.625 11.695312 16.117187 11.695312 26.039062 0 19.226562-15.644531 34.871094-34.871094 34.871094-19.226562 0-34.871094-15.644532-34.871094-34.871094 0-9.921875 4.265626-19.414062 11.695313-26.039062l11.601563-10.339844c1.597656-1.425782 2.507812-3.460938 2.507812-5.601563v-59.800781zm0 0"/><path d="m143.261719 105.332031c0-4.144531-3.355469-7.5-7.5-7.5s-7.5 3.355469-7.5 7.5v264.621094c0 2.140625.914062 4.175781 2.511719 5.597656 14.804687 13.195313 23.292968 32.121094 23.292968 51.917969 0 38.339844-31.191406 69.53125-69.53125 69.53125-16.859375 0-33.128906-6.125-45.816406-17.253906-3.113281-2.730469-7.851562-2.421875-10.582031.695312-2.730469 3.113282-2.421875 7.851563.691406 10.582032 15.421875 13.527343 35.207031 20.976562 55.707031 20.976562 46.609375 0 84.53125-37.921875 84.53125-84.535156 0-22.925782-9.363281-44.886719-25.804687-60.78125zm0 0"/><path d="m15 427.464844c0-19.792969 8.492188-38.71875 23.296875-51.914063 1.597656-1.421875 2.507813-3.460937 2.507813-5.597656v-311.226563c0-24.109374 19.617187-43.726562 43.730468-43.726562 24.109375 0 43.726563 19.617188 43.726563 43.726562v13.945313c0 4.140625 3.355469 7.5 7.5 7.5s7.5-3.359375 7.5-7.5v-13.945313c0-32.382812-26.34375-58.726562-58.726563-58.726562-32.382812 0-58.730468 26.34375-58.730468 58.726562v307.957032c-16.441407 15.894531-25.804688 37.855468-25.804688 60.785156 0 11.9375 2.460938 23.507812 7.316406 34.390625 1.242188 2.792969 3.980469 4.449219 6.851563 4.449219 1.023437 0 2.058593-.210938 3.050781-.652344 3.785156-1.6875 5.484375-6.125 3.796875-9.90625-3.992187-8.949219-6.015625-18.464844-6.015625-28.285156zm0 0"/><path d="m282.96875 190.09375c11.789062 0 22.878906 5.753906 29.667969 15.390625 7.25 10.289063 21.515625 12.765625 31.804687 5.519531 4.988282-3.511718 8.304688-8.753906 9.347656-14.761718 1.042969-6.007813-.316406-12.0625-3.828124-17.046876-15.328126-21.761718-40.371094-34.753906-66.992188-34.753906-45.183594 0-81.941406 36.757813-81.941406 81.941406 0 45.183594 36.757812 81.945313 81.941406 81.945313 25.742188 0 50.296875-12.320313 65.6875-32.953125 7.523438-10.089844 5.4375-24.417969-4.652344-31.945312-10.089844-7.523438-24.417968-5.4375-31.945312 4.652343-6.8125 9.136719-17.6875 14.59375-29.085938 14.59375-9.589844 0-18.671875-3.804687-25.582031-10.710937-6.90625-6.910156-10.710937-15.992188-10.710937-25.582032 0-9.585937 3.804687-18.667968 10.710937-25.578124 6.90625-6.910157 15.992187-10.710938 25.578125-10.710938zm-51.289062 36.289062c0 13.59375 5.363281 26.441407 15.101562 36.183594 9.742188 9.742188 22.59375 15.105469 36.1875 15.105469 16.109375 0 31.480469-7.710937 41.113281-20.625 2.582031-3.457031 7.492188-4.175781 10.953125-1.59375 3.457032 2.578125 4.175782 7.492187 1.59375 10.953125-12.570312 16.855469-32.632812 26.917969-53.660156 26.917969-36.914062 0-66.941406-30.027344-66.941406-66.941407 0-36.914062 30.027344-66.945312 66.941406-66.945312 21.746094 0 42.207031 10.617188 54.730469 28.394531 1.203125 1.710938 1.667969 3.785157 1.3125 5.84375-.359375 2.0625-1.496094 3.859375-3.207031 5.0625-3.523438 2.484375-8.417969 1.636719-10.902344-1.890625-9.597656-13.621094-25.269532-21.753906-41.933594-21.753906-13.59375 0-26.445312 5.363281-36.1875 15.105469-9.738281 9.738281-15.101562 22.589843-15.101562 36.183593zm0 0"/><path d="m233.445312 135.980469c0-15.144531-12.316406-27.460938-27.460937-27.460938-15.140625 0-27.460937 12.320313-27.460937 27.460938s12.320312 27.457031 27.460937 27.457031c15.144531 0 27.460937-12.316406 27.460937-27.457031zm-39.917968 0c0-6.871094 5.589844-12.460938 12.460937-12.460938 6.867188 0 12.457031 5.589844 12.457031 12.460938 0 6.867187-5.589843 12.457031-12.457031 12.457031-6.875 0-12.460937-5.589844-12.460937-12.457031zm0 0"/><path d="m208.527344 335.777344h16.316406c4.140625 0 7.5-3.355469 7.5-7.5 0-4.140625-3.359375-7.5-7.5-7.5h-16.316406c-4.144532 0-7.5 3.359375-7.5 7.5 0 4.144531 3.355468 7.5 7.5 7.5zm0 0"/><path d="m286.84375 347.425781h-78.316406c-4.144532 0-7.5 3.359375-7.5 7.5s3.355468 7.5 7.5 7.5h78.316406c4.140625 0 7.5-3.359375 7.5-7.5s-3.359375-7.5-7.5-7.5zm0 0"/><path d="m286.84375 368.777344h-78.316406c-4.144532 0-7.5 3.359375-7.5 7.5 0 4.144531 3.355468 7.5 7.5 7.5h78.316406c4.140625 0 7.5-3.355469 7.5-7.5 0-4.140625-3.359375-7.5-7.5-7.5zm0 0"/><path d="m248.054688 403.984375h-8.535157c-10.023437 0-18.175781 8.152344-18.175781 18.175781v36.996094c0 10.023438 8.152344 18.179688 18.175781 18.179688h8.535157c10.019531 0 18.175781-8.152344 18.175781-18.179688v-36.996094c0-10.023437-8.15625-18.175781-18.175781-18.175781zm3.175781 55.175781c0 1.75-1.425781 3.175782-3.175781 3.175782h-8.535157c-1.75 0-3.175781-1.425782-3.175781-3.175782v-37c0-1.75 1.425781-3.175781 3.175781-3.175781h8.535157c1.75 0 3.175781 1.425781 3.175781 3.175781zm0 0"/><path d="m208.613281 403.984375h-.105469c-.011718 0-.023437 0-.035156 0-4.125 0-7.480468 3.332031-7.5 7.464844-.019531 4.140625 3.324219 7.515625 7.464844 7.535156h.105469.035156c4.125 0 7.480469-3.335937 7.5-7.464844.019531-4.144531-3.324219-7.515625-7.464844-7.535156zm0 0"/></svg>