<svg height="512pt" viewBox="-83 0 512 512" width="512pt" xmlns="http://www.w3.org/2000/svg"><path d="m135.761719 369.953125v-311.226563c0-28.289062-22.9375-51.226562-51.226563-51.226562-28.292968 0-51.230468 22.933594-51.230468 51.226562v311.226563c-15.828126 14.109375-25.804688 34.640625-25.804688 57.511719 0 42.546875 34.488281 77.035156 77.035156 77.035156 42.542969 0 77.03125-34.488281 77.03125-77.035156 0-22.871094-9.976562-43.402344-25.804687-57.511719zm0 0" fill="#a09d9c"/><path d="m126.90625 427.46875c0 23.355469-19.003906 42.371094-42.371094 42.371094-23.367187 0-42.371094-19.015625-42.371094-42.371094 0-12.0625 5.179688-23.589844 14.210938-31.636719l11.59375-10.335937v-326.765625c0-8.898438 7.054688-16.179688 15.863281-16.546875.234375-.019532.46875-.019532.703125-.019532 9.132813 0 16.566406 7.433594 16.566406 16.566407v326.765625l11.589844 10.335937c9.035156 8.046875 14.214844 19.574219 14.214844 31.636719zm0 0" fill="#c4e1e8"/><path d="m101.101562 58.730469v269.652343h-17.269531v-286.199218c.234375-.019532.46875-.019532.703125-.019532 9.132813 0 16.566406 7.433594 16.566406 16.566407zm0 0" fill="#a4d5dd"/><path d="m126.90625 427.46875c0 18.738281-12.234375 34.683594-29.140625 40.25-4.167969 1.375-8.613281 2.121094-13.230469 2.121094-23.367187 0-42.371094-19.015625-42.371094-42.371094 0-12.0625 5.179688-23.589844 14.210938-31.636719l11.59375-10.335937v-276.996094h33.132812v276.996094l11.589844 10.335937c9.035156 8.046875 14.214844 19.574219 14.214844 31.636719zm0 0" fill="#fc4830"/><path d="m126.90625 427.46875c0 18.738281-12.234375 34.683594-29.140625 40.25 7.339844-7.617188 11.867187-17.984375 11.867187-29.382812 0-12.050782-5.179687-23.582032-14.199218-31.636719l-11.605469-10.335938v-287.863281h17.273437v276.996094l11.589844 10.335937c9.035156 8.046875 14.214844 19.574219 14.214844 31.636719zm0 0" fill="#e81610"/><path d="m225.945312 135.980469c0 11.023437-8.9375 19.957031-19.960937 19.957031s-19.957031-8.933594-19.957031-19.957031c0-11.023438 8.933594-19.960938 19.957031-19.960938s19.960937 8.9375 19.960937 19.960938zm0 0" fill="#fc4830"/><path d="m325.9375 181.222656c0-8.34375-6.765625-15.109375-15.109375-15.109375h-62.964844c-7.972656 0-14.4375 6.464844-14.4375 14.441407v107.160156c0 8.347656 6.765625 15.109375 15.109375 15.109375s15.109375-6.765625 15.109375-15.109375v-38.898438h28.855469c8.34375 0 15.109375-6.765625 15.109375-15.109375s-6.765625-15.109375-15.109375-15.109375h-28.855469v-22.261718h47.183594c8.34375-.003907 15.109375-6.769532 15.109375-15.113282zm0 0" fill="#ff756e"/><path d="m84.535156 34.664062c-13.269531 0-24.066406 10.792969-24.066406 24.0625v323.402344l-9.085938 8.101563c-10.625 9.46875-16.71875 23.042969-16.71875 37.234375 0 27.5 22.371094 49.871094 49.871094 49.871094 27.496094 0 49.871094-22.371094 49.871094-49.871094 0-14.195313-6.09375-27.765625-16.71875-37.234375l-9.089844-8.101563v-35.046875h3.464844c4.140625 0 7.5-3.359375 7.5-7.5 0-4.144531-3.359375-7.5-7.5-7.5h-3.464844v-39.796875h3.464844c4.140625 0 7.5-3.355468 7.5-7.5 0-4.140625-3.359375-7.5-7.5-7.5h-3.464844v-39.792968h3.464844c4.140625 0 7.5-3.359376 7.5-7.5 0-4.144532-3.359375-7.5-7.5-7.5h-3.464844v-39.796876h3.464844c4.140625 0 7.5-3.355468 7.5-7.5 0-4.140624-3.359375-7.5-7.5-7.5h-3.464844v-39.792968h3.464844c4.140625 0 7.5-3.359375 7.5-7.5s-3.359375-7.5-7.5-7.5h-3.464844v-54.175782c0-13.269531-10.792968-24.0625-24.0625-24.0625zm0 15c4.996094 0 9.0625 4.066407 9.0625 9.0625v42.273438h-18.128906v-42.273438c0-4.996093 4.066406-9.0625 9.066406-9.0625zm34.871094 377.800782c0 19.230468-15.644531 34.871094-34.871094 34.871094-19.226562 0-34.871094-15.644532-34.871094-34.871094 0-9.921875 4.265626-19.410156 11.695313-26.039063l11.601563-10.335937c1.597656-1.425782 2.507812-3.460938 2.507812-5.601563v-269.488281h18.132812v269.488281c0 2.140625.910157 4.175781 2.507813 5.601563l11.601563 10.339844c7.429687 6.625 11.695312 16.113281 11.695312 26.035156zm0 0"/><path d="m143.261719 58.726562c0-32.382812-26.347657-58.726562-58.726563-58.726562-32.382812 0-58.730468 26.34375-58.730468 58.726562v186.945313c0 4.140625 3.359374 7.5 7.5 7.5 4.144531 0 7.5-3.359375 7.5-7.5v-186.945313c0-24.109374 19.617187-43.726562 43.730468-43.726562 24.109375 0 43.726563 19.617188 43.726563 43.726562v311.226563c0 2.140625.914062 4.175781 2.511719 5.597656 14.804687 13.195313 23.296874 32.121094 23.296874 51.917969 0 11.863281-3.054687 23.589844-8.835937 33.910156-2.019531 3.613282-.730469 8.183594 2.882813 10.207032 1.15625.648437 2.414062.957031 3.65625.957031 2.625 0 5.175781-1.382813 6.550781-3.835938 7.027343-12.554687 10.746093-26.8125 10.746093-41.238281 0-22.929688-9.363281-44.890625-25.808593-60.785156zm0 0"/><path d="m125.667969 483.519531c-11.996094 8.820313-26.21875 13.480469-41.136719 13.480469-38.339844 0-69.53125-31.191406-69.53125-69.535156 0-19.792969 8.492188-38.71875 23.296875-51.914063 1.597656-1.421875 2.507813-3.460937 2.507813-5.597656v-91.625c0-4.140625-3.355469-7.5-7.5-7.5-4.140626 0-7.5 3.359375-7.5 7.5v88.355469c-16.441407 15.894531-25.804688 37.855468-25.804688 60.78125 0 46.613281 37.921875 84.535156 84.53125 84.535156 18.136719 0 35.433594-5.667969 50.019531-16.394531 3.339844-2.457031 4.054688-7.148438 1.601563-10.488281-2.453125-3.335938-7.148438-4.050782-10.484375-1.597657zm0 0"/><path d="m233.445312 135.980469c0-15.144531-12.316406-27.460938-27.460937-27.460938-15.140625 0-27.457031 12.320313-27.457031 27.460938s12.316406 27.457031 27.457031 27.457031c15.144531 0 27.460937-12.316406 27.460937-27.457031zm-39.917968 0c0-6.871094 5.589844-12.460938 12.457031-12.460938 6.871094 0 12.460937 5.589844 12.460937 12.460938 0 6.867187-5.589843 12.457031-12.460937 12.457031-6.867187 0-12.457031-5.589844-12.457031-12.457031zm0 0"/><path d="m208.527344 335.777344h16.3125c4.144531 0 7.5-3.355469 7.5-7.5 0-4.140625-3.355469-7.5-7.5-7.5h-16.3125c-4.144532 0-7.5 3.359375-7.5 7.5 0 4.144531 3.355468 7.5 7.5 7.5zm0 0"/><path d="m286.839844 347.425781h-78.3125c-4.144532 0-7.5 3.359375-7.5 7.5s3.355468 7.5 7.5 7.5h78.3125c4.144531 0 7.5-3.359375 7.5-7.5s-3.355469-7.5-7.5-7.5zm0 0"/><path d="m286.839844 368.777344h-78.3125c-4.144532 0-7.5 3.359375-7.5 7.5 0 4.144531 3.355468 7.5 7.5 7.5h78.3125c4.144531 0 7.5-3.355469 7.5-7.5 0-4.140625-3.355469-7.5-7.5-7.5zm0 0"/><path d="m278.050781 403.984375h-8.53125c-10.023437 0-18.179687 8.152344-18.179687 18.175781v4.644532c0 3.992187 1.308594 7.675781 3.5 10.679687-2.191406 3-3.5 6.683594-3.5 10.675781v10.996094c0 10.023438 8.15625 18.179688 18.179687 18.179688h8.53125c10.023438 0 18.179688-8.152344 18.179688-18.179688v-10.996094c0-3.992187-1.308594-7.675781-3.5-10.675781 2.191406-3.003906 3.5-6.6875 3.5-10.679687v-4.644532c0-10.023437-8.15625-18.175781-18.179688-18.175781zm-11.710937 18.175781c0-1.75 1.425781-3.175781 3.179687-3.175781h8.53125c1.753907 0 3.179688 1.425781 3.179688 3.175781v4.644532c0 1.753906-1.425781 3.179687-3.179688 3.179687h-8.53125c-1.753906 0-3.179687-1.425781-3.179687-3.179687zm14.890625 37c0 1.75-1.425781 3.175782-3.179688 3.175782h-8.53125c-1.753906 0-3.179687-1.425782-3.179687-3.175782v-11c0-1.75 1.425781-3.175781 3.179687-3.175781h8.53125c1.753907 0 3.179688 1.425781 3.179688 3.175781zm0 0"/><path d="m327.109375 403.984375h-8.535156c-10.023438 0-18.175781 8.152344-18.175781 18.175781v36.996094c0 10.023438 8.152343 18.179688 18.175781 18.179688h8.535156c10.023437 0 18.175781-8.152344 18.175781-18.179688v-36.996094c0-10.023437-8.152344-18.175781-18.175781-18.175781zm3.175781 55.175781c0 1.75-1.425781 3.175782-3.175781 3.175782h-8.535156c-1.75 0-3.175781-1.425782-3.175781-3.175782v-37c0-1.75 1.425781-3.175781 3.175781-3.175781h8.535156c1.75 0 3.175781 1.425781 3.175781 3.175781zm0 0"/><path d="m208.613281 403.984375h-.105469c-.011718 0-.023437 0-.035156 0-4.125 0-7.480468 3.332031-7.5 7.464844-.019531 4.140625 3.324219 7.515625 7.464844 7.535156h.105469.035156c4.125 0 7.480469-3.335937 7.5-7.464844.019531-4.144531-3.324219-7.515625-7.464844-7.535156zm0 0"/><path d="m225.925781 180.550781v41.117188c0 4.144531 3.355469 7.5 7.5 7.5 4.140625 0 7.5-3.355469 7.5-7.5v-41.117188c0-3.824219 3.109375-6.9375 6.9375-6.9375h62.964844c4.195313 0 7.609375 3.414063 7.609375 7.609375 0 4.195313-3.414062 7.609375-7.609375 7.609375h-47.183594c-4.144531 0-7.5 3.359375-7.5 7.5v22.265625c0 4.140625 3.355469 7.5 7.5 7.5h28.851563c4.199218 0 7.609375 3.414063 7.609375 7.605469 0 4.195313-3.410157 7.609375-7.609375 7.609375h-28.851563c-4.144531 0-7.5 3.359375-7.5 7.5v38.902344c0 4.195312-3.414062 7.609375-7.613281 7.609375-4.195312 0-7.605469-3.414063-7.605469-7.609375v-33.386719c0-4.140625-3.359375-7.5-7.5-7.5-4.144531 0-7.5 3.359375-7.5 7.5v33.386719c0 12.464844 10.140625 22.609375 22.609375 22.609375 12.464844 0 22.609375-10.144531 22.609375-22.609375v-31.402344h21.351563c12.46875 0 22.609375-10.140625 22.609375-22.609375 0-12.464844-10.140625-22.605469-22.609375-22.605469h-21.351563v-7.265625h39.683594c12.46875 0 22.609375-10.144531 22.609375-22.609375s-10.144531-22.609375-22.609375-22.609375h-62.964844c-12.097656 0-21.9375 9.84375-21.9375 21.9375zm0 0"/><path d="m240.671875 406.8125c-2.808594-1.164062-6.03125-.515625-8.175781 1.628906l-8.824219 8.84375c-2.925781 2.929688-2.921875 7.679688.011719 10.605469 1.800781 1.800781 4.292968 2.488281 6.621094 2.074219v37.753906c0 4.140625 3.355468 7.5 7.5 7.5 4.144531 0 7.5-3.359375 7.5-7.5v-53.976562c0-3.035157-1.828126-5.769532-4.632813-6.929688zm0 0"/></svg>