<svg height="512pt" viewBox="0 -10 512 512" width="512pt" xmlns="http://www.w3.org/2000/svg"><path d="m175.625 89.832031c2.78125-45.933593 40.90625-82.332031 87.542969-82.332031 37.613281 0 69.6875 23.675781 82.15625 56.933594 32.386719.390625 58.527343 26.753906 58.527343 59.238281 0 32.722656-26.53125 59.253906-59.253906 59.253906-13.699218 0-153.269531 0-167.347656 0-25.714844 0-46.566406-20.847656-46.566406-46.566406 0-25.171875 19.976562-45.667969 44.941406-46.527344zm0 0" fill="#f0f5f7"/><path d="m403.851562 123.675781c0 23.675781-13.894531 44.113281-33.972656 53.597657 3.617188-7.664063 5.644532-16.234376 5.644532-25.277344 0-32.484375-26.132813-58.847656-58.523438-59.234375-12.46875-33.265625-44.542969-56.941407-82.15625-56.941407-16.960938 0-32.796875 4.816407-46.21875 13.15625 15.476562-24.898437 43.074219-41.472656 74.546875-41.472656 37.605469 0 69.6875 23.675782 82.148437 56.929688 32.390626.394531 58.53125 26.757812 58.53125 59.242187zm0 0" fill="#dde9ed"/><path d="m451.882812 205.257812c-3.253906-53.78125-47.894531-96.394531-102.492187-96.394531-44.03125 0-81.589844 27.71875-96.183594 66.65625-37.917969.460938-68.523437 31.324219-68.523437 69.351563 0 38.316406 31.0625 69.375 69.375 69.375h195.921875c30.109375 0 54.515625-24.410156 54.515625-54.519532 0-29.472656-23.386719-53.464843-52.613282-54.46875zm0 0" fill="#c4e1e8"/><path d="m504.5 259.722656c0 30.113282-24.410156 54.523438-54.523438 54.523438h-4.222656c3.953125-7.546875 6.191406-16.136719 6.191406-25.246094 0-29.46875-23.386718-53.464844-52.617187-54.472656-3.253906-53.777344-47.894531-96.394532-102.496094-96.394532-7.363281 0-14.539062.777344-21.457031 2.25 18.675781-19.425781 44.929688-31.515624 74.015625-31.515624 54.597656 0 99.238281 42.609374 102.496094 96.394531 29.226562.996093 52.613281 24.992187 52.613281 54.460937zm0 0" fill="#a4d5dd"/><path d="m264.320312 213.648438c-3.128906-51.691407-46.03125-92.648438-98.511718-92.648438-42.324219 0-78.421875 26.640625-92.449219 64.070312-36.445313.4375-65.859375 30.105469-65.859375 66.65625 0 36.828126 29.851562 66.679688 66.679688 66.679688h188.3125c28.941406 0 52.402343-23.460938 52.402343-52.402344 0-28.324218-22.480469-51.386718-50.574219-52.355468zm0 0" fill="#c4e1e8"/><path d="m314.894531 266.003906c0 28.941406-23.464843 52.40625-52.402343 52.40625h-4.0625c3.800781-7.253906 5.949218-15.515625 5.949218-24.269531 0-28.324219-22.476562-51.386719-50.570312-52.355469-3.128906-51.691406-46.035156-92.652344-98.515625-92.652344-7.078125 0-13.976563.746094-20.625 2.160157 17.953125-18.667969 43.1875-30.289063 71.140625-30.289063 52.480468 0 95.386718 40.949219 98.515625 92.648438 28.09375.960937 50.570312 24.023437 50.570312 52.351562zm0 0" fill="#a4d5dd"/><path d="m417.046875 306.203125c-3.128906-51.691406-46.035156-92.648437-98.511719-92.648437-42.324218 0-78.421875 26.640624-92.449218 64.066406-36.445313.441406-65.859376 30.109375-65.859376 66.660156 0 36.824219 29.851563 66.679688 66.679688 66.679688h188.3125c28.941406 0 52.398438-23.460938 52.398438-52.402344 0-28.328125-22.480469-51.390625-50.570313-52.355469zm0 0" fill="#f0f5f7"/><path d="m467.621094 358.554688c0 28.941406-23.464844 52.40625-52.40625 52.40625h-4.058594c3.796875-7.253907 5.949219-15.511719 5.949219-24.265626 0-28.328124-22.476563-51.390624-50.570313-52.359374-3.128906-51.6875-46.035156-92.652344-98.515625-92.652344-7.078125 0-13.976562.746094-20.625 2.160156 17.953125-18.667969 43.1875-30.289062 71.140625-30.289062 52.480469 0 95.386719 40.953124 98.515625 92.648437 28.09375.960937 50.570313 24.027344 50.570313 52.351563zm0 0" fill="#dde9ed"/><path d="m80.535156 336.066406c2.234375-36.953125 32.910156-66.234375 70.425782-66.234375 30.257812 0 56.066406 19.046875 66.09375 45.800781 26.058593.316407 47.085937 21.527344 47.085937 47.65625 0 26.328126-21.34375 47.671876-47.671875 47.671876-11.019531 0-123.300781 0-134.625 0-20.691406 0-37.464844-16.773438-37.464844-37.464844 0-20.25 16.070313-36.738282 36.15625-37.429688zm0 0" fill="#f0f5f7"/><path d="m264.140625 363.292969c0 26.101562-20.984375 47.304687-47.011719 47.65625 7.800782-8.492188 12.558594-19.804688 12.558594-32.238281 0-26.125-21.023438-47.339844-47.085938-47.65625-10.03125-26.75-35.832031-45.800782-66.09375-45.800782-3.578124 0-7.085937.269532-10.523437.78125 12.207031-10.121094 27.878906-16.203125 44.976563-16.203125 30.261718 0 56.066406 19.042969 66.09375 45.804688 26.0625.316406 47.085937 21.519531 47.085937 47.65625zm0 0" fill="#dde9ed"/><path d="m512 259.726562c0-31.34375-22.882812-57.132812-53.210938-61.386718-3.882812-32.472656-21.875-60.46875-47.515624-77.917969-1.617188-33.191406-27.859376-60.320313-60.792969-63.230469-4.675781-10.742187-11.25-20.441406-19.585938-28.882812-2.910156-2.945313-7.660156-2.976563-10.605469-.0625-2.949218 2.910156-2.976562 7.65625-.066406 10.605468 8.023438 8.121094 14.105469 17.617188 18.078125 28.21875 1.085938 2.894532 3.839844 4.828126 6.933594 4.867188 23.882813.285156 43.988281 16.996094 49.570313 39.238281-13.878907-6.300781-29.265626-9.8125-45.410157-9.8125-40.78125 0-77.523437 22.128907-96.699219 57.304688-19.292968-27.375-51.15625-45.167969-86.882812-45.167969-7.394531 0-14.683594.769531-21.789062 2.25 6.691406-10.839844 18.460937-17.960938 31.859374-18.421875 3.867188-.132813 6.996094-3.183594 7.230469-7.042969 2.554688-42.214844 37.71875-75.285156 80.058594-75.285156 11.101563 0 21.871094 2.238281 32 6.652344 3.800781 1.65625 8.21875-.082032 9.875-3.878906 1.652344-3.796876-.082031-8.214844-3.878906-9.871094-12.035157-5.242188-24.820313-7.902344-37.996094-7.902344-48.089844 0-88.382813 35.953125-94.425781 82.964844-20.769532 3.253906-37.75 18.210937-43.503906 38.566406-7.203126 2.984375-14.109376 6.765625-20.589844 11.339844-16.183594 11.421875-28.710938 26.882812-36.453125 44.929687-17.707031 1.40625-34.15625 9.03125-46.769531 21.78125-13.820313 13.972657-21.429688 32.492188-21.429688 52.144531 0 11.96875 2.933594 23.878907 8.484375 34.449219 1.34375 2.554688 3.949219 4.011719 6.648437 4.011719 1.175782 0 2.367188-.277344 3.480469-.863281 3.667969-1.925781 5.078125-6.460938 3.152344-10.125-4.488281-8.546875-6.765625-17.789063-6.765625-27.472657 0-32.230468 26.222656-58.769531 58.449219-59.15625 3.097656-.039062 5.847656-1.972656 6.933593-4.867187 13.273438-35.410156 47.601563-59.203125 85.425782-59.203125 48.136718 0 88.121094 37.601562 91.027344 85.601562.230468 3.828126 3.308593 6.855469 7.125 7.035157-2.238282 1.347656-4.433594 2.773437-6.585938 4.289062-16.183594 11.421875-28.707031 26.878907-36.449219 44.929688-8.628906.679687-16.945312 2.855469-24.8125 6.453125-12.949219-9.1875-28.660156-14.476563-45.148437-14.476563-32.46875 0-60.585938 19.996094-72.273438 48.574219h-4.511718c-11.851563 0-23.285157-3.488281-33.0625-10.085938-3.433594-2.320312-8.097657-1.414062-10.414063 2.019532s-1.410156 8.09375 2.019531 10.410156c12.269532 8.28125 26.601563 12.660156 41.457032 12.660156h.070312c-.207031 1.113282-.398438 2.234375-.558594 3.367188-21.101562 3.8125-36.8125 22.113281-36.8125 44.222656 0 24.789062 20.171875 44.960938 44.964844 44.960938h237.828125c4.140625 0 7.5-3.355469 7.5-7.5 0-4.140626-3.359375-7.5-7.5-7.5h-65.441406c10.707031-10.070313 17.410156-24.347657 17.410156-40.167969 0-28.347657-21.753906-51.972657-49.445313-54.863281-3.410156-7.585938-7.992187-14.460938-13.460937-20.457032 5.597656-1.804687 11.433594-2.773437 17.441406-2.847656 3.09375-.039062 5.847657-1.96875 6.933594-4.867188 13.273437-35.410156 47.601563-59.203124 85.425781-59.203124 48.136719 0 88.121094 37.601562 91.027344 85.605468.234375 3.859375 3.363281 6.910156 7.226562 7.039063 8.007813.277343 15.4375 2.613281 21.808594 6.476562.390625.300781.808594.5625 1.253906.785157 12.257813 8 20.269532 21.824218 20.269532 37.597656 0 24.761718-20.144532 44.902344-44.902344 44.902344h-62.882812c-4.144532 0-7.5 3.359374-7.5 7.5 0 4.144531 3.355468 7.5 7.5 7.5h62.882812c33.03125 0 59.902344-26.871094 59.902344-59.902344 0-14.417969-5.023438-27.613282-13.441406-37.933594 28.621093-5.488281 50.320312-30.699219 50.320312-60.898438zm-295.03125 63.40625c21.875.265626 39.671875 18.277344 39.671875 40.15625 0 22.152344-18.019531 40.171876-40.167969 40.171876h-134.628906c-16.519531 0-29.960938-13.441407-29.960938-29.964844 0-16.226563 12.699219-29.375 28.910157-29.933594 3.863281-.132812 6.996093-3.183594 7.230469-7.042969 2.007812-33.1875 29.65625-59.1875 62.941406-59.1875 26.152344 0 49.890625 16.449219 59.070312 40.9375 1.085938 2.894531 3.839844 4.828125 6.933594 4.863281zm233.011719-16.386718h-4.585938c-6.460937-3.746094-13.695312-6.332032-21.449219-7.449219-6.421874-52.785156-51.53125-93.242187-105.410156-93.242187-11.078125 0-21.925781 1.691406-32.257812 4.980468-4.828125-2.09375-9.867188-3.53125-15.058594-4.285156-1.398438-11.515625-4.640625-22.441406-9.410156-32.492188 14.996094-35.210937 49.214844-57.894531 87.585937-57.894531 50.242188 0 91.972657 39.246094 95.003907 89.347657.234374 3.859374 3.363281 6.910156 7.230468 7.039062 25.441406.875 45.371094 21.507812 45.371094 46.976562 0 25.925782-21.09375 47.019532-47.019531 47.019532zm0 0"/><path d="m379.632812 300.539062c.828126 3.4375 3.898438 5.75 7.285157 5.75.582031 0 1.171875-.070312 1.761719-.210937 4.027343-.964844 6.507812-5.015625 5.539062-9.042969-1.089844-4.527344-2.578125-8.992187-4.429688-13.273437-1.644531-3.800781-6.058593-5.550781-9.859374-3.902344-3.800782 1.644531-5.550782 6.058594-3.90625 9.859375 1.507812 3.488281 2.722656 7.128906 3.609374 10.820312zm0 0"/><path d="m314.535156 234.300781c-4.140625 0-7.5 3.359375-7.5 7.5s3.359375 7.5 7.5 7.5c18.386719 0 35.550782 7.332031 48.328125 20.644531 1.472657 1.535157 3.441407 2.304688 5.410157 2.304688 1.871093 0 3.742187-.695312 5.191406-2.089844 2.988281-2.867187 3.089844-7.613281.21875-10.601562-15.632813-16.289063-36.636719-25.257813-59.148438-25.257813zm0 0"/><path d="m449.492188 429.480469h-307.15625c-4.144532 0-7.5 3.355469-7.5 7.5 0 4.140625 3.355468 7.5 7.5 7.5h307.15625c4.144531 0 7.5-3.359375 7.5-7.5 0-4.144531-3.355469-7.5-7.5-7.5zm0 0"/><path d="m62.511719 444.480469h52.488281c4.144531 0 7.5-3.359375 7.5-7.5 0-4.144531-3.355469-7.5-7.5-7.5h-52.488281c-4.144531 0-7.5 3.355469-7.5 7.5 0 4.140625 3.355469 7.5 7.5 7.5zm0 0"/><path d="m449.492188 453.28125h-46.488282c-4.144531 0-7.5 3.355469-7.5 7.5 0 4.140625 3.355469 7.5 7.5 7.5h46.488282c4.144531 0 7.5-3.359375 7.5-7.5 0-4.144531-3.355469-7.5-7.5-7.5zm0 0"/><path d="m62.511719 468.28125h314.683593c4.140626 0 7.5-3.359375 7.5-7.5 0-4.144531-3.359374-7.5-7.5-7.5h-314.683593c-4.144531 0-7.5 3.355469-7.5 7.5 0 4.140625 3.355469 7.5 7.5 7.5zm0 0"/><path d="m449.492188 477.082031h-298.976563c-4.144531 0-7.5 3.355469-7.5 7.5 0 4.140625 3.355469 7.5 7.5 7.5h298.976563c4.144531 0 7.5-3.359375 7.5-7.5 0-4.144531-3.355469-7.5-7.5-7.5zm0 0"/><path d="m129.667969 477.082031h-10.664063c-4.144531 0-7.5 3.355469-7.5 7.5 0 4.140625 3.355469 7.5 7.5 7.5h10.664063c4.144531 0 7.5-3.359375 7.5-7.5 0-4.144531-3.355469-7.5-7.5-7.5zm0 0"/><path d="m96.273438 477.082031h-33.761719c-4.144531 0-7.5 3.355469-7.5 7.5 0 4.140625 3.355469 7.5 7.5 7.5h33.761719c4.144531 0 7.5-3.359375 7.5-7.5 0-4.144531-3.355469-7.5-7.5-7.5zm0 0"/></svg>