<svg height="511pt" viewBox="0 -79 511.99907 511" width="511pt" xmlns="http://www.w3.org/2000/svg"><path d="m283.914062 8c-33.070312 0-59.996093 26.804688-60.195312 59.828125-.042969 7.175781 5.59375 13.316406 12.769531 13.527344 7.449219.214843 13.554688-5.757813 13.554688-13.160157 0-19.476562 16.527343-35.164062 36.292969-33.78125 16.683593 1.167969 30.195312 14.679688 31.359374 31.367188 1.378907 19.761719-14.308593 36.285156-33.785156 36.285156h-263.246094c-7.269531 0-13.164062 5.894532-13.164062 13.164063s5.894531 13.164062 13.164062 13.164062h262.335938c33.03125 0 60.597656-26.230469 61.101562-59.261719.511719-33.621093-26.683593-61.132812-60.1875-61.132812zm0 0" fill="#78ffce"/><path d="m444.304688 8c-33.070313 0-59.996094 26.804688-60.195313 59.828125-.042969 7.175781 5.59375 13.316406 12.769531 13.527344 7.449219.214843 13.554688-5.757813 13.554688-13.160157 0-19.476562 16.527344-35.164062 36.292968-33.78125 16.683594 1.167969 30.195313 14.679688 31.359376 31.367188 1.378906 19.761719-14.308594 36.285156-33.78125 36.285156h-73.378907c-4.191406 0-8.132812 1.996094-10.613281 5.375-6.382812 8.691406-.171875 20.953125 10.613281 20.953125h72.464844c33.03125 0 60.597656-26.230469 61.101563-59.261719.515624-33.621093-26.683594-61.132812-60.1875-61.132812zm0 0" fill="#00b579"/><path d="m246.261719 208.25h-225.597657c-7.269531 0-13.164062 5.894531-13.164062 13.164062 0 7.269532 5.894531 13.164063 13.164062 13.164063h225.875c18.496094 0 34.058594 14.5625 34.496094 33.054687.449219 19.046876-14.914062 34.683594-33.859375 34.683594-18.542969 0-33.65625-14.980468-33.867187-33.476562-.074219-6.640625-4.707032-12.515625-11.285156-13.425782-8.105469-1.121093-15.042969 5.144532-15.042969 13.035157 0 33.191406 27.003906 60.191406 60.195312 60.191406 33.503907 0 60.703125-27.511719 60.191407-61.128906-.507813-33.027344-28.074219-59.261719-61.105469-59.261719zm0 0" fill="#00df97"/><path d="m421.511719 155.953125h-400.847657c-7.269531 0-13.164062 5.894531-13.164062 13.164063 0 7.269531 5.894531 13.164062 13.164062 13.164062h401.125c18.496094 0 34.058594 14.5625 34.496094 33.050781.449219 19.046875-14.914062 34.683594-33.859375 34.683594-18.542969 0-33.65625-14.980469-33.867187-33.472656-.074219-6.644531-4.707032-12.515625-11.285156-13.425781-8.105469-1.121094-15.042969 5.144531-15.042969 13.03125 0 33.191406 27.003906 60.195312 60.195312 60.195312 33.503907 0 60.703125-27.511719 60.1875-61.128906-.503906-33.03125-28.070312-59.261719-61.101562-59.261719zm0 0" fill="#00fbaa"/><path d="m283 135.890625h-262.335938c-11.394531 0-20.664062-9.269531-20.664062-20.664063 0-11.394531 9.269531-20.664062 20.664062-20.664062h263.25c7.378907 0 14.226563-2.984375 19.277344-8.402344 5.046875-5.410156 7.539063-12.460937 7.023438-19.859375-.90625-13.003906-11.398438-23.496093-24.402344-24.40625-7.398438-.523437-14.453125 1.976563-19.863281 7.019531-5.421875 5.054688-8.402344 11.902344-8.402344 19.28125 0 5.632813-2.226563 10.898438-6.269531 14.824219-4.042969 3.925781-9.398438 5.996094-15.007813 5.828125-11.125-.320312-20.117187-9.773437-20.050781-21.066406.222656-37.101562 30.589844-67.28125 67.695312-67.28125 11.433594 0 22.753907 2.921875 32.730469 8.457031 3.621094 2.007813 4.929688 6.574219 2.921875 10.195313-2.011718 3.621094-6.574218 4.929687-10.195312 2.921875-7.757813-4.300781-16.5625-6.574219-25.457032-6.574219-28.882812 0-52.523437 23.492188-52.695312 52.371094-.019531 3.15625 2.492188 5.898437 5.488281 5.984375 1.523438.050781 3.011719-.519531 4.117188-1.597657 1.109375-1.074218 1.71875-2.519531 1.71875-4.0625 0-11.417968 4.804687-22.445312 13.175781-30.25 8.484375-7.914062 19.550781-11.824218 31.140625-11.015624 20.421875 1.429687 36.894531 17.90625 38.320313 38.324218.808593 11.59375-3.105469 22.652344-11.019532 31.136719-7.804687 8.371094-18.832031 13.171875-30.246094 13.171875h-263.25c-3.125 0-5.664062 2.542969-5.664062 5.664062 0 3.121094 2.539062 5.664063 5.664062 5.664063h262.335938c29.121094 0 53.167969-23.269531 53.605469-51.875.140625-9.394531-2.238281-18.667969-6.886719-26.820313-2.054688-3.597656-.800781-8.179687 2.796875-10.230468 3.597656-2.050782 8.179687-.796875 10.230469 2.800781 5.976562 10.480469 9.039062 22.402344 8.855468 34.480469-.5625 36.75-31.335937 66.644531-68.601562 66.644531zm0 0"/><path d="m443.390625 135.890625h-72.464844c-7.832031 0-14.894531-4.339844-18.433593-11.328125-3.539063-6.984375-2.859376-15.25 1.777343-21.5625 3.875-5.28125 10.101563-8.4375 16.65625-8.4375h73.378907c7.378906 0 14.226562-2.984375 19.277343-8.402344 5.046875-5.410156 7.539063-12.460937 7.023438-19.859375-.910157-13.003906-11.398438-23.496093-24.402344-24.40625-7.394531-.523437-14.453125 1.976563-19.863281 7.019531-5.421875 5.054688-8.40625 11.902344-8.40625 19.28125 0 5.632813-2.222656 10.898438-6.265625 14.820313-4.039063 3.925781-9.40625 6.011719-15.007813 5.832031-11.125-.320312-20.121094-9.773437-20.050781-21.066406.222656-37.101562 30.589844-67.28125 67.691406-67.28125 18.253907 0 35.378907 7.179688 48.21875 20.214844 12.835938 13.035156 19.75 30.269531 19.472657 48.527344-.558594 36.753906-31.335938 66.648437-68.601563 66.648437zm-72.464844-26.328125c-1.792969 0-3.5.867188-4.566406 2.3125-1.855469 2.53125-.957031 4.976562-.484375 5.910156s1.910156 3.105469 5.054688 3.105469h72.460937c29.121094 0 53.167969-23.269531 53.605469-51.875.21875-14.210937-5.167969-27.625-15.160156-37.773437-10-10.152344-23.328126-15.742188-37.53125-15.742188-28.878907 0-52.519532 23.492188-52.691407 52.371094-.019531 3.15625 2.492188 5.898437 5.488281 5.984375 1.546876.0625 3.011719-.523438 4.117188-1.597657 1.109375-1.078124 1.71875-2.519531 1.71875-4.0625 0-11.417968 4.800781-22.445312 13.175781-30.25 8.484375-7.914062 19.550781-11.824218 31.140625-11.015624 20.421875 1.429687 36.894532 17.90625 38.316406 38.324218.8125 11.59375-3.101562 22.652344-11.015624 31.136719-7.804688 8.371094-18.832032 13.171875-30.25 13.171875zm0 0"/><path d="m247.175781 336.144531c-37.328125 0-67.695312-30.367187-67.695312-67.695312 0-5.976563 2.585937-11.65625 7.09375-15.582031 4.503906-3.925782 10.507812-5.710938 16.476562-4.878907 10.167969 1.402344 17.636719 10.140625 17.757813 20.765625.164062 14.371094 11.992187 26.0625 26.367187 26.0625 7.148438 0 13.84375-2.824218 18.855469-7.957031 5.007812-5.128906 7.675781-11.894531 7.503906-19.050781-.335937-14.1875-12.445312-25.726563-26.996094-25.726563h-225.875c-11.394531-.003906-20.664062-9.273437-20.664062-20.667969 0-11.390624 9.269531-20.664062 20.664062-20.664062h82.007813c4.140625 0 7.5 3.359375 7.5 7.5 0 4.144531-3.359375 7.5-7.5 7.5h-82.007813c-3.125 0-5.664062 2.542969-5.664062 5.664062 0 3.125 2.539062 5.664063 5.664062 5.664063h225.875c22.628907 0 41.464844 18.113281 41.992188 40.375.265625 11.226563-3.914062 21.839844-11.769531 29.882813-7.859375 8.046874-18.367188 12.480468-29.585938 12.480468-22.554687 0-41.109375-18.34375-41.367187-40.890625-.035156-3.09375-2.105469-5.707031-4.816406-6.082031-2.28125-.316406-3.839844.699219-4.566407 1.332031-1.238281 1.078125-1.945312 2.636719-1.945312 4.273438 0 29.054687 23.636719 52.695312 52.695312 52.695312 14.203125 0 27.527344-5.59375 37.527344-15.742187 9.992187-10.148438 15.378906-23.5625 15.160156-37.773438-.4375-28.605468-24.480469-51.875-53.601562-51.875h-110.933594c-4.140625 0-7.5-3.359375-7.5-7.5s3.359375-7.5 7.5-7.5h110.933594c37.265625 0 68.039062 29.898438 68.601562 66.644532.277344 18.261718-6.636719 35.496093-19.472656 48.527343-12.839844 13.035157-29.960937 20.21875-48.214844 20.21875zm0 0"/><path d="m422.425781 283.84375c-37.328125 0-67.695312-30.367188-67.695312-67.695312 0-5.976563 2.585937-11.65625 7.09375-15.582032 4.503906-3.925781 10.503906-5.707031 16.476562-4.878906 10.167969 1.40625 17.636719 10.140625 17.757813 20.769531.164062 14.371094 11.992187 26.0625 26.367187 26.0625 7.144531 0 13.84375-2.828125 18.855469-7.960937 5.007812-5.128906 7.671875-11.890625 7.503906-19.046875-.335937-14.1875-12.445312-25.730469-26.996094-25.730469h-85.460937c-4.140625 0-7.5-3.355469-7.5-7.5 0-4.140625 3.359375-7.5 7.5-7.5h85.460937c22.625 0 41.464844 18.113281 41.992188 40.375.265625 11.226562-3.914062 21.839844-11.769531 29.882812-7.859375 8.046876-18.367188 12.480469-29.589844 12.480469-22.550781 0-41.109375-18.34375-41.363281-40.890625-.035156-3.09375-2.105469-5.707031-4.816406-6.082031-2.289063-.316406-3.839844.699219-4.566407 1.328125-1.238281 1.078125-1.945312 2.636719-1.945312 4.277344 0 29.054687 23.636719 52.691406 52.695312 52.691406 14.199219 0 27.527344-5.589844 37.527344-15.742188 9.992187-10.148437 15.378906-23.5625 15.160156-37.773437-.4375-28.601563-24.480469-51.875-53.601562-51.875h-400.847657c-3.125 0-5.664062 2.542969-5.664062 5.664063 0 3.125 2.539062 5.664062 5.664062 5.664062h283.007813c4.140625 0 7.5 3.359375 7.5 7.5 0 4.144531-3.359375 7.5-7.5 7.5h-283.007813c-11.394531 0-20.664062-9.269531-20.664062-20.664062 0-11.394532 9.269531-20.664063 20.664062-20.664063h400.847657c37.265625 0 68.039062 29.894531 68.601562 66.644531.277344 18.261719-6.636719 35.496094-19.472656 48.527344-12.839844 13.039062-29.964844 20.21875-48.214844 20.21875zm0 0"/><path d="m173.273438 83.382812h-164.621094c-4.144532 0-7.5-3.359374-7.5-7.5 0-4.144531 3.355468-7.5 7.5-7.5h164.621094c7.324218 0 13.28125-5.957031 13.28125-13.277343 0-7.324219-5.957032-13.28125-13.28125-13.28125-7.320313 0-13.277344 5.957031-13.277344 13.28125 0 4.140625-3.355469 7.5-7.5 7.5-4.140625 0-7.5-3.359375-7.5-7.5 0-15.59375 12.6875-28.28125 28.277344-28.28125 15.59375 0 28.28125 12.6875 28.28125 28.28125 0 15.589843-12.6875 28.277343-28.28125 28.277343zm0 0"/><path d="m426.261719 352.734375c-15.59375 0-28.28125-12.683594-28.28125-28.277344 0-4.140625 3.359375-7.5 7.5-7.5 4.144531 0 7.5 3.359375 7.5 7.5 0 7.324219 5.957031 13.277344 13.28125 13.277344 7.320312 0 13.277343-5.957031 13.277343-13.277344 0-7.320312-5.957031-13.277343-13.277343-13.277343h-88.5625c-4.140625 0-7.5-3.359376-7.5-7.5 0-4.140626 3.359375-7.5 7.5-7.5h88.5625c15.589843 0 28.277343 12.6875 28.277343 28.277343 0 15.59375-12.6875 28.277344-28.277343 28.277344zm0 0"/><path d="m143.480469 309.773438c-15.59375 0-28.277344-12.683594-28.277344-28.277344 0-4.140625 3.355469-7.5 7.5-7.5 4.140625 0 7.5 3.359375 7.5 7.5 0 7.324218 5.957031 13.277344 13.277344 13.277344 7.320312 0 13.277343-5.957032 13.277343-13.277344 0-7.320313-5.957031-13.277344-13.277343-13.277344h-134.828125c-4.144532 0-7.5-3.359375-7.5-7.5 0-4.144531 3.355468-7.5 7.5-7.5h134.828125c15.59375 0 28.277343 12.683594 28.277343 28.277344 0 15.589844-12.683593 28.277344-28.277343 28.277344zm0 0"/></svg>