<svg height="511pt" viewBox="0 -66 511.99989 511" width="511pt" xmlns="http://www.w3.org/2000/svg"><path d="m210.34375 314.679688c-49.863281-32.578126-104-90.199219-106.417969-187.40625-.597656-24.078126-18.691406-44.101563-42.617187-46.890626-28.515625-3.324218-53.640625 18.851563-53.804688 47.554688-1.046875 186.058594 193.128906 213.609375 193.128906 213.609375 15.398438 1.792969 22.691407-18.386719 9.710938-26.867187zm0 0" fill="#f0f5f7"/><path d="m216.734375 329.816406c-1.402344 6.855469-7.476563 12.738282-16.101563 11.730469 0 0-194.171874-27.550781-193.132812-213.605469.015625-1.8125.117188-3.605468.324219-5.363281 2.734375-23.4375 22.226562-41.382813 45.566406-42.46875-10.175781 7.683594-17.261719 19.335937-18.828125 32.785156-.203125 1.753907-.308594 3.546875-.324219 5.363281-.890625 159.621094 141.917969 202.578126 182.496094 211.558594zm0 0" fill="#dde9ed"/><path d="m354.0625 293.386719c-49.863281-32.578125-104-90.199219-106.417969-187.402344-.597656-24.082031-18.691406-44.105469-42.617187-46.894531-28.515625-3.324219-53.640625 18.851562-53.804688 47.558594-1.046875 186.058593 193.125 213.605468 193.125 213.605468 15.402344 1.796875 22.695313-18.386718 9.714844-26.867187zm0 0" fill="#f0f5f7"/><path d="m360.457031 308.527344c-1.40625 6.855468-7.480469 12.734375-16.105469 11.726562 0 0-194.171874-27.550781-193.132812-213.601562.015625-1.816406.121094-3.605469.324219-5.363282 2.734375-23.441406 22.226562-41.386718 45.566406-42.472656-10.171875 7.683594-17.257813 19.335938-18.828125 32.785156-.203125 1.757813-.308594 3.546876-.324219 5.363282-.890625 159.625 141.921875 202.582031 182.5 211.5625zm0 0" fill="#dde9ed"/><path d="m497.78125 272.097656c-49.863281-32.578125-104-90.199218-106.414062-187.40625-.601563-24.082031-18.695313-44.105468-42.621094-46.894531-28.515625-3.320313-53.640625 18.851563-53.804688 47.558594-1.046875 186.058593 193.128906 213.605469 193.128906 213.605469 15.398438 1.796874 22.691407-18.386719 9.710938-26.863282zm0 0" fill="#f0f5f7"/><path d="m504.175781 287.234375c-1.40625 6.855469-7.480469 12.734375-16.105469 11.730469 0 0-194.171874-27.550782-193.128906-213.605469.011719-1.8125.117188-3.605469.320313-5.363281 2.734375-23.4375 22.230469-41.382813 45.566406-42.46875-10.171875 7.683594-17.257813 19.335937-18.828125 32.78125-.203125 1.757812-.308594 3.550781-.320312 5.363281-.894532 159.625 141.917968 202.582031 182.496093 211.5625zm0 0" fill="#dde9ed"/><path d="m197.167969 378.84375c-.289063 0-.582031-.015625-.875-.050781l-.371094-.042969c-.066406-.007812-.128906-.015625-.195313-.023438l-.371093-.054687c-2.292969-.324219-56.992188-8.382813-111.503907-42.324219-3.515624-2.1875-4.589843-6.816406-2.398437-10.332031 2.1875-3.515625 6.8125-4.589844 10.328125-2.402344 51.855469 32.289063 103.515625 39.898438 105.6875 40.207031l.550781.074219c4.117188.476563 7.0625 4.199219 6.585938 8.3125-.441407 3.820313-3.683594 6.636719-7.4375 6.636719zm0 0"/><path d="m202.492188 349.15625c-.898438 0-1.808594-.054688-2.730469-.160156-.058594-.007813-.121094-.015625-.183594-.023438-2.046875-.292968-50.675781-7.460937-99.867187-38.09375-29.082032-18.105468-52.238282-40.675781-68.824219-67.082031-20.738281-33.019531-31.128907-72.011719-30.88281275-115.898437.08984375-15.792969 6.92968775-30.859376 18.76562475-41.335938 11.859375-10.496094 27.675781-15.472656 43.40625-13.632812 27.390625 3.195312 48.5625 26.476562 49.25 54.15625.578125 23.316406 4.308594 45.550781 11.085938 66.085937 1.296875 3.9375-.835938 8.175781-4.769531 9.472656-3.933594 1.304688-8.175782-.835937-9.472657-4.769531-7.242187-21.933594-11.222656-45.625-11.839843-70.414062-.503907-20.257813-15.976563-37.296876-35.988282-39.628907-11.496094-1.339843-23.0625 2.289063-31.730468 9.964844-8.644532 7.652344-13.640626 18.652344-13.707032 30.183594-.230468 40.878906 9.332032 77.078125 28.425782 107.589843 15.296874 24.441407 36.753906 45.40625 63.78125 62.3125 45.554687 28.496094 92.011718 35.863282 94.386718 36.226563 5.15625.546875 7.027344-3.445313 7.476563-4.6875.453125-1.253906 1.59375-5.574219-2.832031-8.464844-37.667969-24.609375-66.1875-55.410156-84.769532-91.546875-1.894531-3.683594-.441406-8.207031 3.242188-10.101562 3.683594-1.894532 8.203125-.441406 10.097656 3.242187 17.378906 33.796875 44.171875 62.679688 79.632812 85.851563 8.800782 5.746094 12.308594 16.246094 8.734376 26.125-3.261719 9-11.371094 14.628906-20.6875 14.628906zm0 0"/><path d="m104.261719 262.09375c-2.5625 0-5.058594-1.3125-6.457031-3.679688-3.007813-5.078124-5.871094-10.320312-8.503907-15.582031-1.851562-3.703125-.351562-8.210937 3.351563-10.0625 3.703125-1.855469 8.210937-.355469 10.0625 3.347657 2.476562 4.949218 5.164062 9.878906 7.996094 14.652343 2.109374 3.5625.929687 8.164063-2.632813 10.273438-1.199219.710937-2.515625 1.050781-3.816406 1.050781zm0 0"/><path d="m85.503906 222.8125c-3.042968 0-5.90625-1.867188-7.03125-4.886719-10.304687-27.695312-15.929687-57.84375-16.71875-89.601562-.101562-4.140625 3.171875-7.582031 7.3125-7.6875 4.136719-.089844 7.582032 3.171875 7.683594 7.3125.75 30.097656 6.058594 58.609375 15.78125 84.746093 1.445312 3.882813-.53125 8.199219-4.414062 9.644532-.863282.320312-1.746094.472656-2.613282.472656zm0 0"/><path d="m346.214844 327.863281c-.902344 0-1.8125-.054687-2.734375-.160156l.003906-.039063c-4.378906-.582031-24.050781-4.066406-48.867187-13.21875-25.460938-9.390624-62.203126-27.007812-92.625-57.601562-39.007813-39.226562-58.609376-89.773438-58.269532-150.238281.046875-8.417969 1.9375-16.507813 5.617188-24.042969 1.816406-3.722656 6.304687-5.265625 10.027344-3.445312 3.722656 1.816406 5.269531 6.304687 3.449218 10.027343-2.683594 5.496094-4.058594 11.398438-4.09375 17.546875-.230468 40.878906 9.332032 77.074219 28.425782 107.585938 15.292968 24.441406 36.753906 45.40625 63.78125 62.3125 45.550781 28.492187 92.003906 35.863281 94.386718 36.226562 5.160156.554688 7.023438-3.445312 7.476563-4.6875.453125-1.253906 1.589843-5.570312-2.832031-8.464844-48.695313-31.808593-107.269532-91.203124-109.8125-193.496093-.503907-20.257813-15.976563-37.296875-35.992188-39.628907-7.378906-.859374-14.832031.304688-21.554688 3.363282-3.769531 1.71875-8.21875.054687-9.9375-3.714844-1.714843-3.769531-.050781-8.21875 3.71875-9.933594 9.210938-4.195312 19.417969-5.792968 29.511719-4.613281 27.386719 3.191406 48.558594 26.476563 49.246094 54.152344 1.0625 42.648437 12.566406 81.011719 34.191406 114.015625 16.976563 25.910156 40.136719 48.550781 68.832031 67.300781 8.800782 5.75 12.308594 16.246094 8.730469 26.125-3.257812 9-11.367187 14.628906-20.679687 14.628906zm0 0"/><path d="m247.984375 240.800781c-2.5625 0-5.0625-1.3125-6.460937-3.679687-3.003907-5.070313-5.863282-10.3125-8.503907-15.578125-1.851562-3.703125-.355469-8.210938 3.351563-10.066407 3.699218-1.851562 8.207031-.355468 10.0625 3.347657 2.480468 4.957031 5.171875 9.886719 7.996094 14.65625 2.109374 3.5625.933593 8.160156-2.632813 10.273437-1.199219.710938-2.515625 1.046875-3.8125 1.046875zm0 0"/><path d="m229.222656 201.519531c-3.042968 0-5.90625-1.863281-7.03125-4.886719-10.304687-27.691406-15.929687-57.839843-16.71875-89.601562-.101562-4.140625 3.171875-7.582031 7.3125-7.683594 4.152344-.0625 7.582032 3.171875 7.683594 7.3125.746094 30.097656 6.058594 58.609375 15.78125 84.746094 1.445312 3.878906-.53125 8.199219-4.414062 9.644531-.863282.316407-1.746094.46875-2.613282.46875zm0 0"/><path d="m499.925781 244.460938c-1.574219 0-3.164062-.492188-4.519531-1.519532-3.113281-2.355468-6.1875-4.800781-9.132812-7.257812-3.175782-2.65625-3.601563-7.386719-.945313-10.5625 2.65625-3.179688 7.386719-3.601563 10.566406-.949219 2.757813 2.308594 5.636719 4.597656 8.5625 6.808594 3.304688 2.5 3.957031 7.203125 1.457031 10.507812-1.472656 1.945313-3.71875 2.972657-5.988281 2.972657zm0 0"/><path d="m475.25 222.8125c-1.949219 0-3.894531-.753906-5.363281-2.253906-14.4375-14.757813-26.257813-31.21875-35.132813-48.929688-1.855468-3.703125-.359375-8.210937 3.34375-10.066406 3.707032-1.851562 8.210938-.355469 10.066406 3.347656 8.175782 16.320313 19.09375 31.511719 32.445313 45.15625 2.898437 2.960938 2.84375 7.710938-.117187 10.605469-1.457032 1.429687-3.351563 2.140625-5.242188 2.140625zm0 0"/><path d="m423.039062 114.171875c-3.722656 0-6.953124-2.769531-7.429687-6.558594-.964844-7.613281-1.554687-15.515625-1.75-23.480469-.425781-17.054687-6.957031-33.386718-18.394531-45.992187-11.480469-12.652344-27.148438-20.714844-44.113282-22.691406-4.113281-.476563-7.0625-4.203125-6.582031-8.316407.480469-4.113281 4.210938-7.0664058 8.316407-6.582031 20.574218 2.398438 39.566406 12.167969 53.488281 27.515625 13.851562 15.265625 21.765625 35.046875 22.277343 55.695313.1875 7.464843.734376 14.855469 1.636719 21.96875.519531 4.109375-2.390625 7.863281-6.5 8.382812-.316406.039063-.632812.058594-.949219.058594zm0 0"/><path d="m489.933594 306.570312c-.902344 0-1.8125-.050781-2.734375-.160156-.058594-.007812-.121094-.015625-.183594-.023437-1.511719-.214844-37.535156-5.496094-78.960937-26.363281-3.699219-1.863282-5.1875-6.375-3.324219-10.074219s6.375-5.183594 10.074219-3.324219c38.261718 19.273438 72.226562 24.597656 74.226562 24.898438 5.171875.570312 7.03125-3.441407 7.480469-4.6875.453125-1.253907 1.59375-5.570313-2.832031-8.460938-48.691407-31.8125-107.269532-91.210938-109.8125-193.496094-.503907-20.261718-15.976563-37.300781-35.988282-39.632812-11.5-1.335938-23.0625 2.292968-31.730468 9.964844-8.644532 7.652343-13.640626 18.65625-13.707032 30.1875-.398437 70.734374 27.914063 126.121093 84.148438 164.625 3.417968 2.339843 4.292968 7.007812 1.953125 10.425781-2.339844 3.417969-7.007813 4.289062-10.425781 1.949219-26.804688-18.351563-48.042969-40.789063-63.125-66.695313-18.515626-31.792969-27.785157-68.933594-27.550782-110.390625.089844-15.789062 6.929688-30.855469 18.765625-41.332031 11.859375-10.496094 27.679688-15.46875 43.40625-13.632813 27.386719 3.191406 48.5625 26.476563 49.25 54.15625 1.058594 42.648438 12.5625 81.007813 34.191407 114.015625 16.976562 25.90625 40.132812 48.550781 68.828124 67.300781 8.800782 5.746094 12.308594 16.246094 8.734376 26.125-3.261719 8.996094-11.371094 14.625-20.683594 14.625zm0 0"/><path d="m391.703125 219.511719c-2.566406 0-5.0625-1.316407-6.460937-3.683594-3.007813-5.074219-5.867188-10.316406-8.503907-15.578125-1.851562-3.703125-.355469-8.210938 3.347657-10.0625 3.707031-1.855469 8.210937-.355469 10.066406 3.347656 2.476562 4.949219 5.167968 9.878906 7.996094 14.652344 2.109374 3.5625.933593 8.164062-2.632813 10.273438-1.199219.710937-2.515625 1.050781-3.8125 1.050781zm0 0"/><path d="m372.941406 180.230469c-3.042968 0-5.90625-1.867188-7.03125-4.886719-10.304687-27.695312-15.929687-57.84375-16.714844-89.601562-.105468-4.144532 3.167969-7.582032 7.308594-7.6875h.191406c4.054688 0 7.390626 3.234374 7.492188 7.3125.75 30.097656 6.058594 58.609374 15.78125 84.746093 1.445312 3.878907-.53125 8.199219-4.414062 9.644531-.859376.320313-1.746094.472657-2.613282.472657zm0 0"/></svg>