<svg height="512pt" viewBox="-36 0 512 512.00272" width="512pt" xmlns="http://www.w3.org/2000/svg"><path d="m420.167969 259.523438c-7.585938-4.953126-15.261719-10.449219-22.855469-16.527344 10.285156-4.570313 17.460938-14.875 17.460938-26.859375 0-9.601563-4.605469-18.125-11.730469-23.488281 20.394531-19.746094 23.078125-52.089844 5.273437-75.027344-13.652344-17.582032-35.644531-24.867188-56.058594-20.617188-2.074218-23.96875-22.164062-42.785156-46.667968-42.8125-2.441406-24.039062-21.160156-43.503906-45.511719-46.339844-30.628906-3.574218-57.621094 20.246094-57.796875 51.082032-1.125 199.859375 207.449219 229.449218 207.449219 229.449218 16.542969 1.929688 24.375-19.75 10.4375-28.859374zm0 0" fill="#f0f5f7"/><path d="m411.789062 288.5c-.667968 0-1.355468-.03125-2.054687-.117188 0 0-11.972656-1.695312-30.171875-7.035156-.910156-3.40625-3.058594-6.585937-6.660156-8.9375-7.582032-4.953125-15.261719-10.441406-22.855469-16.519531 10.289063-4.578125 17.464844-14.878906 17.464844-26.867187 0-9.601563-4.609375-18.128907-11.730469-23.492188 20.386719-19.742188 23.074219-52.082031 5.273438-75.015625-13.652344-17.582031-35.648438-24.867187-56.058594-20.625-2.070313-23.972656-22.167969-42.78125-46.671875-42.8125-2.242188-22.160156-18.324219-40.433594-39.902344-45.371094 9.335937-8.84375 21.914063-14.214843 35.566406-14.214843 2.007813 0 4.039063.121093 6.089844.355468 24.347656 2.835938 43.070313 22.300782 45.511719 46.339844 24.5.03125 44.597656 18.839844 46.667968 42.8125 20.410157-4.242188 42.40625 3.039062 56.058594 20.625 17.800782 22.933594 15.113282 55.273438-5.273437 75.015625 7.121093 5.363281 11.730469 13.890625 11.730469 23.492187 0 11.988282-7.175782 22.289063-17.464844 26.863282 7.59375 6.082031 15.273437 11.570312 22.855468 16.523437 13.355469 8.722657 6.726563 28.980469-8.375 28.980469zm0 0" fill="#dde9ed"/><path d="m422.363281 459.972656c-10.628906-6.941406-21.375-14.597656-32.035156-23.011718 15.792969-6.6875 26.871094-22.332032 26.871094-40.558594 0-22.113282-16.300781-40.410156-37.535157-43.550782 7.242188-11.054687 11.46875-24.261718 11.46875-38.460937 0-38.8125-31.464843-70.277344-70.277343-70.277344-2.820313 0-5.597657.1875-8.332031.511719-5.300782-28.335938-29.542969-49.988281-59.089844-51.304688-1.242188-11.285156-2.035156-22.929687-2.335938-34.953124-.960937-38.753907-30.082031-70.980469-68.589844-75.46875-45.886718-5.347657-86.328124 30.339843-86.589843 76.539062-1.6875 299.441406 310.8125 343.773438 310.8125 343.773438 24.78125 2.890624 36.519531-29.589844 15.632812-43.238282zm0 0" fill="#c4e1e8"/><path d="m409.800781 503.390625c-1 0-2.03125-.0625-3.070312-.179687 0 0-12.441407-1.761719-32.332031-6.972657.214843-7.464843-3.042969-15.101562-10.773438-20.148437-10.625-6.941406-21.375-14.597656-32.03125-23.011719 15.789062-6.691406 26.863281-22.339844 26.863281-40.570313 0-22.105468-16.292969-40.40625-37.53125-43.542968 7.242188-11.054688 11.460938-24.265625 11.460938-38.464844 0-38.808594-31.460938-70.273438-70.269531-70.273438-2.824219 0-5.59375.183594-8.335938.507813-5.304688-28.335937-29.535156-49.992187-59.085938-51.300781-1.246093-11.28125-2.042968-22.933594-2.34375-34.953125-.945312-38.25-29.324218-70.140625-67.101562-75.289063 13.300781-10.566406 30.097656-16.828125 48.132812-16.828125 3.007813 0 6.046876.179688 9.121094.535157 38.507813 4.488281 67.625 36.714843 68.59375 75.46875.300782 12.019531 1.09375 23.664062 2.332032 34.953124 29.546874 1.308594 53.792968 22.964844 59.097656 51.300782 2.726562-.320313 5.511718-.503906 8.335937-.503906 38.808594 0 70.269531 31.460937 70.269531 70.269531 0 14.199219-4.230468 27.410156-11.472656 38.464843 21.234375 3.136719 37.542969 21.4375 37.542969 43.546876 0 18.226562-11.085937 33.878906-26.875 40.558593 10.664063 8.410157 21.40625 16.070313 32.039063 23.019531 20 13.058594 10.078124 43.414063-12.566407 43.414063zm0 0" fill="#a4d5dd"/><path d="m243.878906 473.066406c-7.695312-5.027344-15.476562-10.570312-23.195312-16.660156 11.433594-4.847656 19.453125-16.171875 19.453125-29.371094 0-16.007812-11.800781-29.257812-27.179688-31.535156 5.246094-8 8.304688-17.5625 8.304688-27.847656 0-28.101563-22.78125-50.882813-50.882813-50.882813-2.042968 0-4.054687.132813-6.035156.367188-3.835938-20.515625-21.390625-36.195313-42.785156-37.148438-.898438-8.167969-1.472656-16.601562-1.691406-25.308593-.695313-28.058594-21.78125-51.394532-49.664063-54.644532-33.226563-3.875-62.507813 21.96875-62.699219 55.421875-1.21875 216.816407 225.054688 248.917969 225.054688 248.917969 17.945312 2.089844 26.445312-21.425781 11.320312-31.308594zm0 0" fill="#f0f5f7"/><path d="m234.78125 504.5c-.71875 0-1.460938-.042969-2.222656-.128906 0 0-8.59375-1.214844-22.417969-4.78125-.128906-5.089844-2.523437-10.183594-7.796875-13.632813-7.691406-5.027343-15.480469-10.578125-23.191406-16.667969 11.429687-4.835937 19.453125-16.167968 19.453125-29.367187 0-16.003906-11.804688-29.261719-27.175781-31.527344 5.242187-8 8.300781-17.574219 8.300781-27.851562 0-28.101563-22.78125-50.882813-50.878907-50.882813-2.054687 0-4.0625.128906-6.039062.367188-3.835938-20.519532-21.394531-36.199219-42.78125-37.144532-.902344-8.175781-1.484375-16.605468-1.699219-25.308593-.695312-28.066407-21.78125-51.394531-49.65625-54.652344-.375-.042969-.742187-.085937-1.117187-.117187 9.816406-8.238282 22.4375-13.15625 36.046875-13.15625 2.179687 0 4.382812.128906 6.597656.386718 27.882813 3.253906 48.96875 26.582032 49.667969 54.652344.214844 8.699219.792968 17.132812 1.683594 25.304688 21.398437.945312 38.949218 16.628906 42.785156 37.144531 1.984375-.234375 3.996094-.363281 6.035156-.363281 28.113281 0 50.894531 22.78125 50.894531 50.878906 0 10.28125-3.0625 19.851562-8.316406 27.855468 15.382813 2.265626 27.1875 15.519532 27.1875 31.523438 0 13.203125-8.023437 24.535156-19.453125 29.367188 7.710938 6.089843 15.488281 11.644531 23.191406 16.671874 14.480469 9.460938 7.304688 31.429688-9.097656 31.429688zm0 0" fill="#dde9ed"/><path d="m373.3125 73.890625c11.945312 1.425781 23.089844 5.425781 33.125 11.890625 1.253906.8125 2.664062 1.199219 4.054688 1.199219 2.464843 0 4.878906-1.214844 6.3125-3.441407 2.242187-3.480468 1.238281-8.121093-2.242188-10.367187-11.964844-7.707031-25.246094-12.476563-39.46875-14.175781-4.117188-.488282-7.847656 2.445312-8.335938 6.558594-.492187 4.109374 2.441407 7.84375 6.554688 8.335937zm0 0"/><path d="m65.875 166.769531h.042969c4.121093 0 7.476562-3.332031 7.5-7.457031.210937-37.707031 21.367187-71.734375 55.210937-88.808594 3.695313-1.867187 5.183594-6.378906 3.316406-10.078125-1.867187-3.695312-6.378906-5.179687-10.074218-3.316406-38.894532 19.625-63.210938 58.753906-63.453125 102.117187-.023438 4.144532 3.316406 7.519532 7.457031 7.542969zm0 0"/><path d="m426.464844 453.695312c-7.734375-5.050781-15.320313-10.355468-22.65625-15.839843 12.96875-9.574219 20.890625-24.839844 20.890625-41.453125 0-21.773438-13.929688-41.007813-33.726563-48.351563 5.035156-10.457031 7.660156-21.921875 7.660156-33.660156 0-7.3125-1.035156-14.382813-2.933593-21.097656 7.9375 1.789062 12.695312 2.476562 12.980469 2.515625.0625.007812.121093.015625.183593.023437.964844.113281 1.921875.167969 2.863281.167969 9.773438 0 18.285157-5.902344 21.703126-15.347656 3.75-10.363282.070312-21.375-9.160157-27.40625-4.8125-3.144532-9.523437-6.425782-14.089843-9.804688 7.570312-6.882812 12.09375-16.742187 12.09375-27.304687 0-8.914063-3.117188-17.28125-8.746094-23.875 13.675781-16.980469 17.875-40.167969 10.589844-61.082031-1.363282-3.914063-5.640626-5.980469-9.550782-4.617188-3.914062 1.363281-5.980468 5.640625-4.617187 9.550781 6.234375 17.902344 1.476562 37.976563-12.125 51.144531-1.574219 1.523438-2.402344 3.664063-2.265625 5.851563.132812 2.191406 1.222656 4.210937 2.972656 5.527344 5.554688 4.183593 8.742188 10.5625 8.742188 17.5 0 8.640625-5.105469 16.492187-13.011719 20.007812-2.390625 1.0625-4.058594 3.296875-4.390625 5.894531-.335938 2.597657.707031 5.179688 2.753906 6.816407 7.402344 5.921875 15.289062 11.621093 23.4375 16.949219 4.046875 2.644531 4.339844 6.765624 3.261719 9.742187-1.070313 2.949219-3.902344 5.898437-8.628907 5.398437-.964843-.148437-9.429687-1.46875-22.203124-4.882812-13.386719-23.53125-38.679688-39.449219-67.636719-39.449219-.832031 0-1.675781.015625-2.53125.046875-3.734375-12.867187-11.152344-24.566406-21.3125-33.464844-10.34375-9.054687-23.195313-14.890624-36.742188-16.773437-.875-9.285156-1.4375-18.757813-1.671875-28.242187-.511718-20.5625-8.382812-40.25-22.164062-55.4375-7.304688-8.050782-16.03125-14.539063-25.640625-19.234376-.703125-7.964843-1.058594-16.195312-1.011719-24.53125.070312-12.542968 5.503906-24.515624 14.910156-32.839843 9.433594-8.347657 22.015625-12.296875 34.515625-10.839844 20.789063 2.425781 36.792969 18.730469 38.921875 39.652344.390625 3.824219 3.609375 6.738281 7.453125 6.742187 20.242188.019532 37.460938 15.8125 39.203125 35.957032.183594 2.136718 1.273438 4.089843 2.996094 5.371093 1.71875 1.28125 3.902344 1.761719 6.003906 1.324219 13.804688-2.871094 28.160156.332031 39.386719 8.789062 1.351563 1.019532 2.9375 1.507813 4.507813 1.507813 2.273437 0 4.523437-1.027344 5.996093-2.984375 2.492188-3.308594 1.832031-8.011719-1.476562-10.503906-12.585938-9.480469-28.164063-13.914063-43.722657-12.617188-2.472656-10.472656-8.023437-20.015625-16.054687-27.429687-8.457031-7.8125-19.058594-12.671875-30.367187-14.027344-2.339844-10.976563-7.769532-21.1875-15.636719-29.246094-9.445313-9.675781-22.042969-15.867187-35.472657-17.433593-16.738281-1.953126-33.574218 3.335937-46.191406 14.503906-12.597656 11.152344-19.875 27.183594-19.96875 43.988281-.035156 6.355469.160156 12.648437.539063 18.839844-3.902344-1.035157-7.890625-1.808594-11.945313-2.28125-23.542968-2.75-46.5 4.140625-64.640625 19.386719-3.171875 2.664062-3.582031 7.398437-.914062 10.566406 2.664062 3.171875 7.394531 3.582031 10.566406.917968 14.945313-12.5625 33.855469-18.234374 53.25-15.972656 16.800781 1.957032 32.3125 9.9375 43.6875 22.472656 11.363281 12.523438 17.851563 28.765626 18.273437 45.730469.296876 11.984375 1.097657 23.957031 2.378907 35.585938.402343 3.675781 3.425781 6.507812 7.121093 6.671875 25.882813 1.152344 47.289063 19.738281 52.046876 45.191406.726562 3.882812 4.339843 6.527344 8.257812 6.070312 2.597656-.308593 5.035156-.457031 7.453125-.457031 34.613281 0 62.773437 28.160157 62.773437 62.773438 0 12.246093-3.542968 24.125-10.242187 34.347656-1.402344 2.140625-1.617187 4.847656-.570313 7.183594 1.046876 2.335937 3.214844 3.972656 5.746094 4.347656 17.75 2.625 31.132813 18.160156 31.132813 36.132813 0 14.707031-8.75 27.917968-22.292969 33.65625-2.441406 1.03125-4.15625 3.277343-4.507812 5.90625-.355469 2.625.707031 5.246093 2.785156 6.886718 10.363281 8.179688 21.324218 16.050782 32.578125 23.402344 7.890625 5.15625 8.457031 13.195312 6.355469 19-2.089844 5.773438-7.636719 11.558594-16.917969 10.519531-3.113281-.464843-83.679688-12.996093-160.453125-63.261719.25-1.796874.394531-3.621093.394531-5.472656 0-15.871094-9.683594-29.976562-23.707031-36.117187 3.175781-7.300781 4.832031-15.195313 4.832031-23.265625 0-32.195313-26.191406-58.386719-58.386719-58.386719-.097656 0-.195312 0-.296875 0-6.035156-18.917969-22.058593-32.804687-41.660156-36.085937-.546875-6.160157-.898437-12.421876-1.054687-18.6875-.382813-15.382813-6.273438-30.113282-16.582032-41.480469-1.460937-1.609375-3.007812-3.128907-4.613281-4.570313-1.914063-15.757812-2.847656-32.207031-2.753906-48.964844.058593-10.527343 2.394531-20.625 6.9375-30.011718 1.804687-3.730469.246093-8.214844-3.484375-10.019532-3.726563-1.808593-8.214844-.246093-10.019532 3.480469-5.523437 11.417969-8.363281 23.6875-8.433593 36.46875-.074219 13.042969.460937 25.914063 1.566406 38.453125-5.949219-2.703125-12.320313-4.496094-18.910156-5.265625-17.980469-2.09375-36.0625 3.585938-49.617188 15.582031-13.53125 11.976563-21.347656 29.195313-21.4492185 47.246094-.6875005 122.003906 69.2695315 186.722656 128.0820315 219.53125 3.617187 2.019532 8.183594.722656 10.203125-2.894531s.722656-8.1875-2.894531-10.207031c-34.699219-19.355469-62.421876-43.972656-82.398438-73.164063-25.5-37.253906-38.28125-82.0625-37.992188-133.175781.078126-13.792969 6.050782-26.949219 16.390626-36.101562 10.363281-9.175782 24.191406-13.519532 37.9375-11.914063 23.933593 2.789063 42.433593 23.160156 43.035156 47.382813.21875 8.726562.800781 17.457031 1.734375 25.941406.402343 3.675781 3.425781 6.507812 7.121093 6.671875 17.777344.792969 32.476563 13.554687 35.746094 31.035156.726563 3.882813 4.339844 6.527344 8.253906 6.070313 1.804688-.214844 3.488282-.316407 5.152344-.316407 23.921875 0 43.386719 19.460938 43.386719 43.382813 0 8.464844-2.449219 16.671875-7.078125 23.734375-1.402344 2.140625-1.617188 4.847656-.570312 7.183593 1.046874 2.335938 3.214843 3.976563 5.746093 4.347657 11.84375 1.753906 20.777344 12.121093 20.777344 24.117187 0 9.816406-5.84375 18.632813-14.882813 22.460938-2.4375 1.035156-4.152343 3.28125-4.503906 5.910156-.355468 2.625.707032 5.242188 2.785156 6.886719 7.550782 5.953125 15.535157 11.691406 23.738282 17.050781 4.703125 3.074219 5.039062 7.863281 3.789062 11.320312-1.242187 3.433594-4.535156 6.867188-10.039062 6.269532-1.871094-.277344-32.128906-4.976563-69.386719-20.980469-3.804687-1.628906-8.21875.128906-9.851563 3.933594-1.636718 3.808593.125 8.21875 3.933594 9.851562 40.09375 17.21875 71.949219 21.875 73.285156 22.0625.0625.011719.125.019531.183594.023438 1.019532.121093 2.03125.179687 3.03125.179687 10.332032 0 19.332032-6.246094 22.949219-16.230468 3.964844-10.957032.074219-22.605469-9.691406-28.984376-4.808594-3.140624-9.535157-6.417968-14.136719-9.792968 3.316406-2.832032 6.117188-6.1875 8.316406-9.90625 79.75 51.1875 160.054688 63.058594 163.519532 63.550781.058593.007813.121093.015625.183593.019531 1.289063.152344 2.570313.226563 3.832031.226563 13.070313 0 24.453126-7.894531 29.027344-20.523438 5.015625-13.863281.09375-28.601562-12.257812-36.667969zm0 0"/><path d="m37.550781 248.125c-4.128906-.054688-7.519531 3.316406-7.542969 7.457031-.285156 50.273438 12.800782 93.878907 38.890626 129.609375 1.46875 2.011719 3.75 3.078125 6.0625 3.078125 1.53125 0 3.082031-.46875 4.417968-1.445312 3.34375-2.441407 4.074219-7.132813 1.632813-10.476563-24.15625-33.085937-36.269531-73.6875-36.003907-120.679687.023438-4.140625-3.316406-7.519531-7.457031-7.542969zm0 0"/><path d="m114.066406 411.21875c-4.507812-3.730469-8.851562-7.640625-12.910156-11.625-2.957031-2.902344-7.707031-2.859375-10.609375.097656-2.898437 2.957032-2.855469 7.703125.101563 10.605469 4.359374 4.28125 9.023437 8.480469 13.855468 12.480469 1.398438 1.15625 3.09375 1.722656 4.777344 1.722656 2.15625 0 4.296875-.925781 5.78125-2.71875 2.640625-3.191406 2.195312-7.917969-.996094-10.5625zm0 0"/></svg>