<svg height="512pt" viewBox="0 -63 512.00008 512" width="512pt" xmlns="http://www.w3.org/2000/svg"><path d="m343.414062 192.503906c4.898438-25.5625-11.851562-50.261718-37.417968-55.160156-13.132813-2.519531-26.035156.691406-36.144532 7.867188-5.066406-2.703126-10.617187-4.699219-16.554687-5.839844-17.964844-3.441406-35.582031 1.722656-48.601563 12.605468-4.546874-5.496093-10.960937-9.5-18.515624-10.949218-17.261719-3.308594-33.941407 8.003906-37.25 25.269531-3.308594 17.261719 8.003906 33.941406 25.269531 37.25 3.359375.644531 6.695312.726563 9.917969.328125 2.953124 24.632812 21.460937 45.617188 47.128906 50.535156 23.472656 4.5 46.339844-5.695312 59.148437-24.136718 24.785157 3.597656 48.253907-12.917969 53.019531-37.769532zm0 0" fill="#a0ecff"/><path d="m343.414062 192.503906c-4.769531 24.847656-28.230468 41.367188-53.019531 37.765625-12.808593 18.445313-35.671875 28.640625-59.144531 24.140625-15.882812-3.042968-29.019531-12.238281-37.429688-24.636718 3.234376 1.246093 6.625 2.222656 10.15625 2.902343 23.472657 4.5 46.347657-5.695312 59.15625-24.132812 24.777344 3.59375 48.25-12.925781 53.019532-37.777344 2.203125-11.5.019531-22.820313-5.367188-32.25 22.832032 6.894531 37.21875 30.058594 32.628906 53.988281zm0 0" fill="#60daff"/><path d="m185.433594 367.558594c6.402344-6.402344 9.828125-14.648438 10.296875-23.027344 7.546875 1.910156 15.875-.082031 21.78125-5.988281 8.921875-8.921875 8.921875-23.386719 0-32.308594s-23.386719-8.921875-32.3125 0c-2.109375 2.109375-3.714844 4.53125-4.824219 7.113281-13.773438-9.429687-32.726562-8.039062-44.960938 4.191406-13.808593 13.8125-13.808593 36.207032 0 50.015626 13.816407 13.816406 36.207032 13.816406 50.019532.003906zm0 0" fill="#a0ecff"/><path d="m192.84375 356.699219c-1.714844 3.941406-4.1875 7.632812-7.410156 10.855469-13.816406 13.816406-36.203125 13.816406-50.019532 0-13.804687-13.808594-13.804687-36.203126 0-50.019532 2.585938-2.582031 5.476563-4.6875 8.550782-6.304687-5.636719 12.949219-3.171875 28.570312 7.410156 39.15625 11.234375 11.230469 28.121094 13.324219 41.46875 6.3125zm0 0" fill="#60daff"/><path d="m429.105469 274.398438c7.824219-7.828126 11.976562-17.9375 12.453125-28.1875 15.101562 5.484374 32.675781 2.179687 44.785156-9.929688 14.433594-14.433594 16.359375-36.628906 5.796875-53.144531 17.390625-20.351563 16.476563-50.976563-2.773437-70.226563-20.230469-20.226562-53.023438-20.226562-73.253907 0-20.226562 20.226563-20.226562 53.023438 0 73.25.507813.507813 1.03125.996094 1.554688 1.476563-2.496094 5.207031-3.886719 10.8125-4.148438 16.464843-15.101562-5.484374-32.675781-2.183593-44.785156 9.929688-16.671875 16.667969-16.671875 43.695312 0 60.367188 16.671875 16.671874 43.699219 16.671874 60.371094 0zm0 0" fill="#a0ecff"/><path d="m492.140625 183.132812c10.5625 16.519532 8.636719 38.714844-5.796875 53.152344-12.109375 12.109375-29.6875 15.410156-44.78125 9.921875-.476562 10.257813-4.628906 20.363281-12.457031 28.191407-16.671875 16.671874-43.703125 16.671874-60.371094 0-4-4-7.035156-8.585938-9.109375-13.496094 15.042969 5.367187 32.5 2.023437 44.539062-10.023438 7.832032-7.824218 11.980469-17.9375 12.460938-28.183594 15.09375 5.488282 32.667969 2.175782 44.78125-9.933593 14.433594-14.433594 16.359375-36.628907 5.792969-53.140625 13.898437-16.257813 16.113281-39.074219 6.613281-57.40625 5.636719 2.503906 10.925781 6.0625 15.554688 10.691406 19.25 19.253906 20.167968 49.878906 2.773437 70.226562zm0 0" fill="#60daff"/><path d="m249.921875 89.464844c8.867187 2.070312 17.632813.292968 24.65625-4.171875 3.171875 11.71875 12.84375 21.144531 25.589844 23.371093 15.191406 2.652344 29.746093-5.796874 35.367187-19.5 20.78125 1.96875 39.855469-12.871093 42.496094-34.199218 2.40625-19.480469-10.332031-38.019532-29.386719-42.71875-22.253906-5.492188-44.125 9.046875-48 31.242187 0 .003907 0 .007813-.003906.015625-.15625.914063-.828125 1.675782-1.738281 1.871094-3.746094.808594-7.289063 2.277344-10.472656 4.296875-3.167969-11.714844-12.84375-21.140625-25.589844-23.367187-18.289063-3.191407-35.664063 9.699218-37.628906 28.488281-1.671876 16.007812 9.035156 31.019531 24.710937 34.671875zm0 0" fill="#a0ecff"/><path d="m225.210938 54.789062c1.082031-10.308593 6.808593-18.847656 14.769531-23.917968-.011719.101562-.027344.191406-.035157.296875-1.941406 18.632812 10.507813 36.089843 28.75 40.339843 10.308594 2.40625 20.511719.339844 28.683594-4.855468 3.6875 13.636718 14.9375 24.605468 29.769532 27.1875 1.894531.328125 3.78125.515625 5.636718.554687-6.816406 10.546875-19.46875 16.5625-32.621094 14.265625-12.742187-2.21875-22.417968-11.648437-25.582031-23.371094-7.023437 4.472657-15.792969 6.246094-24.660156 4.175782-15.675781-3.65625-26.382813-18.65625-24.710937-34.675782zm0 0" fill="#60daff"/><path d="m126.6875 216.175781c0-22.933593-18.589844-41.523437-41.519531-41.523437-22.933594 0-41.523438 18.589844-41.523438 41.523437 0 5.988281 1.277344 11.671875 3.558594 16.816407-15.488281 7.585937-26.15625 23.503906-26.15625 41.914062 0 25.765625 20.886719 46.652344 46.652344 46.652344s46.652343-20.886719 46.652343-46.652344c0-8.738281-2.40625-16.914062-6.585937-23.902344 11.386719-7.40625 18.921875-20.234375 18.921875-34.828125zm0 0" fill="#a0ecff"/><path d="m107.765625 251c4.179687 6.992188 6.59375 15.164062 6.59375 23.902344 0 25.765625-20.890625 46.652344-46.65625 46.652344-7.730469 0-15.023437-1.882813-21.4375-5.214844 20.628906-4.820313 36-23.332032 36-45.429688 0-8.738281-2.414063-16.90625-6.59375-23.898437 11.394531-7.402344 18.925781-20.230469 18.925781-34.824219 0-15.363281-8.339844-28.792969-20.75-35.972656 3.601563-1.019532 7.390625-1.566406 11.320313-1.566406 22.933593 0 41.519531 18.59375 41.519531 41.527343 0 14.59375-7.53125 27.421875-18.921875 34.824219zm0 0" fill="#60daff"/><path d="m7.8125 63.746094c-4.378906 22.847656 10.59375 44.921875 33.441406 49.300781 11.742188 2.253906 23.269532-.617187 32.304688-7.027344 4.53125 2.414063 9.492187 4.199219 14.796875 5.214844 16.058593 3.078125 31.800781-1.539063 43.441406-11.261719 4.0625 4.910156 9.796875 8.488282 16.546875 9.78125 15.429688 2.960938 30.335938-7.152344 33.292969-22.582031s-7.152344-30.335937-22.582031-33.292969c-3.003907-.578125-5.988282-.652344-8.867188-.292968-2.636719-22.015626-19.183594-40.773438-42.125-45.171876-20.976562-4.019531-41.414062 5.09375-52.863281 21.574219-22.152344-3.214843-43.128907 11.546875-47.386719 33.757813zm0 0" fill="#a0ecff"/><path d="m181.632812 87.171875c-2.953124 15.433594-17.855468 25.539063-33.289062 22.585937-6.753906-1.296874-12.480469-4.878906-16.550781-9.785156-11.640625 9.726563-27.378907 14.34375-43.441407 11.261719-5.308593-1.019531-10.265624-2.804687-14.792968-5.21875-9.039063 6.414063-20.558594 9.289063-32.300782 7.035156-18.324218-3.511719-31.582031-18.40625-33.855468-35.941406 4.785156 3.429687 10.382812 5.902344 16.558594 7.089844 11.742187 2.253906 23.273437-.617188 32.308593-7.03125 4.53125 2.414062 9.488281 4.199219 14.792969 5.21875 16.0625 3.082031 31.804688-1.539063 43.445312-11.265625 4.058594 4.910156 9.796876 8.492187 16.546876 9.789062 15.425781 2.953125 30.335937-7.152344 33.289062-22.585937.179688-.917969.308594-1.824219.390625-2.734375 12.128906 5.089844 19.480469 18.136718 16.898437 31.582031zm0 0" fill="#60daff"/><path d="m312.289062 359.050781c8.394532-3.390625 14.769532-9.640625 18.476563-17.171875 6.199219 4.707032 14.648437 6.128906 22.386719 3 11.699218-4.726562 17.355468-18.039062 12.628906-29.742187-4.726562-11.699219-18.039062-17.351563-29.742188-12.625-2.765624 1.117187-5.1875 2.71875-7.222656 4.664062-8.992187-14.0625-26.980468-20.191406-43.019531-13.714843-18.113281 7.316406-26.863281 27.929687-19.546875 46.039062 7.316406 18.113281 27.929688 26.863281 46.039062 19.550781zm0 0" fill="#a0ecff"/><path d="m266.257812 339.5c-1.601562-3.960938-2.429687-8.039062-2.570312-12.078125 9.585938 11.429687 25.773438 15.949219 40.355469 10.066406 8.386719-3.394531 14.765625-9.636719 18.472656-17.167969 6.207031 4.707032 14.652344 6.125 22.390625 2.992188 7.660156-3.085938 12.722656-9.855469 13.980469-17.4375 2.964843 2.363281 5.371093 5.496094 6.890625 9.265625 4.734375 11.699219-.921875 25.019531-12.625 29.742187-7.746094 3.125-16.191406 1.707032-22.382813-3.003906-3.707031 7.53125-10.089843 13.78125-18.484375 17.164063-18.105468 7.324219-38.71875-1.429688-46.027344-19.542969zm0 0" fill="#60daff"/><path d="m398.917969 294.359375c-12.847657 0-25.691407-4.890625-35.472657-14.671875-9.476562-9.476562-14.695312-22.074219-14.695312-35.476562 0-13.398438 5.21875-25.996094 14.695312-35.472657 11.550782-11.554687 28.027344-16.625 43.835938-13.984375.421875-1.816406.945312-3.609375 1.570312-5.375-21.117187-23.234375-20.460937-59.328125 1.972657-81.761718 16.121093-16.121094 39.554687-21.550782 61.144531-14.160157 3.910156 1.339844 5.996094 5.589844 4.65625 9.5-1.335938 3.910157-5.589844 5.996094-9.5 4.65625-16.148438-5.523437-33.667969-1.46875-45.71875 10.585938-8.371094 8.367187-12.980469 19.496093-12.980469 31.335937 0 11.835938 4.609375 22.964844 12.980469 31.332032.4375.4375.882812.851562 1.332031 1.265624 2.417969 2.226563 3.097657 5.773438 1.675781 8.738282-2.050781 4.273437-3.203124 8.839844-3.421874 13.574218-.109376 2.375-1.347657 4.558594-3.324219 5.875-1.976563 1.320313-4.464844 1.621094-6.703125.808594-12.8125-4.652344-27.3125-1.4375-36.9375 8.1875-6.652344 6.652344-10.3125 15.492188-10.3125 24.894532 0 9.40625 3.660156 18.246093 10.308594 24.894531 13.730468 13.730469 36.066406 13.726562 49.789062 0 6.214844-6.214844 9.867188-14.46875 10.273438-23.242188.109374-2.375 1.34375-4.558593 3.324218-5.878906 1.976563-1.316406 4.464844-1.621094 6.703125-.808594 12.8125 4.652344 27.3125 1.441407 36.9375-8.1875 11.597657-11.59375 13.609375-30.027343 4.789063-43.824219-1.777344-2.777343-1.527344-6.386718.613281-8.890624 12.941406-15.144532 14.148437-37.207032 2.9375-53.65625-2.328125-3.414063-1.445313-8.070313 1.96875-10.398438 3.414063-2.324219 8.070313-1.445312 10.394531 1.972656 14 20.535156 13.53125 47.613282-.65625 67.609375 9.398438 18.996094 5.777344 42.527344-9.464844 57.769531-11.550781 11.550782-28.027343 16.625-43.835937 13.980469-2.101563 9.082031-6.707031 17.4375-13.402344 24.132813-9.78125 9.785156-22.628906 14.671875-35.476562 14.675781zm0 0"/><path d="m305.613281 116.613281c-2.230469 0-4.480469-.1875-6.730469-.582031-12.175781-2.125-22.566406-9.851562-28.25-20.519531-7.121093 2.550781-14.835937 3.007812-22.40625 1.238281-19.433593-4.527344-32.523437-22.902344-30.453124-42.738281 1.160156-11.113281 6.691406-20.929688 15.570312-27.636719 8.757812-6.613281 19.980469-9.324219 30.785156-7.441406 12.179688 2.128906 22.570313 9.859375 28.257813 20.53125.523437-.1875 1.050781-.359375 1.582031-.523438 2.84375-11.355468 9.914062-21.34375 19.765625-27.769531 10.933594-7.132813 23.96875-9.332031 36.707031-6.191406 22.851563 5.640625 37.90625 27.523437 35.015625 50.902343-2.902343 23.46875-22.339843 40.585938-45.371093 40.9375-7.109376 12.207032-20.394532 19.792969-34.472657 19.792969zm-31.03125-38.800781c.914063 0 1.832031.167969 2.707031.507812 2.21875.859376 3.890626 2.726563 4.511719 5.019532 2.503907 9.257812 10.21875 16.304687 19.65625 17.953125 11.363281 1.984375 22.785157-4.3125 27.160157-14.96875 1.25-3.046875 4.34375-4.921875 7.625-4.609375 17.160156 1.640625 32.242187-10.527344 34.363281-27.667969 1.929687-15.605469-8.503907-30.777344-23.753907-34.539063-8.660156-2.136718-17.519531-.644531-24.945312 4.199219-7.433594 4.847657-12.367188 12.328125-13.890625 21.066407-.691406 3.972656-3.648437 7.074218-7.53125 7.914062-2.867187.617188-5.570313 1.730469-8.042969 3.300781-2.011718 1.277344-4.503906 1.519531-6.722656.660157-2.214844-.859376-3.890625-2.726563-4.511719-5.023438-2.503906-9.253906-10.21875-16.300781-19.652343-17.949219-6.835938-1.195312-13.652344.453125-19.195313 4.640625-5.53125 4.179688-8.980469 10.308594-9.707031 17.253906-1.289063 12.347657 6.867187 23.789063 18.96875 26.609376 6.5625 1.527343 13.289062.394531 18.945312-3.199219 1.21875-.773438 2.613282-1.167969 4.015625-1.167969zm0 0"/><path d="m67.699219 329.042969c-29.851563 0-54.136719-24.285157-54.136719-54.136719 0-18.550781 9.226562-35.363281 24.46875-45.296875-1.242188-4.347656-1.871094-8.84375-1.871094-13.433594 0-27.023437 21.984375-49.003906 49.003906-49.003906 27.023438 0 49.007813 21.980469 49.007813 49.003906 0 14.355469-6.210937 27.753907-16.886719 37.003907 2.988282 6.816406 4.550782 14.21875 4.550782 21.726562 0 29.851562-24.285157 54.136719-54.136719 54.136719zm17.46875-146.910157c-18.769531 0-34.042969 15.273438-34.042969 34.042969 0 4.78125.980469 9.417969 2.917969 13.78125 1.628906 3.675781.0625 7.984375-3.550781 9.753907-13.546876 6.636718-21.964844 20.125-21.964844 35.195312 0 21.597656 17.574218 39.171875 39.171875 39.171875 21.601562 0 39.171875-17.574219 39.171875-39.171875 0-7.078125-1.910156-14.015625-5.527344-20.066406-2.0625-3.453125-1.03125-7.917969 2.34375-10.113282 9.71875-6.316406 15.519531-16.992187 15.519531-28.554687 0-18.765625-15.269531-34.039063-34.039062-34.039063zm0 0"/><path d="m251.125 262.273438c-3.632812 0-6.820312-2.648438-7.386719-6.347657-.625-4.082031 2.175781-7.902343 6.261719-8.527343 13.792969-2.117188 26.273438-9.914063 34.25-21.390626 1.617188-2.328124 4.40625-3.546874 7.21875-3.136718 21.007812 3.042968 40.597656-10.910156 44.59375-31.773438 1.996094-10.402344-.179688-20.957031-6.125-29.722656s-14.949219-14.691406-25.347656-16.683594c-10.699219-2.054687-21.503906.300782-30.410156 6.617188-2.308594 1.640625-5.347657 1.835937-7.847657.503906-4.511719-2.410156-9.371093-4.121094-14.441406-5.09375-15.113281-2.894531-30.566406 1.109375-42.398437 10.996094-1.527344 1.277344-3.503907 1.890625-5.480469 1.710937-1.984375-.183593-3.808594-1.148437-5.078125-2.679687-3.589844-4.335938-8.621094-7.308594-14.160156-8.371094-6.386719-1.226562-12.867188.109375-18.25 3.761719-5.382813 3.648437-9.019532 9.175781-10.246094 15.5625-1.222656 6.386719.113281 12.871093 3.765625 18.25 3.648437 5.382812 9.175781 9.023437 15.5625 10.246093 2.507812.480469 5.0625.5625 7.589843.253907 1.976563-.25 3.964844.304687 5.535157 1.53125 1.566406 1.226562 2.578125 3.023437 2.816406 5 2.132813 17.808593 13.640625 33.371093 30.03125 40.617187 3.78125 1.671875 5.488281 6.089844 3.816406 9.867188-1.671875 3.78125-6.089843 5.492187-9.867187 3.816406-19.089844-8.4375-33.0625-25.605469-37.660156-45.753906-1.699219-.101563-3.394532-.3125-5.074219-.632813-10.3125-1.976562-19.238281-7.851562-25.132813-16.542969-5.894531-8.691406-8.050781-19.152343-6.074218-29.464843 1.976562-10.3125 7.847656-19.238281 16.539062-25.132813 8.691406-5.894531 19.152344-8.050781 29.46875-6.074218 6.570312 1.257812 12.699219 4.1875 17.789062 8.429687 14.421876-9.730469 32.046876-13.402344 49.328126-10.085937 5.058593.96875 9.960937 2.515624 14.625 4.605468 11.46875-6.820312 24.820312-9.171875 38.074218-6.632812 14.324219 2.746094 26.726563 10.90625 34.914063 22.976562 8.1875 12.074219 11.183593 26.613282 8.4375 40.941406-5.21875 27.234376-29.757813 45.929688-56.914063 44.234376-10.308594 12.855468-25.234375 21.53125-41.578125 24.039062-.386719.058594-.769531.085938-1.144531.085938zm0 0"/><path d="m297.179688 208.320312c-4.132813 0-7.484376-3.347656-7.484376-7.480468 0-4.132813 3.351563-7.480469 7.484376-7.480469 4.625 0 8.617187-3.320313 9.492187-7.894531.492187-2.554688-.042969-5.140625-1.5-7.289063-1.457031-2.148437-3.664063-3.605469-6.214844-4.09375-4.058593-.777343-6.71875-4.695312-5.941406-8.753906s4.703125-6.714844 8.753906-5.941406c6.476563 1.242187 12.082031 4.929687 15.785157 10.386719 3.703124 5.460937 5.054687 12.03125 3.8125 18.507812-2.222657 11.613281-12.398438 20.039062-24.1875 20.039062zm0 0"/><path d="m49.308594 121.300781c-3.140625 0-6.304688-.300781-9.460938-.902343-20.800781-3.988282-36.78125-20.753907-39.7734372-41.71875-.5820308-4.089844 2.2617192-7.878907 6.3515622-8.460938 4.089844-.589844 7.878907 2.261719 8.460938 6.351562 2.089843 14.640626 13.25 26.347657 27.773437 29.132813 9.351563 1.792969 18.789063-.265625 26.570313-5.785156 2.308593-1.640625 5.347656-1.832031 7.847656-.5 3.964844 2.113281 8.230469 3.617187 12.683594 4.46875 13.273437 2.546875 26.84375-.976563 37.234375-9.65625 1.527344-1.277344 3.503906-1.882813 5.480468-1.710938 1.984376.183594 3.8125 1.148438 5.078126 2.679688 3.136718 3.789062 7.355468 6.28125 12.195312 7.210937 5.503906 1.054688 11.082031-.097656 15.71875-3.242187 4.632812-3.140625 7.765625-7.902344 8.820312-13.402344 2.175782-11.355469-5.289062-22.363281-16.644531-24.539063-2.15625-.414062-4.355469-.484374-6.535156-.21875-1.972656.253907-3.964844-.304687-5.53125-1.53125-1.570313-1.226562-2.582031-3.023437-2.820313-5-2.332031-19.464843-16.839843-35.019531-36.101562-38.714843-17.40625-3.339844-35.191406 3.925781-45.3125 18.492187-1.617188 2.332032-4.417969 3.546875-7.21875 3.136719-12.34375-1.785156-24.757812 3.257813-32.398438 13.167969-2.523437 3.273437-7.222656 3.878906-10.492187 1.359375-3.273437-2.523438-3.882813-7.222657-1.359375-10.496094 10-12.972656 25.738281-20.125 41.871094-19.28125 13.8125-17.019531 35.992187-25.234375 57.726562-21.074219 23.433594 4.492188 41.589844 22.152344 46.957032 44.925782 1.351562.101562 2.695312.28125 4.035156.539062 19.453125 3.730469 32.25 22.589844 28.519531 42.050781-1.804687 9.421875-7.175781 17.582031-15.117187 22.96875-7.941407 5.386719-17.507813 7.355469-26.933594 5.550781-5.808594-1.113281-11.242188-3.652343-15.800782-7.328124-12.96875 8.566406-28.730468 11.769531-44.1875 8.808593-4.445312-.851562-8.761718-2.195312-12.871093-4.003906-7.59375 4.433594-16.082031 6.722656-24.765625 6.722656zm0 0"/><path d="m120.464844 64.628906c-3.734375 0-6.964844-2.792968-7.421875-6.59375-.773438-6.472656-5.605469-11.652344-12.019531-12.878906-5.886719-1.125-11.75 1.351562-15.101563 6.171875-2.355469 3.394531-7.019531 4.234375-10.410156 1.875-3.394531-2.355469-4.234375-7.015625-1.875-10.410156 5.601562-8.0625 14.769531-12.875 24.523437-12.875 1.882813 0 3.792969.183593 5.675782.542969 12.84375 2.460937 22.511718 12.828124 24.066406 25.796874.492187 4.101563-2.4375 7.828126-6.539063 8.316407-.300781.035156-.601562.054687-.898437.054687zm0 0"/><path d="m160.425781 385.398438c-11.445312 0-22.207031-4.457032-30.300781-12.550782-8.089844-8.09375-12.546875-18.851562-12.546875-30.296875 0-11.445312 4.457031-22.207031 12.546875-30.300781 12.691406-12.691406 31.703125-15.945312 47.621094-8.898438.675781-.835937 1.398437-1.640624 2.164062-2.40625 11.824219-11.824218 31.066406-11.824218 42.890625 0 11.824219 11.824219 11.824219 31.066407 0 42.890626-5.550781 5.550781-13.050781 8.664062-20.746093 8.859374-1.84375 7.582032-5.734376 14.554688-11.328126 20.152344-8.097656 8.09375-18.855468 12.550782-30.300781 12.550782zm.015625-70.734376c-7.195312 0-14.339844 2.773438-19.734375 8.167969-5.265625 5.265625-8.167969 12.269531-8.167969 19.71875s2.902344 14.449219 8.167969 19.714844c5.269531 5.269531 12.269531 8.167969 19.71875 8.167969s14.449219-2.898438 19.71875-8.167969c4.851563-4.851563 7.734375-11.296875 8.117188-18.148437.125-2.230469 1.238281-4.289063 3.039062-5.613282 1.800781-1.320312 4.097657-1.773437 6.265625-1.222656 5.3125 1.34375 10.789063-.160156 14.65625-4.027344 5.988282-5.988281 5.988282-15.738281 0-21.726562-5.992187-5.992188-15.738281-5.992188-21.730468 0-1.382813 1.378906-2.472657 2.988281-3.242188 4.78125-.886719 2.054687-2.644531 3.605468-4.792969 4.226562-2.148437.621094-4.464843.253906-6.308593-1.011718-4.765626-3.265626-10.25-4.859376-15.707032-4.859376zm0 0"/><path d="m299.097656 369.105469c-16.960937 0-33.050781-10.132813-39.785156-26.800781-8.847656-21.90625 1.773438-46.929688 23.679688-55.777344 16.648437-6.722656 35.414062-2.292969 47.3125 10.417968.949218-.507812 1.929687-.964843 2.933593-1.367187 15.507813-6.269531 33.214844 1.253906 39.480469 16.757813 6.261719 15.507812-1.257812 33.21875-16.761719 39.480468-7.28125 2.941406-15.398437 2.878906-22.5625.046875-4.660156 6.261719-10.96875 11.160157-18.304687 14.125-5.242188 2.117188-10.660156 3.117188-15.992188 3.117188zm13.191406-10.054688h.007813zm-13.253906-60.683593c-3.496094 0-7.035156.660156-10.4375 2.035156-14.253906 5.757812-21.167968 22.042968-15.410156 36.300781s22.042969 21.164063 36.300781 15.410156c6.363281-2.570312 11.535157-7.378906 14.566407-13.535156.984374-2.003906 2.816406-3.464844 4.992187-3.976563 2.175781-.515624 4.464844-.03125 6.242187 1.320313 4.367188 3.3125 10 4.070313 15.066407 2.023437 7.855469-3.175781 11.664062-12.148437 8.492187-20.003906-3.175781-7.855468-12.148437-11.664062-20.003906-8.492187-1.8125.730469-3.445312 1.789062-4.855469 3.136719-1.617187 1.542968-3.835937 2.289062-6.0625 2.019531-2.222656-.269531-4.207031-1.515625-5.410156-3.398438-5.242187-8.195312-14.203125-12.839843-23.480469-12.839843zm0 0"/><path d="m166.117188 246.0625h-.105469c-4.132813 0-7.480469-3.347656-7.480469-7.480469 0-4.132812 3.347656-7.484375 7.480469-7.484375h.105469c4.128906 0 7.480468 3.351563 7.480468 7.484375 0 4.132813-3.351562 7.480469-7.480468 7.480469zm0 0"/><path d="m418.390625 64.628906h-.101563c-4.132812 0-7.484374-3.351562-7.484374-7.484375 0-4.132812 3.351562-7.480469 7.484374-7.480469h.101563c4.132813 0 7.484375 3.347657 7.484375 7.480469 0 4.132813-3.351562 7.484375-7.484375 7.484375zm0 0"/><path d="m405.527344 85.457031h-.105469c-4.132813 0-7.480469-3.347656-7.480469-7.480469 0-4.132812 3.347656-7.480468 7.480469-7.480468h.105469c4.132812 0 7.480468 3.347656 7.480468 7.480468 0 4.132813-3.347656 7.480469-7.480468 7.480469zm0 0"/><path d="m425.476562 341.234375h-.101562c-4.132812 0-7.484375-3.351563-7.484375-7.484375s3.351563-7.480469 7.484375-7.480469h.101562c4.132813 0 7.480469 3.347657 7.480469 7.480469s-3.347656 7.484375-7.480469 7.484375zm0 0"/><path d="m397.546875 333.738281h-.105469c-4.132812 0-7.480468-3.347656-7.480468-7.480469 0-4.132812 3.347656-7.480468 7.480468-7.480468h.105469c4.132813 0 7.480469 3.347656 7.480469 7.480468 0 4.132813-3.347656 7.480469-7.480469 7.480469zm0 0"/><path d="m46.316406 156.28125h-.101562c-4.132813 0-7.484375-3.347656-7.484375-7.480469 0-4.132812 3.351562-7.480469 7.484375-7.480469h.101562c4.132813 0 7.480469 3.347657 7.480469 7.480469 0 4.132813-3.347656 7.480469-7.480469 7.480469zm0 0"/><path d="m67.308594 144.644531h-.105469c-4.132813 0-7.480469-3.351562-7.480469-7.484375 0-4.132812 3.347656-7.480468 7.480469-7.480468h.105469c4.128906 0 7.480468 3.347656 7.480468 7.480468 0 4.132813-3.351562 7.484375-7.480468 7.484375zm0 0"/><path d="m430.378906 165.261719c-3.066406 0-5.941406-1.898438-7.039062-4.949219-.273438-.765625-6.566406-18.882812 7.25-34.914062 2.699218-3.128907 7.421875-3.480469 10.550781-.78125 3.128906 2.699218 3.480469 7.421874.78125 10.550781-8.046875 9.339843-4.539063 19.972656-4.503906 20.078125 1.398437 3.890625-.617188 8.175781-4.507813 9.574218-.832031.300782-1.6875.441407-2.53125.441407zm0 0"/><path d="m54.621094 301.59375c-2.023438 0-4.039063-.816406-5.515625-2.425781-8.777344-9.574219-11.726563-22.089844-8.3125-35.242188 1.039062-4 5.125-6.402343 9.121093-5.359375 4 1.039063 6.402344 5.121094 5.363282 9.121094-2.160156 8.308594-.523438 15.496094 4.859375 21.367188 2.789062 3.046874 2.585937 7.78125-.460938 10.570312-1.4375 1.316406-3.246093 1.96875-5.054687 1.96875zm0 0"/></svg>