<svg height="511pt" viewBox="1 -46 511.999 511" width="511pt" xmlns="http://www.w3.org/2000/svg"><path d="m390.410156 215.914062c0 105.738282-85.71875 191.453126-191.453125 191.453126-105.738281 0-191.457031-85.714844-191.457031-191.453126 0-105.738281 85.71875-191.457031 191.457031-191.457031 105.734375 0 191.453125 85.71875 191.453125 191.457031zm0 0" fill="#fc4830"/><path d="m352.050781 215.914062c0 84.550782-68.542969 153.09375-153.09375 153.09375-84.554687 0-153.097656-68.542968-153.097656-153.09375 0-84.550781 68.542969-153.09375 153.097656-153.09375 84.550781 0 153.09375 68.542969 153.09375 153.09375zm0 0" fill="#f6cb43"/><path d="m315.46875 215.914062c0 64.347657-52.164062 116.511719-116.511719 116.511719-64.351562 0-116.515625-52.164062-116.515625-116.511719 0-64.347656 52.164063-116.511718 116.515625-116.511718 64.347657 0 116.511719 52.164062 116.511719 116.511718zm0 0" fill="#00fbaa"/><path d="m277.164062 215.914062c0 43.195313-35.015624 78.210938-78.207031 78.210938-43.195312 0-78.210937-35.015625-78.210937-78.210938 0-43.195312 35.015625-78.210937 78.210937-78.210937 43.191407 0 78.207031 35.015625 78.207031 78.210937zm0 0" fill="#2081f6"/><path d="m241.789062 215.914062c0 23.65625-19.175781 42.832032-42.832031 42.832032-23.660156 0-42.835937-19.175782-42.835937-42.832032s19.175781-42.835937 42.835937-42.835937c23.65625 0 42.832031 19.179687 42.832031 42.835937zm0 0" fill="#3e4eb7"/><path d="m438.511719 275.339844c-4.085938-67.449219-60.070313-120.890625-128.546875-120.890625-55.226563 0-102.328125 34.761719-120.632813 83.601562-47.558593.570313-85.9375 39.285157-85.9375 86.976563 0 48.054687 38.953125 87.007812 87.003907 87.007812h245.722656c37.765625 0 68.375-30.613281 68.375-68.375.003906-36.964844-29.332032-67.058594-65.984375-68.320312zm0 0" fill="#a0ecff"/><path d="m504.503906 343.65625c0 37.761719-30.621094 68.382812-68.382812 68.382812h-5.296875c4.957031-9.464843 7.761719-20.242187 7.761719-31.664062 0-36.960938-29.332032-67.058594-65.988282-68.324219-4.082031-67.445312-60.070312-120.894531-128.550781-120.894531-9.234375 0-18.238281.972656-26.914063 2.820312 23.425782-24.363281 56.355469-39.527343 92.828126-39.527343 68.480468 0 124.46875 53.4375 128.550781 120.898437 36.660156 1.25 65.992187 31.347656 65.992187 68.308594zm0 0" fill="#60daff"/><path d="m84.65625 314.308594c2.917969-48.21875 42.945312-86.429688 91.898438-86.429688 39.484374 0 73.15625 24.855469 86.242187 59.769532 34 .410156 61.441406 28.085937 61.441406 62.183593 0 34.351563-27.851562 62.203125-62.203125 62.203125-14.378906 0-160.894531 0-175.671875 0-27 0-48.886719-21.886718-48.886719-48.886718.003907-26.421876 20.972657-47.9375 47.179688-48.839844zm0 0" fill="#f0f5f7"/><path d="m324.238281 349.835938c0 34.058593-27.386719 61.722656-61.347656 62.1875 10.183594-11.082032 16.390625-25.84375 16.390625-42.066407 0-34.09375-27.433594-61.773437-61.441406-62.183593-13.085938-34.910157-46.753906-59.769532-86.246094-59.769532-4.664062 0-9.246094.351563-13.730469 1.023438 15.929688-13.207032 36.378907-21.144532 58.6875-21.144532 39.488281 0 73.15625 24.847657 86.242188 59.769532 34.011719.410156 61.445312 28.078125 61.445312 62.183594zm0 0" fill="#dde9ed"/><path d="m354.671875 404.535156h-49.515625c16.171875-12.777344 26.582031-32.542968 26.582031-54.703125 0-18.46875-7.152343-35.871093-20.140625-49-11.777344-11.90625-27.121094-19.058593-43.644531-20.441406-11.941406-27.523437-35.78125-47.949219-63.996094-56.105469 9.707031-17.425781 23.558594-32.230468 40.4375-43.101562 19.539063-12.585938 42.214844-19.234375 65.570313-19.234375 64.019531 0 117.195312 50.003906 121.0625 113.84375.230468 3.859375 3.363281 6.910156 7.226562 7.042969 11.308594.390624 22.261719 3.925781 31.675782 10.222656 1.28125.859375 2.730468 1.269531 4.164062 1.269531 2.421875 0 4.796875-1.167969 6.242188-3.328125 2.300781-3.445312 1.378906-8.101562-2.0625-10.40625-9.878907-6.609375-21.113282-10.777344-32.824219-12.222656-4.082031-37.59375-23.433594-70.449219-51.570313-92.46875-9.023437-44.175782-33.207031-84.40625-68.144531-113.324219-35.539063-29.417969-80.566406-45.621094-126.777344-45.621094-40.4375 0-79.371093 12.074219-112.585937 34.914063-3.414063 2.347656-4.277344 7.015625-1.933594 10.429687 2.347656 3.410157 7.015625 4.277344 10.429688 1.929688 30.707031-21.113281 66.699218-32.273438 104.089843-32.273438 42.726563 0 84.355469 14.980469 117.214844 42.175781 28.253906 23.382813 48.898437 54.761719 59.214844 89.574219-9.140625-5.019531-18.90625-9.015625-29.144531-11.84375-25.546876-58.703125-83.160157-96.546875-147.285157-96.546875-88.554687 0-160.597656 72.042969-160.597656 160.59375 0 33.699219 10.648437 66.53125 30.1875 93.71875-7.625 2.507813-14.496094 6.578125-20.261719 11.835938-21.792968-31.003906-33.285156-67.367188-33.285156-105.550782 0-49.992187 19.722656-96.761718 55.53125-131.6875 2.964844-2.894531 3.023438-7.644531.132812-10.609374-2.894531-2.964844-7.640624-3.023438-10.605468-.128907-38.730469 37.773438-60.058594 88.355469-60.058594 142.425781 0 42.667969 13.269531 83.234376 38.390625 117.488282-5.335937 8.628906-8.414063 18.8125-8.414063 29.75 0 31.089844 25.292969 56.382812 56.386719 56.382812h268.308594c4.140625 0 7.5-3.359375 7.5-7.5s-3.359375-7.5-7.5-7.5zm-166.039063-183.394531c-3.976562-.492187-8.007812-.761719-12.078124-.761719-4.246094 0-8.425782.292969-12.539063.8125-.257813-1.738281-.394531-3.5-.394531-5.277344 0-19.484374 15.851562-35.332031 35.335937-35.332031 5.964844 0 11.660157 1.449219 16.769531 4.21875-10.960937 10.492188-20.128906 22.75-27.09375 36.339844zm47.636719-52.566406c-2.945312 1.898437-5.804687 3.914062-8.582031 6.019531-8.390625-5.832031-18.457031-9.015625-28.730469-9.015625-27.753906 0-50.335937 22.582031-50.335937 50.335937 0 2.78125.234375 5.539063.6875 8.261719-6.722656 1.914063-13.152344 4.539063-19.226563 7.757813-1.210937-5.226563-1.835937-10.585938-1.835937-16.019532 0-38.992187 31.722656-70.710937 70.710937-70.710937 17.3125 0 34 6.40625 46.863281 17.777344-3.246093 1.734375-6.4375 3.589843-9.550781 5.59375zm-137.800781 89.628906c-5.59375-13.3125-8.527344-27.730469-8.527344-42.289063 0-60.109374 48.902344-109.011718 109.015625-109.011718 34.171875 0 65.65625 15.628906 86.234375 42.304687-8.457031 1.554688-16.726562 3.917969-24.71875 7.035157-16.097656-16.582032-38.347656-26.039063-61.519531-26.039063-47.257813 0-85.707031 38.449219-85.707031 85.710937 0 8.339844 1.199218 16.542969 3.550781 24.449219-6.839844 5.140625-13.007813 11.132813-18.328125 17.839844zm100.488281-187.882813c54.511719 0 103.839844 30.167969 128.871094 77.804688-5.851563-.773438-11.8125-1.175781-17.863281-1.175781-2.597656 0-5.1875.09375-7.769532.238281-23.09375-34.691406-61.398437-55.285156-103.238281-55.285156-68.382812 0-124.015625 55.628906-124.015625 124.011718 0 19.851563 4.785156 39.476563 13.851563 56.992188-4.316407 8.023438-7.554688 16.714844-9.542969 25.882812-16.769531-24.226562-25.890625-53.179687-25.890625-82.875 0-80.28125 65.3125-145.59375 145.597656-145.59375zm47.042969 334.214844h-159.636719c-22.820312 0-41.386719-18.566406-41.386719-41.382812 0-22.414063 17.542969-40.578125 39.9375-41.347656 3.863282-.132813 6.992188-3.183594 7.226563-7.042969 2.695313-44.511719 39.773437-79.378907 84.414063-79.378907 35.078124 0 66.914062 22.0625 79.21875 54.898438 1.085937 2.894531 3.839843 4.828125 6.933593 4.867188 29.792969.359374 54.03125 24.890624 54.03125 54.683593 0 30.164063-24.539062 54.703125-54.703125 54.703125zm0 0"/><path d="m502.746094 307.355469c-1.984375-3.632813-6.539063-4.96875-10.175782-2.984375-3.636718 1.984375-4.972656 6.539062-2.988281 10.175781 4.851563 8.882813 7.417969 18.949219 7.417969 29.109375 0 33.566406-27.308594 60.875-60.878906 60.875h-48.789063c-4.140625 0-7.5 3.359375-7.5 7.5 0 4.144531 3.359375 7.5 7.5 7.5h48.789063c41.839844 0 75.878906-34.035156 75.878906-75.875 0-12.664062-3.199219-25.214844-9.253906-36.300781zm0 0"/><path d="m396.203125 237.84375c-3.804687 1.644531-5.550781 6.058594-3.90625 9.859375 2.019531 4.671875 3.648437 9.546875 4.835937 14.496094.828126 3.4375 3.898438 5.746093 7.285157 5.746093.582031 0 1.171875-.066406 1.761719-.207031 4.027343-.96875 6.507812-5.019531 5.539062-9.046875-1.390625-5.78125-3.292969-11.484375-5.65625-16.941406-1.644531-3.800781-6.058594-5.550781-9.859375-3.90625zm0 0"/><path d="m385.277344 221.441406c2.988281-2.867187 3.089844-7.613281.21875-10.601562-19.964844-20.800782-46.785156-32.253906-75.53125-32.253906-4.140625 0-7.5 3.359374-7.5 7.5 0 4.140624 3.359375 7.5 7.5 7.5 24.621094 0 47.601562 9.816406 64.710937 27.640624 1.472657 1.535157 3.4375 2.304688 5.410157 2.304688 1.871093 0 3.742187-.695312 5.191406-2.089844zm0 0"/><path d="m380.085938 43.773438h.039062c4.125 0 7.476562-3.332032 7.5-7.460938l.011719-2.796875c.019531-4.140625-3.320313-7.515625-7.460938-7.535156-4.097656-.035157-7.519531 3.320312-7.539062 7.460937l-.011719 2.796875c-.023438 4.140625 3.320312 7.515625 7.460938 7.535157zm0 0"/><path d="m387.535156 64.761719.011719-2.796875c.019531-4.140625-3.320313-7.515625-7.464844-7.535156-.011719 0-.023437 0-.035156 0-4.125 0-7.480469 3.335937-7.5 7.464843l-.011719 2.796875c-.019531 4.140625 3.324219 7.515625 7.464844 7.535156h.035156c4.125 0 7.480469-3.335937 7.5-7.464843zm0 0"/><path d="m392.90625 56.640625 2.800781.011719h.035157c4.125 0 7.480468-3.332032 7.5-7.460938.019531-4.144531-3.320313-7.519531-7.460938-7.539062l-2.804688-.011719c-.011718 0-.023437 0-.035156 0-4.125 0-7.480468 3.332031-7.5 7.460937-.019531 4.144532 3.320313 7.515626 7.464844 7.539063zm0 0"/><path d="m364.394531 56.550781 2.800781.015625h.039063c4.125 0 7.476563-3.335937 7.496094-7.464844.023437-4.140624-3.320313-7.515624-7.460938-7.535156l-2.800781-.015625c-4.144531-.011719-7.519531 3.320313-7.539062 7.464844-.019532 4.140625 3.324218 7.515625 7.464843 7.535156zm0 0"/><path d="m396.976562 88.542969-.011718 2.796875c-.023438 4.140625 3.320312 7.515625 7.464844 7.535156h.035156c4.125 0 7.480468-3.335938 7.5-7.464844l.011718-2.796875c.019532-4.140625-3.324218-7.515625-7.464843-7.535156-.011719 0-.023438 0-.035157 0-4.125 0-7.480468 3.335937-7.5 7.464844zm0 0"/><path d="m404.339844 127.324219h.035156c4.125 0 7.480469-3.332031 7.5-7.464844l.011719-2.792969c.019531-4.144531-3.324219-7.515625-7.464844-7.535156-.011719 0-.023437 0-.035156 0-4.125 0-7.480469 3.332031-7.5 7.464844l-.011719 2.792968c-.019531 4.144532 3.324219 7.515626 7.464844 7.535157zm0 0"/><path d="m417.246094 111.738281 2.800781.015625h.035156c4.125 0 7.480469-3.335937 7.5-7.464844.019531-4.144531-3.324219-7.515624-7.464843-7.535156l-2.800782-.015625c-4.140625-.027343-7.515625 3.324219-7.535156 7.46875-.019531 4.140625 3.320312 7.511719 7.464844 7.53125zm0 0"/><path d="m388.734375 111.652344 2.800781.011718h.035156c4.125 0 7.480469-3.332031 7.5-7.464843.019532-4.140625-3.324218-7.515625-7.464843-7.535157l-2.800781-.011718c-.011719 0-.023438 0-.035157 0-4.125 0-7.480469 3.335937-7.5 7.464844-.019531 4.140624 3.324219 7.515624 7.464844 7.535156zm0 0"/><path d="m37.480469 18.292969h.035156c4.125 0 7.480469-3.332031 7.5-7.464844l.011719-2.792969c.023437-4.144531-3.320313-7.515625-7.464844-7.535156-.011719 0-.023438 0-.035156 0-4.125 0-7.476563 3.332031-7.5 7.464844l-.011719 2.792968c-.019531 4.144532 3.324219 7.519532 7.464844 7.535157zm0 0"/><path d="m37.476562 28.949219c-.011718 0-.023437 0-.035156 0-4.125 0-7.480468 3.335937-7.5 7.464843l-.011718 2.796876c-.019532 4.140624 3.324218 7.515624 7.464843 7.535156h.035157c4.125 0 7.480468-3.335938 7.5-7.464844l.011718-2.796875c.019532-4.140625-3.320312-7.515625-7.464844-7.535156zm0 0"/><path d="m50.296875 31.160156 2.800781.011719h.039063c4.125 0 7.476562-3.332031 7.496093-7.464844.023438-4.140625-3.320312-7.515625-7.464843-7.535156l-2.800781-.011719c-.011719 0-.023438 0-.035157 0-4.125 0-7.480469 3.335938-7.5 7.464844-.019531 4.144531 3.324219 7.515625 7.464844 7.535156zm0 0"/><path d="m21.789062 31.074219 2.800782.011719h.035156c4.125 0 7.480469-3.335938 7.5-7.464844.019531-4.140625-3.324219-7.515625-7.464844-7.535156l-2.800781-.011719c-.011719 0-.023437 0-.039063 0-4.125 0-7.476562 3.332031-7.496093 7.464843-.019531 4.140626 3.320312 7.511719 7.464843 7.535157zm0 0"/></svg>