<svg height="511pt" viewBox="0 -45 511.998 511" width="511pt" xmlns="http://www.w3.org/2000/svg"><path d="m485.589844 73.589844h-29.382813c.117188-1.269532.183594-2.550782.183594-3.851563 0-22.667969-18.375-41.046875-41.042969-41.046875-18.472656 0-34.089844 12.203125-39.242187 28.984375-3.671875-2.246093-7.988281-3.542969-12.605469-3.542969-11.742188 0-21.527344 8.363282-23.738281 19.457032h-49.824219c-2.207031-11.09375-11.992188-19.457032-23.734375-19.457032s-21.527344 8.363282-23.734375 19.457032h-72.914062c-1.519532-17.777344-16.316407-31.753906-34.433594-31.972656-7.363282-19.644532-26.308594-33.628907-48.527344-33.628907-27.546875 0-50.066406 21.496094-51.710938 48.632813-14.746093.503906-26.542968 12.613281-26.542968 27.480468 0 15.191407 12.3125 27.507813 27.503906 27.507813 8.316406 0 449.746094-.175781 449.746094-.175781 10.449218 0 18.921875-8.472656 18.921875-18.921875 0-10.453125-8.472657-18.921875-18.921875-18.921875zm0 0" fill="#dde9ed"/><path d="m504.511719 92.511719c0 10.453125-8.476563 18.917969-18.917969 18.917969 0 0-2.285156 0-6.539062 0v-.066407c0-5.234375-2.117188-9.957031-5.539063-13.378906-3.425781-3.425781-8.15625-5.542969-13.378906-5.542969h-29.390625c.117187-1.265625.1875-2.554687.1875-3.851562 0-22.671875-18.378906-41.042969-41.039063-41.042969-3.386719 0-6.671875.410156-9.816406 1.1875 7.160156-12.007813 20.277344-20.046875 35.273437-20.046875 22.660157 0 41.039063 18.382812 41.039063 41.054688 0 1.296874-.066406 2.574218-.1875 3.84375h29.390625c5.222656 0 9.953125 2.113281 13.378906 5.539062 3.421875 3.425781 5.539063 8.15625 5.539063 13.386719zm0 0" fill="#c4e1e8"/><path d="m477.964844 192.941406c-1.640625-27.132812-24.160156-48.632812-51.710938-48.632812-22.214844 0-41.164062 13.984375-48.527344 33.632812-18.113281.21875-32.910156 14.195313-34.433593 31.96875h-28.824219c1.089844-9.8125-3.9375-19.703125-13.296875-24.351562-11.292969-5.609375-24.855469-1.574219-31.347656 8.949218-3.835938-2.558593-8.445313-4.050781-13.398438-4.050781-11.742187 0-21.527343 8.363281-23.734375 19.457031h-10.660156c-10.449219 0-18.921875 8.46875-18.921875 18.921876 0 10.449218 8.472656 18.917968 18.921875 18.917968 0 0 246.660156.175782 254.976562.175782 15.191407 0 27.503907-12.3125 27.503907-27.503907 0-14.871093-11.800781-26.976562-26.546875-27.484375zm0 0" fill="#a0ecff"/><path d="m504.511719 220.421875c0 15.191406-12.320313 27.511719-27.503907 27.511719-1.148437 0-6.839843 0-15.792968-.007813.03125-.421875.039062-.832031.039062-1.25 0-14.875-11.800781-26.972656-26.546875-27.484375-1.644531-27.132812-24.167969-48.628906-51.710937-48.628906-.609375 0-1.21875.011719-1.828125.03125 8.894531-15.695312 25.757812-26.285156 45.085937-26.285156 27.554688 0 50.074219 21.503906 51.710938 48.636718 14.746094.5 26.546875 12.609376 26.546875 27.476563zm0 0" fill="#60daff"/><path d="m145.628906 209.910156h-19.539062c1.105468-3.28125 1.710937-6.796875 1.710937-10.453125 0-18.101562-14.671875-32.773437-32.773437-32.773437-13.96875 0-25.886719 8.746094-30.605469 21.054687-8.851563-3.855469-19.535156-2.179687-26.777344 5.058594-4.722656 4.726563-7.085937 10.921875-7.085937 17.117187h-3.300782c-10.449218 0-18.917968 8.46875-18.917968 18.921876 0 10.449218 8.46875 18.917968 18.917968 18.917968 0 0 68.824219.027344 118.363282.058594 10.46875.007812 18.957031-8.480469 18.957031-18.953125 0-10.464844-8.484375-18.949219-18.949219-18.949219zm0 0" fill="#f0f5f7"/><path d="m164.578125 228.867188c0 10.460937-8.484375 18.945312-18.957031 18.945312-2.039063 0-4.113282 0-6.210938-.007812.238282-1.179688.359375-2.394532.359375-3.644532 0-5.230468-2.125-9.964844-5.550781-13.398437-3.433594-3.433594-8.175781-5.550781-13.40625-5.550781h-19.539062c1.109374-3.285157 1.71875-6.796876 1.71875-10.453126 0-18.097656-14.675782-32.773437-32.777344-32.773437-1.007813 0-2.007813.050781-2.996094.140625 5.78125-9.277344 16.074219-15.445312 27.804688-15.445312 18.109374 0 32.777343 14.675781 32.777343 32.773437 0 3.664063-.609375 7.167969-1.707031 10.453125h19.535156c5.230469 0 9.964844 2.128906 13.398438 5.550781 3.433594 3.4375 5.550781 8.175781 5.550781 13.410157zm0 0" fill="#dde9ed"/><path d="m484.738281 352.5h-22.523437c-2.402344-10.839844-12.0625-18.945312-23.625-18.945312-2.109375 0-4.160156.269531-6.109375.777343-5.8125-15.609375-20.84375-26.726562-38.476563-26.726562-19.351562 0-35.5625 13.394531-39.898437 31.414062-2.457031-1.53125-5.355469-2.433593-8.464844-2.433593-8.820313 0-15.972656 7.113281-16.050781 15.914062h-62.144532c-3.894531-8.15625-12.214843-13.789062-21.855468-13.789062-6.144532 0-11.753906 2.292968-16.023438 6.070312-1.917968-16.421875-15.867187-29.167969-32.804687-29.167969-15.101563 0-27.828125 10.136719-31.765625 23.976563-5.734375-11.195313-17.316406-18.898438-30.726563-19.058594-7.363281-19.648438-26.308593-33.632812-48.527343-33.632812-27.546876 0-50.066407 21.5-51.710938 48.632812-14.742188.507812-26.542969 12.613281-26.542969 27.480469 0 15.191406 12.3125 27.507812 27.503907 27.507812 8.316406 0 449.746093-.175781 449.746093-.175781 10.453125 0 18.921875-8.472656 18.921875-18.921875s-8.46875-18.921875-18.921875-18.921875zm0 0" fill="#a0ecff"/><path d="m503.664062 371.417969c0 10.453125-8.476562 18.929687-18.929687 18.929687 0 0-5.652344 0-15.695313.007813.011719-.097657.011719-.199219.011719-.296875 0-5.230469-2.117187-9.953125-5.542969-13.378906-3.421874-3.425782-8.15625-5.539063-13.375-5.539063h-22.523437c-2.40625-10.84375-12.070313-18.949219-23.628906-18.949219-2.109375 0-4.15625.269532-6.113281.777344-5.777344-15.542969-20.695313-26.625-38.234376-26.726562 7.316407-11.21875 19.976563-18.636719 34.371094-18.636719 17.632813 0 32.667969 11.121093 38.476563 26.726562 1.949219-.511719 3.996093-.78125 6.109375-.78125 11.5625 0 21.226562 8.109375 23.621094 18.949219h22.523437c5.222656 0 9.953125 2.117188 13.386719 5.542969 3.425781 3.421875 5.542968 8.15625 5.542968 13.375zm0 0" fill="#60daff"/><path d="m35.84375 119.09375c-19.296875 0-34.996094-15.695312-34.996094-34.992188 0-16.71875 11.546875-30.640624 27.265625-34.140624 4.710938-28.1875 29.289063-49.460938 58.480469-49.460938 22.949219 0 43.917969 13.46875 53.628906 33.980469 17.347656 2.230469 31.417969 14.804687 35.648438 31.621093h61.09375c4.847656-11.566406 16.308594-19.453124 29.238281-19.453124s24.386719 7.886718 29.234375 19.453124h38.824219c4.847656-11.566406 16.308593-19.453124 29.238281-19.453124 2.894531 0 5.761719.394531 8.519531 1.164062 8.136719-16.195312 24.667969-26.605469 43.324219-26.605469 25.539062 0 46.535156 19.824219 48.398438 44.894531h21.847656c14.5625 0 26.40625 11.847657 26.40625 26.410157s-11.84375 26.410156-26.40625 26.410156l-369.027344.144531s0 0-.003906 0c-4.132813 0-7.484375-3.347656-7.484375-7.484375-.003907-4.136719 3.347656-7.488281 7.484375-7.492187l369.027344-.144532c6.308593 0 11.4375-5.128906 11.4375-11.433593 0-6.304688-5.128907-11.433594-11.433594-11.433594h-29.386719c-2.105469 0-4.117187-.890625-5.535156-2.445313-1.417969-1.5625-2.117188-3.644531-1.917969-5.742187.101562-1.085937.152344-2.144531.152344-3.152344 0-18.5-15.054688-33.554687-33.558594-33.554687-14.839844 0-27.730469 9.519531-32.082031 23.691406-.679688 2.210938-2.34375 3.984375-4.507813 4.804688-2.160156.816406-4.582031.589843-6.554687-.617188-2.613281-1.59375-5.621094-2.4375-8.703125-2.4375-7.949219 0-14.84375 5.648438-16.390625 13.425781-.699219 3.503907-3.773438 6.027344-7.34375 6.027344h-49.824219c-3.570312 0-6.644531-2.523437-7.34375-6.027344-1.546875-7.78125-8.441406-13.425781-16.390625-13.425781s-14.84375 5.644531-16.390625 13.425781c-.699219 3.503907-3.773438 6.027344-7.34375 6.027344h-72.914062c-3.886719 0-7.128907-2.976563-7.460938-6.851563-1.207031-14.148437-12.84375-24.949218-27.0625-25.121093-3.089844-.035157-5.835938-1.964844-6.921875-4.859375-6.449219-17.207032-23.132813-28.769532-41.515625-28.769532-23.394531 0-42.824219 18.273438-44.234375 41.597657-.234375 3.855469-3.359375 6.898437-7.21875 7.03125-10.832031.371093-19.316406 9.15625-19.316406 20 0 11.035156 8.980469 20.019531 20.019531 20.019531 1.628906 0 19.851562-.007812 48.109375-.019531h.003906c4.132813 0 7.484375 3.347656 7.484375 7.484375.003906 4.136718-3.347656 7.488281-7.484375 7.492187-28.257812.007813-46.484375.011719-48.113281.011719zm0 0"/><path d="m477.007812 255.417969c-1.867187 0-49.96875-.03125-49.96875-.03125-4.136718-.003907-7.484374-3.355469-7.480468-7.492188.003906-4.132812 3.355468-7.484375 7.488281-7.484375h.003906s48.09375.035156 49.957031.035156c11.035157 0 20.015626-8.984374 20.015626-20.019531 0-10.84375-8.480469-19.628906-19.3125-20-3.859376-.132812-6.984376-3.175781-7.21875-7.03125-1.410157-23.324219-20.84375-41.597656-44.238282-41.597656-18.378906 0-35.066406 11.5625-41.515625 28.769531-1.082031 2.894532-3.832031 4.824219-6.921875 4.859375-14.21875.171875-25.851562 10.972657-27.0625 25.121094-.332031 3.875-3.570312 6.851563-7.460937 6.851563h-28.828125c-2.128906 0-4.15625-.90625-5.578125-2.496094-1.421875-1.585938-2.097657-3.703125-1.863281-5.820313.773437-6.949219-2.917969-13.707031-9.183594-16.816406-7.785156-3.871094-17.085938-1.210937-21.644532 6.171875-1.066406 1.726562-2.789062 2.949219-4.773437 3.382812-1.984375.433594-4.058594.042969-5.75-1.082031-2.742187-1.828125-5.941406-2.792969-9.25-2.792969-7.949219 0-14.84375 5.644532-16.390625 13.425782-.695312 3.503906-3.769531 6.027344-7.34375 6.027344h-10.65625c-6.304688 0-11.433594 5.128906-11.433594 11.433593 0 6.304688 5.128906 11.433594 11.433594 11.433594l172.410156.121094c4.136719.003906 7.488282 3.359375 7.484375 7.492187-.003906 4.136719-3.355469 7.484375-7.488281 7.484375h-.003906l-172.40625-.121093c-14.558594 0-26.40625-11.847657-26.40625-26.410157s11.847656-26.410156 26.410156-26.410156h5.15625c4.847656-11.566406 16.304688-19.453125 29.234375-19.453125 3.90625 0 7.730469.710938 11.320313 2.085938 9.410156-9.691407 24.140624-12.464844 36.757812-6.203126 9.34375 4.640626 15.667969 13.5625 17.226562 23.570313h15.25c4.230469-16.816406 18.300782-29.386719 35.648438-31.621094 9.710938-20.507812 30.679688-33.980469 53.628906-33.980469 29.191406 0 53.769532 21.273438 58.480469 49.464844 15.71875 3.5 27.261719 17.417969 27.261719 34.136719.003906 19.296875-15.695313 34.996094-34.988282 34.996094zm0 0"/><path d="m450.0625 198.246094c-3.929688 0-7.226562-3.0625-7.46875-7.035156-.457031-7.546876-6.757812-13.457032-14.339844-13.457032-4.136718 0-7.488281-3.351562-7.488281-7.488281s3.351563-7.488281 7.488281-7.488281c15.488282 0 28.355469 12.09375 29.289063 27.527344.25 4.128906-2.894531 7.675781-7.023438 7.925781-.152343.011719-.308593.015625-.457031.015625zm0 0"/><path d="m145.632812 255.300781c-.007812 0-.011718 0-.019531 0-49.539062-.03125-118.359375-.058593-118.359375-.058593-14.558594 0-26.40625-11.847657-26.40625-26.40625 0-13.425782 10.070313-24.546876 23.054688-26.199219 1.328125-5.683594 4.21875-10.902344 8.449218-15.132813 7.53125-7.53125 18.035157-10.660156 28.160157-8.757812 7.195312-11.917969 20.324219-19.550782 34.515625-19.550782 22.199218 0 40.261718 18.0625 40.261718 40.261719 0 .992188-.035156 1.980469-.109374 2.96875h10.449218c14.578125 0 26.4375 11.859375 26.4375 26.4375 0 7.0625-2.753906 13.703125-7.746094 18.699219-4.992187 4.988281-11.628906 7.738281-18.6875 7.738281zm-118.375-37.902343c-6.300781 0-11.433593 5.132812-11.433593 11.4375 0 6.300781 5.132812 11.433593 11.433593 11.433593.003907 0 68.828126.023438 118.367188.054688h.007812c3.058594 0 5.9375-1.1875 8.097657-3.351563 2.167969-2.167968 3.359375-5.046875 3.359375-8.109375 0-6.320312-5.140625-11.464843-11.460938-11.464843h-19.539062c-2.410156 0-4.675782-1.160157-6.082032-3.117188-1.402343-1.957031-1.78125-4.46875-1.015624-6.757812.878906-2.605469 1.324218-5.320313 1.324218-8.066407 0-13.941406-11.34375-25.285156-25.289062-25.285156-10.402344 0-19.890625 6.527344-23.613282 16.246094-.730468 1.90625-2.210937 3.433593-4.097656 4.222656-1.882812.792969-4.007812.777344-5.882812-.039063-6.351563-2.761718-13.609375-1.390624-18.492188 3.492188-3.160156 3.15625-4.898437 7.351562-4.898437 11.816406 0 4.136719-3.351563 7.488282-7.484375 7.488282zm0 0"/><path d="m34.992188 398.007812c-19.292969 0-34.992188-15.699218-34.992188-34.996093 0-16.71875 11.542969-30.640625 27.261719-34.136719 4.710937-28.191406 29.292969-49.464844 58.484375-49.464844 22.949218 0 43.921875 13.472656 53.632812 33.988282 9.265625 1.207031 17.773438 5.417968 24.308594 11.878906 7.457031-10.5 19.71875-17.152344 33.078125-17.152344 16.808594 0 31.4375 10.28125 37.515625 25.183594 3.582031-1.371094 7.410156-2.089844 11.3125-2.089844 10.488281 0 20.292969 5.289062 26.144531 13.792969h51.644531c3.1875-9.238281 11.988282-15.914063 22.257813-15.914063 1.277344 0 2.546875.105469 3.796875.3125 7.542969-17.589844 24.863281-29.292968 44.570312-29.292968 18.101563 0 34.683594 10.226562 42.980469 25.988281.535157-.027344 1.070313-.042969 1.605469-.042969 12.644531 0 24.019531 7.683594 29.003906 18.949219h17.144532c14.5625 0 26.410156 11.847656 26.410156 26.410156s-11.847656 26.40625-26.410156 26.40625l-217.425782.085937h-.003906c-4.132812 0-7.484375-3.347656-7.488281-7.484374 0-4.132813 3.351562-7.488282 7.484375-7.488282l217.429687-.085937c6.308594 0 11.4375-5.128907 11.4375-11.433594s-5.128906-11.433594-11.433593-11.433594h-22.523438c-3.511719 0-6.554688-2.441406-7.3125-5.867187-1.679688-7.582032-8.542969-13.082032-16.3125-13.082032-1.433594 0-2.855469.179688-4.226562.535157-3.714844.972656-7.5625-1.03125-8.902344-4.632813-4.863282-13.070312-17.507813-21.851562-31.457032-21.851562-15.570312 0-28.980468 10.558594-32.617187 25.679687-.5625 2.339844-2.214844 4.265625-4.441406 5.179688-2.222657.910156-4.753907.699219-6.796875-.574219-1.367188-.851562-2.929688-1.300781-4.511719-1.300781-4.679687 0-8.519531 3.808593-8.558594 8.492187-.039062 4.109375-3.378906 7.421875-7.488281 7.421875h-62.148438c-2.886718 0-5.515624-1.660156-6.757812-4.265625-2.765625-5.789062-8.6875-9.527344-15.097656-9.527344-4.078125 0-8.007813 1.488282-11.0625 4.191407-2.089844 1.847656-5.027344 2.378906-7.632813 1.386719-2.605469-.996094-4.441406-3.355469-4.765625-6.125-1.5-12.855469-12.40625-22.550782-25.363281-22.550782-11.355469 0-21.460937 7.625-24.566406 18.539063-.84375 2.957031-3.410157 5.101562-6.46875 5.402343-3.074219.296876-5.996094-1.300781-7.398438-4.039062-4.671875-9.121094-13.925781-14.863281-24.148437-14.988281-3.089844-.035157-5.839844-1.964844-6.921875-4.859375-6.449219-17.207032-23.132813-28.769532-41.515625-28.769532-23.394532 0-42.824219 18.273438-44.238282 41.597657-.234374 3.855469-3.355468 6.898437-7.21875 7.03125-10.832031.375-19.3125 9.160156-19.3125 20 0 11.039062 8.980469 20.019531 20.015626 20.019531 3.808593 0 98.316406-.035156 199.710937-.078125h.003906c4.132813 0 7.484375 3.351563 7.484375 7.484375.003906 4.136719-3.347656 7.488281-7.484375 7.492188-101.398437.039062-195.910156.078124-199.714843.078124zm0 0"/><path d="m277.390625 142.714844h-81.863281c-4.136719 0-7.488282-3.351563-7.488282-7.488282 0-4.136718 3.351563-7.484374 7.488282-7.484374h81.863281c4.136719 0 7.488281 3.347656 7.488281 7.484374 0 4.136719-3.351562 7.488282-7.488281 7.488282zm0 0"/><path d="m314.328125 142.714844h-13.976563c-4.136718 0-7.488281-3.351563-7.488281-7.488282 0-4.136718 3.351563-7.484374 7.488281-7.484374h13.976563c4.136719 0 7.488281 3.347656 7.488281 7.484374 0 4.136719-3.351562 7.488282-7.488281 7.488282zm0 0"/><path d="m198.523438 422.246094h-84.859376c-4.136718 0-7.488281-3.351563-7.488281-7.488282 0-4.136718 3.351563-7.488281 7.488281-7.488281h84.859376c4.132812 0 7.484374 3.351563 7.484374 7.488281 0 4.136719-3.351562 7.488282-7.484374 7.488282zm0 0"/><path d="m90.699219 422.246094h-10.980469c-4.136719 0-7.488281-3.351563-7.488281-7.488282 0-4.136718 3.351562-7.488281 7.488281-7.488281h10.980469c4.136719 0 7.488281 3.351563 7.488281 7.488281 0 4.136719-3.351562 7.488282-7.488281 7.488282zm0 0"/></svg>