<svg height="512pt" viewBox="0 -56 512.001 512" width="512pt" xmlns="http://www.w3.org/2000/svg"><path d="m469.148438 72.265625c-2.1875-36.136719-32.183594-64.765625-68.867188-64.765625-29.585938 0-54.820312 18.625-64.628906 44.785156-25.476563.308594-46.039063 21.046875-46.039063 46.597656 0 25.746094 20.867188 46.613282 46.613281 46.613282h131.640626c20.230468 0 36.632812-16.398438 36.632812-36.632813 0-19.800781-15.714844-35.921875-35.351562-36.597656zm0 0" fill="#a0ecff"/><path d="m504.5 108.863281c0 20.234375-16.402344 36.636719-36.632812 36.636719h-2.839844c2.65625-5.070312 4.160156-10.84375 4.160156-16.964844 0-19.800781-15.714844-35.921875-35.351562-36.601562-2.1875-36.132813-32.183594-64.765625-68.871094-64.765625-4.945313 0-9.769532.519531-14.417969 1.507812 12.550781-13.050781 30.191406-21.175781 49.730469-21.175781 36.6875 0 66.683594 28.628906 68.871094 64.769531 19.636718.671875 35.351562 16.792969 35.351562 36.59375zm0 0" fill="#60daff"/><path d="m252.253906 174.519531c5.542969-6.234375 8.914063-14.441406 8.914063-23.4375 0-19.082031-15.148438-34.621093-34.070313-35.269531-2.109375-34.828125-31.015625-62.417969-66.371094-62.417969-28.511718 0-52.832031 17.949219-62.28125 43.164063-22.484374.269531-40.984374 17.054687-43.945312 38.789062-25.992188.222656-47 21.351563-47 47.398438 0 26.1875 21.226562 47.410156 47.410156 47.410156 20.53125 0 38.011719-13.054688 44.601563-31.3125 6.621093 15.289062 22.246093 25.285156 39.414062 24.296875 8.910157 32.246094 41.867188 51.816406 74.617188 43.878906 33.398437-8.09375 53.910156-41.734375 45.816406-75.136719-1.523437-6.277343-3.949219-12.097656-7.105469-17.363281zm0 0" fill="#a0ecff"/><path d="m259.355469 191.882812c8.101562 33.40625-12.414063 67.035157-45.808594 75.136719-7.574219 1.839844-15.152344 2.195313-22.445313 1.277344 18.007813-14.679687 27.027344-38.875 21.191407-62.945313-1.527344-6.273437-3.945313-12.101562-7.105469-17.355468 5.546875-6.242188 8.917969-14.445313 8.917969-23.445313 0-19.082031-15.148438-34.613281-34.078125-35.277343-1.972656-32.640626-27.5-58.941407-59.816406-62.101563 11.214843-8.640625 25.269531-13.773437 40.519531-13.773437 35.355469 0 64.257812 27.589843 66.363281 62.40625 18.925781.660156 34.078125 16.191406 34.078125 35.277343 0 8.996094-3.375 17.199219-8.921875 23.441407 3.160156 5.257812 5.582031 11.085937 7.105469 17.359374zm0 0" fill="#60daff"/><path d="m474.65625 305.078125c-8.363281 0-15.917969 3.441406-21.335938 8.984375-5.363281-12.871094-17.859374-22.019531-32.550781-22.527344-2.1875-36.132812-32.179687-64.765625-68.863281-64.765625-29.589844 0-54.824219 18.625-64.628906 44.789063-21.929688.261718-40.199219 15.667968-44.871094 36.242187-3.792969-1.742187-8.007812-2.722656-12.453125-2.722656-16.484375 0-29.847656 13.359375-29.847656 29.84375s13.363281 29.84375 29.847656 29.84375h244.703125c16.480469 0 29.84375-13.359375 29.84375-29.84375s-13.363281-29.84375-29.84375-29.84375zm0 0" fill="#a0ecff"/><path d="m504.496094 334.925781c0 13.035157-8.347656 24.117188-20.003906 28.171875.148437-1.152344.214843-2.332031.214843-3.519531 0-16.484375-13.371093-29.851563-29.855469-29.851563-8.359374 0-15.910156 3.453126-21.335937 8.988282-5.355469-12.867188-17.851563-22.023438-32.539063-22.527344-2.1875-36.136719-32.1875-64.769531-68.875-64.769531-16.023437 0-30.769531 5.46875-42.480468 14.636719 11.09375-23.230469 34.816406-39.289063 62.28125-39.289063 36.691406 0 66.675781 28.628906 68.875 64.769531 14.691406.503906 27.171875 9.660156 32.539062 22.523438 5.425782-5.535156 12.976563-8.984375 21.335938-8.984375 16.484375 0 29.84375 13.367187 29.84375 29.851562zm0 0" fill="#60daff"/><path d="m198.839844 276.273438h.113281c4.140625-.007813 7.496094-3.371094 7.488281-7.511719-.007812-4.140625-3.363281-7.488281-7.5-7.488281-.039062 0-.070312 0-.101562 0-24.5 0-46.15625-16.492188-52.683594-40.132813-.941406-3.40625-4.136719-5.695313-7.660156-5.488281-13.742188.785156-26.632813-7.160156-32.101563-19.789063-1.21875-2.820312-4.019531-4.636719-7.113281-4.515625-3.074219.09375-5.777344 2.058594-6.820312 4.949219-5.691407 15.769531-20.78125 26.359375-37.550782 26.359375-22.003906 0-39.910156-17.902344-39.910156-39.910156 0-21.8125 17.75-39.714844 39.566406-39.898438 3.726563-.03125 6.863282-2.792968 7.367188-6.488281 2.480468-18.191406 18.214844-32.082031 36.605468-32.304687 3.09375-.035157 5.84375-1.96875 6.929688-4.863282 8.585938-22.90625 30.792969-38.296875 55.261719-38.296875 31.136719 0 57.003906 24.320313 58.882812 55.371094.230469 3.859375 3.363281 6.90625 7.226563 7.039063 10.3125.355468 19.089844 6.203124 23.59375 14.691406h-50.328125c-4.140625 0-7.5 3.359375-7.5 7.5 0 4.144531 3.359375 7.5 7.5 7.5h53.488281c-.421875 6.117187-2.84375 11.929687-6.945312 16.542968-2.144532 2.414063-2.484376 6.066407-.824219 8.839844 2.832031 4.722656 4.933593 9.863282 6.246093 15.269532 5.632813 23.246093-4.816406 47.941406-25.414062 60.0625-3.570312 2.097656-4.761719 6.695312-2.664062 10.265624 2.101562 3.570313 6.699218 4.761719 10.269531 2.660157 12.628906-7.429688 22.800781-18.960938 28.644531-32.472657 4.519531-10.457031 6.382812-21.613281 5.527344-32.78125h15.015625c4.140625 0 7.5-3.355468 7.5-7.5 0-4.140624-3.359375-7.5-7.5-7.5h-17.820313c-.441406-1.472656-.941406-2.925781-1.480468-4.363281h46.496093c4.140625 0 7.5-3.355469 7.5-7.5 0-4.140625-3.359375-7.5-7.5-7.5h-45.058593c1.785156-4.441406 2.820312-9.175781 3.035156-14.023437l199.246094.003906c24.335937 0 44.132812-19.800781 44.132812-44.132812 0-21.660157-15.359375-39.597657-36.011719-43.386719-5.367187-37.195313-37.46875-65.480469-75.707031-65.480469-9.277344 0-18.359375 1.652344-27 4.914062-3.875 1.460938-5.832031 5.789063-4.367188 9.664063 1.460938 3.875 5.785157 5.832031 9.664063 4.371094 6.941406-2.621094 14.242187-3.949219 21.703125-3.949219 32.460938 0 59.421875 25.355469 61.382812 57.71875.234376 3.863281 3.363282 6.910156 7.226563 7.042969 15.765625.542969 28.113281 13.328125 28.113281 29.105469 0 16.0625-13.070312 29.132812-29.132812 29.132812h-131.625c-.007813 0-.015625 0-.019532 0h-.039062c-21.550781-.023438-39.074219-17.558594-39.074219-39.113281 0-21.300781 17.328125-38.839844 38.628907-39.097657 3.09375-.039062 5.847656-1.972656 6.933593-4.867187 2.636719-7.035156 6.519531-13.476563 11.542969-19.15625 2.746094-3.101563 2.457031-7.839844-.644531-10.585937-3.101563-2.746094-7.84375-2.457032-10.585938.648437-5.140625 5.808594-9.324219 12.269531-12.472656 19.257813-27.117187 2.878906-48.402344 26.03125-48.402344 53.800781 0 15.371093 6.453125 29.253906 16.777344 39.113281h-32.234375c-4.691406-14.777344-17.140625-26.023438-32.726562-28.957031-5.273438-35.882813-36.28125-63.144531-73.199219-63.144531-29.03125 0-55.527344 17.277343-67.417969 43.46875-21.5 2.375-39.582031 18.046874-45.035156 38.882812-27.128906 3.296875-48.277344 26.566406-48.277344 54.496094 0 30.277344 24.632812 54.910156 54.910156 54.910156 18.300782 0 35.148438-9.171875 45.238282-23.796875 8.324218 9.726563 20.34375 15.871094 33.304687 16.738281 9.980469 27.171875 36.085937 45.675782 65.386719 45.675782zm0 0"/><path d="m474.652344 297.578125c-6.816406 0-13.34375 1.808594-19.042969 5.203125-6.601563-9.371094-16.671875-15.886719-27.996094-18.015625-4.589843-31.851563-28.828125-57.738281-60.832031-64.050781-4.0625-.800782-8.007812 1.84375-8.808594 5.90625-.800781 4.066406 1.84375 8.011718 5.90625 8.8125 27.398438 5.402344 47.714844 28.660156 49.402344 56.554687.234375 3.859375 3.367188 6.910157 7.230469 7.042969 11.351562.390625 21.511719 7.421875 25.882812 17.914062.96875 2.324219 3.039063 4.007813 5.507813 4.480469 2.472656.480469 5.019531-.320312 6.777344-2.121093 4.242187-4.339844 9.917968-6.730469 15.972656-6.730469 12.324218 0 22.347656 10.023437 22.347656 22.347656 0 12.320313-10.023438 22.34375-22.347656 22.34375h-244.699219c-12.324219 0-22.347656-10.023437-22.347656-22.34375 0-12.324219 10.023437-22.347656 22.347656-22.347656 3.246094 0 6.378906.6875 9.316406 2.039062 2.054688.945313 4.425781.910157 6.453125-.085937 2.027344-1 3.496094-2.863282 3.996094-5.066406 4.015625-17.683594 19.496094-30.1875 37.648438-30.40625 3.09375-.035157 5.847656-1.96875 6.933593-4.867188 6.785157-18.097656 21.90625-32.113281 40.457031-37.488281 3.980469-1.152344 6.269532-5.3125 5.117188-9.292969-1.152344-3.976562-5.3125-6.261719-9.292969-5.117188-21.488281 6.230469-39.28125 21.773438-48.441406 42.0625-20.195313 2.101563-37.339844 15.253907-44.65625 33.988282-2.460937-.507813-4.976563-.761719-7.53125-.761719-18.027344 0-33.109375 12.832031-36.589844 29.84375h-31.363281c-4.140625 0-7.5 3.355469-7.5 7.5s3.359375 7.5 7.5 7.5h31.363281c1.121094 5.476563 3.445313 10.523437 6.683594 14.847656h-87.820313c-4.140624 0-7.5 3.355469-7.5 7.5 0 4.140625 3.359376 7.5 7.5 7.5h362.425782c20.59375 0 37.347656-16.753906 37.347656-37.347656 0-20.589844-16.753906-37.34375-37.347656-37.34375zm0 0"/><path d="m387.210938 167.589844c-4.144532 0-7.5 3.355468-7.5 7.5 0 4.140625 3.355468 7.5 7.5 7.5h82.175781c4.140625 0 7.5-3.359375 7.5-7.5 0-4.144532-3.359375-7.5-7.5-7.5zm0 0"/><path d="m362.558594 385.195312h-61.738282c-4.144531 0-7.5 3.359376-7.5 7.5 0 4.144532 3.355469 7.5 7.5 7.5h61.738282c4.140625 0 7.5-3.355468 7.5-7.5 0-4.140624-3.359375-7.5-7.5-7.5zm0 0"/><path d="m272.160156 385.195312h-22.039062c-4.140625 0-7.5 3.359376-7.5 7.5 0 4.144532 3.359375 7.5 7.5 7.5h22.039062c4.140625 0 7.5-3.355468 7.5-7.5 0-4.140624-3.359375-7.5-7.5-7.5zm0 0"/><path d="m128 250.261719h-.105469c-4.140625 0-7.5 3.359375-7.5 7.5 0 4.144531 3.359375 7.5 7.5 7.5h.105469c4.140625 0 7.5-3.355469 7.5-7.5 0-4.140625-3.359375-7.5-7.5-7.5zm0 0"/><path d="m272.039062 64.40625h.101563.074219c4.109375 0 7.457031-3.3125 7.496094-7.429688.039062-4.140624-3.285157-7.53125-7.425782-7.570312h-.105468c-.023438 0-.046876 0-.070313 0-4.109375 0-7.460937 3.3125-7.5 7.429688-.039063 4.144531 3.289063 7.53125 7.429687 7.570312zm0 0"/></svg>