<svg height="512pt" viewBox="0 -60 512.003 512" width="512pt" xmlns="http://www.w3.org/2000/svg"><path d="m451.148438 50.800781h-20.171876c1.140626-3.289062 1.769532-6.808593 1.769532-10.46875 0-18.132812-15.152344-32.828125-33.839844-32.828125-14.421875 0-26.730469 8.757813-31.601562 21.085938-9.140626-3.859375-20.171876-2.183594-27.648438 5.070312-4.878906 4.734375-7.316406 10.9375-7.316406 17.140625h-3.40625c-10.789063 0-19.535156 8.488281-19.535156 18.953125 0 10.46875 8.746093 18.953125 19.535156 18.953125 0 0 71.058594.027344 122.210937.058594 10.808594.007813 19.570313-8.496094 19.570313-18.984375.003906-10.480469-8.757813-18.980469-19.566406-18.980469zm0 0" fill="#f0f5f7"/><path d="m470.71875 69.785156c0 10.480469-8.765625 18.980469-19.578125 18.980469-2.101563 0-4.246094 0-6.410156-.007813.246093-1.179687.371093-2.402343.371093-3.652343 0-5.238281-2.195312-9.980469-5.730468-13.417969-3.546875-3.441406-8.441406-5.5625-13.84375-5.5625h-20.171875c1.144531-3.289062 1.773437-6.808594 1.773437-10.46875 0-18.128906-15.152344-32.828125-33.84375-32.828125-1.039062 0-2.070312.046875-3.089844.136719 5.96875-9.289063 16.59375-15.46875 28.707032-15.46875 18.699218 0 33.839844 14.699218 33.839844 32.832031 0 3.667969-.628907 7.179687-1.761719 10.46875h20.171875c5.402344 0 10.289062 2.128906 13.835937 5.558594 3.542969 3.441406 5.730469 8.191406 5.730469 13.429687zm0 0" fill="#dde9ed"/><path d="m47.703125 87.082031c2.457031-39.390625 36.160156-70.597656 77.382813-70.597656 33.242187 0 61.597656 20.300781 72.617187 48.816406 27.109375.320313 49.25 20.609375 51.523437 46.414063h43.136719c-1.628906-14.25 5.894531-28.609375 19.898438-35.355469 16.898437-8.140625 37.191406-2.285156 46.90625 12.992187 5.742187-3.714843 12.636719-5.878906 20.054687-5.878906 17.566406 0 32.210938 12.136719 35.515625 28.242188h15.949219c15.636719 0 28.3125 12.296875 28.3125 27.46875 0 15.167968-12.675781 27.464844-28.3125 27.464844 0 0-369.101562.253906-381.546875.253906-22.730469 0-41.160156-17.875-41.160156-39.929688 0-21.582031 17.660156-39.15625 39.722656-39.890625zm0 0" fill="#c4e1e8"/><path d="m7.980469 126.96875c0 22.058594 18.4375 39.941406 41.160156 39.941406 1.714844 0 10.230469 0 23.632813-.015625-.046876-.609375-.058594-1.203125-.058594-1.8125 0-21.59375 17.65625-39.15625 39.722656-39.894531 2.464844-39.390625 36.167969-70.59375 77.382812-70.59375.910157 0 1.824219.015625 2.734376.042969-13.308594-22.78125-38.542969-38.160157-67.464844-38.160157-41.230469 0-74.933594 31.21875-77.382813 70.609376-22.066406.722656-39.726562 18.304687-39.726562 39.882812zm0 0" fill="#a4d5dd"/><path d="m463.675781 143c-2.230469-35.789062-32.851562-64.144531-70.300781-64.144531-30.203125 0-55.964844 18.445312-65.976562 44.355469-24.628907.289062-44.746094 18.726562-46.8125 42.167968h-39.191407c1.484375-12.945312-5.351562-25.988281-18.074219-32.121094-15.355468-7.394531-33.792968-2.078124-42.617187 11.804688-5.21875-3.371094-11.480469-5.339844-18.21875-5.339844-15.964844 0-29.265625 11.027344-32.269531 25.65625h-14.488282c-14.207031 0-25.722656 11.175782-25.722656 24.957032 0 13.785156 11.515625 24.957031 25.722656 24.957031 0 0 335.339844.230469 346.644532.230469 20.652344 0 37.398437-16.242188 37.398437-36.277344-.003906-19.613282-16.046875-35.578125-36.09375-36.246094zm0 0" fill="#a0ecff"/><path d="m499.765625 179.238281c0 20.042969-16.75 36.289063-37.394531 36.289063-1.558594 0-9.296875 0-21.46875-.011719.039062-.554687.050781-1.09375.050781-1.648437 0-19.617188-16.042969-35.578126-36.089844-36.25-2.238281-35.789063-32.859375-64.136719-70.304687-64.136719-.828125 0-1.65625.011719-2.484375.039062 12.09375-20.699219 35.015625-34.667969 61.292969-34.667969 37.460937 0 68.082031 28.363282 70.308593 64.152344 20.046875.65625 36.089844 16.628906 36.089844 36.234375zm0 0" fill="#60daff"/><path d="m168.988281 207.050781c-1.523437-17.273437-16.347656-30.855469-34.492187-31.066406-7.375-19.089844-26.355469-32.679687-48.609375-32.679687-27.589844 0-50.152344 20.890624-51.796875 47.257812-14.769532.492188-26.589844 12.253906-26.589844 26.703125 0 14.761719 12.335938 26.730469 27.554688 26.730469 8.328124 0 450.492187-.171875 450.492187-.171875 10.46875 0 18.953125-8.230469 18.953125-18.386719s-8.484375-18.386719-18.953125-18.386719h-29.433594c.117188-1.230469.1875-2.480469.1875-3.742187 0-22.027344-18.40625-39.886719-41.113281-39.886719-18.5 0-34.144531 11.859375-39.308594 28.164063-3.675781-2.183594-8-3.441407-12.628906-3.441407-11.757812 0-21.5625 8.125-23.773438 18.90625zm0 0" fill="#dde9ed"/><path d="m504.5 225.441406c0 10.15625-8.488281 18.382813-18.949219 18.382813 0 0-2.289062 0-6.550781 0v-.066407c0-5.082031-2.121094-9.671874-5.550781-13-3.429688-3.328124-8.167969-5.386718-13.398438-5.386718h-29.441406c.121094-1.230469.191406-2.480469.191406-3.742188 0-22.03125-18.410156-39.882812-41.109375-39.882812-3.390625 0-6.683594.398437-9.832031 1.152344 7.171875-11.667969 20.308594-19.480469 35.332031-19.480469 22.699219 0 41.109375 17.863281 41.109375 39.894531 0 1.261719-.070312 2.503906-.191406 3.734375h29.441406c5.230469 0 9.96875 2.058594 13.398438 5.382813 3.429687 3.328124 5.550781 7.925781 5.550781 13.011718zm0 0" fill="#c4e1e8"/><path d="m152.28125 280.472656c9.785156 0 18.625 4.03125 24.96875 10.515625 6.273438-15.058593 20.894531-25.769531 38.085938-26.359375 2.558593-42.289062 37.660156-75.792968 80.589843-75.792968 34.625 0 64.152344 21.792968 75.628907 52.410156 25.660156.3125 47.046874 18.335937 52.511718 42.414062 4.433594-2.039062 9.367188-3.1875 14.574219-3.1875 19.289063 0 34.925781 15.636719 34.925781 34.925782 0 19.289062-15.636718 34.929687-34.925781 34.929687-12.265625 0-273.503906 0-286.359375 0-19.289062 0-34.929688-15.640625-34.929688-34.929687 0-19.289063 15.640626-34.925782 34.929688-34.925782zm0 0" fill="#a0ecff"/><path d="m473.5625 315.402344c0 18.148437-13.835938 33.0625-31.550781 34.757812 1.582031-3.976562 2.445312-8.3125 2.445312-12.84375 0-19.285156-15.628906-34.925781-34.925781-34.925781-5.199219 0-10.136719 1.144531-14.570312 3.183594-5.460938-24.078125-26.851563-42.101563-52.511719-42.414063-11.480469-30.617187-41-52.40625-75.621094-52.40625-11.671875 0-22.761719 2.472656-32.773437 6.925782 14.824218-17.636719 37.039062-28.839844 61.875-28.839844 34.625 0 64.144531 21.789062 75.621093 52.40625 25.660157.308594 47.050781 18.332031 52.515625 42.414062 4.433594-2.039062 9.371094-3.183594 14.570313-3.183594 19.296875 0 34.925781 15.628907 34.925781 34.925782zm0 0" fill="#60daff"/><path d="m485.546875 346.894531h-22.5625c-2.40625-10.535156-12.082031-18.414062-23.664063-18.414062-2.113281 0-4.164062.265625-6.121093.757812-5.820313-15.164062-20.875-25.972656-38.539063-25.972656-19.382812 0-35.621094 13.019531-39.964844 30.53125-2.460937-1.492187-5.363281-2.363281-8.480468-2.363281-8.832032 0-15.996094 6.910156-16.074219 15.460937h-62.25c-3.898437-7.925781-12.234375-13.402343-21.890625-13.402343-6.15625 0-11.777344 2.230468-16.050781 5.898437-1.921875-15.957031-15.894531-28.339844-32.859375-28.339844-15.125 0-27.871094 9.847657-31.820313 23.296875-5.746093-10.878906-17.34375-18.363281-30.773437-18.523437-7.378906-19.089844-26.355469-32.679688-48.609375-32.679688-27.59375 0-50.152344 20.890625-51.796875 47.257813-14.769532.496094-26.589844 12.257812-26.589844 26.707031 0 14.761719 12.335938 26.730469 27.550781 26.730469 8.332031 0 450.496094-.171875 450.496094-.171875 10.46875 0 18.953125-8.230469 18.953125-18.386719s-8.484375-18.386719-18.953125-18.386719zm0 0" fill="#c4e1e8"/><path d="m504.5 365.277344c0 10.15625-8.488281 18.394531-18.960938 18.394531 0 0-5.65625 0-15.71875.011719.011719-.097656.011719-.195313.011719-.292969 0-5.082031-2.121093-9.671875-5.550781-13s-8.171875-5.382813-13.398438-5.382813h-22.5625c-2.410156-10.535156-12.089843-18.414062-23.667968-18.414062-2.113282 0-4.160156.261719-6.121094.757812-5.789062-15.105468-20.730469-25.875-38.300781-25.96875 7.332031-10.90625 20.011719-18.113281 34.429687-18.113281 17.660156 0 32.71875 10.804688 38.539063 25.96875 1.953125-.492187 4-.757812 6.121093-.757812 11.582032 0 21.261719 7.878906 23.660157 18.414062h22.558593c5.230469 0 9.972657 2.058594 13.410157 5.382813 3.433593 3.328125 5.550781 7.929687 5.550781 13zm0 0" fill="#a4d5dd"/><path d="m81.96875 83.441406c-.257812 4.132813 2.882812 7.695313 7.015625 7.953125.160156.007813.320313.015625.476563.015625 3.929687 0 7.230468-3.058594 7.476562-7.035156.792969-12.734375 11.847656-22.710938 25.160156-22.710938 4.140625 0 7.5-3.359374 7.5-7.5 0-4.144531-3.359375-7.5-7.5-7.5-21.21875 0-38.84375 16.15625-40.128906 36.777344zm0 0"/><path d="m396.085938 120.589844c11.734374 0 21.476562 8.78125 22.175781 19.992187.246093 3.976563 3.546875 7.035157 7.476562 7.035157.15625 0 .316407-.007813.472657-.015626 4.136718-.257812 7.277343-3.820312 7.019531-7.953124-1.191407-19.097657-17.503907-34.058594-37.144531-34.058594-4.140626 0-7.5 3.355468-7.5 7.5 0 4.144531 3.359374 7.5 7.5 7.5zm0 0"/><path d="m485.546875 339.394531h-11.925781c4.804687-6.992187 7.445312-15.328125 7.445312-23.996093 0-23.394532-19.035156-42.425782-42.425781-42.425782-3.273437 0-6.488281.367188-9.617187 1.097656-3.238282-8.734374-8.332032-16.4375-14.757813-22.714843l71.28125-.027344c14.585937 0 26.453125-11.613281 26.453125-25.890625 0-9.179688-4.914062-17.253906-12.300781-21.851562 4.917969-7.136719 7.566406-15.523438 7.566406-24.339844 0-21.535156-15.695313-39.355469-36.773437-43.0625-2.289063-15.289063-9.265626-29.046875-19.421876-39.917969h.066407.019531c7.183594 0 13.949219-2.726563 19.046875-7.671875 5.167969-5.011719 8.011719-11.691406 8.011719-18.8125 0-14.601562-12.140625-26.480469-27.066406-26.480469h-11.015626c.074219-.984375.113282-1.976562.113282-2.972656 0-22.234375-18.546875-40.328125-41.339844-40.328125-14.582031 0-28.082031 7.667969-35.464844 19.628906-10.410156-1.980468-21.246094 1.117188-29.003906 8.644532-4.378906 4.25-7.363281 9.492187-8.738281 15.214843-13.386719 1.570313-23.800781 12.75-23.800781 26.265625 0 1.320313.101562 2.644532.300781 3.945313-9.960938 7.28125-16.320313 18.433593-17.394531 30.515625h-29.121094c-5.261719-25.003906-26.613282-43.753906-52.902344-46.152344-2.59375-5.652344-5.847656-11.023438-9.710938-16.023438-2.53125-3.277343-7.242187-3.878906-10.519531-1.347656-3.277343 2.53125-3.882812 7.246094-1.347656 10.519532 3.996094 5.175781 7.195313 10.824218 9.5 16.796874 1.105469 2.859376 3.839844 4.761719 6.910156 4.792969 23.199219.273438 42.175781 17.285157 44.140625 39.570313.339844 3.875 3.585938 6.84375 7.472656 6.84375h43.136719c2.136719 0 4.171875-.914063 5.597657-2.507813 1.421874-1.59375 2.097656-3.722656 1.851562-5.847656-1.308594-11.4375 5-22.585937 15.703125-27.742187 10.347656-4.984376 22.566406-3.414063 31.160156 3.445312-10.375 7.554688-18.855469 17.605469-24.351562 29.421875-23.8125 2.339844-43.152344 19.28125-48.160157 41.894531h-25.28125c-1.402343-13.292968-9.707031-25.304687-22.3125-31.378906-16.582031-7.988281-36.0625-4.019531-47.957031 8.992188-5.058593-2.152344-10.53125-3.269532-16.132812-3.269532-14.832031 0-28.148438 7.953125-35.171875 20.035156-10.894532-10.296874-25.699219-16.453124-41.421875-16.453124-18.863281 0-35.796875 8.640624-46.710938 22.152343-13.882812-4.148437-23.695312-16.769531-23.695312-30.980469 0-17.5625 14.261719-31.792968 32.472656-32.398437 3.863281-.128906 6.992187-3.171875 7.234375-7.03125 2.226562-35.640625 32.925781-63.5625 69.894531-63.5625 11.679688 0 23.242188 2.839844 33.4375 8.210937 3.667969 1.929688 8.199219.523438 10.128907-3.140624 1.933593-3.664063.527343-8.199219-3.136719-10.132813-12.34375-6.5-26.324219-9.9375-40.429688-9.9375-42.652343 0-78.445312 30.8125-84.210937 71.25-23.117188 3.804687-40.390625 23.230469-40.390625 46.742187 0 19.554688 12.539062 37.019532 30.726562 44.089844-1.769531 4.046875-3.085937 8.332032-3.867187 12.800782-15.765625 3.410156-27.339844 17.035156-27.339844 33.402343 0 18.871094 15.722656 34.226563 35.050781 34.226563 2.332031 0 38.59375-.011719 89.621094-.03125 4.140625-.003906 7.5-3.359375 7.496094-7.503906 0-4.140626-3.359375-7.496094-7.5-7.496094-51.027344.019531-87.285157.03125-89.617188.03125-11.054687 0-20.050781-8.625-20.050781-19.226563 0-10.410156 8.496094-18.847656 19.339844-19.210937 3.863281-.128906 6.996094-3.171875 7.234375-7.027344 1.40625-22.558594 20.871093-40.226562 44.3125-40.226562 18.445312 0 35.167969 11.207031 41.613281 27.882812 1.101562 2.859375 3.839844 4.761719 6.90625 4.796875 14.25.167969 25.902344 10.582031 27.105469 24.226563.34375 3.871093 3.585937 6.84375 7.472656 6.84375h57.984375c-5.265625 6.578124-9.589844 13.941406-12.8125 21.878906l-56.828125.019531c-4.144531 0-7.5 3.359375-7.496094 7.503906 0 4.140625 3.355469 7.496094 7.5 7.496094l52.246094-.019531c-.4375 2.097656-.824219 4.214844-1.109375 6.367187-13.695312 2.3125-25.855469 10.230469-33.535156 21.710938-6.710938-4.257813-14.5-6.539063-22.652344-6.539063-12.046875 0-23.378906 5.105469-31.363281 13.878906-9.984375-7.105468-22.199219-11.203124-35.03125-11.203124-29.171875 0-53.75 20.65625-58.546875 48.0625-15.761719 3.40625-27.339844 17.03125-27.339844 33.398437 0 18.875 15.722656 34.230469 35.050781 34.230469l52.621094-.019532c4.140625-.003906 7.5-3.359374 7.5-7.503906-.003906-4.140625-3.359375-7.496094-7.5-7.496094h-.003906l-52.613281.019532c-11.058594 0-20.054688-8.628906-20.054688-19.230469 0-10.410156 8.496094-18.847656 19.339844-19.210937 3.863281-.128907 6.996094-3.171876 7.234375-7.027344 1.410156-22.554688 20.875-40.226563 44.3125-40.226563 18.445312 0 35.167969 11.207031 41.613281 27.882813 1.105469 2.863281 3.839844 4.761718 6.90625 4.796875 10.28125.121093 19.566406 5.6875 24.234375 14.523437 1.421875 2.699219 4.34375 4.257813 7.378906 3.960938 3.039063-.304688 5.589844-2.421875 6.449219-5.347656 3.09375-10.546876 13.21875-17.910157 24.621094-17.910157 12.996094 0 23.921875 9.34375 25.414062 21.738281.332032 2.746094 2.148438 5.089844 4.726563 6.09375 2.578125 1.003907 5.503906.503907 7.605469-1.300781 3.074218-2.636719 7.039062-4.089843 11.164062-4.089843 6.457031 0 12.410156 3.613281 15.160156 9.210937 1.261719 2.566406 3.875 4.191406 6.730469 4.191406h62.25c4.117187 0 7.464844-3.316406 7.5-7.433593.042969-4.429688 3.886719-8.03125 8.574219-8.03125 1.625 0 3.214844.445312 4.605468 1.285156 2.039063 1.230468 4.542969 1.421875 6.746094.511718 2.203125-.910156 3.839844-2.8125 4.414063-5.128906 3.625-14.621094 17.0625-24.832031 32.683593-24.832031 14.007813 0 26.679688 8.503906 31.535157 21.160156 1.363281 3.542969 5.15625 5.511719 8.835937 4.585938 1.394532-.355469 2.835938-.53125 4.285156-.53125 7.8125 0 14.691407 5.292969 16.355469 12.582031.777344 3.410156 3.8125 5.832031 7.308594 5.832031h22.566406c6.3125 0 11.453125 4.882813 11.453125 10.886719s-5.140625 10.886719-11.457031 10.886719l-365.214844.140625c-4.144531 0-7.5 3.359375-7.496093 7.5 0 4.144531 3.355468 7.5 7.5 7.5l365.214843-.140625c14.585938 0 26.453125-11.613281 26.453125-25.886719 0-14.277344-11.871094-25.886719-26.457031-25.886719zm-.003906-103.070312-95.488281.039062c-.339844 0-.671876.03125-1 .074219-3.972657-1.207031-8.105469-2.035156-12.355469-2.425781-5.824219-13.199219-14.75-24.527344-25.699219-33.265625 3.132812-3.234375 7.503906-5.097656 12.25-5.097656 3.125 0 6.167969.824218 8.800781 2.386718 1.972657 1.167969 4.363281 1.375 6.503907.558594 2.136718-.816406 3.785156-2.5625 4.476562-4.742188 4.339844-13.714843 17.261719-22.925781 32.152344-22.925781 18.535156 0 33.617187 14.527344 33.617187 32.386719 0 .972656-.050781 1.960938-.152343 3.023438-.203126 2.105468.492187 4.195312 1.914062 5.761718 1.421875 1.5625 3.4375 2.453125 5.550781 2.453125h29.433594c6.316406 0 11.453125 4.886719 11.453125 10.890625s-5.136719 10.882813-11.457031 10.882813zm-168.164063-169.746094c1.453125-4.773437 6.078125-8.277344 11.554688-8.277344h3.40625c4.140625 0 7.5-3.355469 7.5-7.5 0-4.429687 1.789062-8.605469 5.039062-11.761719 5.0625-4.90625 12.898438-6.332031 19.507813-3.539062 1.859375.785156 3.960937.785156 5.820312.003906 1.863281-.78125 3.332031-2.28125 4.074219-4.160156 3.859375-9.773438 13.757812-16.34375 24.625-16.34375 14.523438 0 26.339844 11.363281 26.339844 25.328125 0 2.726563-.457032 5.425781-1.355469 8.015625-.792969 2.292969-.433594 4.828125.976563 6.808594 1.40625 1.976562 3.683593 3.148437 6.109374 3.148437h20.175782c6.652344 0 12.066406 5.152344 12.066406 11.480469 0 3.027344-1.230469 5.882812-3.457031 8.042969-2.285157 2.21875-5.34375 3.4375-8.605469 3.4375-.003906 0-.007812 0-.007812 0l-18.808594-.007813c-.003906 0-.003906 0-.003906 0-.164063 0-.324219.011719-.484376.023438-11.386718-6.3125-24.527343-9.921875-38.476562-9.921875-11.675781 0-22.960938 2.589843-33.148438 7.273437-10.972656-11.386718-27.53125-15.917968-42.847656-12.050781zm-177.835937 102.238281c-.523438-1.066406-1.085938-2.113281-1.671875-3.144531 2.808594-10.757813 12.945312-18.453125 24.613281-18.453125 5.066406 0 9.957031 1.433594 14.144531 4.140625 1.679688 1.085937 3.722656 1.453125 5.675782 1.027344 1.953124-.425781 3.652343-1.617188 4.726562-3.304688 6.820312-10.722656 21.328125-14.707031 33.03125-9.066406 9.460938 4.558594 15.039062 14.40625 13.882812 24.507813-.242187 2.125.429688 4.253906 1.851563 5.847656 1.425781 1.597656 3.460937 2.507812 5.597656 2.507812h39.191407c3.886718 0 7.128906-2.96875 7.472656-6.84375 1.753906-19.894531 18.703125-35.082031 39.429687-35.324218 3.066407-.035157 5.800781-1.9375 6.90625-4.796876 9.144531-23.660156 32.84375-39.558593 58.980469-39.558593 33.226562 0 60.820312 25.085937 62.816406 57.109375.242188 3.855468 3.375 6.898437 7.234375 7.027344 16.171875.539062 28.839844 13.167968 28.839844 28.75 0 7.679687-3.097656 14.875-8.71875 20.308593h-19.898437c-1.972657-24.378906-22.953126-43.628906-48.460938-43.628906-18.644531 0-35.179688 10.125-43.347656 25.878906-2.777344-.765625-5.667969-1.15625-8.585938-1.15625-9.824218 0-18.84375 4.308594-24.832031 11.691407-12.785156-7.054688-27.347656-11-42.496094-11-20.148437 0-38.8125 6.828124-53.742187 18.316406-.386719-.058594-.78125-.101563-1.183594-.101563h-65.730469c-4.296875-16.367187-18.386719-28.582031-35.726562-30.734375zm299.777343 152.167969c-.558593 0-1.113281.015625-1.667968.042969-8.332032-15.320313-24.910156-25.257813-42.992188-25.257813-19.683594 0-37.003906 11.375-44.589844 28.476563-1.269531-.207032-2.558593-.3125-3.855468-.3125-10.230469 0-19.003906 6.472656-22.242188 15.460937h-51.851562c-5.867188-8.265625-15.660156-13.402343-26.121094-13.402343-3.921875 0-7.773438.710937-11.375 2.0625-6.121094-14.5-20.746094-24.503907-37.535156-24.503907-13.367188 0-25.648438 6.496094-33.121094 16.746094-6.5625-6.335937-15.117188-10.457031-24.425781-11.628906-2.0625-4.210938-4.628907-8.113281-7.601563-11.652344 5.167969-5.714844 12.519532-9.042969 20.339844-9.042969 7.433594 0 14.394531 2.933594 19.605469 8.257813 1.757812 1.800781 4.300781 2.601562 6.773437 2.125 2.472656-.476563 4.542969-2.160157 5.511719-4.480469 5.308594-12.738281 17.640625-21.277344 31.421875-21.75 3.863281-.132812 6.996094-3.183594 7.230469-7.042969 2.332031-38.550781 34.441406-68.746093 73.101562-68.746093 30.375 0 57.945313 19.105468 68.605469 47.546874 1.085938 2.894532 3.839844 4.828126 6.933594 4.863282 21.835937.265625 40.457031 15.304687 45.285156 36.574218.5 2.207032 1.96875 4.066407 3.996094 5.066407 2.027344 1.003906 4.398437 1.035156 6.453125.089843 3.609375-1.660156 7.457031-2.503906 11.441406-2.503906 15.121094 0 27.421875 12.304688 27.421875 27.425782 0 5.289062-1.527344 10.382812-4.304688 14.742187-5.824218-5.683594-13.839843-9.15625-22.4375-9.15625zm0 0"/></svg>