<svg height="512pt" viewBox="0 -57 512.00055 512" width="512pt" xmlns="http://www.w3.org/2000/svg"><path d="m314.042969 367.574219c-13.542969 4.109375-27.445313 2.828125-39.402344-2.578125-1.695313 6.550781-4.433594 12.785156-8.089844 18.449218h-105.953125c-3.101562-4.816406-5.605468-10.125-7.347656-15.878906-7.851562-25.917968 1.78125-52.949218 22.125-68.445312-6.925781-7.105469-12.3125-15.910156-15.386719-26.058594-10.226562-33.761719 8.847657-69.414062 42.597657-79.648438 14.273437-4.324218 28.871093-3.398437 41.757812 1.644532 6.957031-10.007813 17.203125-17.839844 29.78125-21.652344 29.671875-8.996094 61.03125 7.773438 70.023438 37.453125 6.316406 20.828125-.066407 42.460937-14.6875 56.636719 10.195312 6.964844 18.175781 17.308594 22.039062 30.046875.855469 2.828125 1.488281 5.675781 1.878906 8.523437 3.792969 26.941406-12.480468 53.371094-39.335937 61.507813zm0 0" fill="#f0f5f7"/><path d="m314.042969 367.574219c-13.542969 4.109375-27.445313 2.828125-39.402344-2.578125-1.695313 6.550781-4.433594 12.785156-8.089844 18.449218h-89.222656c-8.839844-33.117187 10.136719-67.53125 43.195313-77.550781 14.277343-4.324219 28.875-3.386719 41.761718 1.648438 6.953125-10.011719 17.199219-17.84375 29.78125-21.65625 23.269532-7.050781 47.5625 1.734375 61.316406 20.179687 3.789063 26.941406-12.484374 53.371094-39.339843 61.507813zm0 0" fill="#dde9ed"/><path d="m83.847656 164.703125c1.820313 18.675781 18.433594 32.34375 37.109375 30.523437 4.101563-.402343 7.960938-1.515624 11.46875-3.207031 1.136719 4.714844 2.941407 9.347657 5.484375 13.765625 14.308594 24.875 46.078125 33.4375 70.953125 19.128906 12.066407-6.945312 20.28125-17.996093 23.921875-30.371093 9.007813 7.804687 21.070313 12.054687 33.871094 10.804687 7.628906-.742187 14.617188-3.347656 20.578125-7.320312 9.746094 17.535156 29.234375 28.5625 50.476563 26.496094 22.453124-2.1875 40.164062-18.363282 45.363281-39.058594 5.875 2.714844 12.519531 3.960937 19.425781 3.289062 20.710938-2.019531 35.863281-20.445312 33.847656-41.15625-2.019531-20.710937-20.445312-35.863281-41.15625-33.847656-12.773437 1.246094-23.425781 8.734375-29.246094 19.148438-10.304687-8.589844-23.90625-13.21875-38.3125-11.816407-11.222656 1.09375-21.25 5.691407-29.136718 12.589844-9.113282-12.277344-24.25-19.609375-40.574219-18.019531-17.371094 1.691406-31.460937 13.039062-37.503906 28.207031-16.152344-16.832031-42.25-21.1875-63.378907-9.03125-4.03125 2.320313-7.628906 5.105469-10.773437 8.238281-6.671875-10.382812-18.769531-16.753906-31.894531-15.476562-18.675782 1.820312-32.34375 18.4375-30.523438 37.113281zm0 0" fill="#c4e1e8"/><path d="m402.5 188.753906c-6.90625.671875-13.554688-.570312-19.425781-3.289062-5.203125 20.695312-22.90625 36.875-45.367188 39.058594-21.238281 2.070312-40.726562-8.964844-50.46875-26.488282-5.960937 3.960938-12.953125 6.570313-20.578125 7.320313-12.796875 1.242187-24.863281-3.003907-33.871094-10.808594-3.644531 12.375-11.859374 23.429687-23.925781 30.375-24.875 14.300781-56.636719 5.742187-70.949219-19.132813-2.542968-4.414062-4.34375-9.054687-5.488281-13.761718-3.507812 1.683594-7.359375 2.796875-11.46875 3.203125-18.675781 1.820312-35.285156-11.84375-37.109375-30.519531-.886718-9.074219 1.882813-17.664063 7.121094-24.304688 6.917969 8.789062 18.03125 13.960938 29.988281 12.796875 4.109375-.394531 7.960938-1.507813 11.46875-3.203125 1.140625 4.710938 2.945313 9.351562 5.484375 13.765625 14.316406 24.875 46.078125 33.445313 70.949219 19.128906 12.070313-6.945312 20.285156-17.996093 23.929687-30.371093 9.003907 7.800781 21.074219 12.058593 33.871094 10.804687 7.625-.738281 14.617188-3.347656 20.578125-7.316406 9.742188 17.535156 29.230469 28.558593 50.46875 26.488281 22.460938-2.1875 40.164063-18.363281 45.363281-39.050781 5.871094 2.710937 12.523438 3.960937 19.429688 3.28125 11.664062-1.144531 21.554688-7.476563 27.621094-16.492188 3.378906 5.015625 5.59375 10.914063 6.226562 17.359375 2.019532 20.714844-13.140625 39.136719-33.847656 41.15625zm0 0" fill="#a4d5dd"/><path d="m26.171875 353.453125h22.226563c2.371093-10.375 11.90625-18.136719 23.3125-18.136719 2.082031 0 4.101562.261719 6.03125.746094 5.730468-14.941406 20.5625-25.585938 37.964843-25.585938 19.09375 0 35.09375 12.824219 39.371094 30.074219 2.425781-1.464843 5.285156-2.328125 8.355469-2.328125 8.699218 0 15.757812 6.808594 15.835937 15.234375h61.324219c3.839844-7.808593 12.054688-13.203125 21.5625-13.203125 6.066406 0 11.601562 2.199219 15.8125 5.8125 1.894531-15.71875 15.660156-27.921875 32.371094-27.921875 14.902344 0 27.457031 9.703125 31.347656 22.949219 5.65625-10.714844 17.089844-18.089844 30.316406-18.246094 7.265625-18.804687 25.964844-32.191406 47.886719-32.191406 27.183594 0 49.40625 20.582031 51.027344 46.554688 14.550781.484374 26.195312 12.074218 26.195312 26.308593 0 14.542969-12.152343 26.332031-27.144531 26.332031-8.203125 0-443.796875-.167968-443.796875-.167968-10.3125 0-18.671875-8.109375-18.671875-18.113282 0-10.003906 8.359375-18.117187 18.671875-18.117187zm0 0" fill="#c4e1e8"/><path d="m7.5 371.566406c0 10.003906 8.363281 18.121094 18.675781 18.121094 0 0 5.578125 0 15.488281.007812-.011718-.09375-.011718-.191406-.011718-.285156 0-5.007812 2.089844-9.53125 5.46875-12.808594 3.378906-3.277343 8.046875-5.304687 13.199218-5.304687h22.226563c2.375-10.378906 11.910156-18.136719 23.320313-18.136719 2.078124 0 4.097656.257813 6.027343.746094 5.703125-14.882812 20.421875-25.492188 37.730469-25.585938-7.21875-10.742187-19.710938-17.84375-33.917969-17.84375-17.398437 0-32.234375 10.648438-37.964843 25.585938-1.921876-.488281-3.941407-.746094-6.03125-.746094-11.40625 0-20.945313 7.761719-23.308594 18.140625h-22.226563c-5.152343 0-9.820312 2.023438-13.210937 5.300781-3.378906 3.28125-5.464844 7.808594-5.464844 12.808594zm0 0" fill="#a4d5dd"/><path d="m504.273438 100.484375c-2.519532-25.871094-25.535157-44.800781-51.410157-42.28125-5.679687.554687-11.027343 2.097656-15.886719 4.441406-1.570312-6.53125-4.074218-12.953125-7.59375-19.070312-19.828124-34.460938-63.835937-46.324219-98.292968-26.496094-16.714844 9.617187-28.09375 24.925781-33.140625 42.070313-12.480469-10.8125-29.1875-16.695313-46.921875-14.96875-10.5625 1.027343-20.25 4.640624-28.507813 10.140624-13.5-24.289062-40.496093-39.566406-69.917969-36.703124-31.105468 3.03125-55.640624 25.4375-62.84375 54.105468-8.136718-3.761718-17.34375-5.484375-26.910156-4.554687-28.691406 2.796875-49.683594 28.320312-46.886718 57.011719 2.792968 28.691406 28.316406 49.683593 57.007812 46.886718 17.695312-1.722656 32.453125-12.097656 40.519531-26.523437 14.273438 11.902343 33.113281 18.3125 53.074219 16.367187 15.546875-1.515625 29.4375-7.882812 40.359375-17.4375 12.628906 17.003906 33.59375 27.164063 56.210937 24.960938 24.0625-2.34375 43.582032-18.066406 51.953126-39.078125 22.375 23.320312 58.527343 29.351562 87.800781 12.511719 5.585937-3.214844 10.566406-7.070313 14.925781-11.410157 9.238281 14.378907 26 23.210938 44.179688 21.4375 25.875-2.519531 44.804687-25.535156 42.28125-51.410156zm0 0" fill="#f0f5f7"/><path d="m461.992188 151.898438c-18.175782 1.765624-34.945313-7.0625-44.183594-21.445313-4.355469 4.34375-9.339844 8.195313-14.925782 11.417969-29.265624 16.835937-65.421874 10.808594-87.792968-12.511719-8.375 21.015625-27.890625 36.726563-51.957032 39.070313-22.621093 2.207031-43.582031-7.949219-56.214843-24.953126-10.914063 9.558594-24.8125 15.921876-40.359375 17.4375-19.960938 1.941407-38.796875-4.472656-53.070313-16.371093-8.066406 14.429687-22.824219 24.804687-40.519531 26.527343-28.6875 2.789063-54.210938-18.195312-57.007812-46.890624-.847657-8.738282.5-17.171876 3.613281-24.765626 8.492187 20.804688 29.878906 34.5 53.394531 32.203126 17.695312-1.722657 32.449219-12.097657 40.519531-26.519532 14.273438 11.898438 33.109375 18.304688 53.070313 16.363282 15.542968-1.515626 29.445312-7.882813 40.359375-17.4375 12.628906 17.003906 33.59375 27.160156 56.214843 24.964843 24.066407-2.347656 43.582032-18.070312 51.953126-39.082031 22.375 23.320312 58.527343 29.359375 87.796874 12.511719 5.585938-3.210938 10.570313-7.074219 14.925782-11.410157 9.238281 14.375 26.007812 23.210938 44.183594 21.4375 17.238281-1.683593 31.394531-12.460937 38.183593-27.128906 2.148438 4.667969 3.566407 9.769532 4.097657 15.167969 2.523437 25.871094-16.410157 48.894531-42.28125 51.414063zm0 0" fill="#dde9ed"/><path d="m446.414062 297.222656c1.542969-3.839844-.316406-8.210937-4.160156-9.757812-7.109375-2.859375-14.632812-4.308594-22.363281-4.308594-22.609375 0-43.292969 12.890625-52.933594 32.535156-1.90625.242188-3.777343.617188-5.605469 1.101563.332032-7.195313-.554687-14.433594-2.671874-21.425781-3.363282-11.097657-9.746094-21.082032-18.300782-28.804688 8.589844-10.898438 13.433594-24.378906 13.683594-38.292969 15.222656-5.890625 27.554688-17.886719 33.753906-33.207031 5.011719 1.257812 10.226563 1.65625 15.410156 1.152344 21.054688-2.050782 37.351563-18.324219 40.308594-38.371094 6.140625 1.605469 12.621094 2.152344 19.183594 1.515625 29.945312-2.917969 51.9375-29.65625 49.023438-59.605469-2.921876-29.949218-29.660157-51.925781-59.601563-49.019531-3.515625.34375-6.953125 1.015625-10.296875 2.007813-1.597656-4.472657-3.589844-8.789063-5.960938-12.910157-8.039062-13.972656-19.949218-25.035156-34.449218-31.992187-3.734375-1.789063-8.214844-.21875-10.007813 3.515625s-.21875 8.214843 3.515625 10.007812c11.757813 5.640625 21.421875 14.613281 27.941406 25.949219 3.070313 5.332031 5.359376 11.082031 6.804688 17.085938.53125 2.203124 2.03125 4.050781 4.082031 5.019531 2.046875.972656 4.425781.964843 6.46875-.019531 4.1875-2.023438 8.683594-3.277344 13.355469-3.730469 21.726562-2.117188 41.101562 13.828125 43.21875 35.542969 2.113281 21.71875-13.832031 41.105468-35.546875 43.21875-14.832031 1.445312-29.070313-5.460938-37.144531-18.027344-1.226563-1.90625-3.246094-3.15625-5.5-3.402344-2.257813-.242188-4.496094.542969-6.101563 2.144531-3.992187 3.976563-8.492187 7.414063-13.375 10.222657-25.753906 14.820312-58.097656 10.210937-78.648437-11.203126-1.769532-1.839843-4.347656-2.652343-6.851563-2.167968-2.5.492187-4.585937 2.21875-5.527343 4.585937-7.652344 19.210938-25.167969 32.386719-45.710938 34.390625-19.359375 1.890625-37.847656-6.328125-49.460938-21.96875-1.246093-1.683594-3.140624-2.765625-5.222656-2.988281-2.085937-.226563-4.160156.433594-5.738281 1.8125-10.175781 8.90625-22.679687 14.308594-36.148437 15.621094-17.300782 1.683593-34.183594-3.523438-47.546876-14.664063-1.714843-1.429687-3.972656-2.019531-6.167968-1.617187-2.191406.40625-4.09375 1.769531-5.179688 3.71875-7.160156 12.808593-20.132812 21.300781-34.695312 22.71875-24.523438 2.398437-46.429688-15.621094-48.820313-40.148438-2.390625-24.53125 15.621094-46.429687 40.152344-48.820312 7.886719-.769531 15.855469.578125 23.035156 3.898437 2.027344.933594 4.363281.921875 6.378907-.042968 2.015624-.964844 3.496093-2.773438 4.039062-4.9375 6.625-26.355469 29.25-45.832032 56.296875-48.46875 25.5625-2.492188 50.152344 10.417968 62.640625 32.878906 1.015625 1.832031 2.75 3.152344 4.785156 3.648437 2.035156.492188 4.183594.113281 5.925782-1.046875 7.453124-4.964844 16.121093-8.046875 25.074218-8.921875 15.113282-1.46875 29.78125 3.207031 41.289063 13.175781 1.925781 1.671876 4.566406 2.25 7.019531 1.527344 2.449219-.71875 4.363281-2.632812 5.085938-5.078125 4.707031-16 15.246093-29.386719 29.683593-37.6875 9.480469-5.457031 20.253907-8.425781 31.152344-8.582031 4.140625-.0625 7.449219-3.464844 7.390625-7.609375-.0625-4.101563-3.40625-7.390625-7.5-7.390625-.035156 0-.074219 0-.109375 0-13.441406.195312-26.726563 3.855469-38.414063 10.578125-14.734374 8.480469-26.179687 21.246094-32.972656 36.582031-13.0625-8.296875-28.378906-11.980468-44.078125-10.449218-8.820312.859374-17.425781 3.40625-25.269531 7.445312-16.285156-23.628906-44.222656-36.820312-73.15625-34.003906-30.546875 2.976562-56.511719 23.375-66.929688 51.753906-7.363281-2.191406-15.121093-2.953125-22.824218-2.203125-32.761719 3.191406-56.816406 32.441406-53.625 65.203125 3 30.804688 29.035156 53.910156 59.371094 53.910156 1.925781 0 3.875-.09375 5.832031-.285156 1.960937-.1875 3.894531-.484375 5.804687-.863281 6.996094 16.453125 24.003906 26.789062 42.179688 25.023437 2.015625-.199218 4-.535156 5.945312-1.015625 1.066406 2.703125 2.328125 5.324219 3.777344 7.847657 5.480469 9.527343 13.21875 16.960937 22.152344 22.023437-4.785156 14.066406-5.085938 29.382813-.746094 43.691406 2.53125 8.355469 6.613281 16.222657 11.960938 23.105469-5.773438 5.550781-10.5625 12.089844-14.171876 19.246094-8.824218-9.101563-21.285156-14.617188-34.894531-14.617188-17.832031 0-34.175781 9.789063-42.414062 24.882813-.527344-.027344-1.054688-.039063-1.582031-.039063-12.441407 0-23.648438 7.347656-28.632813 18.136719h-16.90625c-14.429687 0-26.171875 11.492187-26.171875 25.617187 0 14.121094 11.742188 25.613282 26.167969 25.613282l378.5.144531h.003906c4.140625 0 7.496094-3.355469 7.5-7.496094 0-4.144531-3.355469-7.503906-7.5-7.503906l-378.5-.144531c-6.160156 0-11.171875-4.761719-11.171875-10.613282 0-5.851562 5.011719-10.613281 11.171875-10.613281h22.226563c3.5 0 6.535156-2.421875 7.3125-5.832031 1.628906-7.132812 8.355468-12.308594 16-12.308594 1.421874 0 2.832031.175782 4.191406.519532 3.683594.933593 7.480468-1.039063 8.839844-4.585938 4.769531-12.425781 17.210937-20.773438 30.964843-20.773438 15.335938 0 28.53125 10.027344 32.089844 24.382813.574219 2.3125 2.210937 4.214844 4.414063 5.125 2.203124.910156 4.707031.71875 6.746093-.515625 1.351563-.8125 2.898438-1.246094 4.476563-1.246094 4.558594 0 8.296875 3.5 8.335937 7.800782.039063 4.117187 3.382813 7.433593 7.5 7.433593h61.324219c2.859375 0 5.46875-1.625 6.730469-4.1875 2.695312-5.476562 8.515625-9.015625 14.835937-9.015625 4.035156 0 7.917969 1.421875 10.925782 4.003906 2.101562 1.804688 5.023437 2.300782 7.605468 1.300782 2.578125-1.003906 4.394532-3.347656 4.726563-6.097656 1.464843-12.152344 12.179687-21.316407 24.921875-21.316407 11.1875 0 21.117187 7.222657 24.152344 17.5625.859374 2.929688 3.410156 5.046875 6.445312 5.351563 3.046875.292968 5.957031-1.261719 7.382812-3.960938 4.578126-8.671875 13.6875-14.128906 23.773438-14.246094 3.066406-.035156 5.804688-1.9375 6.910156-4.796874 6.328125-16.386719 22.761719-27.398438 40.890625-27.398438 5.800781 0 11.4375 1.085938 16.761719 3.230469 3.84375 1.539062 8.210938-.320313 9.757812-4.164063zm-302.003906-95.175781c-2.117187-3.679687-3.695312-7.644531-4.691406-11.78125-.53125-2.207031-2.03125-4.050781-4.082031-5.023437-2.046875-.972657-4.425781-.960938-6.46875.023437-2.800781 1.351563-5.808594 2.191406-8.9375 2.496094-11.207031 1.089843-21.695313-5.019531-26.425781-14.878907 8.410156-4.054687 15.820312-10.050781 21.558593-17.566406 15.246094 10.253906 33.390625 14.863282 51.925781 13.058594 14.046876-1.367188 27.238282-6.34375 38.566407-14.488281 14.734375 15.792969 36.3125 24.125 58.003906 22.015625 22.609375-2.203125 42.339844-15.035156 53.5625-34.265625 25.234375 20.195312 60.53125 23.226562 89.203125 6.734375 3.558594-2.046875 6.949219-4.363282 10.140625-6.929688 3.601563 4.035156 7.734375 7.46875 12.253906 10.226563-.199219 15.164062-11.808593 28.117187-27.246093 29.621093-5.328126.519532-10.707032-.390624-15.554688-2.632812-2.027344-.933594-4.367188-.921875-6.378906.042969-2.015625.964843-3.496094 2.773437-4.039063 4.9375-4.566406 18.171875-20.167969 31.605469-38.816406 33.421875-17.628906 1.71875-34.582031-7.183594-43.191406-22.675782-1.019531-1.828124-2.753907-3.148437-4.789063-3.644531-2.03125-.496093-4.183594-.113281-5.921875 1.046875-5.171875 3.441406-10.941406 5.492188-17.148437 6.097656-10.34375 1.015626-20.367188-2.191406-28.234375-9.007812-1.929688-1.671875-4.578125-2.246094-7.023438-1.53125-2.449219.71875-4.363281 2.632812-5.082031 5.082031-3.25 11.03125-10.515625 20.261719-20.46875 25.984375-21.25 12.230469-48.488281 4.886719-60.714844-16.363281zm165.929688 108.597656c-16.550782 0-30.96875 9.832031-37.039063 24.105469-3.53125-1.308594-7.304687-1.996094-11.144531-1.996094-10.320312 0-19.984375 5.054688-25.792969 13.199219h-50.941406c-3.226563-8.855469-11.894531-15.230469-21.992187-15.230469-.75 0-1.492188.046875-2.234376.117188 3.605469-10.179688 10.152344-19.226563 18.726563-25.757813 1.707031-1.300781 2.777344-3.273437 2.9375-5.417969.15625-2.144531-.613281-4.25-2.113281-5.789062-6.363282-6.515625-10.933594-14.25-13.578125-22.988281-3.339844-11.007813-3.207031-22.769531.292969-33.636719 5.066406 1.367188 10.308593 2.074219 15.589843 2.074219 10.050781 0 20.234375-2.546875 29.554688-7.910157 10.328125-5.941406 18.5-14.707031 23.667969-25.230468 9.359374 5.375 20.109374 7.699218 31.113281 6.632812 6.023437-.589844 11.917969-2.222656 17.367187-4.796875 12.308594 16.75 32.628906 26.015625 53.683594 23.96875.128906-.011719.257812-.03125.386719-.042969-1.140625 11.359376-6.265625 22.101563-14.582031 30.164063-1.617188 1.570313-2.445313 3.78125-2.25 6.023437.1875 2.246094 1.378906 4.285157 3.238281 5.554688 9.242187 6.316406 15.84375 15.316406 19.09375 26.03125 2.519531 8.328125 2.769531 17.117188.742187 25.503906-.714844.597656-1.410156 1.214844-2.085937 1.859375-7.386719-10.070312-19.480469-16.4375-32.640625-16.4375zm0 0"/><path d="m477.667969 330.523438c-1.160157-6.613282-3.511719-12.921876-7.015625-18.820313-2.113282-3.566406-6.714844-4.734375-10.277344-2.621094-3.5625 2.117188-4.730469 6.71875-2.617188 10.28125 3.359376 5.65625 5.269532 11.816407 5.675782 18.3125.238281 3.859375 3.371094 6.902344 7.234375 7.03125 10.621093.351563 18.945312 8.617188 18.945312 18.8125 0 10.382813-8.8125 18.832031-19.644531 18.832031-1.300781 0-13.328125-.003906-32.636719-.011718 0 0 0 0-.003906 0-4.140625 0-7.496094 3.355468-7.5 7.496094 0 4.140624 3.355469 7.5 7.5 7.503906 19.3125.007812 31.339844.011718 32.640625.011718 19.101562 0 34.644531-15.179687 34.644531-33.832031 0-16.152343-11.40625-29.597656-26.945312-32.996093zm0 0"/><path d="m154.738281 39.566406c-20.945312 2.042969-38.464843 17.125-43.589843 37.53125-1.011719 4.015625 1.429687 8.09375 5.445312 9.101563.613281.152343 1.226562.226562 1.832031.226562 3.355469 0 6.414063-2.269531 7.269531-5.671875 3.585938-14.277344 15.84375-24.828125 30.5-26.257812 4.121094-.402344 7.136719-4.070313 6.734376-8.191406-.398438-4.121094-4.066407-7.121094-8.191407-6.738282zm0 0"/><path d="m467.394531 104.078125c.378907 3.875 3.640625 6.773437 7.457031 6.773437.242188 0 .488282-.015624.734376-.035156 4.125-.402344 7.140624-4.070312 6.738281-8.191406-1.253907-12.882812-11.933594-22.59375-24.839844-22.59375-4.144531 0-7.5 3.355469-7.5 7.5s3.355469 7.5 7.5 7.5c5.148437 0 9.410156 3.890625 9.910156 9.046875zm0 0"/><path d="m206.167969 257.070312h-.101563c-4.144531 0-7.5 3.355469-7.5 7.5 0 4.144532 3.355469 7.5 7.5 7.5h.101563c4.140625 0 7.5-3.355468 7.5-7.5 0-4.144531-3.355469-7.5-7.5-7.5zm0 0"/><path d="m220.882812 274.800781h-.101562c-4.140625 0-7.5 3.359375-7.5 7.5 0 4.144531 3.359375 7.5 7.5 7.5h.101562c4.140626 0 7.5-3.355469 7.5-7.5 0-4.140625-3.359374-7.5-7.5-7.5zm0 0"/><path d="m280.871094 220.476562h-.101563c-4.109375-.011718-7.53125 3.285157-7.570312 7.429688-.039063 4.140625 3.285156 7.53125 7.425781 7.570312h.101562.074219c4.109375 0 7.460938-3.308593 7.5-7.425781.039063-4.144531-3.289062-7.53125-7.429687-7.574219zm0 0"/><path d="m191.714844 320.742188h-.101563c-4.140625 0-7.5 3.355468-7.5 7.5 0 4.140624 3.359375 7.5 7.5 7.5h.101563c4.144531 0 7.5-3.359376 7.5-7.5 0-4.144532-3.355469-7.5-7.5-7.5zm0 0"/><path d="m305.574219 287.863281-.101563-.003906c-.023437 0-.046875 0-.074218 0-4.105469 0-7.457032 3.3125-7.496094 7.429687-.039063 4.140626 3.285156 7.53125 7.425781 7.570313l.101563.003906h.074218c4.109375 0 7.460938-3.3125 7.5-7.429687.039063-4.144532-3.289062-7.53125-7.429687-7.570313zm0 0"/></svg>