<svg height="511pt" viewBox="0 -9 511.99725 511" width="511pt" xmlns="http://www.w3.org/2000/svg"><path d="m461.210938 115.585938c-3.132813-.402344-6.238282-.488282-9.28125-.308594-2.039063-25.507813-23.371094-45.574219-49.40625-45.574219-11.566407 0-22.203126 3.972656-30.636719 10.613281-10.226563-11.777344-25.234375-19.289062-42.007813-19.492187-11.898437-31.738281-42.507812-54.332031-78.398437-54.332031-30.210938 0-56.660157 16.015624-71.378907 40.003906-6.460937-3.085938-13.695312-4.816406-21.332031-4.816406-25.480469 0-46.464843 19.226562-49.253906 43.960937-5.996094-1.875-12.375-2.890625-18.992187-2.890625-35.066407 0-63.496094 28.429688-63.496094 63.496094 0 14.261718 4.703125 27.421875 12.636718 38.019531-19.207031 10.949219-32.164062 31.597656-32.164062 55.289063 0 21.035156 10.214844 39.679687 25.949219 51.265624-11.339844 11.996094-18.300781 28.171876-18.300781 45.980469 0 36.988281 29.984374 66.976563 66.976562 66.976563 14.855469 0 28.5625-4.859375 39.667969-13.042969 2.621093 36.480469 33.027343 65.269531 70.175781 65.269531 19.367188 0 36.902344-7.824218 49.628906-20.480468 6.515625 2.207031 13.492188 3.425781 20.757813 3.425781 14.578125 0 28.03125-4.832031 38.847656-12.976563 11.792969 15.703125 30.570313 25.859375 51.71875 25.859375 35.703125 0 64.648437-28.941406 64.648437-64.644531 0-3.859375-.359374-7.628906-1.003906-11.300781 17.664063-7.714844 30.015625-25.328125 30.015625-45.839844 0-11.792969-4.085937-22.632813-10.917969-31.179687 25.949219-2.9375 46.113282-24.949219 46.113282-51.683594 0-13.347656-5.035156-25.515625-13.304688-34.722656 18.503906-5.269532 33.023438-21.113282 35.621094-41.402344 3.480469-27.160156-15.71875-51.996094-42.882812-55.472656zm0 0" fill="#c4e1e8"/><path d="m416.5625 375.886719c.648438 3.671875 1.007812 7.441406 1.007812 11.300781 0 35.699219-28.949218 64.652344-64.648437 64.652344-21.152344 0-39.921875-10.160156-51.71875-25.871094-10.8125 8.148438-24.273437 12.980469-38.851563 12.980469-7.261718 0-14.242187-1.222657-20.75-3.421875-12.730468 12.652344-30.269531 20.472656-49.628906 20.472656-37.152344 0-67.5625-28.78125-70.183594-65.261719-11.097656 8.179688-24.808593 13.039063-39.660156 13.039063-37 0-66.980468-29.988282-66.980468-66.980469 0-17.808594 6.960937-33.980469 18.300781-45.980469-15.738281-11.578125-25.949219-30.230468-25.949219-51.257812 0-6.640625 1.019531-13.042969 2.910156-19.050782 6.25 39.109376 40.128906 68.988282 81 68.988282 18.191406 0 34.980469-5.949219 48.582032-15.980469 3.207031 44.683594 40.457031 79.953125 85.957031 79.953125 23.722656 0 45.203125-9.589844 60.78125-25.089844 7.992187 2.707032 16.53125 4.199219 25.429687 4.199219 17.859375 0 34.332032-5.921875 47.582032-15.902344 14.449218 19.242188 37.449218 31.683594 63.347656 31.683594 7.292968 0 14.34375-.980469 21.042968-2.832031-4.429687 13.628906-14.5625 24.679687-27.570312 30.359375zm0 0" fill="#a4d5dd"/><path d="m475.675781 95.425781c-2.910156 0-5.679687-1.703125-6.894531-4.546875-3.984375-9.296875-9.789062-17.519531-17.25-24.449218-13.363281-12.398438-30.769531-19.226563-49.007812-19.226563-4.140626 0-7.5-3.359375-7.5-7.5 0-4.144531 3.359374-7.5 7.5-7.5 22.035156 0 43.0625 8.25 59.210937 23.234375 9.011719 8.363281 16.019531 18.300781 20.832031 29.53125 1.632813 3.808594-.132812 8.21875-3.9375 9.847656-.964844.414063-1.96875.609375-2.953125.609375zm0 0"/><path d="m191.972656 493.503906c-27.453125 0-53.609375-10.324218-73.652344-29.066406-3.023437-2.828125-3.183593-7.574219-.355468-10.597656 2.828125-3.027344 7.574218-3.1875 10.601562-.359375 17.253906 16.136719 39.773438 25.023437 63.40625 25.023437 4.140625 0 7.5 3.355469 7.5 7.5 0 4.140625-3.359375 7.5-7.5 7.5zm0 0"/><path d="m28.605469 384.558594c-2.277344 0-4.523438-1.03125-5.996094-2.988282-9.789063-12.992187-14.960937-28.472656-14.960937-44.769531 0-16.410156 5.339843-32.136719 15.183593-45.050781-14.421875-13.378906-22.832031-32.363281-22.832031-52.195312 0-22.796876 11.027344-44.15625 29.230469-57.453126-6.367188-10.835937-9.699219-23.085937-9.699219-35.855468 0-39.148438 31.847656-70.996094 70.996094-70.996094 4.417968 0 8.800781.40625 13.105468 1.210938 6.554688-24.613282 28.941407-42.28125 55.136719-42.28125 6.367188 0 12.558594 1.027343 18.480469 3.058593 13.351562-18.679687 33.410156-31.808593 55.921875-36.402343 4.058594-.8281255 8.019531 1.792968 8.847656 5.851562s-1.789062 8.019531-5.847656 8.847656c-20.542969 4.191406-38.648437 16.90625-49.675781 34.882813-2.007813 3.273437-6.164063 4.5-9.625 2.847656-5.675782-2.710937-11.765625-4.085937-18.101563-4.085937-21.433593 0-39.402343 16.039062-41.800781 37.304687-.253906 2.222656-1.484375 4.21875-3.359375 5.441406-1.875 1.222657-4.199219 1.539063-6.332031.875-5.40625-1.691406-11.042969-2.550781-16.753906-2.550781-30.875 0-55.996094 25.121094-55.996094 55.996094 0 12.199218 3.855468 23.792968 11.140625 33.523437 1.289062 1.722657 1.777343 3.914063 1.339843 6.023438-.4375 2.105469-1.757812 3.921875-3.628906 4.988281-17.503906 9.976562-28.378906 28.667969-28.378906 48.773438 0 17.761718 8.558594 34.667968 22.894531 45.226562 1.730469 1.273438 2.832031 3.226562 3.023438 5.367188.191406 2.140624-.542969 4.261718-2.019531 5.820312-10.480469 11.09375-16.253907 25.59375-16.253907 40.832031 0 13.015625 4.128907 25.375 11.941407 35.746094 2.492187 3.308594 1.832031 8.011719-1.476563 10.5-1.351563 1.019531-2.933594 1.511719-4.503906 1.511719zm0 0"/><path d="m404.714844 433.371094c-1.5625 0-3.136719-.484375-4.484375-1.492188-3.316407-2.480468-3.996094-7.183594-1.515625-10.496094 7.429687-9.933593 11.355468-21.753906 11.355468-34.195312 0-3.285156-.300781-6.648438-.890624-9.996094-.601563-3.410156 1.210937-6.789062 4.382812-8.175781 15.503906-6.769531 25.523438-22.0625 25.523438-38.964844 0-9.742187-3.210938-18.90625-9.277344-26.5-1.703125-2.132812-2.117188-5.019531-1.074219-7.546875 1.042969-2.523437 3.375-4.28125 6.089844-4.585937 22.492187-2.546875 39.453125-21.5625 39.453125-44.230469 0-10.984375-4.042969-21.539062-11.382813-29.714844-1.730469-1.921875-2.34375-4.601562-1.625-7.089844.714844-2.484374 2.664063-4.425781 5.152344-5.132812 16.226563-4.621094 28.09375-18.414062 30.234375-35.140625 2.945312-23.015625-13.378906-44.136719-36.394531-47.085937-2.574219-.328126-5.226563-.414063-7.890625-.257813-4.074219.234375-7.59375-2.820313-7.917969-6.890625-1.734375-21.6875-20.152344-38.675781-41.929687-38.675781-9.523438 0-18.515626 3.117187-25.996094 9.007812-3.144532 2.476563-7.679688 2.046875-10.304688-.976562-9.1875-10.574219-22.464844-16.738281-36.4375-16.90625-3.09375-.039063-5.847656-1.972657-6.933594-4.867188-9.257812-24.707031-31.074218-43.132812-56.933593-48.089843-4.070313-.78125-6.734375-4.710938-5.953125-8.78125.777344-4.066407 4.703125-6.730469 8.777344-5.953126 29.328124 5.625 54.3125 25.714844 66.28125 52.953126 14.125 1.296874 27.441406 7.273437 37.816406 16.9375 8.914062-5.464844 19.050781-8.320313 29.683594-8.320313 27.191406 0 50.523437 19.53125 55.898437 45.589844 1.257813.078125 2.503906.195312 3.738281.355469 31.222656 3.996093 53.367188 32.644531 49.371094 63.867187-2.453125 19.144531-14.300781 35.460937-31.167969 43.851563 5.796875 9.347656 8.910157 20.167968 8.910157 31.320312 0 26.378906-17.1875 49.058594-41.480469 56.738281 4.097656 8.042969 6.285156 17.019531 6.285156 26.121094 0 20.933594-11.351563 40.042969-29.359375 50.148437.230469 2.34375.347656 4.679688.347656 6.992188 0 15.703125-4.960937 30.632812-14.34375 43.175781-1.46875 1.972657-3.722656 3.007813-6.007812 3.007813zm0 0"/><path d="m191.972656 463.503906c-36.59375 0-67.894531-25.726562-75.890625-60.421875-10.449219 5.390625-22 8.195313-33.957031 8.195313-10.792969 0-21.230469-2.277344-31.023438-6.769532-3.765624-1.726562-5.414062-6.179687-3.6875-9.945312 1.730469-3.761719 6.179688-5.414062 9.945313-3.6875 7.8125 3.585938 16.144531 5.40625 24.765625 5.40625 12.761719 0 24.9375-4.007812 35.21875-11.585938 2.199219-1.617187 5.105469-1.917968 7.589844-.773437 2.480468 1.144531 4.144531 3.550781 4.339844 6.273437 2.351562 32.695313 29.890624 58.308594 62.699218 58.308594 16.726563 0 32.472656-6.5 44.335938-18.296875 2.019531-2.007812 5.003906-2.695312 7.695312-1.785156 5.929688 2.007813 12.105469 3.027344 18.351563 3.027344 12.5 0 24.375-3.964844 34.335937-11.46875 1.589844-1.195313 3.597656-1.714844 5.5625-1.433594 1.972656.277344 3.753906 1.328125 4.949219 2.921875 10.914063 14.53125 27.578125 22.867188 45.722656 22.867188 7.996094 0 15.75-1.636719 23.046875-4.855469 3.789063-1.671875 8.21875.042969 9.890625 3.832031s-.042969 8.21875-3.832031 9.890625c-9.214844 4.066406-19.007812 6.132813-29.105469 6.132813-20.5 0-39.503906-8.425782-53.144531-23.339844-11.25 6.859375-24.054688 10.453125-37.425781 10.453125-6.359375 0-12.660157-.835938-18.785157-2.488281-14.253906 12.632812-32.40625 19.542968-51.597656 19.542968zm0 0"/><path d="m418.632812 250.230469c-4.144531 0-7.5-3.359375-7.5-7.5 0-7.398438-2.722656-14.5-7.664062-20.003907-1.726562-1.925781-2.34375-4.605468-1.625-7.089843.71875-2.488281 2.664062-4.425781 5.152344-5.132813 10.878906-3.101562 18.835937-12.347656 20.273437-23.5625 1.976563-15.433594-8.972656-29.59375-24.402343-31.570312-1.730469-.21875-3.507813-.277344-5.289063-.171875-4.070313.246093-7.597656-2.816407-7.921875-6.890625-1.164062-14.539063-13.511719-25.929688-28.113281-25.929688-6.382813 0-12.410157 2.089844-17.429688 6.039063-3.253906 2.5625-7.96875 2-10.53125-1.253907-2.5625-3.253906-2-7.96875 1.253907-10.53125 7.6875-6.054687 16.925781-9.253906 26.707031-9.253906 20.046875 0 37.324219 14.023438 41.972656 32.972656.421875.039063.839844.085938 1.257813.140626 23.636718 3.027343 40.398437 24.71875 37.375 48.351562-1.757813 13.738281-9.902344 25.546875-21.617188 32.152344 3.652344 6.601562 5.601562 14.0625 5.601562 21.730468 0 4.144532-3.359374 7.503907-7.5 7.503907zm0 0"/><path d="m209.878906 400.644531c-30.363281 0-55.855468-23.710937-58.03125-53.980469-.296875-4.128906 2.8125-7.71875 6.941406-8.015624 4.121094-.300782 7.722657 2.808593 8.019532 6.941406 1.613281 22.457031 20.53125 40.050781 43.070312 40.050781 11.488282 0 22.308594-4.460937 30.457032-12.566406 2.019531-2.007813 5-2.703125 7.695312-1.785157 4.054688 1.371094 8.273438 2.070313 12.546875 2.070313 8.542969 0 16.660156-2.710937 23.472656-7.839844 1.589844-1.199219 3.59375-1.714843 5.5625-1.433593 1.972657.277343 3.75 1.328124 4.945313 2.921874 7.460937 9.933594 18.855468 15.632813 31.257812 15.632813 4.144532 0 7.5 3.355469 7.5 7.5 0 4.140625-3.355468 7.5-7.5 7.5-14.785156 0-28.535156-5.851563-38.65625-16.253906-8.074218 4.578125-17.140625 6.972656-26.582031 6.972656-4.390625 0-8.742187-.53125-12.988281-1.585937-10.519532 8.976562-23.746094 13.871093-37.710938 13.871093zm0 0"/><path d="m77 244.730469c-4.144531 0-7.5-3.355469-7.5-7.5 0-16.464844 7.667969-31.925781 20.425781-41.949219-4.179687-7.714844-6.359375-16.316406-6.359375-25.261719 0-29.355469 23.886719-53.238281 53.238282-53.238281 4.144531 0 7.5 3.355469 7.5 7.5 0 4.140625-3.355469 7.5-7.5 7.5-21.082032 0-38.234376 17.152344-38.234376 38.238281 0 8.328125 2.628907 16.246094 7.601563 22.890625 1.289063 1.722656 1.777344 3.914063 1.339844 6.023438-.4375 2.105468-1.757813 3.921875-3.628907 4.988281-11.957031 6.8125-19.382812 19.578125-19.382812 33.308594 0 4.144531-3.355469 7.5-7.5 7.5zm0 0"/><path d="m348.0625 409.789062h-.105469c-4.144531 0-7.5-3.355468-7.5-7.5 0-4.140624 3.355469-7.5 7.5-7.5h.105469c4.140625 0 7.5 3.359376 7.5 7.5 0 4.144532-3.359375 7.5-7.5 7.5zm0 0"/><path d="m362.714844 392.730469h-.101563c-4.144531 0-7.5-3.359375-7.5-7.5 0-4.144531 3.355469-7.5 7.5-7.5h.101563c4.144531 0 7.5 3.355469 7.5 7.5 0 4.140625-3.355469 7.5-7.5 7.5zm0 0"/><path d="m68.882812 323.542969h-.105468c-4.140625 0-7.5-3.355469-7.5-7.5 0-4.140625 3.359375-7.5 7.5-7.5h.105468c4.144532 0 7.5 3.359375 7.5 7.5 0 4.144531-3.359374 7.5-7.5 7.5zm0 0"/><path d="m458.375 400.644531h-.105469c-4.144531 0-7.5-3.359375-7.5-7.5 0-4.144531 3.355469-7.5 7.5-7.5h.105469c4.140625 0 7.5 3.355469 7.5 7.5 0 4.140625-3.359375 7.5-7.5 7.5zm0 0"/><path d="m445.824219 426.117188c-.023438 0-.046875 0-.070313 0l-.105468-.003907c-4.144532-.039062-7.46875-3.425781-7.429688-7.566406.039062-4.121094 3.390625-7.433594 7.496094-7.433594h.074218l.105469.003907c4.140625.039062 7.46875 3.429687 7.429688 7.570312-.039063 4.117188-3.390625 7.429688-7.5 7.429688zm0 0"/><path d="m85.8125 60.597656c-.023438 0-.050781 0-.070312 0h-.105469c-4.144531-.039062-7.46875-3.429687-7.429688-7.570312.039063-4.117188 3.390625-7.429688 7.496094-7.429688h.074219.101562c4.144532.039063 7.46875 3.429688 7.429688 7.570313-.039063 4.121093-3.386719 7.429687-7.496094 7.429687zm0 0"/><path d="m57.179688 60.597656c-.023438 0-.046876 0-.070313 0h-.105469c-4.144531-.039062-7.46875-3.429687-7.429687-7.570312.039062-4.117188 3.390625-7.429688 7.496093-7.429688h.074219.105469c4.140625.039063 7.46875 3.429688 7.429688 7.570313-.039063 4.121093-3.390626 7.429687-7.5 7.429687zm0 0"/><path d="m77.050781 33.929688h-.101562c-4.144531 0-7.5-3.355469-7.5-7.5 0-4.140626 3.355469-7.5 7.5-7.5h.101562c4.144531 0 7.5 3.359374 7.5 7.5 0 4.144531-3.355469 7.5-7.5 7.5zm0 0"/><path d="m77.003906 444.289062c-.027344 0-.050781 0-.074218 0h-.101563c-4.144531-.039062-7.472656-3.429687-7.433594-7.570312.039063-4.117188 3.390625-7.429688 7.5-7.429688h.070313.105468c4.144532.039063 7.46875 3.429688 7.429688 7.570313-.039062 4.117187-3.390625 7.429687-7.496094 7.429687zm0 0"/></svg>