<svg height="511pt" viewBox="-21 0 511 511.99904" width="511pt" xmlns="http://www.w3.org/2000/svg"><path d="m456.4375 448.117188c3.980469 4.78125 6.371094 10.921874 6.371094 17.628906 0 9.339844-4.640625 17.589844-11.742188 22.582031-6.777344-15.832031-19-42.300781-37.449218-75 5.050781-6.363281 12.851562-10.433594 21.601562-10.433594 15.238281 0 27.589844 12.351563 27.589844 27.59375 0 6.699219-2.390625 12.847657-6.371094 17.628907zm0 0" fill="#a0ecff"/><path d="m462.808594 430.488281c0 2.128907-.242188 4.199219-.710938 6.1875-4.761718-8.238281-13.671875-13.777343-23.878906-13.777343-6.121094 0-11.78125 1.988281-16.351562 5.367187-2.601563-4.808594-5.351563-9.800781-8.25-14.9375 5.050781-6.363281 12.851562-10.433594 21.601562-10.433594 15.238281 0 27.589844 12.351563 27.589844 27.59375zm0 0" fill="#60daff"/><path d="m309.347656 45.835938c-46 16.035156-85.75 38.160156-119.851562 63.089843-3.25-1.054687-6.085938-3.355469-7.734375-6.644531-3.183594-6.394531-.714844-14.117188 5.507812-17.503906-5.105469-11.996094-.050781-26.058594 11.773438-31.96875 4.484375-2.238282 9.308593-2.976563 13.9375-2.449219 1.710937-1.738281 3.714843-3.257813 6.015625-4.441406-1.476563-14.011719 5.707031-28.09375 19.054687-34.753907 16.542969-8.269531 36.523438-2.109374 45.652344 13.695313 8.996094-4.125 19.71875-.390625 24.179687 8.546875 2.003907 4 2.40625 8.386719 1.464844 12.429688zm0 0" fill="#a0ecff"/><path d="m309.34375 45.832031c-6.167969 2.148438-12.230469 4.410157-18.167969 6.769531-4.761719-8.152343-14.972656-11.410156-23.589843-7.460937-9.132813-15.800781-29.113282-21.960937-45.652344-13.691406-.570313.28125-1.128906.582031-1.679688.902343 2.648438-8.890624 8.832032-16.710937 17.800782-21.179687 16.539062-8.273437 36.519531-2.113281 45.648437 13.6875 9-4.117187 19.710937-.390625 24.183594 8.550781 2 4 2.398437 8.378906 1.457031 12.421875zm0 0" fill="#60daff"/><path d="m174.609375 219.472656c-27.914063 30.933594-49.246094 61.804688-64.863281 87.886719-3.027344.695313-6.328125.09375-8.988282-1.941406-4.644531-3.554688-5.613281-10.128907-2.246093-14.867188-8.09375-6.992187-9.445313-19.167969-2.859375-27.777343 2.488281-3.261719 5.769531-5.550782 9.367187-6.828126.632813-1.898437 1.5625-3.742187 2.828125-5.441406-6.128906-9.78125-5.917968-22.738281 1.496094-32.453125 9.203125-12.046875 26.125-14.71875 38.542969-6.371093 5.148437-6.277344 14.390625-7.398438 20.886719-2.425782 3.390624 2.570313 5.371093 6.304688 5.835937 10.21875zm0 0" fill="#a0ecff"/><path d="m174.613281 219.472656c-4.230469 4.691406-8.308593 9.371094-12.242187 14.042969-.058594-.0625-.117188-.101563-.179688-.152344-6.488281-4.96875-15.738281-3.851562-20.878906 2.429688-11.878906-7.988281-27.878906-5.890625-37.308594 4.859375-1.453125-7.679688.226563-15.910156 5.339844-22.597656 9.199219-12.050782 26.128906-14.722657 38.539062-6.382813 5.148438-6.269531 14.390626-7.386719 20.890626-2.417969 3.390624 2.570313 5.371093 6.308594 5.839843 10.21875zm0 0" fill="#60daff"/><path d="m311.003906 192.601562c-30.605468 22.664063-56.589844 47.570313-78.386718 72.28125-2.574219-.570312-5.03125-1.835937-7.070313-3.820312-5.71875-5.539062-5.972656-14.601562-.664063-20.457031-9.835937-10.75-9.695312-27.441407.578126-38.035157 7.378906-7.613281 18.0625-10.09375 27.59375-7.367187 2.074218.59375 4.300781.265625 6.074218-.957031.015625-.011719.03125-.023438.046875-.035156 1.28125-.875 2.277344-2.121094 2.753907-3.601563.902343-2.792969 2.4375-5.429687 4.613281-7.683594 7.355469-7.574219 19.265625-8.027343 27.167969-1.246093 4.074218-3.925782 10.550781-3.945313 14.632812.023437 3.007812 2.914063 3.90625 7.175781 2.660156 10.898437zm0 0" fill="#a0ecff"/><path d="m311.003906 192.601562c-2.820312 2.089844-5.597656 4.191407-8.339844 6.320313-2.167968.28125-4.269531 1.242187-5.949218 2.859375-7.898438-6.777344-19.808594-6.328125-27.171875 1.253906-2.171875 2.25-3.703125 4.882813-4.605469 7.675782-.480469 1.476562-1.476562 2.726562-2.757812 3.601562-.019532.011719-.039063.027344-.058594.039062-1.773438 1.21875-3.996094 1.546876-6.066406.953126-9.53125-2.722657-20.214844-.246094-27.589844 7.367187-3.660156 3.773437-6.03125 8.3125-7.121094 13.082031-6.050781-10.46875-4.71875-24.082031 4.121094-33.179687 7.375-7.617188 18.058594-10.097657 27.589844-7.371094 2.070312.59375 4.296874.265625 6.070312-.953125.015625-.011719.035156-.027344.054688-.039062 1.28125-.875 2.28125-2.125 2.757812-3.601563.902344-2.796875 2.433594-5.433594 4.609375-7.6875 7.359375-7.570313 19.269531-8.019531 27.167969-1.238281 4.070312-3.933594 10.550781-3.953125 14.632812.019531 3.007813 2.910156 3.90625 7.167969 2.65625 10.898437zm0 0" fill="#60daff"/><path d="m470.308594 465.746094c0-6.21875-1.660156-12.308594-4.75-17.628906 3.089844-5.320313 4.75-11.414063 4.75-17.628907 0-19.351562-15.742188-35.09375-35.089844-35.09375-7.171875 0-13.996094 2.160157-19.738281 6.085938-2.292969-3.957031-4.621094-7.925781-6.980469-11.871094-30.589844-51.078125-65.886719-98.902344-104.90625-142.132813-2.777344-3.074218-7.519531-3.316406-10.59375-.542968-3.074219 2.777344-3.316406 7.519531-.542969 10.59375 38.371094 42.511718 73.082031 89.542968 103.171875 139.785156 3.917969 6.554688 7.773438 13.183594 11.457032 19.699219 18.117187 32.113281 30.167968 58.109375 37.085937 74.265625 4.285156 10.003906 6.363281 15.71875 6.382813 15.773437 1.105468 3.050781 3.984374 4.949219 7.054687 4.949219.847656 0 1.707031-.144531 2.550781-.449219 3.898438-1.410156 5.910156-5.710937 4.5-9.605469-.074218-.203124-1.539062-4.230468-4.550781-11.480468 6.464844-6.515625 10.199219-15.390625 10.199219-24.71875zm-47.386719-51.148438c3.480469-2.703125 7.769531-4.203125 12.296875-4.203125 11.074219 0 20.089844 9.015625 20.089844 20.09375 0 4.683594-1.648438 9.242188-4.636719 12.828125-2.3125 2.78125-2.3125 6.820313 0 9.601563 3.03125 3.640625 4.636719 8.074219 4.636719 12.828125 0 3.121094-.738282 6.144531-2.078125 8.871094-6.894531-15.28125-16.863281-35.835938-30.308594-60.019532zm0 0"/><path d="m161.757812 140.734375c11.132813 7.894531 22.085938 16.117187 32.851563 24.664063 1.378906 1.097656 3.023437 1.628906 4.65625 1.628906 2.210937 0 4.398437-.972656 5.878906-2.835938 2.574219-3.246094 2.035157-7.964844-1.207031-10.539062-9.960938-7.910156-20.085938-15.542969-30.363281-22.910156 6.542969-5.351563 13.3125-10.621094 20.347656-15.757813 36.367187-26.589844 76.03125-47.472656 117.90625-62.070313 8.578125-3.003906 17.378906-5.78125 26.152344-8.257812 3.988281-1.121094 6.308593-5.265625 5.183593-9.253906-1.121093-3.984375-5.265624-6.308594-9.253906-5.183594-5.796875 1.636719-11.597656 3.410156-17.347656 5.28125-.453125-1.875-1.097656-3.703125-1.972656-5.441406-5.289063-10.597656-16.699219-16.019532-27.804688-13.980469-12.203125-15.488281-33.964844-20.683594-52.082031-11.621094-14.25 7.105469-23.234375 21.753907-23.394531 37.441407-.351563.261718-.691406.527343-1.03125.800781-5.089844-.023438-10.035156 1.132812-14.585938 3.402343-13.480468 6.734376-20.308594 21.765626-17.128906 36-5.878906 6.144532-7.519531 15.484376-3.507812 23.53125.574218 1.152344 1.257812 2.222657 2.015624 3.226563-5.566406 4.25-10.992187 8.566406-16.242187 12.941406-47.226563-32.425781-97.519531-59.164062-150.09375-79.734375-3.859375-1.507812-8.207031.394532-9.71875 4.25-1.507813 3.855469.394531 8.207032 4.253906 9.71875 50.285157 19.679688 98.457031 45.117188 143.78125 75.886719-47.597656 42.179687-81.121093 87.824219-102.144531 121.496094-28.179688 45.140625-40.347656 78.300781-40.855469 79.6875-1.410156 3.894531.601563 8.191406 4.492188 9.605469.84375.308593 1.710937.453124 2.558593.453124 3.066407 0 5.941407-1.894531 7.050782-4.9375.121094-.328124 12.269531-33.359374 39.710937-77.234374 20.835938-33.316407 54.285157-78.703126 101.894531-120.257813zm29.09375-49.367187c3.398438-1.847657 4.832032-5.972657 3.320313-9.527344-3.585937-8.421875.027344-18.226563 8.21875-22.316406 3.007813-1.5 6.378906-2.09375 9.742187-1.707032 2.304688.261719 4.582032-.550781 6.199219-2.199218 1.21875-1.238282 2.59375-2.253907 4.089844-3.023438 2.753906-1.414062 4.355469-4.378906 4.03125-7.457031-1.1875-11.253907 4.820313-22.207031 14.949219-27.261719 12.878906-6.441406 28.605468-1.726562 35.800781 10.738281 1.9375 3.351563 6.105469 4.679688 9.621094 3.066407 5.390625-2.46875 11.691406-.238282 14.351562 5.089843.640625 1.277344.953125 2.507813 1.082031 3.644531-40.011718 14.433594-78.019531 34.4375-113.117187 59.539063-.253906-.3125-.480469-.648437-.667969-1.019531-1.375-2.765625-.332031-6.089844 2.378906-7.566406zm0 0"/><path d="m265.21875 149.265625c3.40625-2.359375 4.25-7.035156 1.886719-10.4375-2.359375-3.402344-7.035157-4.246094-10.4375-1.886719-28.496094 19.777344-55.398438 43.089844-80.113281 69.367188-.964844-1.09375-2.035157-2.109375-3.222657-3.015625-7.972656-6.09375-18.613281-6.136719-26.480469-.75-15-6.800781-33.164062-2.539063-43.46875 10.957031-8.082031 10.589844-9.558593 24.847656-4.148437 36.78125-3.726563 1.886719-6.984375 4.585938-9.542969 7.9375-7.738281 10.121094-7.488281 23.996094-.054687 33.785156-1.921875 6.988282.453125 14.691406 6.558593 19.367188.578126.445312 1.1875.835937 1.804688 1.203125-20.46875 35.65625-29.527344 60.332031-29.929688 61.445312-1.414062 3.894531.597657 8.195313 4.488282 9.609375.84375.304688 1.710937.449219 2.558594.449219 3.066406 0 5.941406-1.890625 7.050781-4.9375.105469-.28125 10.585937-28.785156 34.011719-67.929687 18.648437-31.144532 40.179687-60.316407 64-86.714844 25.964843-28.773438 54.578124-54.085938 85.039062-75.230469zm-159.582031 150.410156c-.105469-.066406-.210938-.132812-.320313-.210937-1.429687-1.097656-1.734375-3.101563-.691406-4.566406 2.238281-3.152344 1.714844-7.492188-1.207031-10.019532-5.144531-4.445312-5.9375-12.152344-1.804688-17.554687 1.515625-1.984375 3.558594-3.472657 5.914063-4.308594 2.179687-.773437 3.878906-2.507813 4.609375-4.699219.40625-1.222656.984375-2.34375 1.722656-3.332031 1.851563-2.480469 1.984375-5.84375.34375-8.464844-4.625-7.382812-4.183594-16.992187 1.105469-23.917969 6.730468-8.8125 19.203125-10.875 28.394531-4.699218 3.210937 2.160156 7.53125 1.519531 9.984375-1.46875 2.621094-3.199219 7.246094-3.738282 10.550781-1.210938.847657.640625 1.527344 1.441406 2.027344 2.34375-22.390625 25.195313-42.761719 52.777344-60.628906 82.109375zm0 0"/><path d="m152.414062 383.296875c-3.730468-1.804687-8.214843-.242187-10.015624 3.488281-8.3125 17.1875-12.152344 27.710938-12.316407 28.152344-1.410156 3.890625.601563 8.191406 4.492188 9.605469.84375.304687 1.710937.449219 2.558593.449219 3.066407 0 5.941407-1.890626 7.050782-4.9375.039062-.101563 3.777344-10.320313 11.71875-26.742188 1.800781-3.726562.242187-8.210938-3.488282-10.015625zm0 0"/><path d="m315.46875 198.628906c20.324219-15.058594 41.847656-28.433594 63.980469-39.757812 3.6875-1.886719 5.144531-6.40625 3.257812-10.09375s-6.40625-5.144532-10.09375-3.261719c-19.382812 9.917969-38.300781 21.371094-56.398437 34.097656-.742188-1.179687-1.613282-2.292969-2.640625-3.289062-5.417969-5.261719-13.222657-6.46875-19.738281-3.617188-10.554688-5.726562-23.996094-3.9375-32.679688 5.007813-2.839844 2.933594-4.9375 6.375-6.238281 10.222656-12.484375-3.492188-25.816407.105469-34.839844 9.414062-11.554687 11.910157-13.0625 30.0625-4.371094 43.589844-4.03125 8.402344-2.433593 18.671875 4.609375 25.496094.1875.183594.382813.355469.578125.527344-23.773437 27.867187-45.003906 58.289062-63.175781 90.554687-2.03125 3.609375-.753906 8.183594 2.855469 10.214844 1.164062.65625 2.429687.96875 3.671875.96875 2.621094 0 5.167968-1.375 6.542968-3.824219 19.199219-34.089844 41.890626-66.0625 67.449219-95.03125 23.6875-26.851562 49.667969-50.8125 77.230469-71.21875zm-84.691406 57.058594c-.003906-.003906-.007813-.007812-.011719-.011719-2.8125-2.722656-2.957031-7.132812-.324219-10.03125 2.597656-2.867187 2.585938-7.242187-.023437-10.101562-7.210938-7.878907-7.023438-20.070313.429687-27.75 5.214844-5.378907 12.929688-7.441407 20.148438-5.375 4.242187 1.210937 8.734375.5 12.335937-1.957031.027344-.019532.058594-.039063.085938-.058594 2.679687-1.835938 4.6875-4.496094 5.652343-7.488282.582032-1.800781 1.546876-3.40625 2.859376-4.761718 4.535156-4.675782 11.960937-5.019532 16.898437-.78125 2.933594 2.523437 7.304687 2.394531 10.089844-.289063 1.183593-1.140625 3.027343-1.136719 4.210937.011719.449219.433594.703125.933594.824219 1.425781-25.984375 19.511719-50.570313 42.074219-73.175781 67.167969zm0 0"/><path d="m398.195312 149.097656c1.019532 0 2.054688-.207031 3.046876-.648437 10.324218-4.597657 20.972656-8.859375 31.644531-12.671875 3.902343-1.390625 5.9375-5.683594 4.542969-9.582032-1.390626-3.902343-5.683594-5.9375-9.582032-4.542968-11.035156 3.9375-22.039062 8.339844-32.710937 13.09375-3.78125 1.6875-5.484375 6.121094-3.800781 9.902344 1.246093 2.792968 3.988281 4.449218 6.859374 4.449218zm0 0"/><path d="m260.996094 282.496094h-.105469c-4.140625 0-7.5 3.355468-7.5 7.5 0 4.140625 3.359375 7.5 7.5 7.5h.105469c4.140625 0 7.5-3.359375 7.5-7.5 0-4.144532-3.359375-7.5-7.5-7.5zm0 0"/><path d="m281.90625 282.496094h-.101562c-4.144532 0-7.5 3.355468-7.5 7.5 0 4.140625 3.355468 7.5 7.5 7.5h.101562c4.144531 0 7.5-3.359375 7.5-7.5 0-4.144532-3.355469-7.5-7.5-7.5zm0 0"/><path d="m414.226562 357.496094c-4.144531 0-7.5 3.355468-7.5 7.5 0 4.144531 3.355469 7.5 7.5 7.5h.105469c4.140625 0 7.5-3.355469 7.5-7.5 0-4.144532-3.359375-7.5-7.5-7.5zm0 0"/><path d="m109.90625 142.65625c4.140625 0 7.5-3.355469 7.5-7.5s-3.359375-7.5-7.5-7.5h-.105469c-4.144531 0-7.5 3.355469-7.5 7.5s3.355469 7.5 7.5 7.5zm0 0"/><path d="m74.996094 305.097656.105468.003906h.070313c4.109375 0 7.460937-3.3125 7.5-7.433593.039063-4.140625-3.289063-7.53125-7.429687-7.570313h-.105469c-.023438 0-.046875 0-.070313 0-4.109375 0-7.460937 3.3125-7.5 7.429688-.039062 4.140625 3.289063 7.53125 7.429688 7.570312zm0 0"/><path d="m318.984375 66.058594c-4.171875-.136719-7.621094 3.074218-7.777344 7.210937-.15625 4.140625 3.074219 7.625 7.210938 7.78125l.105469.003907c.097656 0 .191406.003906.285156.003906 4.015625 0 7.339844-3.175782 7.492187-7.21875.15625-4.140625-3.074219-7.621094-7.210937-7.777344zm0 0"/><path d="m298.042969 70.832031c-.023438 0-.050781 0-.074219 0-4.105469 0-7.457031 3.3125-7.496094 7.429688-.039062 4.144531 3.285156 7.53125 7.429688 7.570312l.105468.003907h.070313c4.109375 0 7.460937-3.3125 7.5-7.433594.035156-4.140625-3.289063-7.527344-7.433594-7.566406zm0 0"/></svg>