<svg height="512pt" viewBox="0 -47 512 512" width="512pt" xmlns="http://www.w3.org/2000/svg"><path d="m393.53125 219.390625c0 76.167969-61.75 137.929687-137.929688 137.929687-76.179687 0-137.929687-61.761718-137.929687-137.929687 0-39.941406 16.976563-75.921875 44.109375-101.121094h.007812c24.609376-22.851562 57.582032-36.820312 93.8125-36.820312 36.226563 0 69.199219 13.96875 93.808594 36.820312h.011719c27.128906 25.199219 44.109375 61.179688 44.109375 101.121094zm0 0" fill="#fab03c"/><path d="m393.53125 219.390625c0 76.167969-61.75 137.929687-137.929688 137.929687-76.179687 0-137.929687-61.761718-137.929687-137.929687 0-39.941406 16.976563-75.921875 44.109375-101.121094h.007812c28.671876 12.75 60.410157 19.839844 93.8125 19.839844 33.398438 0 65.136719-7.089844 93.808594-19.839844h.011719c27.128906 25.199219 44.109375 61.179688 44.109375 101.121094zm0 0" fill="#fd8f3e"/><path d="m279.539062 211.15625c2.589844-42.785156 38.101563-76.683594 81.539063-76.683594 35.03125 0 64.90625 22.050782 76.519531 53.03125 30.167969.363282 54.511719 24.917969 54.511719 55.171875 0 30.480469-24.707031 55.1875-55.1875 55.1875-12.761719 0-142.757813 0-155.867187 0-23.953126 0-43.375-19.417969-43.375-43.371093 0-23.445313 18.605468-42.535157 41.859374-43.335938zm0 0" fill="#fbdbb7"/><path d="m492.109375 242.679688c0 30.21875-24.296875 54.765624-54.429687 55.175781 9.035156-9.832031 14.542968-22.929688 14.542968-37.324219 0-30.25-24.34375-54.808594-54.519531-55.175781-11.609375-30.96875-41.480469-53.027344-76.519531-53.027344-4.136719 0-8.203125.3125-12.179688.90625 14.132813-11.71875 32.277344-18.757813 52.070313-18.757813 35.035156 0 64.90625 22.046876 76.519531 53.027344 30.175781.367188 54.515625 24.914063 54.515625 55.175782zm0 0" fill="#f4bc8e"/><path d="m46.261719 225.050781c1.984375-32.777343 29.191406-58.75 62.46875-58.75 26.839843 0 49.730469 16.894531 58.625 40.628907 23.113281.277343 41.761719 19.089843 41.761719 42.265624 0 23.355469-18.929688 42.285157-42.28125 42.285157-9.773438 0-109.367188 0-119.410157 0-18.355469 0-33.230469-14.878907-33.230469-33.230469 0-17.960938 14.253907-32.585938 32.066407-33.199219zm0 0" fill="#fbdbb7"/><path d="m209.117188 249.199219c0 23.152343-18.613282 41.957031-41.699219 42.273437 6.921875-7.535156 11.140625-17.570312 11.140625-28.59375 0-23.175781-18.648438-41.992187-41.765625-42.273437-8.894531-23.726563-31.78125-40.625-58.625-40.625-3.171875 0-6.285157.238281-9.332031.695312 10.828124-8.980469 24.726562-14.371093 39.890624-14.371093 26.84375 0 49.730469 16.886718 58.625 40.625 23.117188.28125 41.765626 19.085937 41.765626 42.269531zm0 0" fill="#f4bc8e"/><path d="m504.5 260.871094v137.019531c0 11.046875-8.953125 20-20 20h-457c-11.046875 0-20-8.953125-20-20v-137.019531zm0 0" fill="#fe672d"/><path d="m504.5 341.382812v56.507813c0 11.046875-8.953125 20-20 20h-457c-11.046875 0-20-8.953125-20-20v-56.507813zm0 0" fill="#d85322"/><path d="m7.5 260.871094h497v32.554687h-497zm0 0" fill="#fd8f3e"/><path d="m387.179688 260.871094c-3.648438 11.589844-8.789063 22.511718-15.191407 32.550781-12.839843 20.148437-30.777343 36.738281-52 47.960937-19.21875 10.167969-41.136719 15.929688-64.386719 15.929688s-45.171874-5.761719-64.390624-15.929688c-21.222657-11.222656-39.160157-27.8125-52-47.960937-6.402344-10.039063-11.539063-20.960937-15.191407-32.550781zm0 0" fill="#f6cb43"/><path d="m319.988281 341.382812c-19.21875 10.167969-41.136719 15.929688-64.386719 15.929688s-45.171874-5.761719-64.390624-15.929688zm0 0" fill="#fab03c"/><path d="m387.179688 260.871094c-3.648438 11.589844-8.789063 22.511718-15.191407 32.550781h-232.777343c-6.402344-10.039063-11.539063-20.960937-15.191407-32.550781zm0 0" fill="#f8e98e"/><path d="m504.5 253.371094h-5.8125c.605469-3.519532.921875-7.09375.921875-10.695313 0-9.875-2.25-19.34375-6.679687-28.144531-1.863282-3.695312-6.371094-5.1875-10.070313-3.324219s-5.1875 6.371094-3.328125 10.070313c3.367188 6.691406 5.078125 13.886718 5.078125 21.398437 0 3.621094-.40625 7.207031-1.203125 10.695313h-238.199219c.570313-18.910156 15.554688-34.0625 34.589844-34.71875 3.863281-.132813 6.992187-3.183594 7.226563-7.042969 2.363281-39.050781 34.890624-69.636719 74.050781-69.636719 30.773437 0 58.699219 19.351563 69.5 48.160156 1.085937 2.898438 3.835937 4.832032 6.929687 4.867188 7.882813.097656 15.671875 2.15625 22.523438 5.957031 3.621094 2.011719 8.1875.703125 10.195312-2.917969 2.011719-3.621093.707032-8.1875-2.917968-10.195312-7.542969-4.1875-15.949219-6.769531-24.558594-7.574219-13.1875-29.925781-42.113282-50.402343-74.625-53.007812-27.765625-33.890625-68.703125-53.308594-112.519532-53.308594-21.070312 0-41.398437 4.414063-60.429687 13.117187-3.769531 1.726563-5.425781 6.175782-3.703125 9.941407 1.722656 3.769531 6.175781 5.425781 9.941406 3.699219 17.058594-7.800782 35.289063-11.757813 54.1875-11.757813 35.28125 0 68.476563 14.042969 92.917969 38.902344-39.214844 5.558593-70.574219 36.753906-75.847656 76.457031-23.9375 3.914062-41.9375 24.257812-42.464844 49.058594h-13.78125c.117187-1.386719.195313-2.777344.195313-4.175782 0-25.414062-19.378907-46.621093-44.132813-49.449218-7.210937-15.722656-19.988281-28.023438-35.398437-34.886719 8.503906-18.433594 21.316406-34.789063 37.277343-47.515625 3.238281-2.582031 3.769531-7.300781 1.1875-10.539062-2.582031-3.242188-7.300781-3.773438-10.539062-1.191407-18.265625 14.5625-32.824219 33.398438-42.292969 54.625-4.554688-.9375-9.234375-1.4375-13.992188-1.4375-14.738281 0-28.847656 4.53125-40.800781 13.101563-3.363281 2.414062-4.136719 7.101562-1.722656 10.464844 2.414063 3.367187 7.097656 4.140624 10.464844 1.726562 9.386719-6.734375 20.472656-10.292969 32.058593-10.292969 22.847657 0 43.585938 14.371094 51.601563 35.761719 1.085937 2.898438 3.839844 4.828125 6.933594 4.867188 18.941406.226562 34.355469 15.824218 34.355469 34.769531 0 1.398437-.085938 2.792969-.253907 4.175781h-179.210937c2.203125-11.605469 12.113281-20.40625 24.367187-20.824219 3.867188-.136719 6.996094-3.183593 7.230469-7.042969.402344-6.6875 2.015625-13.1875 4.789062-19.3125 1.710938-3.769531.035157-8.214843-3.738281-9.925781-3.769531-1.707031-8.214843-.035156-9.925781 3.738281-2.652344 5.863282-4.472656 11.996094-5.433594 18.296876-17.25 3.382812-30.394531 17.492187-32.457031 35.09375-3.898437.265624-6.984375 3.503906-6.984375 7.472656 0 4.144531 3.359375 7.5 7.5 7.5h497c4.140625 0 7.5-3.355469 7.5-7.5 0-4.140625-3.359375-7.5-7.5-7.5zm0 0"/><path d="m182.851562 317.402344c0-4.140625-3.359374-7.5-7.5-7.5h-56.351562c-4.140625 0-7.5 3.359375-7.5 7.5 0 4.144531 3.359375 7.5 7.5 7.5h56.351562c4.140626 0 7.5-3.355469 7.5-7.5zm0 0"/><path d="m384.40625 362.136719h-112.703125c-4.140625 0-7.5 3.359375-7.5 7.5 0 4.144531 3.359375 7.5 7.5 7.5h112.707031c4.140625 0 7.5-3.355469 7.5-7.5 0-4.140625-3.359375-7.5-7.503906-7.5zm0 0"/><path d="m237.292969 378.339844h-56.351563c-4.140625 0-7.5 3.355468-7.5 7.5 0 4.140625 3.359375 7.5 7.5 7.5h56.351563c4.144531 0 7.5-3.359375 7.5-7.5 0-4.144532-3.355469-7.5-7.5-7.5zm0 0"/><path d="m400.398438 285.921875h-119.347657c-4.140625 0-7.5 3.355469-7.5 7.5s3.359375 7.5 7.5 7.5h119.347657c4.140624 0 7.5-3.355469 7.5-7.5s-3.359376-7.5-7.5-7.5zm0 0"/><path d="m351.648438 77.203125c0 4.144531 3.359374 7.5 7.5 7.5 4.140624 0 7.5-3.355469 7.5-7.5 0-7.234375 5.886718-13.125 13.125-13.125 5.15625 0 9.617187 2.996094 11.761718 7.335937-3.058594.945313-5.28125 3.796876-5.28125 7.164063 0 4.144531 3.355469 7.5 7.5 7.5h13.289063c4.144531 0 7.5-3.355469 7.5-7.5 0-3.367187-2.222657-6.21875-5.28125-7.164063 2.144531-4.339843 6.605469-7.335937 11.761719-7.335937 7.238281 0 13.125 5.890625 13.125 13.125 0 4.144531 3.359374 7.5 7.5 7.5 4.140624 0 7.5-3.355469 7.5-7.5 0-15.507813-12.617188-28.125-28.125-28.125-8.144532 0-15.484376 3.484375-20.625 9.03125-5.140626-5.550781-12.484376-9.03125-20.625-9.03125-15.507813 0-28.125 12.617187-28.125 28.125zm0 0"/><path d="m29.417969 138.78125c4.140625 0 7.5-3.359375 7.5-7.5 0-7.238281 5.886719-13.125 13.125-13.125 5.15625 0 9.613281 2.996094 11.761719 7.332031-3.0625.945313-5.28125 3.796875-5.28125 7.167969 0 4.140625 3.355468 7.5 7.5 7.5h13.289062c4.144531 0 7.5-3.359375 7.5-7.5 0-3.371094-2.222656-6.222656-5.28125-7.167969 2.144531-4.335937 6.605469-7.332031 11.761719-7.332031 7.238281 0 13.125 5.886719 13.125 13.125 0 4.140625 3.359375 7.5 7.5 7.5s7.5-3.359375 7.5-7.5c0-15.507812-12.617188-28.125-28.125-28.125-8.144531 0-15.484375 3.480469-20.625 9.027344-5.140625-5.546875-12.480469-9.027344-20.625-9.027344-15.507813 0-28.125 12.617188-28.125 28.125 0 4.140625 3.355469 7.5 7.5 7.5zm0 0"/><path d="m286.804688 35.625c4.144531 0 7.5-3.355469 7.5-7.5 0-7.238281 5.890624-13.125 13.125-13.125 5.160156 0 9.617187 2.996094 11.761718 7.335938-3.058594.945312-5.28125 3.792968-5.28125 7.164062 0 4.144531 3.359375 7.5 7.5 7.5h13.292969c4.140625 0 7.5-3.355469 7.5-7.5 0-3.371094-2.222656-6.21875-5.28125-7.164062 2.144531-4.339844 6.601563-7.335938 11.761719-7.335938 7.234375 0 13.125 5.886719 13.125 13.125 0 4.144531 3.355468 7.5 7.5 7.5 4.140625 0 7.5-3.355469 7.5-7.5 0-15.507812-12.617188-28.125-28.125-28.125-8.144532 0-15.484375 3.480469-20.625 9.03125-5.144532-5.550781-12.484375-9.03125-20.625-9.03125-15.507813 0-28.125 12.617188-28.125 28.125-.003906 4.140625 3.355468 7.5 7.496094 7.5zm0 0"/></svg>