<svg height="512pt" viewBox="0 -9 512.00302 512" width="512pt" xmlns="http://www.w3.org/2000/svg"><path d="m504.40625 20.136719.0625 453.558593c.003906 11.121094-9.011719 20.140626-20.132812 20.140626l-456.601563.066406c-11.121094.003906-20.136719-9.011719-20.140625-20.132813l-.066406-453.5625c0-11.121093 9.015625-20.1367185 20.136718-20.1406248l456.601563-.0664062c11.121094 0 20.136719 9.015625 20.140625 20.136719zm0 0" fill="#3e4eb7"/><path d="m478.527344 93.574219c0 41.703125-33.722656 75.425781-75.425782 75.425781-27.148437 0-50.945312-14.339844-64.226562-35.859375-2.96875-4.808594 1.722656-10.746094 7.085938-8.949219 6.898437 2.3125 14.28125 3.566406 21.960937 3.574219 38.226563.039063 69.371094-31.078125 69.371094-69.304687 0-7.699219-1.257813-15.109376-3.574219-22.03125-1.796875-5.359376 4.140625-10.050782 8.949219-7.082032 21.519531 13.285156 35.859375 37.082032 35.859375 64.226563zm0 0" fill="#f6cb43"/><path d="m478.527344 93.574219c0 41.65625-33.773438 75.425781-75.425782 75.425781-25.613281 0-48.25-12.769531-61.871093-32.289062 12.222656 8.535156 27.089843 13.539062 43.117187 13.539062 41.65625 0 75.425782-33.773438 75.425782-75.425781 0-16.039063-5.003907-30.90625-13.539063-43.128907 19.527344 13.632813 32.292969 36.261719 32.292969 61.878907zm0 0" fill="#fab03c"/><path d="m265.429688 101.484375c21.664062 11.632813 35.234374 31.847656 37.605468 52.445313.304688 2.640624-1.1875 5.210937-3.65625 6.1875-5.304687 2.105468-11.460937 1.941406-16.878906-.96875-4.851562-2.605469-8.183594-6.921876-9.675781-11.800782-4.890625 1.449219-10.332031 1.054688-15.179688-1.546875-4.851562-2.605469-8.183593-6.921875-9.675781-11.804687-4.890625 1.453125-10.328125 1.058594-15.179688-1.546875-4.851562-2.601563-8.183593-6.921875-9.675781-11.800781-4.890625 1.453124-10.328125 1.058593-15.179687-1.546876-5.417969-2.910156-8.957032-7.953124-10.128906-13.535156-.550782-2.597656.769531-5.261718 3.136718-6.464844 18.476563-9.402343 42.824219-9.25 64.488282 2.382813zm0 0" fill="#00b579"/><path d="m218.859375 85.203125c-1.738281-5.394531-7.519531-8.347656-12.914063-6.613281-36.691406 11.832031-65.644531 37.195312-83.726562 73.339844-11.945312 23.875-15.449219 44.980468-16.179688 50.265624h20.785157c1.234375-7 4.882812-23.578124 14.0625-41.707031 15.792969-31.207031 39.804687-52.191406 71.359375-62.367187 5.394531-1.742188 8.355468-7.523438 6.613281-12.917969zm0 0" fill="#f4bc8e"/><path d="m271.277344 62.03125c24.40625 2.984375 44.386718 16.902344 54.066406 35.234375 1.242188 2.351563.78125 5.285156-1.164062 7.09375-4.179688 3.882813-9.980469 5.964844-16.082032 5.21875-5.464844-.667969-10.136718-3.484375-13.296875-7.492187-4.03125 3.128906-9.246093 4.734374-14.707031 4.066406-5.464844-.671875-10.136719-3.484375-13.296875-7.492188-4.03125 3.128906-9.246094 4.734375-14.707031 4.0625-5.464844-.667968-10.140625-3.480468-13.296875-7.488281-4.03125 3.125-9.246094 4.730469-14.710938 4.0625-6.101562-.746094-11.230469-4.164063-14.347656-8.9375-1.453125-2.226563-1.191406-5.183594.578125-7.164063 13.8125-15.460937 36.558594-24.152343 60.964844-21.164062zm0 0" fill="#009765"/><path d="m221.816406 32.164062c19.25-15.300781 43.179688-19.785156 63.039063-13.820312 2.542969.761719 4.3125 3.148438 4.238281 5.804688-.164062 5.699218-2.75 11.292968-7.5625 15.121093-4.308594 3.425781-9.589844 4.78125-14.664062 4.222657-.597657 5.066406-3.109376 9.910156-7.417969 13.335937-4.3125 3.425781-9.59375 4.78125-14.664063 4.222656-.601562 5.066407-3.113281 9.910157-7.421875 13.335938-4.308593 3.425781-9.589843 4.78125-14.664062 4.222656-.597657 5.066406-3.109375 9.910156-7.417969 13.335937-4.816406 3.824219-10.847656 5.082032-16.4375 3.957032-2.605469-.523438-4.53125-2.785156-4.699219-5.4375-1.335937-20.691406 8.425781-42.996094 27.671875-58.300782zm0 0" fill="#00b579"/><path d="m201.566406 83.082031c0 8.632813-6.996094 15.632813-15.628906 15.632813s-15.632812-7-15.632812-15.632813c0-8.632812 7-15.632812 15.632812-15.632812s15.628906 7 15.628906 15.632812zm0 0" fill="#f8e98e"/><path d="m209.691406 107.027344c0 8.632812-7 15.632812-15.632812 15.632812-8.632813 0-15.628906-7-15.628906-15.632812 0-8.632813 6.996093-15.628906 15.628906-15.628906 8.632812 0 15.632812 6.996093 15.632812 15.628906zm0 0" fill="#fab03c"/><path d="m504.453125 343.792969.019531 129.902343c0 11.121094-9.015625 20.140626-20.136718 20.140626l-456.601563.066406c-11.121094.003906-20.136719-9.011719-20.140625-20.132813l-.015625-129.902343zm0 0" fill="#2081f6"/><path d="m504.460938 424.855469.007812 48.839843c.003906 11.121094-9.011719 20.140626-20.132812 20.140626l-456.601563.066406c-11.121094.003906-20.136719-9.011719-20.140625-20.132813l-.007812-48.84375zm0 0" fill="#1e6be7"/><path d="m7.578125 343.828125h496.875v32.777344h-496.875zm0 0" fill="#38aaff"/><path d="m187.8125 438.777344-180.222656.027344-.03125-220.5 180.222656-.023438zm0 0" fill="#915040"/><path d="m187.816406 438.773438h-24.425781l-.03125-220.496094h24.425781zm0 0" fill="#7c3c2f"/><path d="m240.042969 237.5-232.484375.035156-.003906-38.457031 232.480468-.03125c10.621094-.003906 19.230469 8.605469 19.234375 19.222656 0 10.621094-8.605469 19.230469-19.226562 19.230469zm0 0" fill="#00b579"/><path d="m132.816406 438.785156-.023437-147.5 72.492187-.011718 37.511719 37.5.015625 109.996093zm0 0" fill="#a86552"/><path d="m242.808594 438.773438h-21.140625l-.023438-102.917969-44.582031-44.582031h28.222656l37.515625 37.503906zm0 0" fill="#915040"/><path d="m64.648438 471.367188-.003907-26.527344 26-26.007813 51.859375-.007812 40.703125 40.691406v11.832031zm0 0" fill="#82807f"/><path d="m332.449219 137.105469c15.246093 24.703125 41.660156 39.449219 70.652343 39.449219 15.128907 0 29.9375-4.105469 42.828126-11.878907 3.570312-2.152343 4.71875-6.792969 2.566406-10.363281s-6.792969-4.71875-10.363282-2.570312c-10.535156 6.351562-22.648437 9.707031-35.03125 9.707031-22.359374.003906-42.84375-10.722657-55.570312-28.886719 6.609375 1.824219 13.449219 2.75 20.382812 2.753906h.074219c20.480469 0 39.757813-7.992187 54.292969-22.511718 14.550781-14.535157 22.5625-33.835938 22.5625-54.34375 0-6.957032-.925781-13.820313-2.753906-20.457032 18.164062 12.726563 28.886718 33.210938 28.886718 55.570313 0 13.515625-3.949218 26.558593-11.425781 37.730469-2.320312 3.464843-1.386719 8.15625 2.078125 10.476562s8.15625 1.386719 10.476563-2.078125c9.140625-13.664063 13.972656-29.617187 13.972656-46.128906 0-28.992188-14.746094-55.402344-39.445313-70.652344-4.929687-3.046875-11.0625-2.679687-15.617187.933594-4.546875 3.605469-6.296875 9.484375-4.460937 14.972656 2.113281 6.308594 3.183593 12.914063 3.183593 19.632813 0 16.472656-6.4375 31.976562-18.132812 43.660156-11.683594 11.671875-27.167969 18.09375-43.617188 18.09375-.019531 0-.042969 0-.058593 0-6.703126-.007813-13.289063-1.078125-19.574219-3.183594-5.488281-1.839844-11.367188-.089844-14.976563 4.460938-3.609375 4.550781-3.976562 10.679687-.929687 15.613281zm0 0"/><path d="m504.449219 336.242188-170.492188.023437c-4.171875.003906-7.550781 3.382813-7.550781 7.554687 0 4.171876 3.382812 7.550782 7.554688 7.550782l170.492187-.027344c4.171875 0 7.550781-3.382812 7.550781-7.550781 0-4.171875-3.382812-7.550781-7.554687-7.550781zm0 0"/><path d="m80.058594 229.972656-72.5.011719c-4.171875 0-7.5507815 3.378906-7.5507815 7.550781.0039063 4.171875 3.3828125 7.550782 7.5546875 7.550782l72.5-.011719c4.171875 0 7.550781-3.382813 7.550781-7.550781-.003906-4.171876-3.382812-7.550782-7.554687-7.550782zm0 0"/><path d="m302.59375 431.210938-52.230469.007812-.011719-79.816406 45.925782-.027344c4.171875 0 7.550781-3.382812 7.546875-7.554688-.003907-4.167968-3.382813-7.546874-7.550781-7.546874h-.003907l-45.921875.027343v-7.527343c0-2.003907-.796875-3.921876-2.210937-5.339844l-37.511719-37.5c-1.414062-1.414063-3.335938-2.210938-5.339844-2.210938h-9.925781l-.019531-38.664062 44.703125-.007813c7.152343 0 13.878906-2.789062 18.9375-7.84375 5.054687-5.058593 7.839843-11.785156 7.839843-18.9375-.003906-7.15625-2.789062-13.878906-7.847656-18.9375-5.058594-5.054687-11.78125-7.839843-18.929687-7.839843-.003907 0-.007813 0-.007813 0l-103.035156.015624c2.117188-7.699218 5.453125-17.394531 10.625-27.609374 8.109375-16.027344 18.589844-29.265626 31.179688-39.449219 4.226562 3.714843 9.578124 5.761719 15.257812 5.761719 4.402344 0 8.605469-1.242188 12.246094-3.515626 3.90625 1.722657 8.105468 2.507813 12.3125 2.316407 2.527344 4.226562 6.152344 7.703125 10.59375 10.089843 4.4375 2.382813 9.339844 3.492188 14.257812 3.257813 2.53125 4.226563 6.15625 7.707031 10.597656 10.089844 4.4375 2.382812 9.34375 3.476562 14.257813 3.261719 2.53125 4.226562 6.15625 7.703124 10.59375 10.089843 4.070313 2.183594 8.550781 3.289063 13.050781 3.289063 3.441406 0 6.898438-.648438 10.183594-1.953125 5.628906-2.230469 9.074219-8.015625 8.378906-14.070313-1.730468-15.027344-8.476562-29.183594-18.992187-40.738281.710937-.246094 1.414062-.511719 2.101562-.816406 3.890625 3.023437 8.53125 4.949219 13.535157 5.558593 1.125.140626 2.246093.207032 3.367187.207032 6.925781 0 13.621094-2.605469 18.769531-7.386719 4.433594-4.121094 5.546875-10.761719 2.703125-16.148437-11.265625-21.347657-33.632812-36.003907-59.824219-39.207032-.347656-.042968-.691406-.066406-1.035156-.105468.617188-1.128907 1.160156-2.296876 1.617188-3.503907 4.878906-.652343 9.507812-2.609375 13.453125-5.746093 6.378906-5.074219 10.175781-12.660157 10.410156-20.8125.175781-6.054688-3.78125-11.503907-9.617187-13.257813-23.113282-6.941406-49.25-1.277344-69.90625 15.144531-11.554688 9.183594-20.449219 21.1875-25.597657 34.347656-1.808593-.445312-3.675781-.703124-5.582031-.703124-.003906 0-.003906 0-.007812 0-6.191407.003906-12.011719 2.414062-16.390626 6.792968-4.378906 4.378906-6.789062 10.203125-6.789062 16.394532 0 2.757812.5 5.429687 1.40625 7.925781-20.371094 14.320312-36.742188 33.648437-48.691406 57.539062-8.617188 17.226563-13.023438 33.113281-15.15625 42.960938l-92.757813.015625c-4.171875 0-7.550781 3.378906-7.550781 7.550781s3.382812 7.550781 7.550781 7.550781l232.484375-.035156h.003906c3.117188 0 6.046876 1.214844 8.253907 3.421875 2.203125 2.203125 3.417969 5.136719 3.417969 8.253906.003906 3.121094-1.210938 6.050781-3.417969 8.257813-2.203125 2.207031-5.136719 3.417968-8.257813 3.421875l-124.800781.019531c-4.167969 0-7.550781 3.378906-7.546875 7.550781 0 4.171875 3.378906 7.550781 7.550781 7.550781l64.996094-.011718.015625 38.667968-27.535156.003907-.003906-24.5c0-4.171875-3.378907-7.550781-7.550782-7.550781s-7.550781 3.382812-7.550781 7.550781l.003906 24.5-4.824219.003906c-2.003906 0-3.921874.792969-5.339843 2.210937-1.414063 1.414063-2.210938 3.335938-2.210938 5.339844l.023438 119.988282-34.621094.003906c-2.003906 0-3.925781.796875-5.339844 2.214844l-17.734375 17.738281-20.210937.007812-.023438-155.195312c0-4.171875-3.378906-7.554688-7.550781-7.550781-4.171875 0-7.550781 3.378906-7.550781 7.550781l.023437 155.203125-24.671875.007812c-4.167969.003906-7.5468748 3.382813-7.5468748 7.554688.0039063 4.171875 3.3828128 7.550781 7.5507818 7.550781h.003906l32.070312-.015625c.046875.003906.097656.007812.144532.007812.050781 0 .101562-.007812.152343-.007812l17.132813-.007812.003906 17.480468h-10.820312c-4.171876 0-7.550782 3.382813-7.550782 7.550782.003906 4.171874 3.382813 7.550781 7.554688 7.550781l136.925781-.019531h.003906.003907l46.558593-.007813c4.171875 0 7.550781-3.382813 7.550781-7.550781 0-4.171875-3.382812-7.550782-7.554687-7.550782l-39.007813.007813-.003906-4.285156c0-2.003907-.796875-3.921875-2.210937-5.339844l-7.84375-7.84375h17.171875.011718.011719l44.914063-.007813h.003906.003906l59.777344-.007812c4.171875-.003906 7.550781-3.382812 7.550781-7.554688 0-4.167968-3.382812-7.546874-7.550781-7.546874zm-176.84375-269.070313 5.175781 1.722656c-1.152343 2.574219-2.203125 5.101563-3.15625 7.554688l-5.5625-.644531c1.058594-2.792969 2.230469-5.671876 3.542969-8.632813zm11.238281-20.945313 4.75 2.59375c-1.34375 2.101563-2.648437 4.25-3.910156 6.457032l-5.226563-1.742188c1.40625-2.496094 2.867188-4.933594 4.386719-7.308594zm14.914063-19.433593 4.410156 3.105469c-1.953125 2.113281-3.84375 4.304687-5.675781 6.570312l-4.792969-2.613281c1.949219-2.4375 3.96875-4.792969 6.058594-7.0625zm19.355468-10.609375c-1.289062 1-2.558593 2.03125-3.808593 3.085937l-4.5-3.171875c2.59375-2.230468 5.28125-4.34375 8.046875-6.363281-.078125.765625-.117188 1.542969-.117188 2.328125 0 1.398438.140625 2.773438.378906 4.121094zm22.804688 3.957031c-2.160156 0-4.1875-.839844-5.714844-2.367187-1.527344-1.527344-2.367187-3.554688-2.367187-5.714844 0-4.453125 3.621093-8.078125 8.078125-8.078125 2.15625 0 4.1875.839843 5.710937 2.363281 1.527344 1.527344 2.371094 3.554688 2.371094 5.714844s-.839844 4.1875-2.367187 5.714844c-1.523438 1.527343-3.554688 2.367187-5.710938 2.367187zm92.007812 37.386719c-2.914062-1.566406-5.054687-4.179688-6.023437-7.355469-1.210937-3.96875-5.394531-6.214844-9.371094-5.035156-3.1875.945312-6.546875.605469-9.460937-.960938-2.914063-1.566406-5.054688-4.175781-6.023438-7.355469-1.210937-3.964843-5.394531-6.21875-9.371094-5.03125-3.1875.945313-6.546874.605469-9.460937-.960937s-5.054687-4.179687-6.023437-7.355469c-1.210938-3.96875-5.394532-6.214844-9.371094-5.035156-1.566406.464844-3.171875.617188-4.75.46875.675781-2.191406 1.027344-4.492188 1.027344-6.847656 0-.5625-.042969-1.113282-.082032-1.667969 1.929688.695313 3.941406 1.183594 6.007813 1.433594 5 .609375 9.96875-.136719 14.472656-2.132813 3.886719 3.023438 8.527344 4.949219 13.53125 5.558594 4.164063.511719 8.304687.0625 12.175781-1.25 17.394532 9.898438 29.507813 26.738281 32.019532 44.542969-3.101563.875-6.425782.523437-9.296876-1.015625zm31.976563-52.839844c-2.574219 1.945312-5.800781 2.816406-9.03125 2.425781-3.285156-.402343-6.226563-2.0625-8.28125-4.671875-2.570313-3.257812-7.285156-3.832031-10.558594-1.292968-2.628906 2.039062-5.882812 2.933593-9.167969 2.539062-3.28125-.402344-6.222656-2.0625-8.28125-4.671875-2.570312-3.257813-7.28125-3.832031-10.558593-1.292969-2.625 2.039063-5.882813 2.933594-9.164063 2.539063-3.285156-.402344-6.226562-2.0625-8.285156-4.671875-2.5625-3.253906-7.277344-3.832032-10.554688-1.292969-2.476562 1.921875-5.503906 2.8125-8.597656 2.578125 1.238282-1.804688 2.269532-3.746094 3.042969-5.800781 4.882813-.652344 9.507813-2.609375 13.453125-5.746094 3.457031-2.75 6.164062-6.296875 7.957031-10.285156 6.632813-1.160157 13.460938-1.324219 20.339844-.484375 20.492187 2.503906 38.636719 14.003906 47.6875 30.128906zm-91.527344-61.582031c16.160157-12.847657 37.082031-17.714844 54.925781-12.855469-.425781 3.199219-2.0625 6.113281-4.613281 8.140625-2.585937 2.058594-5.832031 3-9.136719 2.625-4.128906-.441406-7.835937 2.503906-8.324218 6.621094-.390625 3.300781-2.03125 6.25-4.621094 8.308593-2.589844 2.058594-5.835938 2.996094-9.136719 2.628907-4.132812-.445313-7.847656 2.503906-8.328125 6.628906-.042968.351563-.101562.714844-.175781 1.082031-.601563 2.890625-2.136719 5.386719-4.445313 7.21875-2.589843 2.058594-5.835937 2.988282-9.136718 2.628906-4.128906-.441406-7.839844 2.5-8.324219 6.617188-.390625 3.300781-2.03125 6.253906-4.625 8.3125-.582031.460938-1.199219.84375-1.835937 1.191406.246093-1.367187.375-2.757812.375-4.148437 0-5.082031-1.648438-9.902344-4.652344-13.894531 3.917968-11.882813 11.667968-22.847657 22.054687-31.105469zm-46.296875 39.296875c1.523438-1.527344 3.554688-2.367188 5.714844-2.367188 2.15625 0 4.183594.839844 5.710938 2.363282 1.527343 1.527343 2.367187 3.554687 2.367187 5.710937 0 .261719-.019531.515625-.042969.769531-5.234375.019532-10.0625 1.785156-13.941406 4.742188-1.367188-1.46875-2.175781-3.414063-2.175781-5.503906 0-2.160157.839843-4.191407 2.367187-5.714844zm-62.839844 108.046875 5.46875.632812c-.550781 1.925781-1.039062 3.757813-1.460937 5.460938h-5.589844c.445313-1.871094.96875-3.90625 1.582031-6.09375zm-45.183593 278.394531-.003907-15.847656 21.578126-21.582032 45.605468-.007812 36.277344 36.265625v1.15625zm75.644531-50.328125c-1.417969-1.414063-3.335938-2.210937-5.339844-2.210937h-2.136718l-.023438-112.4375 61.816406-.011719 33.085938 33.078125.011718 99.320312-29.824218.003906-.015625-81.707031c0-4.171875-3.378907-7.550781-7.550781-7.550781-4.171876 0-7.550782 3.382812-7.550782 7.550781l.011719 81.707031-23.675781.003907c-.335938 0-.664063.03125-.988282.074219zm0 0"/><path d="m80.058594 268.484375c-4.171875 0-7.550782 3.382813-7.550782 7.554687v17.113282c0 4.171875 3.382813 7.550781 7.554688 7.550781 4.167969 0 7.550781-3.378906 7.550781-7.550781l-.003906-17.117188c0-4.171875-3.382813-7.550781-7.550781-7.550781zm0 0"/><path d="m174.207031 353.550781-.003906-28.195312c0-4.167969-3.378906-7.550781-7.550781-7.546875-4.171875 0-7.550782 3.378906-7.550782 7.550781l.003907 28.191406c0 4.171875 3.382812 7.550781 7.554687 7.550781 4.167969 0 7.550782-3.382812 7.546875-7.550781zm0 0"/><path d="m378.261719 241.28125-89.167969.011719c-4.167969 0-7.546875 3.382812-7.546875 7.550781 0 4.171875 3.378906 7.550781 7.550781 7.550781l89.164063-.007812c15.699219-.003907 28.46875-12.777344 28.46875-28.476563-.003907-15.699218-12.773438-28.46875-28.46875-28.46875-.003907 0-.003907 0-.007813 0-15.699218.003906-28.46875 12.777344-28.464844 28.476563 0 4.171875 3.378907 7.550781 7.550782 7.550781s7.550781-3.382812 7.550781-7.550781c0-7.371094 5.996094-13.371094 13.367187-13.371094h.003907c7.367187 0 13.367187 5.996094 13.367187 13.367187 0 7.371094-5.996094 13.367188-13.367187 13.367188zm0 0"/><path d="m438.679688 305.964844s0 0-.003907 0c-7.367187 0-13.367187-5.996094-13.367187-13.367188 0-4.171875-3.382813-7.550781-7.550782-7.550781-4.171874 0-7.550781 3.382813-7.550781 7.554687.003907 15.699219 12.773438 28.464844 28.46875 28.464844h.007813c7.59375 0 14.742187-2.964844 20.121094-8.347656 5.382812-5.382812 8.34375-12.53125 8.34375-20.128906 0-7.59375-2.964844-14.742188-8.347657-20.121094-5.382812-5.382812-12.527343-8.34375-20.121093-8.34375 0 0-.003907 0-.007813 0l-149.574219.019531c-4.167968 0-7.550781 3.378907-7.550781 7.550781.003906 4.171876 3.382813 7.550782 7.554687 7.550782l149.574219-.019532h.003907c3.558593 0 6.914062 1.394532 9.441406 3.921876 2.53125 2.527343 3.925781 5.882812 3.925781 9.445312s-1.394531 6.917969-3.921875 9.449219c-2.527344 2.527343-5.882812 3.921875-9.445312 3.921875zm0 0"/><path d="m80.074219 124.582031c-7.371094 0-13.367188-5.996093-13.367188-13.367187-.003906-4.171875-3.382812-7.550782-7.554687-7.550782s-7.550782 3.382813-7.550782 7.550782c.003907 15.699218 12.773438 28.46875 28.472657 28.46875h.003906c7.597656 0 14.746094-2.964844 20.125-8.347656 5.382813-5.382813 8.34375-12.53125 8.34375-20.128907-.003906-15.699219-12.777344-28.46875-28.476563-28.464843l-50.644531.007812c-4.171875 0-7.550781 3.378906-7.550781 7.550781.003906 4.171875 3.382812 7.550781 7.554688 7.550781l50.640624-.007812c7.375 0 13.371094 5.996094 13.371094 13.367188.003906 7.371093-5.992187 13.367187-13.367187 13.371093zm0 0"/><path d="m29.425781 75 78.835938-.011719c15.699219 0 28.46875-12.773437 28.46875-28.472656-.003907-15.699219-12.773438-28.46875-28.472657-28.46875h-.003906c-15.699218.003906-28.472656 12.777344-28.46875 28.476563.003906 4.171874 3.382813 7.550781 7.554688 7.550781 4.171875-.003907 7.550781-3.382813 7.550781-7.554688-.003906-3.5625 1.390625-6.914062 3.917969-9.445312 2.53125-2.53125 5.886718-3.921875 9.449218-3.925781 7.371094 0 13.367188 5.996093 13.371094 13.367187 0 7.371094-5.996094 13.371094-13.367187 13.371094l-78.835938.011719c-4.171875 0-7.550781 3.382812-7.550781 7.550781 0 4.171875 3.382812 7.554687 7.550781 7.550781zm0 0"/><path d="m377.605469 35.882812h.039062c4.152344 0 7.527344-3.355468 7.546875-7.511718l.015625-2.734375c.023438-4.171875-3.34375-7.570313-7.511719-7.589844-.015624 0-.027343 0-.039062 0-4.152344 0-7.53125 3.355469-7.550781 7.511719l-.015625 2.734375c-.019532 4.171875 3.34375 7.570312 7.515625 7.589843zm0 0"/><path d="m377.605469 45.882812c-.015625 0-.023438 0-.035157 0-4.15625 0-7.53125 3.355469-7.550781 7.515626l-.015625 2.734374c-.019531 4.171876 3.347656 7.566407 7.515625 7.585938h.039063c4.152344 0 7.527344-3.355469 7.550781-7.515625l.011719-2.734375c.019531-4.171875-3.347656-7.566406-7.515625-7.585938zm0 0"/><path d="m382.632812 40.882812c-.019531 4.171876 3.34375 7.570313 7.515626 7.589844l2.738281.011719h.039062c4.152344 0 7.527344-3.359375 7.550781-7.515625.019532-4.171875-3.347656-7.566406-7.515624-7.585938l-2.742188-.015624c-.011719 0-.023438 0-.035156 0-4.15625 0-7.53125 3.359374-7.550782 7.515624zm0 0"/><path d="m362.25 48.382812 2.742188.015626h.039062c4.152344 0 7.527344-3.355469 7.550781-7.511719.019531-4.171875-3.34375-7.570313-7.515625-7.589844l-2.738281-.015625c-.015625 0-.027344 0-.039063 0-4.152343 0-7.53125 3.355469-7.550781 7.511719-.019531 4.171875 3.34375 7.570312 7.511719 7.589843zm0 0"/><path d="m467.1875 200.121094.011719-2.738282c.023437-4.167968-3.34375-7.566406-7.515625-7.585937-.011719 0-.023438 0-.035156 0-4.152344 0-7.53125 3.359375-7.550782 7.515625l-.011718 2.734375c-.019532 4.171875 3.34375 7.570313 7.515624 7.589844h.035157c4.152343-.003907 7.53125-3.359375 7.550781-7.515625zm0 0"/><path d="m459.5625 217.632812c-4.152344 0-7.53125 3.359376-7.550781 7.515626l-.011719 2.734374c-.023438 4.171876 3.34375 7.570313 7.515625 7.585938h.035156c4.152344 0 7.53125-3.355469 7.550781-7.515625l.011719-2.734375c.019531-4.171875-3.34375-7.566406-7.515625-7.585938-.011718 0-.023437 0-.035156 0zm0 0"/><path d="m474.878906 220.234375h.039063c4.152343 0 7.527343-3.355469 7.550781-7.511719.019531-4.171875-3.34375-7.570312-7.515625-7.589844l-2.738281-.015624c-.015625 0-.027344 0-.039063 0-4.152343 0-7.53125 3.355468-7.550781 7.515624-.023438 4.167969 3.34375 7.566407 7.511719 7.589844zm0 0"/><path d="m444.316406 205.03125c-.011718 0-.023437 0-.035156 0-4.152344 0-7.53125 3.359375-7.550781 7.515625-.019531 4.171875 3.347656 7.570313 7.515625 7.589844l2.742187.011719h.035157c4.152343 0 7.53125-3.359376 7.550781-7.515626.019531-4.171874-3.347657-7.566406-7.515625-7.585937zm0 0"/><path d="m352.65625 431.210938h-19.128906c-4.171875 0-7.550782 3.378906-7.550782 7.550781s3.378907 7.550781 7.550782 7.550781h19.128906c4.171875 0 7.550781-3.378906 7.550781-7.550781s-3.378906-7.550781-7.550781-7.550781zm0 0"/></svg>