<svg height="512pt" viewBox="0 -9 512 512" width="512pt" xmlns="http://www.w3.org/2000/svg"><path d="m504.449219 20.136719v453.582031c0 11.121094-9.015625 20.136719-20.136719 20.136719h-456.625c-11.121094 0-20.136719-9.015625-20.136719-20.136719v-453.582031c0-11.121094 9.015625-20.136719 20.136719-20.136719h456.625c11.121094 0 20.136719 9.015625 20.136719 20.136719zm0 0" fill="#60daff"/><path d="m447.078125 342.761719c0 41.535156-33.671875 75.207031-75.207031 75.207031-41.539063 0-75.207032-33.671875-75.207032-75.207031 0-41.535157 33.667969-75.207031 75.207032-75.207031 41.535156 0 75.207031 33.671874 75.207031 75.207031zm0 0" fill="#fab03c"/><path d="m447.074219 342.761719c0 41.535156-33.667969 75.207031-75.203125 75.207031-41.539063 0-75.207032-33.671875-75.207032-75.207031 0-13.699219 3.664063-26.539063 10.066407-37.601563 12.996093 22.480469 37.304687 37.601563 65.140625 37.601563 27.835937 0 52.140625-15.121094 65.140625-37.601563 6.398437 11.0625 10.0625 23.902344 10.0625 37.601563zm0 0" fill="#fd8f3e"/><path d="m69.527344 101.457031c-21.660156 11.636719-35.234375 31.855469-37.597656 52.453125-.304688 2.636719 1.1875 5.207032 3.65625 6.1875 5.304687 2.101563 11.460937 1.9375 16.878906-.972656 4.851562-2.609375 8.183594-6.925781 9.675781-11.804688 4.890625 1.449219 10.332031 1.054688 15.179687-1.550781 4.851563-2.605469 8.183594-6.925781 9.675782-11.804687 4.890625 1.453125 10.332031 1.058594 15.179687-1.546875 4.851563-2.605469 8.183594-6.925781 9.675781-11.804688 4.890626 1.449219 10.328126 1.054688 15.179688-1.550781 5.417969-2.910156 8.953125-7.953125 10.128906-13.535156.546875-2.601563-.769531-5.265625-3.140625-6.46875-18.480469-9.398438-42.828125-9.242188-64.492187 2.398437zm0 0" fill="#00fbaa"/><path d="m116.097656 85.167969c1.738282-5.394531 7.519532-8.351563 12.914063-6.617188 36.695312 11.828125 65.652343 37.1875 83.738281 73.332031 11.949219 23.875 15.457031 44.980469 16.191406 50.265626h-20.785156c-1.238281-6.996094-4.890625-23.574219-14.070312-41.703126-15.800782-31.207031-39.8125-52.1875-71.371094-62.363281-5.394532-1.738281-8.359375-7.519531-6.617188-12.914062zm0 0" fill="#f4bc8e"/><path d="m63.671875 62c-24.40625 2.992188-44.386719 16.910156-54.0625 35.246094-1.238281 2.351562-.78125 5.285156 1.167969 7.09375 4.179687 3.882812 9.976562 5.960937 16.082031 5.214844 5.464844-.671876 10.136719-3.484376 13.296875-7.492188 4.03125 3.125 9.246094 4.730469 14.710938 4.0625 5.464843-.671875 10.136718-3.484375 13.292968-7.492188 4.035156 3.125 9.246094 4.730469 14.710938 4.058594 5.464844-.667968 10.136718-3.484375 13.296875-7.492187 4.03125 3.128906 9.242187 4.734375 14.710937 4.0625 6.101563-.746094 11.230469-4.164063 14.347656-8.941407 1.453126-2.222656 1.1875-5.183593-.582031-7.164062-13.816406-15.460938-36.5625-24.144531-60.972656-21.15625zm0 0" fill="#78ffce"/><path d="m113.128906 32.125c-19.25-15.300781-43.183594-19.777344-63.039062-13.8125-2.542969.765625-4.316406 3.148438-4.238282 5.804688.164063 5.703124 2.746094 11.296874 7.5625 15.121093 4.308594 3.425781 9.59375 4.78125 14.664063 4.222657.601563 5.066406 3.113281 9.910156 7.425781 13.335937 4.308594 3.425781 9.59375 4.777344 14.664063 4.21875.601562 5.066406 3.113281 9.910156 7.421875 13.335937 4.308594 3.425782 9.59375 4.78125 14.664062 4.222657.601563 5.066406 3.113282 9.90625 7.425782 13.332031 4.8125 3.828125 10.84375 5.082031 16.4375 3.957031 2.605468-.523437 4.527343-2.789062 4.699218-5.4375 1.328125-20.691406-8.433594-43-27.6875-58.300781zm0 0" fill="#00fbaa"/><path d="m164.652344 83.039062c0 8.636719-6.996094 15.632813-15.628906 15.632813-8.632813 0-15.632813-6.996094-15.632813-15.632813 0-8.632812 7-15.628906 15.632813-15.628906 8.632812 0 15.628906 6.996094 15.628906 15.628906zm0 0" fill="#f8e98e"/><path d="m156.535156 106.988281c0 8.632813-7 15.632813-15.632812 15.632813-8.632813 0-15.632813-7-15.632813-15.632813 0-8.632812 7-15.628906 15.632813-15.628906 8.632812 0 15.632812 6.996094 15.632812 15.628906zm0 0" fill="#fab03c"/><path d="m504.449219 343.8125v129.90625c0 11.117188-9.011719 20.140625-20.136719 20.140625h-456.625c-11.125 0-20.136719-9.023437-20.136719-20.140625v-129.90625zm0 0" fill="#38aaff"/><path d="m447.066406 343.8125c-.152344 11.769531-3.019531 22.894531-8.003906 32.773438-12.386719 24.546874-37.820312 41.382812-67.191406 41.382812-29.367188 0-54.8125-16.835938-67.1875-41.382812-4.984375-9.878907-7.855469-21.003907-8.015625-32.773438zm0 0" fill="#f6cb43"/><path d="m504.449219 424.875v48.84375c0 11.121094-9.015625 20.136719-20.136719 20.136719h-456.625c-11.121094 0-20.136719-9.015625-20.136719-20.136719v-48.84375zm0 0" fill="#2081f6"/><path d="m7.550781 343.808594h496.898438v32.777344h-496.898438zm0 0" fill="#a0ecff"/><path d="m447.066406 343.8125c-.152344 11.769531-3.019531 22.894531-8.003906 32.773438h-134.378906c-4.984375-9.878907-7.855469-21.003907-8.015625-32.773438zm0 0" fill="#f8e98e"/><path d="m7.550781 218.246094h180.234375v220.507812h-180.234375zm0 0" fill="#be7560"/><path d="m240.042969 237.472656h-232.492188v-38.457031h232.492188c10.621093 0 19.230469 8.609375 19.230469 19.230469 0 10.617187-8.609376 19.226562-19.230469 19.226562zm0 0" fill="#00fbaa"/><path d="m132.78125 438.753906v-147.507812h72.496094l37.507812 37.503906v110.003906zm0 0" fill="#ea998c"/><path d="m64.609375 471.324219v-26.53125l26.003906-26.003907h51.859375l40.699219 40.699219v11.835938zm0 0" fill="#82807f"/><path d="m364.316406 225.128906v16.199219c0 4.171875 3.382813 7.550781 7.554688 7.550781s7.550781-3.378906 7.550781-7.550781v-16.199219c0-4.171875-3.378906-7.550781-7.550781-7.550781s-7.554688 3.382813-7.554688 7.550781zm0 0"/><path d="m309.277344 234.347656c-3.609375 2.085938-4.847656 6.707032-2.761719 10.316406l8.097656 14.03125c1.398438 2.421876 3.9375 3.777344 6.546875 3.777344 1.28125 0 2.582032-.328125 3.769532-1.015625 3.609374-2.085937 4.847656-6.703125 2.761718-10.316406l-8.097656-14.027344c-2.085938-3.613281-6.707031-4.847656-10.316406-2.765625zm0 0"/><path d="m273.773438 277.40625c-3.613282-2.085938-8.230469-.847656-10.316407 2.761719-2.085937 3.613281-.847656 8.230469 2.765625 10.316406l14.027344 8.101563c1.191406.683593 2.488281 1.011718 3.769531 1.011718 2.609375 0 5.148438-1.355468 6.546875-3.777344 2.085938-3.609374.847656-8.230468-2.765625-10.316406zm0 0"/><path d="m469.964844 277.40625-14.027344 8.097656c-3.613281 2.085938-4.847656 6.707032-2.765625 10.316406 1.402344 2.421876 3.9375 3.777344 6.546875 3.777344 1.28125 0 2.582031-.328125 3.769531-1.011718l14.027344-8.101563c3.613281-2.085937 4.851563-6.703125 2.765625-10.316406-2.085938-3.609375-6.707031-4.847657-10.316406-2.761719zm0 0"/><path d="m424.144531 237.113281-8.097656 14.027344c-2.085937 3.613281-.847656 8.230469 2.761719 10.316406 1.191406.6875 2.488281 1.015625 3.769531 1.015625 2.609375 0 5.148437-1.355468 6.546875-3.777344l8.101562-14.03125c2.082032-3.609374.847657-8.230468-2.765624-10.316406-3.613282-2.082031-8.230469-.847656-10.316407 2.765625zm0 0"/><path d="m504.449219 336.257812h-50.101563c-3.328125-42.601562-39.035156-76.253906-82.476562-76.253906-43.445313 0-79.148438 33.652344-82.480469 76.253906h-39.054687v-7.507812c0-2-.796876-3.921875-2.210938-5.339844l-37.507812-37.507812c-1.414063-1.414063-3.335938-2.210938-5.339844-2.210938h-9.941406v-38.664062h44.707031c14.765625 0 26.78125-12.015625 26.78125-26.78125s-12.015625-26.78125-26.78125-26.78125h-5.378907c-2.167968-10.011719-6.570312-25.796875-15.160156-42.960938-11.960937-23.898437-28.332031-43.207031-48.695312-57.519531.90625-2.503906 1.394531-5.183594 1.394531-7.945313 0-12.78125-10.398437-23.183593-23.183594-23.183593-1.925781 0-3.800781.242187-5.59375.6875-5.152343-13.148438-14.054687-25.152344-25.597656-34.328125-20.660156-16.421875-46.800781-22.078125-69.910156-15.136719-5.839844 1.753906-9.792969 7.207031-9.617188 13.257813.234375 8.15625 4.03125 15.742187 10.414063 20.816406 3.945312 3.136718 8.574218 5.09375 13.453125 5.742187.457031 1.210938 1 2.378907 1.621093 3.503907-.347656.039062-.691406.066406-1.035156.105468-26.195312 3.210938-48.558594 17.871094-59.824218 39.21875-2.8437505 5.390625-1.730469 12.03125 2.707031 16.148438 5.148437 4.78125 11.84375 7.382812 18.765625 7.382812 1.121094 0 2.246094-.066406 3.375-.203125 5.003906-.613281 9.644531-2.539062 13.53125-5.5625.691406.304688 1.394531.570313 2.101562.816407-10.515625 11.554687-17.257812 25.714843-18.984375 40.742187-.695312 6.050781 2.75 11.835937 8.378907 14.070313 3.289062 1.304687 6.742187 1.949218 10.183593 1.949218 4.5 0 8.984375-1.105468 13.054688-3.289062 4.4375-2.386719 8.0625-5.867188 10.589843-10.089844 4.921876.210938 9.824219-.878906 14.261719-3.265625 4.441407-2.382813 8.066407-5.863281 10.59375-10.089844 4.917969.21875 9.824219-.875 14.261719-3.261719 4.441406-2.382812 8.066406-5.863281 10.59375-10.089843 4.21875.199219 8.40625-.589844 12.308594-2.316407 3.558594 2.222657 7.753906 3.511719 12.25 3.511719 5.839844 0 11.179687-2.175781 15.261718-5.757812 12.589844 10.179687 23.070313 23.417969 31.183594 39.441406 5.167969 10.207031 8.503906 19.894531 10.628906 27.609375h-89.988281c-4.171875 0-7.550781 3.378906-7.550781 7.550781s3.378906 7.550781 7.550781 7.550781h132.054688c6.441406 0 11.679687 5.238282 11.679687 11.679688 0 6.4375-5.238281 11.675781-11.679687 11.675781h-232.492188c-4.171875 0-7.550781 3.378907-7.550781 7.550781 0 4.171876 3.378906 7.554688 7.550781 7.554688h172.679688v38.664062h-27.519531v-24.5c0-4.171874-3.378907-7.550781-7.550782-7.550781s-7.550781 3.378907-7.550781 7.550781v24.5h-4.828125c-4.167969 0-7.550781 3.378907-7.550781 7.550782v119.996094h-34.617188c-2.003906 0-3.921875.796874-5.339843 2.210937l-17.753907 17.75h-20.195312v-155.214844c0-4.171875-3.378907-7.550781-7.550781-7.550781-4.171876 0-7.554688 3.378906-7.554688 7.550781v155.214844h-24.667969c-4.171875 0-7.550781 3.378906-7.550781 7.550781s3.378906 7.550782 7.550781 7.550782h49.507813v17.46875h-10.820313c-4.171875 0-7.554687 3.378906-7.554687 7.550781s3.382812 7.550781 7.554687 7.550781h183.5c4.171875 0 7.550781-3.378906 7.550781-7.550781s-3.378906-7.550781-7.550781-7.550781h-39.015625v-4.285157c0-2.003906-.792968-3.921875-2.210937-5.339843l-7.84375-7.84375h121.902343c4.171876 0 7.550782-3.378907 7.550782-7.550782s-3.378906-7.550781-7.550782-7.550781h-52.234374v-19.507813c0-4.167968-3.378907-7.550781-7.550782-7.550781s-7.550781 3.382813-7.550781 7.550781v19.507813h-29.828125v-81.710937c0-4.171876-3.382812-7.554688-7.554688-7.554688-4.171874 0-7.550781 3.382812-7.550781 7.554688v81.710937h-24.734375l-17.75-17.753906c-1.417968-1.414063-3.339844-2.210938-5.34375-2.210938h-2.136718v-112.441406h61.816406l33.082031 33.082031v44.707032c0 4.167968 3.378906 7.550781 7.550781 7.550781s7.550782-3.382813 7.550782-7.550781v-25.226563h137.566406c4.171875 0 7.550781-3.378906 7.550781-7.550781s-3.378906-7.550782-7.550781-7.550782h-83.367188c3.28125-34.265624 32.222656-61.152343 67.335938-61.152343 35.109375 0 64.050781 26.886719 67.335937 61.152343h-14.605469c-4.171874 0-7.554687 3.378907-7.554687 7.550782s3.382813 7.550781 7.554687 7.550781h79.847657c4.171875 0 7.550781-3.378906 7.550781-7.550781s-3.378906-7.550782-7.550781-7.550782zm-325.800781-211.429687 4.410156-3.109375c2.09375 2.269531 4.113281 4.625 6.066406 7.058594l-4.796875 2.617187c-1.832031-2.265625-3.722656-4.457031-5.679687-6.566406zm-14.9375-13.71875c.242187-1.335937.375-2.714844.375-4.121094 0-.789062-.042969-1.570312-.117188-2.339843 2.765625 2.019531 5.453125 4.140624 8.050781 6.371093l-4.503906 3.175781c-1.253906-1.050781-2.515625-2.085937-3.804687-3.085937zm29.515624 32.632813 4.757813-2.59375c1.515625 2.375 2.976563 4.8125 4.382813 7.308593l-5.226563 1.742188c-1.257813-2.203125-2.566406-4.355469-3.914063-6.457031zm10.820313 20.074218 5.175781-1.722656c1.316406 2.960938 2.484375 5.839844 3.546875 8.632812l-5.5625.644532c-.953125-2.453125-2.007812-4.980469-3.160156-7.554688zm-46.945313-80.777344c0 2.089844-.808593 4.03125-2.179687 5.503907-3.875-2.953125-8.703125-4.714844-13.933594-4.734375-.023437-.253906-.046875-.507813-.046875-.769532 0-4.453124 3.625-8.078124 8.078125-8.078124 4.457031 0 8.082031 3.625 8.082031 8.078124zm-98.988281-49.710937c-2.550781-2.027344-4.1875-4.941406-4.609375-8.136719 17.84375-4.863281 38.765625 0 54.929688 12.847656 10.375 8.246094 18.136718 19.210938 22.058594 31.085938-2.917969 3.878906-4.652344 8.699219-4.652344 13.914062 0 1.40625.132812 2.800782.386718 4.175782-.648437-.351563-1.265624-.753906-1.851562-1.21875-2.589844-2.058594-4.230469-5.011719-4.621094-8.308594-.484375-4.121094-4.191406-7.066406-8.324218-6.621094-3.304688.371094-6.550782-.566406-9.140626-2.625-2.589843-2.058594-4.230468-5.011718-4.621093-8.308594-.488281-4.121093-4.191407-7.066406-8.328125-6.621093-3.300782.371093-6.550782-.566407-9.136719-2.625-2.589844-2.058594-4.234375-5.011719-4.625-8.3125-.488281-4.117188-4.191406-7.066407-8.328125-6.617188-3.304688.367188-6.546875-.570312-9.136719-2.628906zm-23.890625 64.058594c-2.058594 2.609375-4.996094 4.269531-8.28125 4.671875-3.238281.402344-6.460937-.480469-9.035156-2.421875 9.046875-16.128907 27.191406-27.628907 47.683594-30.140625 6.863281-.839844 13.679687-.679688 20.296875.472656 1.78125 3.984375 4.496093 7.507812 8.003906 10.296875 3.945313 3.132813 8.574219 5.089844 13.453125 5.742187.777344 2.054688 1.804688 3.996094 3.042969 5.804688-3.085938.238281-6.121094-.660156-8.597657-2.578125-3.273437-2.539063-7.988281-1.960937-10.554687 1.292969-2.058594 2.609375-5 4.269531-8.285156 4.671875-3.285157.402343-6.539063-.5-9.164063-2.535157-3.277344-2.539062-7.988281-1.960937-10.558594 1.292969-2.054687 2.609375-5 4.269531-8.28125 4.671875s-6.539062-.496094-9.167968-2.535156c-3.273438-2.542969-7.984375-1.964844-10.554688 1.292969zm79.773438 15.988281c-3.976563-1.183594-8.160156 1.066406-9.371094 5.03125-.96875 3.179688-3.109375 5.792969-6.023438 7.359375-2.914062 1.566406-6.273437 1.910156-9.460937.960937-3.972656-1.179687-8.15625 1.066407-9.371094 5.035157-.96875 3.175781-3.109375 5.789062-6.023437 7.355469-2.914063 1.566406-6.273438 1.90625-9.460938.964843-3.972656-1.179687-8.15625 1.066407-9.367187 5.03125-.972657 3.179688-3.113281 5.792969-6.027344 7.359375-2.867187 1.542969-6.191406 1.894532-9.296875 1.019532 2.511719-17.804688 14.625-34.652344 32.011719-44.550782 3.871093 1.3125 8.011719 1.761719 12.179687 1.25 5.003906-.613281 9.644532-2.539062 13.535156-5.5625 4.5 1.992188 9.472657 2.742188 14.472657 2.132813 2.0625-.253907 4.066406-.734375 5.988281-1.421875-.039062.546875-.0625 1.09375-.0625 1.652344 0 2.382812.359375 4.683593 1.03125 6.847656-1.574219.148437-3.1875 0-4.753906-.464844zm26.90625 1.695312c-4.457032 0-8.082032-3.625-8.082032-8.082031 0-4.453125 3.625-8.078125 8.082032-8.078125 4.453125 0 8.078125 3.625 8.078125 8.078125 0 4.457031-3.625 8.082031-8.078125 8.082031zm71.226562 70.933594 5.464844-.632812c.609375 2.171875 1.140625 4.21875 1.585938 6.09375h-5.59375c-.425782-1.707032-.910157-3.53125-1.457032-5.460938zm-36.507812 276.613282v1.152343h-103.460938v-15.847656l21.582032-21.578125h45.605468zm0 0"/><path d="m7.550781 206.570312h64.1875c4.171875 0 7.554688-3.382812 7.554688-7.550781 0-4.171875-3.382813-7.554687-7.554688-7.554687h-64.1875c-4.171875 0-7.550781 3.382812-7.550781 7.554687 0 4.167969 3.378906 7.550781 7.550781 7.550781zm0 0"/><path d="m87.597656 293.105469v-17.117188c0-4.171875-3.378906-7.550781-7.550781-7.550781s-7.550781 3.378906-7.550781 7.550781v17.117188c0 4.171875 3.378906 7.550781 7.550781 7.550781s7.550781-3.378906 7.550781-7.550781zm0 0"/><path d="m159.085938 325.324219v28.195312c0 4.171875 3.382812 7.550781 7.554687 7.550781s7.550781-3.378906 7.550781-7.550781v-28.195312c0-4.171875-3.378906-7.550781-7.550781-7.550781s-7.554687 3.378906-7.554687 7.550781zm0 0"/><path d="m253.414062 113.246094c0 15.699218 12.773438 28.46875 28.472657 28.46875s28.472656-12.773438 28.472656-28.46875c0-4.171875-3.378906-7.554688-7.550781-7.554688s-7.550782 3.382813-7.550782 7.554688c0 7.371094-5.996093 13.367187-13.371093 13.367187-7.371094 0-13.367188-5.996093-13.367188-13.367187 0-7.375 5.996094-13.371094 13.367188-13.371094h183.945312c4.167969 0 7.550781-3.378906 7.550781-7.550781s-3.382812-7.550781-7.550781-7.550781h-183.945312c-15.699219 0-28.472657 12.769531-28.472657 28.472656zm0 0"/><path d="m221.476562 77.023438h204.078126c4.171874 0 7.550781-3.378907 7.550781-7.550782s-3.378907-7.550781-7.550781-7.550781h-204.078126c-7.371093 0-13.371093-6-13.371093-13.371094 0-7.371093 6-13.367187 13.371093-13.367187 7.371094 0 13.367188 5.996094 13.367188 13.367187 0 4.171875 3.382812 7.550781 7.550781 7.550781 4.171875 0 7.554688-3.378906 7.554688-7.550781 0-15.699219-12.773438-28.472656-28.472657-28.472656-15.699218 0-28.472656 12.773437-28.472656 28.472656s12.769532 28.472657 28.472656 28.472657zm0 0"/><path d="m327.480469 166.820312c0 15.699219 12.773437 28.472657 28.472656 28.472657 15.703125 0 28.472656-12.773438 28.472656-28.472657 0-4.171874-3.378906-7.550781-7.550781-7.550781s-7.550781 3.378907-7.550781 7.550781c0 7.371094-5.996094 13.371094-13.371094 13.371094-7.371094 0-13.367187-6-13.367187-13.371094 0-7.371093 5.996093-13.367187 13.367187-13.367187h129.183594c4.171875 0 7.550781-3.382813 7.550781-7.554687 0-4.171876-3.378906-7.550782-7.550781-7.550782h-129.183594c-15.699219 0-28.472656 12.773438-28.472656 28.472656zm0 0"/><path d="m277.011719 463.773438h-17.738281c-4.171876 0-7.550782 3.378906-7.550782 7.550781s3.378906 7.550781 7.550782 7.550781h17.738281c4.171875 0 7.550781-3.378906 7.550781-7.550781s-3.378906-7.550781-7.550781-7.550781zm0 0"/><path d="m466.726562 383.746094h-66.488281c-4.171875 0-7.554687 3.382812-7.554687 7.554687s3.382812 7.550781 7.554687 7.550781h66.488281c4.171876 0 7.550782-3.378906 7.550782-7.550781s-3.378906-7.554687-7.550782-7.554687zm0 0"/><path d="m341.835938 393.945312h-39.265626c-4.171874 0-7.554687 3.382813-7.554687 7.554688s3.382813 7.550781 7.554687 7.550781h39.265626c4.171874 0 7.554687-3.378906 7.554687-7.550781s-3.382813-7.554688-7.554687-7.554688zm0 0"/><path d="m422.585938 417.324219h-22.347657c-4.171875 0-7.554687 3.378906-7.554687 7.550781s3.382812 7.550781 7.554687 7.550781h22.347657c4.171874 0 7.550781-3.378906 7.550781-7.550781s-3.378907-7.550781-7.550781-7.550781zm0 0"/></svg>