<svg height="512pt" viewBox="0 0 512 512" width="512pt" xmlns="http://www.w3.org/2000/svg"><path d="m386.511719 256c0 72.082031-58.429688 130.511719-130.511719 130.511719s-130.511719-58.429688-130.511719-130.511719 58.429688-130.511719 130.511719-130.511719 130.511719 58.429688 130.511719 130.511719zm0 0" fill="#f0f5f7"/><path d="m353.519531 256c0 53.859375-43.660156 97.519531-97.519531 97.519531s-97.519531-43.660156-97.519531-97.519531 43.660156-97.519531 97.519531-97.519531 97.519531 43.660156 97.519531 97.519531zm0 0" fill="#dde9ed"/><path d="m318.019531 256c0 34.253906-27.765625 62.019531-62.019531 62.019531s-62.019531-27.765625-62.019531-62.019531 27.765625-62.019531 62.019531-62.019531 62.019531 27.765625 62.019531 62.019531zm0 0" fill="#a4d5dd"/><path d="m281.730469 256c0 14.210938-11.519531 25.730469-25.730469 25.730469s-25.730469-11.519531-25.730469-25.730469 11.519531-25.730469 25.730469-25.730469 25.730469 11.519531 25.730469 25.730469zm0 0" fill="#f0f5f7"/><path d="m357.839844 55.835938c-31.726563-16.171876-65.988282-24.371094-101.839844-24.371094-49.570312 0-96.566406 15.832031-135.902344 45.785156-3.296875 2.507812-3.933594 7.214844-1.425781 10.511719 2.511719 3.296875 7.21875 3.933593 10.511719 1.421875 36.703125-27.945313 80.554687-42.71875 126.816406-42.71875 33.460938 0 65.433594 7.648437 95.027344 22.734375 28.234375 14.394531 53.273437 35.414062 72.402344 60.792969 1.476562 1.957031 3.722656 2.988281 5.996093 2.988281 1.570313 0 3.15625-.492188 4.507813-1.511719 3.308594-2.492188 3.96875-7.195312 1.476562-10.503906-20.496094-27.1875-47.320312-49.707032-77.570312-65.128906zm0 0"/><path d="m103.992188 100.90625c-3-2.855469-7.746094-2.742188-10.601563.257812-39.933594 41.925782-61.925781 96.914063-61.925781 154.835938 0 4.144531 3.355468 7.5 7.5 7.5 4.140625 0 7.5-3.355469 7.5-7.5 0-54.054688 20.519531-105.367188 57.785156-144.492188 2.859375-3 2.742188-7.746093-.257812-10.601562zm0 0"/><path d="m65.679688 375.195312c17.648437 28.121094 41.773437 52.417969 69.773437 70.269532 1.25.796875 2.644531 1.175781 4.023437 1.175781 2.476563 0 4.902344-1.226563 6.332032-3.46875 2.226562-3.492187 1.199218-8.128906-2.292969-10.355469-26.132813-16.660156-48.65625-39.34375-65.128906-65.59375-17.105469-27.253906-27.464844-57.296875-30.789063-89.296875-.429687-4.121093-4.125-7.109375-8.234375-6.6875-4.121093.429688-7.113281 4.117188-6.6875 8.238281 3.566407 34.300782 14.671875 66.503907 33.003907 95.71875zm0 0"/><path d="m169.675781 463.339844c13.414063 5.589844 27.429688 9.882812 41.667969 12.753906.5.101562 1 .148438 1.492188.148438 3.496093 0 6.625-2.457032 7.34375-6.019532.816406-4.058594-1.808594-8.015625-5.871094-8.832031-13.277344-2.679687-26.355469-6.683594-38.863282-11.898437-3.820312-1.589844-8.214843.214843-9.804687 4.039062-1.59375 3.824219.214844 8.214844 4.035156 9.808594zm0 0"/><path d="m266.761719 465.265625c-4.136719.207031-7.320313 3.730469-7.113281 7.867187.203124 4.007813 3.515624 7.121094 7.484374 7.121094.128907 0 .257813 0 .386719-.007812 119.449219-6.039063 213.015625-104.542969 213.015625-224.246094 0-29.785156-5.738281-58.722656-17.0625-86.007812-1.589844-3.824219-5.976562-5.644532-9.800781-4.050782-3.828125 1.585938-5.640625 5.976563-4.054687 9.800782 10.5625 25.453124 15.917968 52.453124 15.917968 80.257812 0 111.710938-87.3125 203.628906-198.773437 209.265625zm0 0"/><path d="m15 256c0-46.597656 13.316406-91.804688 38.511719-130.742188 24.546875-37.9375 59.078125-68.152343 99.851562-87.375 3.746094-1.765624 5.351563-6.234374 3.585938-9.980468s-6.234375-5.351563-9.980469-3.585938c-43.308594 20.414063-79.980469 52.503906-106.050781 92.792969-26.769531 41.371094-40.917969 89.398437-40.917969 138.890625 0 35.640625 7.1875 70.132812 21.355469 102.519531 1.234375 2.816407 3.984375 4.496094 6.875 4.496094 1.003906 0 2.023437-.203125 3.003906-.628906 3.792969-1.660157 5.523437-6.085938 3.863281-9.878907-13.335937-30.480468-20.097656-62.949218-20.097656-96.507812zm0 0"/><path d="m327.667969 486.167969c-23.109375 7.1875-47.222657 10.832031-71.667969 10.832031-79.953125 0-154.542969-39.546875-199.523438-105.78125-2.324218-3.429688-6.992187-4.320312-10.417968-1.992188-3.425782 2.328126-4.316406 6.992188-1.988282 10.417969 47.773438 70.351563 127 112.355469 211.929688 112.355469 25.957031 0 51.566406-3.871094 76.125-11.511719 3.953125-1.226562 6.164062-5.433593 4.933594-9.386719-1.230469-3.957031-5.433594-6.171874-9.390625-4.933593zm0 0"/><path d="m502.996094 284.492188c-4.109375-.601563-7.902344 2.246093-8.496094 6.347656-11.3125 78.144531-60.433594 145.847656-131.398438 181.113281-3.707031 1.84375-5.21875 6.347656-3.375 10.054687 1.308594 2.636719 3.960938 4.164063 6.71875 4.164063 1.121094 0 2.261719-.25 3.332032-.785156 75.375-37.457031 127.550781-109.382813 139.570312-192.398438.59375-4.097656-2.25-7.902343-6.351562-8.496093zm0 0"/><path d="m433.949219 71.960938c-47.984375-46.402344-111.179688-71.960938-177.949219-71.960938-4.140625 0-7.5 3.355469-7.5 7.5s3.359375 7.5 7.5 7.5c62.855469 0 122.351562 24.058594 167.519531 67.742188 45.0625 43.582031 71.101563 102.015624 73.324219 164.539062.144531 4.050781 3.472656 7.234375 7.492188 7.234375.089843 0 .179687 0 .269531-.003906 4.140625-.148438 7.375-3.621094 7.230469-7.761719-2.359376-66.421875-30.019532-128.496094-77.886719-174.789062zm0 0"/><path d="m191.527344 23.445312c.644531 0 1.296875-.082031 1.949218-.257812 6.773438-1.816406 13.71875-3.351562 20.640626-4.5625 4.082031-.714844 6.808593-4.601562 6.097656-8.683594-.714844-4.078125-4.597656-6.800781-8.683594-6.09375-7.355469 1.289063-14.738281 2.921875-21.9375 4.851563-4 1.070312-6.375 5.183593-5.304688 9.183593.898438 3.351563 3.929688 5.5625 7.238282 5.5625zm0 0"/><path d="m256 325.519531c38.332031 0 69.519531-31.183593 69.519531-69.519531s-31.1875-69.519531-69.519531-69.519531-69.519531 31.183593-69.519531 69.519531c0 4.144531 3.359375 7.5 7.5 7.5s7.5-3.355469 7.5-7.5c0-30.0625 24.457031-54.519531 54.519531-54.519531s54.519531 24.457031 54.519531 54.519531-24.457031 54.519531-54.519531 54.519531c-15.152344 0-29.230469-6.066406-39.640625-17.085937-2.84375-3.011719-7.589844-3.144532-10.601563-.300782-3.011718 2.84375-3.144531 7.589844-.300781 10.601563 13.273438 14.046875 31.222657 21.785156 50.542969 21.785156zm0 0"/><path d="m289.230469 256c0-18.324219-14.90625-33.230469-33.230469-33.230469s-33.230469 14.90625-33.230469 33.230469 14.90625 33.230469 33.230469 33.230469 33.230469-14.90625 33.230469-33.230469zm-51.460938 0c0-10.054688 8.175781-18.230469 18.230469-18.230469s18.230469 8.175781 18.230469 18.230469-8.175781 18.230469-18.230469 18.230469-18.230469-8.175781-18.230469-18.230469zm0 0"/><path d="m379.484375 317.589844v68.453125c0 4.144531 3.359375 7.5 7.5 7.5s7.5-3.355469 7.5-7.5c0 0-.179687-131.410157-.5-132.242188-.828125-52.675781-31.304687-98.28125-75.449219-120.8125h67.980469c4.140625 0 7.5-3.359375 7.5-7.5 0-4.144531-3.359375-7.5-7.5-7.5h-130.515625c-53.242188 0-99.535156 30.308594-122.542969 74.574219v-66.605469c0-4.140625-3.359375-7.5-7.5-7.5s-7.5 3.359375-7.5 7.5c0 0-.46875 126.21875-.46875 130.042969 0 53.605469 30.71875 100.167969 75.480469 123.015625h-67.039062c-4.144532 0-7.5 3.355469-7.5 7.5 0 4.140625 3.355468 7.5 7.5 7.5h129.570312c53.980469 0 100.8125-31.15625 123.484375-76.425781zm-246.460937-58.628906c.277343-.78125.433593-1.613282.433593-2.488282v-11.167968c5.4375-62.839844 58.316407-112.316407 122.542969-112.316407 67.828125 0 123.015625 55.183594 123.015625 123.011719 0 67.832031-55.1875 123.015625-123.015625 123.015625-66.839844 0-121.398438-53.585937-122.976562-120.054687zm0 0"/><path d="m353.519531 248.5c-4.140625 0-7.5 3.355469-7.5 7.5 0 49.636719-40.382812 90.019531-90.019531 90.019531s-90.019531-40.382812-90.019531-90.019531 40.382812-90.019531 90.019531-90.019531c17.996094 0 35.363281 5.292969 50.226562 15.304687 3.433594 2.3125 8.097657 1.402344 10.410157-2.03125 2.3125-3.4375 1.40625-8.097656-2.03125-10.410156-17.34375-11.6875-37.613281-17.863281-58.605469-17.863281-57.910156 0-105.019531 47.113281-105.019531 105.019531 0 57.910156 47.109375 105.019531 105.019531 105.019531 57.90625 0 105.019531-47.109375 105.019531-105.019531 0-4.144531-3.359375-7.5-7.5-7.5zm0 0"/><path d="m327.449219 201.230469c1.476562 1.925781 3.703125 2.933593 5.953125 2.933593 1.59375 0 3.199218-.503906 4.5625-1.550781 3.285156-2.523437 3.902344-7.230469 1.378906-10.515625-2.253906-2.9375-4.695312-5.789062-7.25-8.480468-2.855469-3-7.605469-3.117188-10.605469-.261719s-3.121093 7.601562-.265625 10.601562c2.199219 2.308594 4.292969 4.757813 6.226563 7.273438zm0 0"/><path d="m334.144531 96.953125c4.140625 0 7.5-3.355469 7.5-7.5 0-4.140625-3.359375-7.5-7.5-7.5h-98.851562c-4.140625 0-7.5 3.359375-7.5 7.5 0 4.144531 3.359375 7.5 7.5 7.5zm0 0"/><path d="m284.203125 422.546875c0-4.144531-3.355469-7.5-7.5-7.5h-98.847656c-4.140625 0-7.5 3.355469-7.5 7.5 0 4.140625 3.359375 7.5 7.5 7.5h98.847656c4.144531 0 7.5-3.359375 7.5-7.5zm0 0"/><path d="m422.546875 227.792969c-4.144531 0-7.5 3.359375-7.5 7.5v98.851562c0 4.144531 3.355469 7.5 7.5 7.5 4.140625 0 7.5-3.355469 7.5-7.5v-98.851562c0-4.140625-3.359375-7.5-7.5-7.5zm0 0"/><path d="m96.953125 177.855469c0-4.144531-3.355469-7.5-7.5-7.5-4.140625 0-7.5 3.355469-7.5 7.5v98.851562c0 4.140625 3.359375 7.5 7.5 7.5 4.144531 0 7.5-3.359375 7.5-7.5zm0 0"/><path d="m200.820312 96.953125c4.140626 0 7.5-3.355469 7.5-7.5 0-4.140625-3.359374-7.5-7.5-7.5h-.132812c-4.144531 0-7.5 3.359375-7.5 7.5 0 4.144531 3.355469 7.5 7.5 7.5zm0 0"/><path d="m311.179688 415.046875c-4.140626 0-7.5 3.355469-7.5 7.5 0 4.140625 3.359374 7.5 7.5 7.5h.132812c4.140625 0 7.5-3.359375 7.5-7.5 0-4.144531-3.359375-7.5-7.5-7.5zm0 0"/><path d="m89.453125 303.679688c-4.128906 0-7.484375 3.339843-7.5 7.472656v.132812c-.015625 4.144532 3.332031 7.515625 7.472656 7.527344h.027344c4.132813 0 7.484375-3.339844 7.5-7.472656v-.132813c.015625-4.140625-3.328125-7.511719-7.472656-7.527343-.007813 0-.015625 0-.027344 0zm0 0"/><path d="m422.574219 193.1875c-4.136719-.0625-7.511719 3.332031-7.527344 7.472656v.132813c-.015625 4.144531 3.332031 7.511719 7.472656 7.527343h.027344c4.128906 0 7.484375-3.339843 7.5-7.472656v-.132812c.015625-4.144532-3.332031-7.511719-7.472656-7.527344zm0 0"/><path d="m198.566406 271.230469-.132812-.003907c-.019532 0-.039063 0-.054688 0-4.117187 0-7.46875 3.324219-7.5 7.445313-.03125 4.144531 3.304688 7.523437 7.445313 7.554687l.132812.003907h.054688c4.117187 0 7.46875-3.324219 7.5-7.445313.03125-4.140625-3.300781-7.523437-7.445313-7.554687zm0 0"/><path d="m351.042969 238.828125h.132812c4.144531 0 7.5-3.359375 7.5-7.5 0-4.144531-3.355469-7.5-7.5-7.5h-.132812c-4.140625 0-7.5 3.355469-7.5 7.5 0 4.140625 3.359375 7.5 7.5 7.5zm0 0"/></svg>