<svg height="512pt" viewBox="0 -18 512 512" width="512pt" xmlns="http://www.w3.org/2000/svg"><path d="m70.195312 232.917969 168.078126-52.183594 46.253906 148.980469-168.078125 52.183594zm0 0" fill="#a09d9c"/><path d="m257.171875 338.226562-34.3125-110.519531 27.339844-8.488281 34.3125 110.519531zm0 0" fill="#c4e1e8"/><path d="m252.476562 226.488281 9.082032 29.242188-18.855469 35.832031-9.078125-29.242188zm0 0" fill="#f0f5f7"/><path d="m263.390625 261.644531 5.0625 16.300781-18.855469 35.832032-5.0625-16.300782zm0 0" fill="#f0f5f7"/><path d="m116.429688 381.914062-34.3125-110.523437 27.339843-8.488281 34.3125 110.519531zm0 0" fill="#c4e1e8"/><path d="m113.828125 276.933594 9.078125 29.242187-18.851562 35.832031-9.082032-29.253906zm0 0" fill="#f0f5f7"/><path d="m124.742188 312.089844 5.0625 16.300781-18.855469 35.832031-5.0625-16.3125zm0 0" fill="#f0f5f7"/><path d="m144.710938 277.328125 57.300781-17.789063 27.125 87.371094-57.300781 17.789063zm0 0" fill="#fc4830"/><path d="m114.160156 101.589844-70.269531 133.535156c-4.148437 7.882812 3.304687 16.847656 11.8125 14.207031l203.804687-63.269531c8.507813-2.640625 9.574219-14.25 1.691407-18.398438l-133.535157-70.269531c-4.886718-2.570312-10.933593-.691406-13.503906 4.195313zm0 0" fill="#fc4830"/><path d="m259.511719 186.066406-10.824219 3.359375c-.785156-2.132812-2.34375-4.046875-4.710938-5.292969l-133.535156-70.269531c-.738281-.386719-1.507812-.671875-2.28125-.871093l6-11.402344c2.566406-4.890625 8.621094-6.769532 13.503906-4.191406l133.535157 70.269531c7.886719 4.148437 6.820312 15.757812-1.6875 18.398437zm0 0" fill="#e81610"/><path d="m429.464844 217.929688c24.332031 2.117187 44.648437 15.234374 54.890625 33.097656 1.308593 2.289062.957031 5.21875-.910157 7.082031-4.015624 3.996094-9.699218 6.265625-15.785156 5.734375-5.445312-.472656-10.179687-3.105469-13.457031-6.972656-3.890625 3.242187-9.011719 5.019531-14.457031 4.542968-5.445313-.472656-10.183594-3.105468-13.457032-6.972656-3.894531 3.246094-9.011718 5.019532-14.460937 4.546875-5.445313-.476562-10.179687-3.105469-13.457031-6.972656-3.890625 3.242187-9.011719 5.015625-14.457032 4.542969-6.085937-.53125-11.292968-3.746094-14.554687-8.375-1.519531-2.15625-1.359375-5.105469.328125-7.132813 13.171875-15.824219 35.449219-25.238281 59.777344-23.121093zm0 0" fill="#00b579"/><path d="m380.589844 221.34375c-3.703125-4.238281-10.140625-4.667969-14.378906-.96875-28.839844 25.191406-45.304688 59.691406-47.621094 99.765625-.269532 4.648437-.332032 9.113281-.25 13.347656h20.390625c-.09375-4.0625-.03125-8.371093.246093-12.859375 2.171876-34.671875 15.84375-63.238281 40.644532-84.90625 4.238281-3.703125 4.671875-10.140625.96875-14.378906zm0 0" fill="#f4bc8e"/><path d="m419.324219 179.636719c23.441406-6.851563 47.132812-1.996094 63.15625 10.9375 2.050781 1.65625 2.785156 4.515625 1.71875 6.929687-2.289063 5.179688-6.765625 9.355469-12.628907 11.066406-5.246093 1.535157-10.613281.800782-15.066406-1.617187-2.453125 4.4375-6.582031 7.945313-11.828125 9.480469-5.25 1.535156-10.617187.796875-15.070312-1.617188-2.453125 4.433594-6.578125 7.945313-11.828125 9.476563-5.246094 1.535156-10.613282.800781-15.070313-1.617188-2.449219 4.433594-6.578125 7.945313-11.824219 9.480469-5.863281 1.710938-11.882812.605469-16.601562-2.527344-2.199219-1.460937-3.121094-4.265625-2.285156-6.765625 6.539062-19.527343 23.886718-36.378906 47.328125-43.226562zm0 0" fill="#009765"/><path d="m362.476562 171.789062c11.558594-21.515624 31.636719-34.992187 52.09375-37.34375 2.621094-.300781 5.175782 1.183594 6.148438 3.632813 2.085938 5.269531 1.921875 11.386719-.96875 16.765625-2.589844 4.816406-6.875 8.128906-11.722656 9.605469 1.441406 4.859375 1.046875 10.261719-1.539063 15.078125-2.589843 4.820312-6.875 8.128906-11.722656 9.609375 1.441406 4.855469 1.046875 10.261719-1.539063 15.078125-2.589843 4.816406-6.875 8.125-11.722656 9.605468 1.441406 4.859376 1.046875 10.261719-1.539062 15.078126-2.890625 5.382812-7.902344 8.894531-13.445313 10.0625-2.582031.542968-5.226562-.769532-6.421875-3.121094-9.332031-18.355469-9.175781-42.535156 2.378906-64.050782zm0 0" fill="#00b579"/><path d="m365.238281 232.324219c0 8.574219-6.949219 15.527343-15.523437 15.527343-8.574219 0-15.527344-6.953124-15.527344-15.527343s6.953125-15.523438 15.527344-15.523438c8.574218 0 15.523437 6.949219 15.523437 15.523438zm0 0" fill="#f8e98e"/><path d="m382.046875 250.988281c0 8.574219-6.953125 15.523438-15.527344 15.523438s-15.523437-6.949219-15.523437-15.523438 6.949218-15.527343 15.523437-15.527343 15.527344 6.953124 15.527344 15.527343zm0 0" fill="#fab03c"/><path d="m504.5 318.457031v137.019531c0 11.039063-8.949219 20-20 20h-457c-11.050781 0-20-8.960937-20-20v-137.019531zm0 0" fill="#00b579"/><path d="m7.5 318.457031h497v32.550781h-497zm0 0" fill="#00fbaa"/><path d="m504.5 398.964844v56.511718c0 11.039063-8.949219 20-20 20h-457c-11.050781 0-20-8.960937-20-20v-56.511718zm0 0" fill="#009765"/><path d="m79.621094 167.222656c1.113281.585938 2.308594.863282 3.488281.863282 2.695313 0 5.300781-1.457032 6.644531-4.007813l31.042969-58.996094c.640625-1.222656 2.152344-1.691406 3.375-1.050781l50.988281 26.832031-23.589844 23.589844c-2.929687 2.933594-2.929687 7.679687 0 10.609375 1.464844 1.464844 3.382813 2.195312 5.300782 2.195312 1.921875 0 3.839844-.730468 5.304687-2.195312l26.886719-26.886719 13.988281 7.363281c3.667969 1.929688 8.203125.519532 10.132813-3.144531 1.925781-3.664062.519531-8.199219-3.148438-10.128906l-9.871094-5.195313 92.070313-92.066406c2.929687-2.933594 2.929687-7.679687 0-10.609375-2.929687-2.925781-7.675781-2.925781-10.605469 0l-95.363281 95.363281-55.109375-29c-8.539062-4.492187-19.140625-1.203124-23.632812 7.339844l-31.046876 58.996094c-1.929687 3.664062-.519531 8.199219 3.144532 10.128906zm0 0"/><path d="m368 325.957031c4.144531 0 7.5-3.359375 7.5-7.5 0-4.144531-3.355469-7.5-7.5-7.5h-20.523438c1.902344-13.84375 5.910157-26.609375 11.957032-38.089843 2.285156.742187 4.683594 1.144531 7.121094 1.144531 3.027343 0 6.109374-.601563 9.0625-1.871094 4.015624-1.730469 7.363281-4.507813 9.792968-8.011719 4.242188.042969 8.378906-.890625 12.144532-2.71875 3.964843 2.863282 8.640624 4.617188 13.625 5.050782 4.988281.4375 9.894531-.484376 14.292968-2.621094 3.964844 2.863281 8.636719 4.617187 13.625 5.050781 4.988282.4375 9.890625-.484375 14.289063-2.621094 3.964843 2.863281 8.640625 4.617188 13.625 5.050781.800781.066407 1.597656.101563 2.390625.101563 7.226562 0 14.164062-2.84375 19.335937-7.996094 4.261719-4.246093 5.132813-10.875 2.125-16.125-7.472656-13.035156-19.183593-23.308593-33.3125-29.71875.550781-.503906 1.089844-1.023437 1.597657-1.570312 4.730468 1.226562 9.722656 1.167969 14.527343-.238281 7.773438-2.269532 14.109375-7.824219 17.382813-15.234376 2.433594-5.5.839844-11.996093-3.867188-15.796874-18.65625-15.058594-44.8125-19.652344-69.96875-12.304688-.332031.097656-.65625.210938-.988281.308594.125-1.269532.160156-2.546875.101563-3.828125 4.199218-2.511719 7.652343-6.109375 10.023437-10.523438 3.832031-7.132812 4.316406-15.542969 1.332031-23.074219-2.214844-5.589843-7.953125-9.019531-13.976562-8.324218-23.8125 2.738281-45.4375 18.15625-57.84375 41.246094-6.929688 12.902343-10.34375 27.355468-9.882813 41.382812-1.824219.304688-3.628906.800781-5.371093 1.550781-5.648438 2.429688-10.015626 6.917969-12.292969 12.628907-2.277344 5.714843-2.191407 11.972656.238281 17.621093 1.085938 2.523438 2.589844 4.765625 4.398438 6.683594-11.511719 18.695313-18.613282 39.785156-21.128907 62.851563h-25.277343l-35.519532-114.410157 10.695313-3.320312c6.785156-2.105469 11.589843-8.039063 12.238281-15.113281.648438-7.070313-2.992188-13.777344-9.277344-17.085938l-25.769531-13.5625c-3.667969-1.929688-8.203125-.523438-10.132813 3.144531-1.929687 3.664063-.519531 8.199219 3.144532 10.128907l25.773437 13.5625c1.285157.679687 1.382813 1.820312 1.324219 2.441406-.054688.621094-.359375 1.730468-1.746094 2.160156l-203.804687 63.261719c-1.386719.433593-2.261719-.308594-2.660157-.789063-.398437-.480468-.96875-1.476562-.292968-2.761718l24.058594-45.71875c1.929687-3.667969.519531-8.203126-3.144532-10.128907-3.667968-1.933593-8.199218-.523437-10.128906 3.144531l-24.058594 45.71875c-3.308594 6.285157-2.511718 13.875 2.03125 19.339844 3.390625 4.074219 8.324219 6.316406 13.429688 6.3125 1.734375 0 3.492187-.257812 5.214844-.792968l10.691406-3.316407 17.941406 57.78125h-18.359375c.824219-2.5625 1.261719-5.265625 1.261719-8.023437 0-14.511719-11.808594-26.316406-26.316406-26.316406-8.289063 0-15.921876 3.792968-20.953126 10.40625-2.507812 3.296874-1.867187 8 1.429688 10.507812s8.003906 1.867188 10.511719-1.429688c2.164062-2.847656 5.453125-4.484374 9.011719-4.484374 6.238281 0 11.316406 5.074218 11.316406 11.316406 0 3.046875-1.246094 5.917968-3.378906 8.023437h-43.585938c-4.140625 0-7.5 3.355469-7.5 7.5 0 4.140625 3.359375 7.5 7.5 7.5zm-205.003906-15-8.898438-28.671875 42.976563-13.339844 13.042969 42.011719zm170.84375-29.988281 5.242187 1.105469c-.957031 2.691406-1.832031 5.429687-2.617187 8.21875l-5.390625-.503907c.824219-2.988281 1.75-5.929687 2.765625-8.820312zm11.527344-20.882812c.554687 1.285156 1.222656 2.480468 1.96875 3.609374-.785157 1.417969-1.535157 2.859376-2.265626 4.3125l-5.351562-1.128906c1.496094-3.054687 3.109375-6.042968 4.839844-8.96875.230468.730469.5 1.457032.808594 2.175782zm28.609374-6.128907c-.792968 1.992188-2.316406 3.554688-4.285156 4.402344-4.0625 1.746094-8.792968-.136719-10.542968-4.199219-1.746094-4.066406.136718-8.796875 4.203124-10.546875 1.03125-.441406 2.101563-.652343 3.160157-.652343 3.109375 0 6.078125 1.820312 7.382812 4.855468.84375 1.96875.875 4.148438.082031 6.140625zm103.21875-.300781c-2.488281 2.015625-5.648437 2.996094-8.882812 2.71875-3.273438-.285156-6.25-1.828125-8.386719-4.351562-2.660156-3.140626-7.355469-3.550782-10.523437-.914063-2.535156 2.113281-5.726563 3.117187-9.007813 2.835937-3.269531-.285156-6.25-1.828124-8.382812-4.347656-2.664063-3.144531-7.359375-3.550781-10.523438-.917968-2.535156 2.113281-5.734375 3.121093-9.007812 2.835937-3.273438-.285156-6.25-1.828125-8.382813-4.347656-2.664062-3.144531-7.363281-3.554688-10.527344-.914063-1.246093 1.035156-2.652343 1.804688-4.148437 2.285156-.246094-2.261718-.824219-4.5-1.75-6.652343-.21875-.511719-.476563-1-.730469-1.488281 2.039063-.125 4.066406-.464844 6.042969-1.042969 4.804687-1.40625 9.042969-4.039063 12.371094-7.628907 4.730469 1.234376 9.722656 1.171876 14.527343-.234374 3.992188-1.167969 7.585938-3.191407 10.597657-5.898438 19.757812 2.203125 37.429687 12.796875 46.714843 28.0625zm-55.765624-66.820312c19.679687-5.753907 40.746093-2.382813 55.332031 8.78125-1.589844 2.78125-4.1875 4.851562-7.292969 5.757812-3.152344.921875-6.488281.5625-9.390625-1.011719-3.621094-1.964843-8.148437-.640625-10.140625 2.960938-1.597656 2.890625-4.214844 4.988281-7.367188 5.910156-3.152343.921875-6.484374.5625-9.390624-1.011719-3.617188-1.960937-8.144532-.640625-10.140626 2.964844-1.597656 2.886719-4.210937 4.988281-7.363281 5.90625-3.15625.925781-6.488281.5625-9.394531-1.011719-3.617188-1.960937-8.144531-.640625-10.136719 2.964844-1.503906 2.722656-3.921875 4.730469-6.832031 5.722656.421875-2.132812.597656-4.304687.496094-6.488281 4.199218-2.507812 7.65625-6.109375 10.023437-10.519531 2.101563-3.914063 3.195313-8.191407 3.261719-12.519531 5.59375-3.648438 11.746094-6.484376 18.335938-8.40625zm-52.34375-11.496094c9.703124-18.066406 26.882812-30.714844 45.070312-33.28125.867188 3.082031.519531 6.382812-1.015625 9.234375-1.554687 2.894531-4.148437 5.019531-7.304687 5.984375-3.9375 1.203125-6.171876 5.355468-5 9.308594.9375 3.160156.601562 6.496093-.957032 9.394531-1.554687 2.894531-4.148437 5.015625-7.304687 5.980469-3.9375 1.203124-6.171875 5.359374-5 9.308593.9375 3.164063.601562 6.5-.957031 9.394531-1.554688 2.894532-4.148438 5.019532-7.304688 5.980469-3.941406 1.203125-6.171875 5.359375-5 9.308594.9375 3.164063.597656 6.5-.957031 9.394531-.347657.652344-.761719 1.25-1.210938 1.816406-.308593-1.34375-.734375-2.664062-1.28125-3.9375-1.996093-4.640624-5.394531-8.390624-9.703125-10.855468-1.082031-12.378906 1.695313-25.4375 7.925782-37.03125zm-26.828126 54.015625c.792969-1.992188 2.316407-3.554688 4.285157-4.402344s4.148437-.878906 6.140625-.082031c1.992187.792968 3.554687 2.3125 4.402344 4.28125.101562.238281.179687.480468.257812.71875-4.765625 2.070312-8.476562 5.574218-10.855469 9.789062-1.8125-.800781-3.324219-2.253906-4.144531-4.164062-.851562-1.96875-.878906-4.152344-.085938-6.140625zm-14.410156 75.199219 5.351563.5c-.324219 1.949218-.601563 3.914062-.847657 5.902343h-5.410156c.261719-2.15625.558594-4.289062.90625-6.402343zm-71.273437 6.402343-24.3125-78.316406 13.019531-4.042969 25.566406 82.359375zm-19.863281-109.964843 4.121093 13.28125-20.179687 6.261718c-3.957032 1.230469-6.167969 5.433594-4.9375 9.390625l25.152344 81.03125h-15.046876l-16.644531-53.621093c-1.226562-3.957032-5.429687-6.167969-9.386719-4.941407l-57.300781 17.789063c-1.898437.589844-3.488281 1.910156-4.414062 3.671875-.925781 1.757812-1.117188 3.816406-.527344 5.714843l9.746094 31.386719h-15.046875l-15.609375-50.277343c-.585938-1.898438-1.910157-3.484376-3.667969-4.410157-1.761719-.929687-3.820312-1.117187-5.714844-.527343l-20.183594 6.265624-4.121093-13.277343zm-145.191407 75.339843 13.015625-4.042969 12.003906 38.667969h-14.269531zm0 0"/><path d="m504.5 310.957031h-27.257812c.820312-2.5625 1.257812-5.265625 1.257812-8.023437 0-14.511719-11.804688-26.316406-26.316406-26.316406-8.285156 0-15.921875 3.792968-20.949219 10.402343-2.507813 3.296875-1.871094 8.003907 1.425781 10.511719 3.300782 2.511719 8.003906 1.867188 10.511719-1.429688 2.167969-2.847656 5.453125-4.484374 9.015625-4.484374 6.238281 0 11.3125 5.074218 11.3125 11.316406 0 3.042968-1.242188 5.914062-3.375 8.023437h-55.125c-4.144531 0-7.5 3.355469-7.5 7.5 0 4.140625 3.355469 7.5 7.5 7.5h99.5c4.144531 0 7.5-3.359375 7.5-7.5 0-4.144531-3.355469-7.5-7.5-7.5zm0 0"/><path d="m440.664062 406.84375c-15.589843 0-28.277343 12.683594-28.277343 28.273438 0 4.144531 3.359375 7.5 7.5 7.5 4.144531 0 7.5-3.355469 7.5-7.5 0-7.320313 5.957031-13.273438 13.277343-13.273438 7.324219 0 13.28125 5.953125 13.28125 13.273438 0 7.324218-5.957031 13.28125-13.28125 13.28125h-87.238281c-4.144531 0-7.5 3.355468-7.5 7.5 0 4.140624 3.355469 7.5 7.5 7.5h87.238281c15.59375 0 28.28125-12.6875 28.28125-28.28125 0-15.589844-12.6875-28.273438-28.28125-28.273438zm0 0"/><path d="m152.039062 349.910156c-15.59375 0-28.277343 12.6875-28.277343 28.277344 0 4.140625 3.355469 7.5 7.5 7.5 4.140625 0 7.5-3.359375 7.5-7.5 0-7.320312 5.957031-13.277344 13.277343-13.277344 7.320313 0 13.277344 5.957032 13.277344 13.277344s-5.957031 13.277344-13.277344 13.277344h-106.976562c-4.140625 0-7.5 3.355468-7.5 7.5 0 4.144531 3.359375 7.5 7.5 7.5h106.976562c15.59375 0 28.277344-12.6875 28.277344-28.277344 0-15.59375-12.683594-28.277344-28.277344-28.277344zm0 0"/><path d="m418.378906 378.1875c0-15.59375-12.683594-28.277344-28.277344-28.277344-15.589843 0-28.277343 12.6875-28.277343 28.277344 0 4.140625 3.355469 7.5 7.5 7.5s7.5-3.359375 7.5-7.5c0-7.320312 5.957031-13.277344 13.277343-13.277344 7.320313 0 13.277344 5.957032 13.277344 13.277344s-5.957031 13.277344-13.277344 13.277344h-192.589843c-4.144531 0-7.5 3.355468-7.5 7.5 0 4.144531 3.355469 7.5 7.5 7.5h192.589843c15.59375 0 28.277344-12.683594 28.277344-28.277344zm0 0"/><path d="m325.261719 448.398438h-47.261719c-4.144531 0-7.5 3.355468-7.5 7.5 0 4.140624 3.355469 7.5 7.5 7.5h47.261719c4.144531 0 7.5-3.359376 7.5-7.5 0-4.144532-3.355469-7.5-7.5-7.5zm0 0"/><path d="m150.6875 428.984375h-.105469c-4.140625 0-7.5 3.355469-7.5 7.5 0 4.140625 3.359375 7.5 7.5 7.5h.105469c4.140625 0 7.5-3.359375 7.5-7.5 0-4.144531-3.359375-7.5-7.5-7.5zm0 0"/><path d="m171.347656 439.777344h-.105468c-4.140626 0-7.5 3.355468-7.5 7.5 0 4.144531 3.359374 7.5 7.5 7.5h.105468c4.140625 0 7.5-3.355469 7.5-7.5 0-4.144532-3.359375-7.5-7.5-7.5zm0 0"/><path d="m454.152344 371.722656c4.144531 0 7.5-3.359375 7.5-7.5 0-4.144531-3.355469-7.5-7.5-7.5h-.101563c-4.144531 0-7.5 3.355469-7.5 7.5 0 4.140625 3.355469 7.5 7.5 7.5zm0 0"/><path d="m55.90625 360.839844c4.140625 0 7.5-3.359375 7.5-7.5 0-4.144532-3.359375-7.5-7.5-7.5h-.105469c-4.140625 0-7.5 3.355468-7.5 7.5 0 4.140625 3.359375 7.5 7.5 7.5zm0 0"/><path d="m306.253906 122.898438c1.917969 0 3.839844-.730469 5.304688-2.195313l107.898437-107.898437c2.929688-2.933594 2.929688-7.679688 0-10.609376-2.929687-2.925781-7.679687-2.925781-10.605469 0l-107.902343 107.898438c-2.929688 2.929688-2.929688 7.679688 0 10.609375 1.464843 1.464844 3.386719 2.195313 5.304687 2.195313zm0 0"/><path d="m376.996094 90.941406c-2.925782-2.929687-7.675782-2.929687-10.605469 0l-76.542969 76.542969c-2.929687 2.929687-2.929687 7.675781 0 10.605469 1.464844 1.464844 3.382813 2.195312 5.300782 2.195312 1.921874 0 3.839843-.730468 5.304687-2.195312l76.546875-76.542969c2.925781-2.929687 2.925781-7.675781-.003906-10.605469zm0 0"/><path d="m45.0625 152.285156c1.921875 0 3.839844-.734375 5.304688-2.195312l26.605468-26.605469c2.929688-2.929687 2.929688-7.679687 0-10.609375-2.929687-2.925781-7.679687-2.925781-10.605468 0l-26.605469 26.605469c-2.929688 2.929687-2.929688 7.679687 0 10.609375 1.464843 1.460937 3.382812 2.195312 5.300781 2.195312zm0 0"/><path d="m186.390625 93.296875c1.921875 0 3.839844-.734375 5.304687-2.199219l14.296876-14.296875c2.929687-2.929687 2.929687-7.679687 0-10.605469-2.929688-2.929687-7.675782-2.929687-10.605469 0l-14.296875 14.296876c-2.929688 2.929687-2.929688 7.679687 0 10.605468 1.464844 1.464844 3.382812 2.199219 5.300781 2.199219zm0 0"/><path d="m419.519531 113.558594c1.464844 1.460937 3.382813 2.195312 5.300781 2.195312 1.921876 0 3.839844-.734375 5.304688-2.195312l54.355469-54.355469c2.929687-2.929687 2.929687-7.679687 0-10.605469-2.929688-2.929687-7.679688-2.929687-10.609375 0l-54.351563 54.351563c-2.929687 2.929687-2.929687 7.679687 0 10.609375zm0 0"/><path d="m330.378906 61.398438c1.917969 0 3.839844-.730469 5.304688-2.195313l13.011718-13.011719c2.925782-2.929687 2.925782-7.679687 0-10.605468-2.929687-2.929688-7.679687-2.929688-10.609374 0l-13.011719 13.011718c-2.929688 2.929688-2.929688 7.675782 0 10.605469 1.464843 1.464844 3.386719 2.195313 5.304687 2.195313zm0 0"/><path d="m55.457031 49.179688c1.917969 0 3.839844-.734376 5.304688-2.199219l13.011719-13.011719c2.925781-2.929688 2.925781-7.675781 0-10.605469-2.929688-2.929687-7.679688-2.929687-10.609376 0l-13.011718 13.011719c-2.925782 2.929688-2.925782 7.679688 0 10.605469 1.464844 1.464843 3.386718 2.199219 5.304687 2.199219zm0 0"/><path d="m312.121094 77.816406h.105468c4.144532 0 7.5-3.355468 7.5-7.5 0-4.140625-3.355468-7.5-7.5-7.5h-.105468c-4.140625 0-7.5 3.359375-7.5 7.5 0 4.144532 3.359375 7.5 7.5 7.5zm0 0"/><path d="m218.046875 61.398438h.105469c4.140625 0 7.5-3.355469 7.5-7.5 0-4.140626-3.359375-7.5-7.5-7.5h-.105469c-4.140625 0-7.5 3.359374-7.5 7.5 0 4.144531 3.359375 7.5 7.5 7.5zm0 0"/><path d="m314.308594 179.242188c-4.144532 0-7.5 3.359374-7.5 7.5 0 4.144531 3.355468 7.5 7.5 7.5h.101562c4.144532 0 7.5-3.355469 7.5-7.5 0-4.140626-3.355468-7.5-7.5-7.5zm0 0"/><path d="m82.082031 61.398438h.101563c4.144531 0 7.5-3.355469 7.5-7.5 0-4.140626-3.355469-7.5-7.5-7.5h-.101563c-4.144531 0-7.5 3.359374-7.5 7.5 0 4.144531 3.355469 7.5 7.5 7.5zm0 0"/></svg>