<svg height="511pt" viewBox="-22 1 511 511.999" width="511pt" xmlns="http://www.w3.org/2000/svg"><path d="m266.085938 504.5h-63.722657l14.160157-125.808594h35.402343zm0 0" fill="#ea998c"/><path d="m266.085938 504.496094h-19.78125l-14.15625-125.808594h19.773437zm0 0" fill="#cf8671"/><path d="m456.976562 248.214844-112.753906 75.789062 36.339844 24.421875c2.785156 1.875 2.128906 6.164063-1.101562 7.109375l-7.300782 2.140625c-7.136718 2.09375-10.441406 10.3125-6.746094 16.769531l15.183594 26.480469c2.023438 3.515625-1.902344 7.4375-5.414062 5.425781l-26.484375-15.183593c-6.453125-3.703125-14.675781-.402344-16.769531 6.746093l-2.148438 7.292969c-.945312 3.230469-5.222656 3.894531-7.097656 1.101563l-21.960938-32.65625c-8.664062-12.898438-27.328125-13.746094-37.132812-1.691406l-22.304688 27.421874c-3.640625 4.476563-10.484375 4.476563-14.128906 0l-22.300781-27.421874c-9.804688-12.054688-28.46875-11.207032-37.132813 1.691406l-21.960937 32.65625c-1.875 2.792968-6.152344 2.128906-7.101563-1.101563l-2.144531-7.292969c-2.097656-7.144531-10.316406-10.449218-16.769531-6.746093l-26.484375 15.183593c-3.511719 2.011719-7.4375-1.910156-5.414063-5.425781l15.183594-26.480469c3.695312-6.453124.390625-14.675781-6.746094-16.769531l-7.300781-2.140625c-3.234375-.945312-3.886719-5.230468-1.101563-7.109375l6.78125-4.558593 29.558594-19.863282-112.75-75.789062c-5.519531-3.703125-4.207031-12.160156 2.167969-14.027344l14.410156-4.234375c14.089844-4.132813 20.609375-20.355469 13.308594-33.089844l-29.96875-52.261719c-3.980469-6.9375 3.757813-14.6875 10.695313-10.707031l52.265624 29.96875c12.742188 7.308594 28.964844.78125 33.097657-13.308593l4.226562-14.410157c1.875-6.375 10.332031-7.675781 14.035157-2.160156l52.273437 77.773437-24.535156-125.140624c-1.285157-6.515626 5.617187-11.578126 11.453125-8.390626l13.171875 7.199219c12.890625 7.039063 28.976562.183594 32.820312-13.992187l15.765625-58.144532c2.09375-7.71875 13.035156-7.71875 15.128906 0l15.769532 58.144532c3.839844 14.175781 19.925781 21.03125 32.816406 13.992187l13.171875-7.199219c5.835937-3.1875 12.738281 1.875 11.453125 8.390626l-24.535156 125.140624 52.273437-77.773437c3.703125-5.515625 12.160157-4.214844 14.039063 2.160156l4.222656 14.410157c4.132812 14.089843 20.355469 20.621093 33.101562 13.308593l25.234376-14.464843 27.027343-15.503907c6.9375-3.980469 14.675781 3.769531 10.695313 10.707031l-29.96875 52.261719c-7.300782 12.734375-.78125 28.957031 13.308594 33.089844l14.414062 4.234375c6.371094 1.867188 7.683594 10.324219 2.164062 14.027344zm0 0" fill="#fab03c"/><path d="m456.976562 248.214844-112.753906 75.789062 36.339844 24.421875c2.785156 1.875 2.128906 6.164063-1.101562 7.109375l-7.300782 2.140625c-7.136718 2.09375-10.441406 10.3125-6.746094 16.769531l15.183594 26.480469c2.023438 3.515625-1.902344 7.4375-5.414062 5.425781l-26.484375-15.183593c-6.453125-3.703125-14.675781-.402344-16.769531 6.746093l-2.148438 7.292969c-.945312 3.230469-5.222656 3.894531-7.097656 1.101563l-21.960938-32.65625c-8.664062-12.898438-27.328125-13.746094-37.132812-1.691406l-22.304688 27.421874c-3.640625 4.476563-10.484375 4.476563-14.128906 0l-22.300781-27.421874c-9.804688-12.054688-28.46875-11.207032-37.132813 1.691406l-21.960937 32.65625c-1.875 2.792968-6.152344 2.128906-7.101563-1.101563l-2.144531-7.292969c-2.097656-7.144531-10.316406-10.449218-16.769531-6.746093l-26.484375 15.183593c-3.511719 2.011719-7.4375-1.910156-5.414063-5.425781l15.183594-26.480469c3.695312-6.453124.390625-14.675781-6.746094-16.769531l-7.300781-2.140625c-3.234375-.945312-3.886719-5.230468-1.101563-7.109375l6.78125-4.558593c246.992188 10.8125 310.050782-111.726563 324.671876-194.46875l27.027343-15.503907c6.9375-3.980469 14.675781 3.769531 10.695313 10.707031l-29.96875 52.261719c-7.300782 12.734375-.78125 28.957031 13.308594 33.089844l14.414062 4.234375c6.371094 1.867188 7.683594 10.324219 2.164062 14.027344zm0 0" fill="#fd8f3e"/><path d="m384.523438 287.878906-44.484376 29.898438c-2.074218 1.394531-3.316406 3.726562-3.316406 6.226562 0 2.496094 1.242188 4.832032 3.316406 6.222656l30.097657 20.230469-.085938.023438c-5.621093 1.648437-10.097656 5.714843-12.28125 11.148437-2.1875 5.433594-1.769531 11.464844 1.144531 16.546875l8.710938 15.195313-15.195312-8.710938c-5.082032-2.917968-11.113282-3.332031-16.546876-1.148437-5.433593 2.1875-9.496093 6.664062-11.148437 12.285156l-.023437.085937-17.753907-26.417968c-5.472656-8.140625-14.226562-13.0625-24.023437-13.511719-9.808594-.441406-18.964844 3.660156-25.15625 11.269531l-22.304688 27.425782c-.398437.488281-.898437.59375-1.246094.59375-.347656 0-.847656-.105469-1.242187-.59375l-22.308594-27.425782c-6.1875-7.605468-15.34375-11.707031-25.15625-11.269531-9.796875.449219-18.550781 5.371094-24.023437 13.511719l-17.753906 26.417968-.023438-.085937c-1.648438-5.621094-5.714844-10.097656-11.148438-12.285156-5.433593-2.183594-11.464843-1.765625-16.546874 1.148437l-15.195313 8.710938 8.710937-15.195313c2.914063-5.082031 3.332032-11.113281 1.148438-16.546875-2.1875-5.4375-6.664062-9.5-12.285156-11.148437l-.085938-.023438 30.097656-20.230469c2.070313-1.390624 3.316407-3.726562 3.316407-6.222656 0-2.5-1.246094-4.832031-3.316407-6.226562l-50.46875-33.921875c-3.4375-2.308594-8.097656-1.394531-10.40625 2.042969-2.3125 3.4375-1.398437 8.097656 2.039063 10.40625l41.207031 27.699218-27.078125 18.195313c-3.730469 2.507812-5.625 6.828125-4.9375 11.273437.683594 4.441406 3.792969 7.992188 8.109375 9.257813l7.296875 2.140625c1.625.480468 2.320313 1.679687 2.589844 2.355468.273437.671876.601563 2.019532-.242187 3.488282l-15.179688 26.480468c-2.613281 4.550782-1.875 10.105469 1.835938 13.816407 3.714843 3.714843 9.265624 4.457031 13.820312 1.84375l26.480469-15.183594c1.46875-.84375 2.816406-.515625 3.492187-.242187.671875.269531 1.875.96875 2.351563 2.589843l2.140625 7.300781c1.265625 4.3125 4.8125 7.421876 9.257812 8.105469 4.441406.679688 8.761719-1.203125 11.273438-4.9375l21.949218-32.65625c2.792969-4.152343 7.257813-6.664062 12.257813-6.894531 5-.222656 9.675781 1.867188 12.832031 5.75l8.964844 11.023438c-.054688.25-.097656.503906-.125.765624l-12.964844 115.183594c-.242187 2.121094.4375 4.246094 1.859375 5.835938 1.421875 1.59375 3.457031 2.503906 5.59375 2.503906h63.722657c2.136718 0 4.167968-.910156 5.59375-2.503906 1.421874-1.589844 2.097656-3.714844 1.859374-5.835938l-13.054687-115.996094 8.925781-10.976562c3.160156-3.882812 7.832032-5.976562 12.835938-5.75 5 .230469 9.46875 2.742188 12.257812 6.894531l21.953125 32.65625c2.167969 3.226563 5.6875 5.078125 9.472657 5.078125.59375 0 1.195312-.046875 1.800781-.140625 4.441406-.6875 7.988281-3.792969 9.253906-8.105469l2.140625-7.300781c.480469-1.621093 1.679688-2.320312 2.355469-2.589843.671875-.273438 2.019531-.601563 3.488281.242187l26.480469 15.183594c4.554687 2.609375 10.109375 1.867187 13.820312-1.84375 3.710938-3.710938 4.449219-9.265625 1.839844-13.816407l-15.183594-26.480468c-.84375-1.46875-.515625-2.816406-.242187-3.488282.269531-.675781.96875-1.875 2.589844-2.355468l7.300781-2.140625c4.316406-1.265625 7.421875-4.8125 8.105469-9.257813.6875-4.445312-1.207032-8.765625-4.9375-11.273437l-27.078126-18.199219 35.226563-23.675781c3.4375-2.308594 4.351563-6.96875 2.042969-10.40625-2.3125-3.4375-6.972656-4.351563-10.410156-2.039063zm-126.828126 209.121094h-46.941406l10.472656-93.03125.117188.144531c3.167969 3.898438 7.863281 6.128907 12.882812 6.128907 5.015626 0 9.710938-2.234376 12.878907-6.128907l.117187-.144531zm0 0"/><path d="m50.324219 265.292969-34.667969-23.300781c-.113281-.078126-.179688-.121094-.144531-.335938.03125-.214844.109375-.234375.238281-.273438l14.40625-4.230468c8.9375-2.621094 16.050781-9.078125 19.527344-17.71875 3.472656-8.636719 2.808594-18.226563-1.824219-26.300782l-29.964844-52.265624c-.066406-.113282-.085937-.1875-.089843-.1875.023437-.125.242187-.34375.347656-.367188.019531.003906.089844.023438.207031.089844l52.265625 29.96875c8.078125 4.632812 17.664062 5.296875 26.300781 1.820312 8.640625-3.476562 15.097657-10.59375 17.71875-19.527344l4.230469-14.40625c.035156-.128906.058594-.207031.273438-.238281.214843-.035156.261718.035157.335937.144531l52.277344 77.777344c1.992187 2.964844 5.796875 4.113282 9.09375 2.746094s5.175781-4.867188 4.492187-8.371094l-10.777344-54.964844c-.796874-4.066406-4.742187-6.710937-8.804687-5.917968-4.066406.796875-6.714844 4.738281-5.917969 8.804687l3.625 18.484375-31.539062-46.925781c-3.355469-4.988281-9.128906-7.519531-15.074219-6.605469-5.941406.917969-10.683594 5.074219-12.378906 10.84375l-4.226563 14.40625c-1.320312 4.5-4.574218 8.082032-8.921875 9.832032-4.351562 1.75-9.179687 1.414062-13.246093-.917969l-52.265626-29.964844c-6.089843-3.488281-13.515624-2.5-18.476562 2.460937-4.964844 4.964844-5.953125 12.390626-2.460938 18.476563l29.964844 52.265625c2.332032 4.066406 2.667969 8.894531.917969 13.246094-1.75 4.351562-5.332031 7.601562-9.832031 8.921875l-14.40625 4.230469c-5.773438 1.691406-9.925782 6.4375-10.84375 12.378906-.914063 5.941406 1.613281 11.71875 6.605468 15.070312l34.667969 23.300782c1.28125.863281 2.738281 1.277343 4.175781 1.277343 2.414063 0 4.785157-1.164062 6.230469-3.316406 2.3125-3.441406 1.398438-8.101563-2.039062-10.410156zm0 0"/><path d="m467.765625 239.367188c-.917969-5.941407-5.070313-10.683594-10.839844-12.378907l-14.410156-4.226562c-4.496094-1.320313-8.082031-4.574219-9.832031-8.921875-1.75-4.351563-1.414063-9.179688.917968-13.246094l29.964844-52.265625c3.492188-6.089844 2.503906-13.515625-2.457031-18.476563-4.964844-4.964843-12.390625-5.953124-18.480469-2.464843l-52.261718 29.96875c-4.070313 2.332031-8.894532 2.667969-13.246094.917969-4.351563-1.75-7.601563-5.335938-8.921875-9.832032l-4.230469-14.410156c-1.691406-5.769531-6.4375-9.921875-12.378906-10.839844-5.941406-.914062-11.71875 1.613282-15.070313 6.605469l-31.542969 46.925781 17.382813-88.664062c1.160156-5.898438-1.136719-11.773438-5.988281-15.324219-4.847656-3.554687-11.140625-3.972656-16.417969-1.089844l-13.175781 7.199219c-4.117188 2.246094-8.949219 2.480469-13.261719.640625s-7.492187-5.488281-8.71875-10.011719l-15.765625-58.148437c-1.835938-6.773438-7.789062-11.324219-14.804688-11.324219-7.019531 0-12.972656 4.550781-14.808593 11.324219l-15.765625 58.148437c-1.226563 4.523438-4.40625 8.175782-8.71875 10.011719-4.3125 1.839844-9.148438 1.605469-13.261719-.640625l-13.175781-7.199219c-5.277344-2.882812-11.570313-2.464843-16.421875 1.089844-4.847657 3.550781-7.144531 9.425781-5.988281 15.328125l7.496093 38.21875c.796875 4.066406 4.742188 6.722656 8.804688 5.917969 4.0625-.796875 6.710937-4.738281 5.914062-8.804688l-7.492187-38.21875c-.027344-.136719-.042969-.214843.132812-.339843.171875-.128907.246094-.089844.363282-.027344l13.175781 7.199218c8.171875 4.464844 17.773437 4.929688 26.335937 1.273438 8.566406-3.648438 14.875-10.898438 17.3125-19.882812l15.765625-58.148438c.035157-.128906.074219-.195312.070313-.195312.101562-.074219.414062-.070313.503906-.015626.011719.015626.046875.082032.082031.210938l15.769531 58.148438c2.433594 8.984374 8.746094 16.234374 17.308594 19.886718 8.566406 3.648438 18.167969 3.183594 26.335938-1.277344l13.179687-7.199218c.117188-.0625.1875-.101563.363281.027344.171876.125.15625.203124.132813.339843l-24.535156 125.140625c-.6875 3.503906 1.191406 7.003906 4.488281 8.371094 3.300781 1.367188 7.105469.21875 9.097656-2.746094l52.277344-77.777344c.074219-.109374.117188-.179687.332031-.144531.214844.03125.238281.109375.277344.238281l4.226563 14.40625c2.621093 8.933594 9.082031 16.050782 17.71875 19.523438 8.640624 3.476562 18.226562 2.8125 26.304687-1.820312l52.261719-29.964844c.117187-.066406.191406-.089844.1875-.089844.125.019531.347656.242188.371094.347656-.003907.019532-.023438.089844-.09375.207032l-29.964844 52.265624c-4.632813 8.074219-5.296875 17.664063-1.820313 26.300782 3.472657 8.640625 10.589844 15.097656 19.523438 17.71875l14.40625 4.230468c.128906.039063.210937.0625.242187.273438.035156.214844-.035156.257812-.144531.335938l-40.648437 27.320312c-3.4375 2.308594-4.351563 6.96875-2.039063 10.40625 1.445313 2.152344 3.816406 3.316406 6.230469 3.316406 1.4375 0 2.890625-.414062 4.175781-1.273437l40.648437-27.320313c4.988282-3.355468 7.519532-9.128906 6.601563-15.074218zm0 0"/><path d="m397.816406 233.527344-33.125-.164063 21.175782-20.148437c3-2.855469 3.117187-7.601563.261718-10.601563-2.855468-3.003906-7.601562-3.117187-10.601562-.265625l-22.007813 20.941406-.167969-34.222656c-.019531-4.128906-3.375-7.464844-7.5-7.464844-.011718 0-.023437 0-.035156 0-4.144531.019532-7.484375 3.394532-7.464844 7.539063l.238282 48.355469-96.863282 92.171875v-169l34.492188-34.15625c2.945312-2.914063 2.96875-7.664063.054688-10.605469-2.914063-2.945312-7.664063-2.96875-10.609376-.050781l-23.9375 23.703125v-33.546875c0-4.144531-3.359374-7.5-7.5-7.5-4.144531 0-7.5 3.355469-7.5 7.5v33.546875l-23.941406-23.703125c-2.941406-2.914063-7.691406-2.894531-10.605468.050781-2.914063 2.941406-2.894532 7.691406.050781 10.605469l34.496093 34.15625v169l-96.8125-92.121094.234376-48.40625c.019531-4.144531-3.320313-7.519531-7.460938-7.539063-.011719 0-.027344 0-.039062 0-4.125 0-7.480469 3.335938-7.5 7.464844l-.167969 34.273438-22.054688-20.992188c-3-2.851562-7.75-2.734375-10.605469.265625-2.855468 3-2.738281 7.746094.261719 10.605469l21.179688 20.148438-33.074219.164062c-4.144531.019531-7.484375 3.394531-7.464844 7.535156.023438 4.128906 3.375 7.464844 7.5 7.464844h.039063l48.683593-.242188 109.609376 104.300782c1.449218 1.378906 3.308593 2.066406 5.171874 2.066406 1.859376 0 3.71875-.6875 5.167969-2.066406l109.613281-104.300782 48.734376.238282h.039062c4.125 0 7.476562-3.332032 7.496094-7.460938.023437-4.144531-3.320313-7.515625-7.460938-7.539062zm0 0"/></svg>