<svg height="511pt" viewBox="1 -6 511.999 511" width="511pt" xmlns="http://www.w3.org/2000/svg"><path d="m87.699219 147.261719-26.246094 50.289062h70.394531l-26.242187-50.289062c-3.777344-7.234375-14.132813-7.234375-17.90625 0zm0 0" fill="#e81610"/><path d="m96.652344 308.230469c36.167968 0 65.484375-29.320313 65.484375-65.484375l-114.644531-89.859375c-6.628907-5.195313-16.328126-.472657-16.328126 7.949219v81.90625c-.003906 36.171874 29.316407 65.488281 65.488282 65.488281zm0 0" fill="#fc4830"/><path d="m96.652344 308.230469c-36.171875 0-65.488282-29.320313-65.488282-65.484375l114.644532-89.859375c6.628906-5.195313 16.328125-.472657 16.328125 7.949219v81.90625c0 36.171874-29.320313 65.488281-65.484375 65.488281zm0 0" fill="#ff756e"/><path d="m162.140625 160.839844v80.898437c0 36.097657-28.785156 66.160157-64.882813 66.484375-13.710937.125-26.476562-3.96875-37.054687-11.0625 4.164063.769532 8.480469 1.144532 12.882813 1.082032 35.972656-.484376 64.578124-30.480469 64.578124-66.457032v-72.507812l8.148438-6.386719c6.628906-5.195313 16.328125-.472656 16.328125 7.949219zm0 0" fill="#fc4830"/><path d="m84.894531 469.480469h-18.550781c-32.5 0-58.84375-26.34375-58.84375-58.839844v-65.910156c0-5.578125 4.519531-10.101563 10.097656-10.101563h18.550782c32.5 0 58.84375 26.347656 58.84375 58.84375v65.910156c0 5.578126-4.519532 10.097657-10.097657 10.097657zm0 0" fill="#00fbaa"/><path d="m94.992188 393.476562v65.90625c0 5.574219-4.523438 10.097657-10.097657 10.097657h-10.421875v-68.953125c0-25.066406-20.320312-45.386719-45.386718-45.386719h-21.589844v-10.410156c0-5.574219 4.523437-10.101563 10.097656-10.101563h18.554688c32.496093.003906 58.84375 26.351563 58.84375 58.847656zm0 0" fill="#00df97"/><path d="m252.132812 201.796875-26.242187 50.289063h70.394531l-26.246094-50.289063c-3.773437-7.234375-14.128906-7.234375-17.90625 0zm0 0" fill="#e81610"/><path d="m261.085938 362.765625c36.167968 0 65.488281-29.320313 65.488281-65.488281l-114.648438-89.855469c-6.625-5.195313-16.328125-.472656-16.328125 7.945313v81.910156c0 36.167968 29.320313 65.488281 65.488282 65.488281zm0 0" fill="#fc4830"/><path d="m261.085938 362.765625c-36.167969 0-65.488282-29.320313-65.488282-65.488281l114.648438-89.855469c6.628906-5.195313 16.328125-.472656 16.328125 7.945313v81.910156c0 36.167968-29.320313 65.488281-65.488281 65.488281zm0 0" fill="#ff756e"/><path d="m326.578125 215.371094v80.902344c0 36.097656-28.785156 66.160156-64.882813 66.484374-13.710937.125-26.476562-3.972656-37.054687-11.0625 4.164063.769532 8.480469 1.144532 12.882813 1.082032 35.972656-.484375 64.578124-30.480469 64.578124-66.457032v-72.507812l8.148438-6.390625c6.628906-5.191406 16.328125-.472656 16.328125 7.949219zm0 0" fill="#fc4830"/><path d="m249.332031 469.480469h-18.550781c-32.5 0-58.84375-26.34375-58.84375-58.84375v-11.375c0-5.578125 4.519531-10.097657 10.097656-10.097657h18.550782c32.5 0 58.84375 26.34375 58.84375 58.84375v11.375c0 5.578126-4.523438 10.097657-10.097657 10.097657zm0 0" fill="#00fbaa"/><path d="m259.429688 448.011719v11.371093c0 5.574219-4.523438 10.097657-10.097657 10.097657h-10.421875v-14.421875c0-25.0625-20.320312-45.382813-45.386718-45.382813h-21.589844v-10.414062c0-5.574219 4.523437-10.097657 10.097656-10.097657h18.550781c32.5 0 58.847657 26.347657 58.847657 58.847657zm0 0" fill="#00df97"/><path d="m439.78125 148.382812 26.246094 50.289063h-70.394532l26.242188-50.289063c3.777344-7.234374 14.128906-7.234374 17.90625 0zm0 0" fill="#e81610"/><path d="m430.828125 309.351562c-36.167969 0-65.488281-29.320312-65.488281-65.488281l114.648437-89.855469c6.628907-5.195312 16.328125-.472656 16.328125 7.945313v81.910156c0 36.167969-29.320312 65.488281-65.488281 65.488281zm0 0" fill="#fc4830"/><path d="m430.828125 309.351562c36.167969 0 65.488281-29.320312 65.488281-65.488281l-114.648437-89.855469c-6.628907-5.195312-16.328125-.472656-16.328125 7.945313v81.910156c0 36.167969 29.320312 65.488281 65.488281 65.488281zm0 0" fill="#ff756e"/><path d="m365.335938 161.957031v80.902344c0 36.097656 28.789062 66.160156 64.886718 66.484375 13.710938.125 26.472656-3.96875 37.050782-11.0625-4.160157.769531-8.476563 1.144531-12.878907 1.082031-35.972656-.484375-64.578125-30.480469-64.578125-66.457031v-72.507812l-8.152344-6.386719c-6.625-5.195313-16.328124-.476563-16.328124 7.945312zm0 0" fill="#fc4830"/><path d="m440.800781 454.128906h15.265625c26.75 0 48.433594-21.683594 48.433594-48.429687v-54.25c0-4.59375-3.722656-8.3125-8.3125-8.3125h-15.269531c-26.746094 0-48.429688 21.683593-48.429688 48.433593v54.246094c0 4.59375 3.71875 8.3125 8.3125 8.3125zm0 0" fill="#00fbaa"/><path d="m432.488281 391.574219v54.242187c0 4.589844 3.722657 8.3125 8.3125 8.3125h8.578125v-56.753906c0-20.632812 16.722656-37.355469 37.351563-37.355469h17.773437v-8.570312c0-4.589844-3.726562-8.3125-8.3125-8.3125h-15.269531c-26.75 0-48.433594 21.6875-48.433594 48.4375zm0 0" fill="#00df97"/><path d="m422.386719 426.28125h-18.546875c-32.5 0-58.84375-26.34375-58.84375-58.84375v-11.375c0-5.578125 4.519531-10.097656 10.097656-10.097656h18.550781c32.496094 0 58.84375 26.34375 58.84375 58.84375v11.375c0 5.578125-4.523437 10.097656-10.101562 10.097656zm0 0" fill="#00df97"/><path d="m432.488281 404.8125v11.371094c0 5.574218-4.527343 10.097656-10.101562 10.097656h-10.421875v-14.417969c0-25.066406-20.320313-45.386719-45.382813-45.386719h-21.59375v-10.410156c0-5.574218 4.523438-10.097656 10.101563-10.097656h18.550781c32.496094 0 58.847656 26.34375 58.847656 58.84375zm0 0" fill="#00b579"/><g fill="#00df97"><path d="m62.640625 43.859375c9.433594 1.320313 19.359375-1.644531 26.628906-8.914063 7.269531-7.269531 10.234375-17.195312 8.914063-26.632812-9.433594-1.316406-19.359375 1.648438-26.628906 8.917969-7.269532 7.269531-10.234376 17.191406-8.914063 26.628906zm0 0"/><path d="m328.691406 157.5c1.320313-9.4375-1.648437-19.359375-8.917968-26.628906-7.265626-7.269532-17.191407-10.234375-26.628907-8.917969-1.320312 9.4375 1.648438 19.363281 8.917969 26.632813 7.265625 7.269531 17.191406 10.234374 26.628906 8.914062zm0 0"/><path d="m490.898438 112.078125c1.320312-9.4375-1.648438-19.359375-8.914063-26.628906-7.269531-7.269531-17.195313-10.238281-26.632813-8.917969-1.320312 9.4375 1.648438 19.363281 8.917969 26.628906 7.269531 7.269532 17.191407 10.238282 26.628907 8.917969zm0 0"/><path d="m160.449219 304.8125c1.320312-9.433594-1.648438-19.359375-8.914063-26.628906-7.269531-7.269532-17.195312-10.234375-26.632812-8.914063-1.320313 9.433594 1.648437 19.359375 8.917968 26.628907 7.265626 7.269531 17.191407 10.234374 26.628907 8.914062zm0 0"/></g><path d="m24.410156 86.558594h337.417969c7.433594 0 13.480469 6.046875 13.480469 13.480468 0 7.433594-6.046875 13.484376-13.480469 13.484376-7.4375 0-13.484375-6.050782-13.484375-13.484376 0-4.140624-3.359375-7.5-7.5-7.5-4.144531 0-7.5 3.359376-7.5 7.5 0 15.707032 12.777344 28.484376 28.484375 28.484376 15.703125 0 28.480469-12.777344 28.480469-28.484376 0-15.707031-12.777344-28.484374-28.480469-28.484374h-337.417969c-4.140625 0-7.5 3.359374-7.5 7.5 0 4.144531 3.359375 7.503906 7.5 7.503906zm0 0"/><path d="m125.136719 63.640625h297.28125c15.707031 0 28.484375-12.78125 28.484375-28.484375 0-15.707031-12.777344-28.484375-28.484375-28.484375s-28.484375 12.777344-28.484375 28.484375c0 4.140625 3.359375 7.5 7.5 7.5 4.144531 0 7.5-3.359375 7.5-7.5 0-7.4375 6.050781-13.484375 13.484375-13.484375 7.433593 0 13.484375 6.050781 13.484375 13.484375s-6.050782 13.484375-13.484375 13.484375h-297.28125c-4.140625 0-7.5 3.355469-7.5 7.5 0 4.140625 3.359375 7.5 7.5 7.5zm0 0"/><path d="m324.179688 199.546875c-6.105469-2.96875-13.214844-2.21875-18.5625 1.972656l-19.347657 15.164063-9.582031-18.355469c-3.042969-5.832031-9.019531-9.457031-15.601562-9.457031-6.578126 0-12.558594 3.625-15.601563 9.457031l-9.578125 18.355469-19.351562-15.167969c-5.347657-4.1875-12.457032-4.941406-18.5625-1.96875-6.101563 2.96875-9.894532 9.035156-9.894532 15.824219v81.90625c0 37.144531 27.894532 67.871094 63.832032 72.394531v36.375c-12.175782-14.871094-30.667969-24.382813-51.34375-24.382813h-18.550782c-9.703125 0-17.597656 7.894532-17.597656 17.597657v11.378906c0 36.578125 29.761719 66.34375 66.34375 66.34375h18.546875c.886719 0 1.75-.089844 2.601563-.214844v13.769531c0 4.144532 3.355468 7.5 7.5 7.5 4.140624 0 7.5-3.355468 7.5-7.5v-120.527343c37.519531-2.988281 67.144531-34.457031 67.144531-72.734375v-22.585938c0-4.144531-3.355469-7.5-7.5-7.5-4.140625 0-7.5 3.355469-7.5 7.5v22.585938c0 31.976562-26.011719 57.988281-57.988281 57.988281-30.773438 0-56.027344-24.101563-57.878907-54.421875l111.664063-87.519531c1.117187-.875 2.195312-.558594 2.742187-.292969s1.460938.921875 1.460938 2.335938v26.660156c0 4.144531 3.359375 7.5 7.5 7.5 4.144531 0 7.5-3.355469 7.5-7.5v-26.660156c.003906-6.789063-3.789063-12.851563-9.894531-15.820313zm-74.847657 262.4375h-18.550781c-28.3125 0-51.34375-23.035156-51.34375-51.34375v-11.378906c0-1.433594 1.167969-2.597657 2.597656-2.597657h18.550782c28.3125 0 51.34375 23.03125 51.34375 51.34375v11.375c0 1.433594-1.164063 2.601563-2.597657 2.601563zm9.453125-256.714844c.632813-1.21875 1.714844-1.398437 2.304688-1.398437.585937 0 1.667968.183594 2.300781 1.398437l10.871094 20.828125-13.171875 10.324219-13.175782-10.328125zm-55.6875 76.601563v-66.5c0-1.417969.917969-2.074219 1.460938-2.339844.546875-.265625 1.628906-.582031 2.742187.292969l41.628907 32.625zm0 0"/><path d="m496.1875 335.636719h-15.269531c-16.148438 0-30.710938 6.886719-40.933594 17.867187v-37.246094c35.9375-4.523437 63.832031-35.25 63.832031-72.394531v-81.90625c0-6.789062-3.792968-12.855469-9.898437-15.824219-6.101563-2.972656-13.214844-2.214843-18.558594 1.972657l-19.347656 15.164062-9.582031-18.355469c-3.042969-5.832031-9.023438-9.457031-15.601563-9.457031-6.582031 0-12.558594 3.625-15.605469 9.457031l-9.578125 18.359376-19.351562-15.167969c-5.34375-4.1875-12.453125-4.945313-18.558594-1.972657-6.105469 2.972657-9.898437 9.035157-9.898437 15.824219v81.90625c0 38.277344 29.625 69.746094 67.148437 72.734375v46.25c-12.175781-14.871094-30.667969-24.382812-51.34375-24.382812h-18.550781c-9.703125 0-17.597656 7.894531-17.597656 17.597656v11.378906c0 36.582032 29.761718 66.34375 66.34375 66.34375h18.550781c.882812 0 1.746093-.089844 2.597656-.214844v58.089844c0 4.144532 3.355469 7.5 7.5 7.5s7.5-3.355468 7.5-7.5v-30.070312c.273437.015625.539063.042968.8125.042968h15.269531c8.117188 0 15.964844-1.71875 23.328125-5.101562 3.761719-1.730469 5.410157-6.183594 3.679688-9.945312-1.726563-3.761719-6.179688-5.414063-9.945313-3.683594-5.382812 2.472656-11.125 3.730468-17.0625 3.730468h-15.269531c-.445313 0-.8125-.367187-.8125-.816406v-54.246094c0-22.570312 18.363281-40.933593 40.933594-40.933593h15.269531c.445312 0 .8125.363281.8125.8125v54.25c0 6.273437-1.386719 12.300781-4.117188 17.902343-1.816406 3.726563-.269531 8.214844 3.453126 10.03125 3.730468 1.8125 8.214843.265626 10.03125-3.457031 3.734374-7.667969 5.632812-15.90625 5.632812-24.480469v-54.25c0-8.714843-7.09375-15.808593-15.8125-15.808593zm-11.570312-175.726563c1.113281-.875 2.191406-.558594 2.738281-.292968.546875.269531 1.460937.921874 1.460937 2.339843v66.5l-45.828125-35.917969zm-56.089844-8.054687c.632812-1.214844 1.714844-1.398438 2.300781-1.398438.589844 0 1.671875.183594 2.304687 1.398438l10.871094 20.828125-13.175781 10.324218-13.171875-10.324218zm-55.6875 92.007812v-81.90625c0-1.414062.914062-2.070312 1.460937-2.339843.277344-.132813.6875-.28125 1.171875-.28125.476563 0 1.019532.144531 1.570313.574218l111.664062 87.519532c-1.847656 30.320312-27.101562 54.421874-57.878906 54.421874-31.976563 0-57.988281-26.011718-57.988281-57.988281zm49.546875 174.917969h-18.550781c-28.308594 0-51.34375-23.03125-51.34375-51.34375v-11.375c0-1.433594 1.167968-2.597656 2.601562-2.597656h18.550781c28.308594 0 51.34375 23.03125 51.34375 51.34375v11.375c0 1.433594-1.167969 2.597656-2.601562 2.597656zm0 0"/><path d="m234.371094 103.949219c-4.140625 0-7.5 3.355469-7.5 7.5s3.359375 7.5 7.5 7.5h.105468c4.140626 0 7.5-3.355469 7.5-7.5s-3.359374-7.5-7.5-7.5zm0 0"/><path d="m251.234375 118.851562c-4.140625 0-7.5 3.355469-7.5 7.5 0 4.140626 3.359375 7.5 7.5 7.5h.105469c4.140625 0 7.5-3.359374 7.5-7.5 0-4.144531-3.359375-7.5-7.5-7.5zm0 0"/><path d="m432.503906 80.683594c-.023437 0-.046875 0-.070312 0-4.109375 0-7.460938 3.3125-7.5 7.429687-.035156 4.140625 3.289062 7.53125 7.429687 7.570313h.105469.070312c4.109376 0 7.460938-3.3125 7.5-7.429688.039063-4.144531-3.289062-7.53125-7.429687-7.570312zm0 0"/><path d="m393.683594 446.554688h-.105469c-4.140625 0-7.5 3.359374-7.5 7.5 0 4.144531 3.359375 7.5 7.5 7.5h.105469c4.144531 0 7.5-3.355469 7.5-7.5 0-4.140626-3.355469-7.5-7.5-7.5zm0 0"/><path d="m374.355469 459.761719h-.105469c-4.140625 0-7.5 3.359375-7.5 7.503906 0 4.140625 3.359375 7.5 7.5 7.5h.105469c4.144531 0 7.5-3.359375 7.5-7.5 0-4.144531-3.355469-7.503906-7.5-7.503906zm0 0"/><path d="m131.898438 346.539062h-.101563c-4.144531 0-7.5 3.355469-7.5 7.5 0 4.140626 3.355469 7.5 7.5 7.5h.101563c4.144531 0 7.5-3.359374 7.5-7.5 0-4.144531-3.355469-7.5-7.5-7.5zm0 0"/><path d="m61.601562 51.289062c1.847657.257813 3.691407.386719 5.519532.386719 10.265625 0 20.042968-4.023437 27.453125-11.429687 8.726562-8.726563 12.75-20.742188 11.039062-32.96875-.464843-3.320313-3.070312-5.929688-6.390625-6.390625-12.230468-1.710938-24.246094 2.3125-32.972656 11.039062-8.726562 8.726563-12.75 20.746094-11.039062 32.972657.464843 3.320312 3.070312 5.925781 6.390624 6.390624zm15.257813-28.757812c3.84375-3.84375 8.726563-6.203125 13.957031-6.847656-.644531 5.226562-3.003906 10.109375-6.851562 13.957031-3.84375 3.84375-8.726563 6.207031-13.957032 6.847656.644532-5.226562 3.003907-10.109375 6.851563-13.957031zm0 0"/><path d="m292.109375 114.527344c-3.320313.460937-5.929687 3.070312-6.390625 6.390625-1.710938 12.226562 2.3125 24.246093 11.039062 32.972656 7.40625 7.40625 17.1875 11.425781 27.453126 11.425781 1.824218 0 3.671874-.128906 5.519531-.386718 3.316406-.464844 5.925781-3.070313 6.390625-6.390626 1.707031-12.230468-2.316406-24.246093-11.042969-32.972656-8.726563-8.722656-20.742187-12.746094-32.96875-11.039062zm15.253906 28.753906c-3.84375-3.84375-6.203125-8.730469-6.847656-13.957031 5.226563.644531 10.113281 3.003906 13.957031 6.851562 3.84375 3.84375 6.207032 8.726563 6.847656 13.953125-5.226562-.640625-10.109374-3.003906-13.957031-6.847656zm0 0"/><path d="m447.925781 75.492188c-1.710937 12.230468 2.3125 24.246093 11.039063 32.972656 7.40625 7.410156 17.1875 11.425781 27.453125 11.425781 1.828125 0 3.671875-.125 5.519531-.382813 3.316406-.464843 5.925781-3.074218 6.390625-6.390624 1.707031-12.230469-2.316406-24.246094-11.042969-32.972657-8.726562-8.726562-20.746094-12.753906-32.96875-11.042969-3.320312.464844-5.925781 3.074219-6.390625 6.390626zm28.753907 15.257812c3.84375 3.847656 6.207031 8.730469 6.851562 13.957031-5.230469-.644531-10.113281-3.003906-13.957031-6.847656-3.847657-3.84375-6.207031-8.730469-6.851563-13.957031 5.226563.644531 10.113282 3.003906 13.957032 6.847656zm0 0"/><path d="m167.878906 305.851562c1.421875-10.175781-1.136718-20.195312-7.058594-28.304687 5.773438-10.636719 8.816407-22.613281 8.816407-34.800781v-81.910156c0-6.789063-3.789063-12.851563-9.894531-15.824219-6.105469-2.96875-13.214844-2.214844-18.558594 1.972656l-19.351563 15.167969-9.582031-18.359375c-3.042969-5.832031-9.019531-9.457031-15.601562-9.457031-6.578126 0-12.558594 3.625-15.601563 9.457031l-9.578125 18.359375-19.351562-15.167969c-5.34375-4.191406-12.457032-4.945313-18.5625-1.972656-6.101563 2.972656-9.894532 9.03125-9.894532 15.820312v81.910157.015624c.003906 11.613282 2.820313 23.191407 8.144532 33.480469 1.90625 3.679688 6.429687 5.117188 10.109374 3.214844 3.679688-1.902344 5.117188-6.429687 3.214844-10.109375-3.746094-7.230469-5.878906-14.964844-6.359375-23.03125l111.667969-87.523438c1.113281-.871093 2.195312-.558593 2.738281-.292968.546875.269531 1.460938.921875 1.460938 2.335937v81.910157c0 8.414062-1.820313 16.695312-5.304688 24.261718-7.554687-4.5625-16.453125-6.429687-25.46875-5.164062-3.316406.460937-5.925781 3.070312-6.386719 6.390625-1.300781 9.289062.71875 18.453125 5.585938 26.148437-8.136719 4.167969-17.15625 6.351563-26.414062 6.351563-11.53125 0-22.671876-3.378907-32.214844-9.769531-3.441406-2.308594-8.101563-1.386719-10.40625 2.058593-2.304688 3.441407-1.382813 8.097657 2.058594 10.402344 9.472656 6.34375 20.1875 10.320313 31.40625 11.726563v36.363281c-12.175782-14.875-30.667969-24.382813-51.34375-24.382813h-18.550782c-9.703125 0-17.597656 7.894532-17.597656 17.601563v65.910156c0 36.578125 29.761719 66.34375 66.34375 66.34375h18.550781c.886719 0 1.746094-.089844 2.597657-.214844v13.769531c0 4.144532 3.359374 7.5 7.5 7.5 4.144531 0 7.5-3.355468 7.5-7.5v-175.046874c11.0625-.878907 21.722656-4.25 31.265624-9.894532 6.515626 4.582032 14.210938 7.03125 22.210938 7.03125 1.828125 0 3.671875-.128906 5.519531-.386718 3.316407-.464844 5.925781-3.074219 6.390625-6.390626zm-73.53125-155.117187c.632813-1.214844 1.714844-1.398437 2.304688-1.398437.585937 0 1.667968.183593 2.300781 1.398437l10.871094 20.828125-13.171875 10.324219-13.175782-10.324219zm-55.6875 76.601563v-66.5c0-1.414063.917969-2.070313 1.460938-2.335938.546875-.269531 1.628906-.582031 2.742187.289062l41.628907 32.628907zm46.234375 234.648437h-18.550781c-28.3125 0-51.34375-23.035156-51.34375-51.34375v-65.910156c0-1.433594 1.167969-2.601563 2.597656-2.601563h18.550782c28.3125 0 51.34375 23.03125 51.34375 51.34375v65.910156c0 1.433594-1.164063 2.601563-2.597657 2.601563zm54.226563-171.390625c-3.84375-3.84375-6.203125-8.730469-6.847656-13.957031 5.226562.644531 10.109374 3.003906 13.957031 6.851562 3.84375 3.84375 6.203125 8.730469 6.847656 13.957031-5.226563-.644531-10.113281-3.007812-13.957031-6.851562zm0 0"/><path d="m186.117188 33.585938.105468.003906h.070313c4.109375 0 7.460937-3.3125 7.5-7.433594.039062-4.140625-3.289063-7.53125-7.429688-7.570312h-.105469c-.023437 0-.046874 0-.070312 0-4.109375 0-7.460938 3.3125-7.5 7.429687-.039062 4.144531 3.289062 7.53125 7.429688 7.570313zm0 0"/></svg>