<svg height="512pt" viewBox="-20 0 511 512" width="512pt" xmlns="http://www.w3.org/2000/svg"><path d="m447.011719 317.253906-45.363281 20-11.722657-6.769531 3.429688-5.941406c3.417969-5.914063 1.390625-13.476563-4.523438-16.890625-5.917969-3.417969-13.480469-1.390625-16.894531 4.523437l-3.429688 5.941407-57.199218-33.023438 40.324218-17.78125c4.484376-1.976562 7.378907-6.414062 7.378907-11.3125 0-4.902344-2.894531-9.339844-7.378907-11.316406l-40.324218-17.78125 57.199218-33.023438 3.429688 5.941406c2.292969 3.96875 6.445312 6.1875 10.722656 6.1875 2.097656 0 4.222656-.535156 6.171875-1.660156 5.914063-3.414062 7.941407-10.980468 4.523438-16.894531l-3.429688-5.941406 11.722657-6.765625 45.363281 20c1.621093.714844 3.316406 1.054687 4.984375 1.054687 4.75 0 9.277344-2.753906 11.320312-7.378906 2.753906-6.25-.078125-13.550781-6.328125-16.304687l-28.792969-12.695313 18.667969-10.78125c5.917969-3.414063 7.941407-10.976563 4.527344-16.894531-3.414063-5.910156-10.976563-7.941406-16.894531-4.523438l-18.667969 10.777344 3.402344-31.285156c.738281-6.789063-4.167969-12.890625-10.957031-13.628906-6.78125-.742188-12.894532 4.164062-13.632813 10.957031l-5.355469 49.28125-11.722656 6.769531-3.433594-5.941406c-3.414062-5.914063-10.976562-7.941406-16.890625-4.527344-5.914062 3.414062-7.941406 10.980469-4.527343 16.894531l3.429687 5.941407-57.199219 33.023437 4.765625-43.8125c.53125-4.871094-1.867187-9.597656-6.109375-12.042969-4.246094-2.453125-9.535156-2.164062-13.488281.730469l-35.558594 26.03125v-66.046875h6.859375c6.828125 0 12.367188-5.539062 12.367188-12.367188 0-6.832031-5.539063-12.367187-12.367188-12.367187h-6.859375v-13.535156l40-29.28125c5.511719-4.035157 6.707031-11.773438 2.675781-17.285157-4.035156-5.511718-11.773437-6.707031-17.285156-2.671874l-25.390625 18.585937v-21.554687c0-6.832032-5.539062-12.367188-12.367187-12.367188s-12.367188 5.535156-12.367188 12.367188v21.558593l-25.390625-18.589843c-5.511719-4.035157-13.25-2.835938-17.285156 2.675781-4.035156 5.507812-2.835937 13.246093 2.675781 17.28125l40 29.285156v13.535156h-6.859375c-6.828125 0-12.367187 5.535157-12.367187 12.363281 0 6.832032 5.539062 12.367188 12.367187 12.367188h6.859375v66.046875l-35.558594-26.03125c-3.957031-2.894531-9.246093-3.179687-13.488281-.730469-4.246093 2.449219-6.640625 7.175782-6.109375 12.046875l4.761719 43.8125-57.199219-33.023437 3.433594-5.945313c3.414062-5.914062 1.386719-13.476562-4.527344-16.890625-5.917968-3.414062-13.480468-1.390625-16.894531 4.523438l-3.429687 5.945312-11.722657-6.769531-5.359375-49.285156c-.738281-6.789063-6.847656-11.699219-13.628906-10.957031-6.789062.738281-11.695312 6.84375-10.957031 13.632812l3.402343 31.285156-18.671874-10.777344c-5.914063-3.417968-13.476563-1.390624-16.890626 4.523438-3.417968 5.914062-1.390624 13.480469 4.523438 16.894531l18.671875 10.777344-28.796875 12.695313c-6.25 2.757812-9.082031 10.058593-6.324219 16.304687 2.039063 4.628906 6.570313 7.382813 11.320313 7.382813 1.667968 0 3.359375-.339844 4.984375-1.054688l45.359375-20.003906 11.722656 6.769531-3.429688 5.941406c-3.414062 5.914063-1.390624 13.476563 4.527344 16.894531 1.945313 1.121094 4.070313 1.65625 6.167969 1.65625 4.273437 0 8.433594-2.21875 10.722656-6.183593l3.429688-5.941407 57.199219 33.023438-40.324219 17.78125c-4.484375 1.976562-7.378907 6.414062-7.378907 11.316406 0 4.898438 2.894532 9.335938 7.378907 11.3125l40.324219 17.78125-57.199219 33.023438-3.429688-5.941406c-3.414062-5.914063-10.976562-7.941407-16.890625-4.527344-5.917968 3.417968-7.945312 10.980468-4.527344 16.894531l3.429688 5.941406-11.722656 6.769531-45.359375-20.003906c-6.25-2.753906-13.550781.078125-16.304688 6.328125-2.753906 6.25.078125 13.546875 6.328125 16.304688l28.792969 12.695312-18.667969 10.777344c-5.917968 3.417969-7.945312 10.980469-4.527344 16.894531 2.289063 3.96875 6.445313 6.183594 10.722657 6.183594 2.097656 0 4.222656-.53125 6.171875-1.65625l18.667968-10.78125-3.402343 31.285156c-.738281 6.789063 4.167969 12.894532 10.957031 13.632813.453125.050781.90625.074219 1.351562.074219 6.230469 0 11.589844-4.695313 12.277344-11.03125l5.363282-49.285157 11.71875-6.765625 3.429687 5.941406c2.292969 3.96875 6.449219 6.183594 10.722656 6.183594 2.097657 0 4.226563-.53125 6.171875-1.65625 5.914063-3.417968 7.941406-10.980468 4.527344-16.894531l-3.433594-5.941406 57.203125-33.023438-4.765625 43.808594c-.53125 4.875 1.867188 9.597656 6.109375 12.046875 1.921875 1.109375 4.054688 1.65625 6.183594 1.65625 2.574219 0 5.140625-.800781 7.304687-2.386719l35.558594-26.03125v66.046875h-6.859375c-6.828125 0-12.367187 5.535156-12.367187 12.367188 0 6.828125 5.539062 12.367187 12.367187 12.367187h6.859375v13.535157l-40 29.28125c-5.511718 4.035156-6.707031 11.773437-2.675781 17.285156 4.035156 5.511718 11.773437 6.707031 17.285156 2.671875l25.390625-18.585938v21.554688c0 6.832031 5.539063 12.367187 12.367188 12.367187s12.367187-5.535156 12.367187-12.367187v-21.554688l25.390625 18.585938c2.203125 1.613281 4.761719 2.390625 7.296875 2.390625 3.808594 0 7.566407-1.753906 9.988281-5.0625 4.03125-5.511719 2.835938-13.25-2.675781-17.28125l-40-29.285156v-13.539063h6.859375c6.828125 0 12.367188-5.535156 12.367188-12.367187 0-6.828126-5.539063-12.367188-12.367188-12.367188h-6.859375v-66.046875l35.558594 26.03125c3.953125 2.894531 9.242187 3.183594 13.488281.730469 4.242188-2.449219 6.640625-7.171875 6.109375-12.042969l-4.765625-43.8125 57.199219 33.023437-3.429687 5.941407c-3.414063 5.914062-1.386719 13.480469 4.527343 16.894531 1.945313 1.121094 4.070313 1.65625 6.171875 1.65625 4.273438 0 8.429688-2.214844 10.71875-6.183594l3.433594-5.941406 11.722656 6.769531 5.355469 49.28125c.691406 6.335938 6.050781 11.03125 12.28125 11.03125.445313 0 .894531-.023437 1.351563-.074219 6.789062-.738281 11.695312-6.839843 10.957031-13.628906l-3.402344-31.285156 18.667969 10.777344c1.949218 1.125 4.074218 1.660156 6.171875 1.660156 4.273437 0 8.433593-2.21875 10.722656-6.183594 3.414063-5.914062 1.386719-13.480468-4.527344-16.894531l-18.667969-10.78125 28.792969-12.695313c6.25-2.753906 9.082031-10.054687 6.328125-16.304687-2.757812-6.25-10.0625-9.082031-16.304687-6.324219zm-131.019531-61.253906-31.226563 13.769531-23.851563-13.769531 23.851563-13.769531zm-39.902344-69.117188-3.691406 33.929688-23.847657 13.769531v-27.539062zm-79.8125 0 27.539062 20.160157v27.539062l-23.847656-13.769531zm-39.902344 69.117188 31.226562-13.769531 23.847657 13.769531-23.847657 13.769531zm39.902344 69.117188 3.691406-33.929688 23.847656-13.765625v27.539063zm79.8125 0-27.539063-20.160157v-27.535156l23.847657 13.765625zm0 0" fill="#a0ecff"/><path d="m406.921875 426.488281c-10.152344 0-18.636719-7.621093-19.734375-17.722656l-4.945312-45.5-1.941407-1.121094c-3.609375 5.804688-10.023437 9.386719-16.890625 9.386719-3.472656 0-6.898437-.921875-9.917968-2.664062-4.597657-2.652344-7.886719-6.9375-9.261719-12.0625-1.316407-4.917969-.71875-10.046876 1.675781-14.515626l-6.746094-3.898437c-3.585937-2.070313-4.816406-6.65625-2.746094-10.242187 2.070313-3.589844 6.65625-4.816407 10.246094-2.746094l13.234375 7.640625c3.585938 2.070312 4.816407 6.65625 2.742188 10.246093l-3.429688 5.941407c-.648437 1.125-.820312 2.4375-.484375 3.691406.335938 1.257813 1.140625 2.304687 2.265625 2.957031.753907.429688 1.566407.652344 2.421875.652344 1.738282 0 3.359375-.933594 4.226563-2.4375l3.429687-5.941406c2.070313-3.585938 6.65625-4.816406 10.246094-2.746094l11.722656 6.769531c2.070313 1.195313 3.449219 3.308594 3.707032 5.683594l5.359374 49.285156c.285157 2.65625 2.597657 4.617188 5.371094 4.3125 2.660156-.289062 4.59375-2.695312 4.304688-5.363281l-3.402344-31.285156c-.308594-2.808594.992188-5.550782 3.359375-7.09375 2.367187-1.542969 5.398437-1.621094 7.847656-.210938l18.667969 10.777344c.75.433594 1.566406.652344 2.421875.652344 1.738281 0 3.359375-.929688 4.222656-2.433594.652344-1.128906.824219-2.4375.488281-3.695312-.335937-1.253907-1.140624-2.300782-2.265624-2.953126l-18.671876-10.777343c-2.445312-1.414063-3.890624-4.082031-3.738281-6.902344.152344-2.820313 1.878907-5.316406 4.464844-6.453125l28.792969-12.699219c2.457031-1.082031 3.574218-3.960937 2.488281-6.414062-.523437-1.191407-1.480469-2.105469-2.691406-2.574219-1.214844-.46875-2.535157-.441406-3.71875.082031l-45.363281 20.003907c-2.1875.964843-4.707032.828124-6.777344-.367188l-11.722656-6.769531c-3.585938-2.070313-4.816407-6.65625-2.746094-10.246094l3.433594-5.9375c.648437-1.128906.820312-2.4375.484374-3.695313-.335937-1.253906-1.140624-2.304687-2.269531-2.953124-1.125-.648438-2.4375-.824219-3.691406-.488282-1.253906.339844-2.304687 1.144532-2.953125 2.269532l-3.429688 5.941406c-.996093 1.722656-2.632812 2.980468-4.554687 3.492187-1.921875.515625-3.96875.246094-5.691406-.746093l-12.890625-7.441407c-3.585938-2.070312-4.816406-6.660156-2.742188-10.246093 2.070313-3.589844 6.65625-4.816407 10.242188-2.746094l6.402344 3.699218c2.667968-4.308593 6.8125-7.390624 11.730468-8.707031 5.128906-1.378906 10.480469-.671875 15.078125 1.980469 4.597657 2.65625 7.882813 6.9375 9.257813 12.066406 1.316406 4.917969.722656 10.046875-1.675782 14.515625l1.941407 1.121094 41.878906-18.46875c4.855469-2.140625 10.25-2.265625 15.199219-.34375 4.949218 1.917969 8.855468 5.648437 10.996094 10.507813 4.417968 10.023437-.140626 21.769531-10.164063 26.191406l-15.265625 6.730468 5.863281 3.386719c4.597657 2.652344 7.882813 6.9375 9.257813 12.0625s.667968 10.480469-1.988282 15.074219c-3.535156 6.128906-10.128906 9.9375-17.214843 9.9375-3.46875 0-6.898438-.921875-9.917969-2.664062l-5.867188-3.386719 1.804688 16.585937c1.183594 10.890625-6.714844 20.714844-17.601562 21.898438-.726563.078125-1.453126.117187-2.164063.117187zm0 0"/><path d="m236.183594 512c-10.953125 0-19.867188-8.910156-19.867188-19.867188v-6.769531l-13.460937 9.855469c-4.28125 3.132812-9.53125 4.414062-14.769531 3.601562-5.246094-.8125-9.859376-3.617187-12.996094-7.898437-6.46875-8.839844-4.542969-21.292969 4.296875-27.765625l36.933593-27.035156v-2.238282c-10.660156-.339843-19.230468-9.117187-19.230468-19.859374 0-10.738282 8.570312-19.515626 19.230468-19.855469v-43.769531l-23.632812 17.296874c-3.429688 2.511719-7.484375 3.835938-11.734375 3.835938-3.480469 0-6.917969-.917969-9.933594-2.660156-6.8125-3.9375-10.667969-11.53125-9.816406-19.355469l3.167969-29.113281-37.910156 21.886718c2.394531 4.46875 2.992187 9.601563 1.675781 14.519532-1.375 5.125-4.660157 9.410156-9.257813 12.0625-3.015625 1.742187-6.445312 2.664062-9.921875 2.664062-6.867187 0-13.277343-3.582031-16.886719-9.386718l-1.941406 1.117187-4.949218 45.503906c-1.097657 10.101563-9.582032 17.71875-19.730469 17.71875-.714844 0-1.4375-.039062-2.15625-.113281-10.898438-1.1875-18.792969-11.007812-17.609375-21.898438l1.804687-16.585937-5.867187 3.382813c-3.019532 1.746093-6.449219 2.664062-9.921875 2.664062-7.078125 0-13.675781-3.804688-17.214844-9.933594-2.652344-4.59375-3.359375-9.949218-1.984375-15.074218 1.371094-5.128907 4.660156-9.410157 9.257812-12.066407l5.863282-3.382812-15.265625-6.730469c-10.023438-4.421875-14.582031-16.171875-10.164063-26.191406 4.417969-10.023438 16.167969-14.578125 26.191406-10.164063l41.882813 18.464844 1.9375-1.121094c-2.394531-4.464843-2.988281-9.59375-1.671875-14.515625 1.375-5.125 4.660156-9.410156 9.257812-12.0625 9.300782-5.367187 21.183594-2.339844 26.808594 6.722656l37.90625-21.886718-26.796875-11.8125c-7.195312-3.175782-11.851562-10.308594-11.851562-18.179688 0-7.867187 4.652343-15 11.855469-18.175781l26.792968-11.816406-6.34375-3.660157c-3.585937-2.070312-4.816406-6.660156-2.742187-10.246093 2.066406-3.585938 6.652343-4.816407 10.242187-2.746094l19.148438 11.054687c2.445312 1.414063 3.890625 4.082032 3.738281 6.902344-.152344 2.820313-1.878906 5.316406-4.464844 6.457032l-40.320312 17.78125c-1.765625.773437-2.90625 2.523437-2.90625 4.449218 0 1.929688 1.140625 3.675782 2.902343 4.453125l40.324219 17.78125c2.585938 1.140625 4.3125 3.636719 4.464844 6.457031.152344 2.820313-1.292969 5.488282-3.738281 6.898438l-57.199219 33.023438c-1.722656.996093-3.769531 1.265624-5.691406.75-1.921875-.515626-3.558594-1.769532-4.554688-3.496094l-3.429687-5.9375c-1.339844-2.324219-4.324219-3.125-6.648438-1.78125-1.125.648437-1.929687 1.699218-2.265625 2.953125-.335937 1.257812-.164062 2.566406.484375 3.691406l3.429688 5.941406c2.074218 3.589844.84375 8.175781-2.742188 10.246094l-11.722656 6.769531c-2.070312 1.195313-4.589844 1.332032-6.777344.363282l-45.359375-20c-2.457031-1.082032-5.335937.035156-6.417969 2.492187-1.082031 2.453125.035157 5.332031 2.492188 6.414063l28.792969 12.695312c2.585937 1.140625 4.3125 3.636719 4.464843 6.457031.152344 2.820313-1.292968 5.488281-3.738281 6.898438l-18.671875 10.78125c-1.125.648437-1.929687 1.699219-2.269531 2.953125-.335937 1.257812-.160156 2.566406.488281 3.691406.867188 1.503906 2.488282 2.4375 4.226563 2.4375.855469 0 1.671875-.21875 2.421875-.652344l18.671875-10.78125c2.441406-1.410156 5.476562-1.332031 7.84375.214844 2.367187 1.542969 3.667969 4.285156 3.359375 7.09375l-3.402344 31.285156c-.289062 2.667969 1.644531 5.074219 4.3125 5.363282.179688.019531.359375.027343.542969.027343 2.476562 0 4.550781-1.867187 4.820312-4.339843l5.359375-49.285157c.261719-2.378906 1.636719-4.488281 3.707032-5.683593l11.722656-6.769532c1.722656-.996094 3.769531-1.265625 5.691406-.75 1.917969.515625 3.558594 1.773438 4.550781 3.496094l3.433594 5.941406c.878906 1.523438 2.457031 2.433594 4.226563 2.433594.855468 0 1.667968-.21875 2.417968-.652344 1.128906-.648437 1.933594-1.699218 2.269532-2.953125.335937-1.257812.164062-2.566406-.484376-3.691406l-3.433593-5.945313c-2.070313-3.585937-.839844-8.171874 2.746093-10.242187l57.199219-33.023437c2.445313-1.414063 5.480469-1.332032 7.847657.210937 2.367187 1.542969 3.664062 4.285156 3.359374 7.09375l-4.765624 43.8125c-.207032 1.917969.734374 3.777344 2.40625 4.742187 1.636718.945313 3.78125.828126 5.308593-.289062l35.558594-26.03125c2.28125-1.667969 5.304687-1.917969 7.824219-.636719 2.519531 1.277344 4.105468 3.863281 4.105468 6.6875v66.046875c0 4.144532-3.355468 7.5-7.5 7.5h-6.859374c-2.683594 0-4.867188 2.183594-4.867188 4.867188s2.183594 4.867187 4.867188 4.867187h6.859374c4.144532 0 7.5 3.355469 7.5 7.5v13.535157c0 2.390624-1.140624 4.636718-3.070312 6.050781l-40 29.285156c-1.050781.765625-1.738281 1.894531-1.9375 3.179687-.195312 1.285157.117188 2.570313.882812 3.621094.769532 1.046875 1.898438 1.734375 3.183594 1.933594 1.285156.195312 2.570313-.113281 3.621094-.882812l25.390625-18.589844c2.28125-1.667969 5.304687-1.914063 7.824219-.636719 2.519531 1.277344 4.105468 3.863281 4.105468 6.6875v21.558594c0 2.683593 2.183594 4.867187 4.867188 4.867187s4.867188-2.183594 4.867188-4.867187v-21.558594c0-2.824219 1.585937-5.410156 4.105468-6.6875 2.519532-1.277344 5.542969-1.03125 7.824219.636719l25.390625 18.589844c1.0625.777343 2.144531.941406 2.867188.941406 1.570312 0 3.007812-.730469 3.933593-1.996094.769531-1.046875 1.082031-2.332031.882813-3.617188-.199219-1.285156-.882813-2.414062-1.933594-3.179687l-40.003906-29.285156c-1.929688-1.414063-3.066406-3.660157-3.066406-6.050781v-13.535157c0-4.144531 3.355468-7.5 7.5-7.5h6.859374c2.683594 0 4.867188-2.183593 4.867188-4.867187s-2.183594-4.867188-4.867188-4.867188h-6.859374c-4.144532 0-7.5-3.355468-7.5-7.5v-66.046875c0-2.824219 1.585937-5.410156 4.105468-6.6875 2.519532-1.277343 5.542969-1.03125 7.824219.636719l35.558594 26.03125c1.554687 1.136719 3.636719 1.25 5.308593.289062 1.667969-.964843 2.613282-2.824218 2.402344-4.742187l-4.761718-43.8125c-.308594-2.808594.992187-5.550781 3.359374-7.09375 2.367188-1.542969 5.398438-1.621094 7.84375-.210937l16.605469 9.585937c3.589844 2.074219 4.816407 6.660156 2.746094 10.246094-2.070313 3.585937-6.65625 4.8125-10.246094 2.746093l-3.800781-2.195312 3.167969 29.113281c.851562 7.820313-3.003907 15.417969-9.820313 19.351563-6.8125 3.933594-15.316406 3.472656-21.664062-1.171875l-23.632813-17.300781v43.773437c10.660157.335937 19.230469 9.113281 19.230469 19.855469 0 10.738281-8.570312 19.519531-19.230469 19.855468v2.238282l36.933594 27.039062c8.839844 6.46875 10.765625 18.921875 4.296875 27.761719-3.730469 5.09375-9.726562 8.132813-16.039062 8.132813-4.242188 0-8.296876-1.324219-11.726563-3.835938l-13.464844-9.855469v6.773438c0 10.953125-8.914062 19.863281-19.867187 19.863281zm39.90625-179.382812c-1.5625 0-3.117188-.484376-4.429688-1.445313l-27.539062-20.160156c-1.929688-1.414063-3.070313-3.660157-3.070313-6.054688v-27.535156c0-2.683594 1.429688-5.15625 3.75-6.496094 2.320313-1.339843 5.179688-1.339843 7.5 0l23.847657 13.769531c2.074218 1.195313 3.449218 3.308594 3.707031 5.683594l3.691406 33.929688c.320313 2.953125-1.132813 5.820312-3.707031 7.304687-1.164063.671875-2.460938 1.003907-3.75 1.003907zm-20.039063-31.464844 10.742188 7.867187-1.4375-13.238281-9.304688-5.371094zm-59.773437 31.464844c-1.289063 0-2.585938-.332032-3.75-1.003907-2.574219-1.484375-4.027344-4.351562-3.703125-7.304687l3.6875-33.929688c.257812-2.378906 1.636719-4.492187 3.707031-5.6875l23.847656-13.769531c2.320313-1.339844 5.183594-1.339844 7.5 0 2.320313 1.339844 3.75 3.816406 3.75 6.496094v27.539062c0 2.390625-1.140625 4.640625-3.066406 6.050781l-27.542969 20.160157c-1.3125.964843-2.867187 1.449219-4.429687 1.449219zm10.734375-36.835938-1.4375 13.238281 10.742187-7.867187v-10.742188zm16.804687 9.175781h.011719zm103.507813-3.109375c-1.269531 0-2.5625-.324218-3.742188-1.007812l-16.023437-9.25c-2.445313-1.410156-3.890625-4.078125-3.738282-6.898438.152344-2.820312 1.878907-5.316406 4.464844-6.457031l40.324219-17.78125c1.761719-.777344 2.902344-2.523437 2.902344-4.453125 0-1.925781-1.140625-3.675781-2.902344-4.449219l-40.324219-17.78125c-2.585937-1.140625-4.3125-3.636719-4.464844-6.457031-.152343-2.820312 1.292969-5.488281 3.738282-6.902344l57.199218-33.019531c1.726563-.996094 3.773438-1.261719 5.691407-.75 1.921875.515625 3.5625 1.769531 4.554687 3.496094l3.429688 5.9375c.867187 1.503906 2.488281 2.4375 4.226562 2.4375.855469 0 1.671875-.222657 2.421875-.65625 1.125-.648438 1.929688-1.699219 2.269531-2.953125.335938-1.257813.164063-2.566406-.488281-3.691406l-3.429687-5.941407c-2.070313-3.589843-.839844-8.175781 2.746094-10.246093l11.722656-6.769532c2.070312-1.195312 4.589844-1.332031 6.777344-.367187l45.359374 20.003906c.625.273437 1.285157.414063 1.957032.414063 1.929687 0 3.679687-1.140626 4.460937-2.90625 1.078125-2.453126-.035156-5.332032-2.492187-6.414063l-28.792969-12.695313c-2.585937-1.140624-4.3125-3.636718-4.464844-6.457031-.152343-2.820312 1.292969-5.488281 3.738281-6.902343l18.671876-10.777344c1.125-.648438 1.929687-1.699219 2.265624-2.953125.335938-1.257813.164063-2.566407-.484374-3.691407-1.34375-2.324218-4.324219-3.125-6.648438-1.78125l-18.667969 10.777344c-2.445312 1.410156-5.480469 1.332032-7.847656-.214844-2.367187-1.542968-3.667969-4.28125-3.359375-7.09375l3.402344-31.285156c.289062-2.664062-1.648438-5.070312-4.3125-5.363281-1.296875-.136719-2.558594.230469-3.574219 1.042969-1.015625.816406-1.648437 1.976562-1.789063 3.269531l-5.359374 49.285156c-.257813 2.375-1.636719 4.488281-3.707032 5.683594l-11.722656 6.769531c-1.722656.996094-3.769531 1.265625-5.691406.75-1.917969-.515625-3.558594-1.773437-4.554688-3.496094l-3.429687-5.941406c-.648438-1.125-1.699219-1.929687-2.953125-2.265625-1.253906-.335937-2.566406-.164062-3.691406.484375-1.128907.648438-1.933594 1.699219-2.269532 2.957032-.335937 1.253906-.164062 2.5625.484375 3.691406l3.433594 5.941406c2.070313 3.585938.839844 8.171875-2.746094 10.246094l-57.199219 33.019531c-2.445312 1.414063-5.480468 1.332031-7.847656-.210937-2.367187-1.542969-3.664062-4.285157-3.359375-7.09375l4.765625-43.8125c.210938-1.917969-.734375-3.777344-2.40625-4.738282-1.667968-.964844-3.753906-.851562-5.304687.285156l-35.5625 26.03125c-2.277344 1.667969-5.304688 1.914063-7.820313.636719-2.519531-1.277343-4.109375-3.863281-4.109375-6.6875v-66.046875c0-4.144531 3.359375-7.5 7.5-7.5h6.863281c2.683594 0 4.863282-2.183594 4.863282-4.867187 0-2.683594-2.183594-4.867188-4.863282-4.867188h-6.863281c-4.140625 0-7.5-3.355469-7.5-7.5v-13.539062c0-2.390625 1.140625-4.636719 3.070313-6.050781l40.003906-29.285157c2.164062-1.582031 2.636719-4.632812 1.050781-6.800781-.769531-1.046875-1.898437-1.734375-3.183593-1.933594-1.285157-.195312-2.566407.113282-3.617188.882813l-25.394531 18.589843c-2.277344 1.667969-5.304688 1.914063-7.820313.636719-2.519531-1.277343-4.109375-3.863281-4.109375-6.6875v-21.558593c0-2.683594-2.179687-4.867188-4.863281-4.867188s-4.867188 2.183594-4.867188 4.867188v21.558593c0 2.824219-1.589843 5.410157-4.105468 6.6875-2.523438 1.277344-5.546875 1.03125-7.824219-.636719l-25.390625-18.589843c-1.050781-.769531-2.335938-1.082031-3.621094-.882813-1.285156.199219-2.414062.886719-3.183594 1.9375-1.585937 2.164063-1.113281 5.214844 1.050782 6.796875l40.003906 29.285157c1.929688 1.414062 3.070312 3.660156 3.070312 6.050781v13.535156c0 4.144531-3.355468 7.5-7.5 7.5h-6.859374c-2.6875 0-4.867188 2.183594-4.867188 4.867187 0 2.683594 2.183594 4.867188 4.867188 4.867188h6.859374c4.144532 0 7.5 3.355469 7.5 7.5v66.046875c0 2.824219-1.589843 5.410156-4.105468 6.6875-2.523438 1.28125-5.546875 1.03125-7.824219-.636719l-35.5625-26.03125c-1.554687-1.136718-3.636719-1.253906-5.308594-.289062-1.667969.964844-2.613281 2.824218-2.402343 4.738281l4.765624 43.816406c.304688 2.808594-.992187 5.546875-3.359374 7.089844-2.367188 1.546875-5.402344 1.625-7.847657.214844l-57.199219-33.023438c-3.585937-2.070312-4.816406-6.65625-2.746093-10.246093l3.433593-5.941407c.648438-1.125.820313-2.4375.484376-3.691406-.335938-1.257813-1.140626-2.304687-2.269532-2.957031-2.324218-1.339844-5.304687-.539063-6.644531 1.78125l-3.433594 5.945312c-.992187 1.722656-2.632812 2.976563-4.550781 3.492188-1.921875.519531-3.972656.246094-5.691406-.75l-11.722656-6.765625c-2.070313-1.195313-3.445313-3.308594-3.707032-5.6875l-5.359375-49.285157c-.140625-1.289062-.777343-2.453124-1.792969-3.265624-1.011718-.816407-2.28125-1.183594-3.5625-1.046876-2.671874.292969-4.609374 2.699219-4.320312 5.367188l3.40625 31.285156c.304688 2.808594-.996094 5.550782-3.359375 7.09375-2.371094 1.542969-5.402344 1.621094-7.847656.210938l-18.671875-10.777344c-2.324219-1.34375-5.304688-.542969-6.644532 1.777344-.652343 1.128906-.824218 2.441406-.488281 3.695312.335938 1.253906 1.140625 2.304688 2.269531 2.953125l18.667969 10.78125c2.445313 1.410157 3.890625 4.078125 3.738281 6.898438-.152343 2.820312-1.875 5.316406-4.460937 6.457031l-28.800781 12.699219c-2.453125 1.082031-3.570313 3.960937-2.488282 6.417969.777344 1.761718 2.527344 2.902343 4.457032 2.902343.671875 0 1.332031-.140625 1.957031-.414062l45.363281-20c2.1875-.96875 4.703125-.832031 6.773438.367187l11.722656 6.765625c3.585938 2.070313 4.816406 6.65625 2.746094 10.246094l-3.429688 5.941406c-.652344 1.125-.824218 2.4375-.488281 3.691407.339844 1.253906 1.144531 2.304687 2.269531 2.953124.75.433594 1.566406.65625 2.421875.65625 1.738281 0 3.359375-.933593 4.226563-2.4375l3.429687-5.9375c.992188-1.726562 2.632813-2.980468 4.554688-3.496093 1.917969-.515625 3.96875-.246094 5.691406.75l12.65625 7.304687c3.585937 2.070313 4.816406 6.660156 2.746094 10.246094-2.070313 3.585938-6.660157 4.8125-10.246094 2.746094l-6.171875-3.5625c-3.605469 5.804687-10.019531 9.386718-16.886719 9.386718-3.472656 0-6.902343-.921874-9.921875-2.664062-4.597656-2.652344-7.882812-6.9375-9.257812-12.0625-1.316406-4.921875-.722656-10.050781 1.675781-14.515625l-1.941406-1.121094-41.882813 18.464844c-2.542968 1.125-5.238281 1.691406-8.007812 1.691406-7.867188 0-15.007813-4.652343-18.183594-11.851562-4.417969-10.027344.140625-21.777344 10.164062-26.195313l15.265626-6.730468-5.867188-3.386719c-4.59375-2.652344-7.882812-6.9375-9.253906-12.0625-1.375-5.125-.667969-10.480469 1.984375-15.074219 5.476562-9.484375 17.648437-12.746094 27.136719-7.269531l5.867187 3.386719-1.804687-16.585938c-1.183594-10.890625 6.710937-20.714844 17.601562-21.898438 5.265625-.574218 10.449219.933594 14.589844 4.261719s6.734375 8.066407 7.308594 13.339844l4.949218 45.503906 1.9375 1.121094c5.625-9.0625 17.511719-12.09375 26.808594-6.726563 4.597656 2.652344 7.886719 6.9375 9.257812 12.0625 1.320313 4.921876.722657 10.050782-1.671874 14.519532l37.90625 21.886718-3.164063-29.117187c-.855469-7.820313 3-15.414063 9.816406-19.351563 6.8125-3.933593 15.316407-3.46875 21.667969 1.175782l23.628906 17.300781v-43.773437c-10.65625-.339844-19.226562-9.117188-19.226562-19.855469 0-10.742188 8.566406-19.519531 19.226562-19.859375v-2.238282l-36.933594-27.035156c-8.835937-6.472656-10.765624-18.925781-4.292968-27.765625 3.132812-4.28125 7.75-7.085937 12.992187-7.898437 5.246094-.8125 10.492188.46875 14.773438 3.605468l13.460937 9.851563v-6.769531c0-10.960938 8.914063-19.871094 19.867188-19.871094s19.867187 8.910156 19.867187 19.867188v6.769531l13.460938-9.851563c4.28125-3.136718 9.53125-4.417968 14.773437-3.605468 5.242188.8125 9.855469 3.617187 12.992188 7.898437 6.46875 8.839844 4.542968 21.292969-4.296875 27.765625l-36.929688 27.035156v2.238282c10.65625.339843 19.226563 9.117187 19.226563 19.859374 0 10.738282-8.566406 19.515626-19.226563 19.855469v43.769531l23.625-17.296874c6.347657-4.648438 14.855469-5.109376 21.671875-1.175782 6.8125 3.9375 10.667969 11.53125 9.816406 19.355469l-3.167968 29.113281 37.910156-21.886718c-2.398438-4.46875-2.992188-9.597657-1.675781-14.519532 1.375-5.125 4.660156-9.410156 9.257812-12.0625 4.59375-2.652344 9.949219-3.359375 15.074219-1.984375 4.917969 1.320313 9.0625 4.402344 11.734375 8.710938l1.941406-1.121094 4.945313-45.503906c.574218-5.273438 3.167968-10.015625 7.308594-13.339844 4.140624-3.324219 9.324218-4.839844 14.597656-4.261719 10.882812 1.183594 18.777344 11.007813 17.59375 21.894532l-1.800782 16.589843 5.863282-3.386719c9.484375-5.480468 21.660156-2.214843 27.136718 7.269532 2.652344 4.597656 3.359376 9.949218 1.988282 15.074218-1.375 5.128907-4.664063 9.410157-9.257813 12.066407l-5.867187 3.382812 15.265625 6.734375c10.023437 4.417969 14.582031 16.167969 10.164062 26.191406-3.175781 7.199219-10.3125 11.851563-18.183593 11.851563-2.769532 0-5.464844-.566406-8.011719-1.691406l-41.878907-18.464844-1.9375 1.121094c2.394532 4.464843 2.988282 9.597656 1.671876 14.515625-1.375 5.125-4.660157 9.410156-9.257813 12.0625-3.015625 1.742187-6.445313 2.664062-9.917969 2.664062-6.867187 0-13.28125-3.582031-16.890625-9.386718l-37.90625 21.886718 26.796875 11.8125c7.195313 3.175782 11.847656 10.3125 11.847656 18.179688 0 7.867187-4.652343 15.003906-11.851562 18.175781l-26.792969 11.816406 3.21875 1.855469c3.585938 2.070312 4.8125 6.660156 2.742188 10.246094-1.386719 2.414062-3.90625 3.757812-6.5 3.757812zm-139.722657-24.578125c-1.027343 0-2.058593-.210937-3.027343-.636719l-31.226563-13.769531c-2.71875-1.199219-4.472656-3.890625-4.472656-6.863281s1.753906-5.664062 4.472656-6.863281l31.226563-13.769531c2.1875-.964844 4.707031-.828126 6.777343.367187l23.851563 13.769531c2.316406 1.339844 3.75 3.816406 3.75 6.496094s-1.433594 5.15625-3.75 6.496094l-23.851563 13.769531c-1.15625.667969-2.453124 1.003906-3.75 1.003906zm-12.640624-21.269531 12.183593 5.371094 9.308594-5.371094-9.308594-5.371094zm109.804687 21.269531c-1.300781 0-2.59375-.335937-3.75-1.003906l-23.851563-13.769531c-2.320312-1.339844-3.75-3.816406-3.75-6.496094s1.429688-5.15625 3.75-6.496094l23.851563-13.769531c2.070313-1.195313 4.585937-1.332031 6.777344-.367187l31.226562 13.769531c2.71875 1.199219 4.476563 3.890625 4.476563 6.863281s-1.757813 5.664062-4.476563 6.863281l-31.226562 13.769531c-.96875.425782-2 .636719-3.027344.636719zm-8.851563-21.269531 9.304688 5.371094 12.183594-5.371094-12.183594-5.371094zm-52.097656-13.917969c-1.292968 0-2.589844-.335937-3.75-1.003906l-23.847656-13.769531c-2.070312-1.195313-3.449219-3.308594-3.707031-5.6875l-3.6875-33.929688c-.324219-2.953125 1.128906-5.820312 3.703125-7.304687 2.574218-1.488281 5.785156-1.3125 8.179687.441406l27.542969 20.160156c1.929688 1.414063 3.066406 3.660157 3.066406 6.050781v27.539063c0 2.683594-1.429687 5.15625-3.75 6.496094-1.160156.671875-2.453125 1.007812-3.75 1.007812zm-16.804687-25.863281 9.304687 5.375v-10.746094l-10.742187-7.863281zm41.539062 25.863281c-1.296875 0-2.589843-.335937-3.75-1.007812-2.320312-1.339844-3.75-3.8125-3.75-6.492188v-27.539062c0-2.390625 1.140625-4.640625 3.070313-6.050781l27.539062-20.160157c2.394532-1.753906 5.605469-1.929687 8.179688-.445312 2.574218 1.488281 4.027344 4.351562 3.707031 7.308593l-3.691406 33.925782c-.257813 2.378906-1.632813 4.492187-3.707031 5.6875l-23.847657 13.769531c-1.160156.667969-2.457031 1.003906-3.75 1.003906zm7.5-31.234375v10.742188l9.304688-5.371094 1.4375-13.234375zm0 0"/><path d="m142.015625 393.195312h-.105469c-4.144531 0-7.5-3.355468-7.5-7.5 0-4.140624 3.355469-7.5 7.5-7.5h.105469c4.140625 0 7.5 3.359376 7.5 7.5 0 4.144532-3.359375 7.5-7.5 7.5zm0 0"/><path d="m149.226562 431.148438h-.105468c-4.140625 0-7.5-3.355469-7.5-7.5 0-4.140626 3.359375-7.5 7.5-7.5h.105468c4.144532 0 7.5 3.359374 7.5 7.5 0 4.144531-3.359374 7.5-7.5 7.5zm0 0"/><path d="m350.269531 78.667969c-.023437 0-.046875 0-.070312 0l-.105469-.003907c-4.140625-.035156-7.46875-3.425781-7.429688-7.566406.039063-4.121094 3.390626-7.433594 7.5-7.433594h.070313l.105469.003907c4.140625.039062 7.46875 3.429687 7.429687 7.570312-.039062 4.117188-3.390625 7.429688-7.5 7.429688zm0 0"/><path d="m401.265625 237.65625h-.105469c-4.140625 0-7.5-3.355469-7.5-7.5 0-4.140625 3.359375-7.5 7.5-7.5h.105469c4.144531 0 7.5 3.359375 7.5 7.5 0 4.144531-3.359375 7.5-7.5 7.5zm0 0"/><path d="m335.371094 446.148438h-.101563c-4.144531 0-7.5-3.359376-7.5-7.5 0-4.144532 3.355469-7.5 7.5-7.5h.101563c4.144531 0 7.5 3.355468 7.5 7.5 0 4.140624-3.355469 7.5-7.5 7.5zm0 0"/><path d="m150.246094 123.664062h-.101563c-4.144531 0-7.5-3.355468-7.5-7.5 0-4.144531 3.355469-7.5 7.5-7.5h.101563c4.144531 0 7.5 3.355469 7.5 7.5 0 4.144532-3.355469 7.5-7.5 7.5zm0 0"/><path d="m82.183594 54.125h-.105469c-4.140625 0-7.5-3.355469-7.5-7.5 0-4.140625 3.359375-7.5 7.5-7.5h.105469c4.144531 0 7.5 3.359375 7.5 7.5 0 4.144531-3.359375 7.5-7.5 7.5zm0 0"/></svg>