<svg height="512pt" viewBox="0 -72 512 512" width="512pt" xmlns="http://www.w3.org/2000/svg"><path d="m330.148438 190.25c0 66.910156-54.238282 121.148438-121.144532 121.148438s-121.144531-54.238282-121.144531-121.148438c0-66.90625 54.238281-121.144531 121.144531-121.144531s121.144532 54.238281 121.144532 121.144531zm0 0" fill="#fd8f3e"/><path d="m294.664062 104.585938c47.3125 47.3125 47.3125 124.015624 0 171.328124-41.5 41.496094-105.609374 46.597657-152.65625 15.296876 6.597657-4.386719 12.851563-9.480469 18.667969-15.296876 47.3125-47.3125 47.3125-124.015624 0-171.328124-5.816406-5.816407-12.070312-10.910157-18.667969-15.296876 47.058594-31.292968 111.167969-26.191406 152.65625 15.296876zm0 0" fill="#fe672d"/><path d="m437.019531 221.558594c-4.175781-68.976563-61.429687-123.628906-131.453125-123.628906-56.476562 0-104.644531 35.550781-123.363281 85.492187-48.632813.585937-87.882813 40.175781-87.882813 88.949219 0 49.136718 39.835938 88.972656 88.972657 88.972656h251.285156c38.617187 0 69.921875-31.304688 69.921875-69.921875 0-37.800781-29.996094-68.574219-67.480469-69.863281zm0 0" fill="#fab03c"/><path d="m504.503906 291.417969c0 38.617187-31.3125 69.929687-69.929687 69.929687h-5.417969c5.070312-9.679687 7.941406-20.699218 7.941406-32.378906 0-37.796875-29.996094-68.574219-67.480468-69.867188-4.175782-68.972656-61.433594-123.632812-131.460938-123.632812-9.441406 0-18.648438.996094-27.523438 2.882812 23.957032-24.910156 57.628907-40.417968 94.929688-40.417968 70.03125 0 127.285156 54.648437 131.460938 123.632812 37.484374 1.277344 67.480468 32.054688 67.480468 69.851563zm0 0" fill="#fd8f3e"/><path d="m75.160156 261.410156c2.984375-49.3125 43.914063-88.386718 93.976563-88.386718 40.375 0 74.8125 25.417968 88.195312 61.121093 34.769531.421875 62.828125 28.722657 62.828125 63.589844 0 35.132813-28.480468 63.609375-63.609375 63.609375-14.707031 0-164.535156 0-179.644531 0-27.609375 0-49.988281-22.378906-49.988281-49.988281-.003907-27.023438 21.441406-49.027344 48.242187-49.945313zm0 0" fill="#f8e98e"/><path d="m320.164062 297.738281c0 34.828125-28.007812 63.121094-62.734374 63.59375 10.410156-11.332031 16.757812-26.429687 16.757812-43.015625 0-34.867187-28.054688-63.171875-62.832031-63.59375-13.382813-35.695312-47.8125-61.121094-88.195313-61.121094-4.769531 0-9.457031.363282-14.039062 1.046876 16.289062-13.507813 37.199218-21.621094 60.011718-21.621094 40.382813 0 74.8125 25.410156 88.195313 61.121094 34.777344.421874 62.835937 28.714843 62.835937 63.589843zm0 0" fill="#f6cb43"/><path d="m490.203125 237.578125c-12.453125-12.855469-28.679687-20.882813-46.246094-23-7.550781-70.125-67.113281-124.148437-138.394531-124.148437-4.863281 0-9.707031.257812-14.503906.757812-20.238282-16.800781-44.777344-26.871094-71.089844-29.109375-4.125-.339844-7.757812 2.710937-8.109375 6.839844-.351563 4.125 2.710937 7.757812 6.835937 8.109375 18.773438 1.59375 36.511719 7.707031 52.058594 17.804687-14.277344 3.675781-27.929687 9.617188-40.457031 17.6875-20.75 13.363281-37.515625 31.910157-48.710937 53.792969-4.097657-.511719-8.25-.789062-12.449219-.789062-28.804688 0-54.988281 12.089843-73.570313 31.566406-1.921875-32.257813 9.964844-64.082032 33.078125-87.195313 16.292969-16.292969 36.832031-27.132812 59.402344-31.34375 4.074219-.757812 6.757813-4.675781 6-8.75-.761719-4.070312-4.6875-6.757812-8.75-5.996093-25.558594 4.769531-48.816406 17.039062-67.257813 35.480468-29.804687 29.800782-43.121093 72.386719-35.628906 113.917969.042969.246094.101563.488281.171875.722656-7.453125 12.070313-12.476562 25.816407-14.316406 40.59375-27.875 4.140625-48.851563 27.945313-48.851563 56.835938 0 8.855469 1.96875 17.359375 5.851563 25.277343 1.828125 3.71875 6.320313 5.257813 10.039063 3.433594 3.71875-1.824218 5.253906-6.316406 3.429687-10.035156-2.863281-5.847656-4.316406-12.128906-4.316406-18.675781 0-23.011719 18.007812-41.660157 41-42.449219 3.867187-.132812 6.996093-3.183594 7.230469-7.042969 2.757812-45.609375 40.75-81.335937 86.492187-81.335937 35.9375 0 68.558594 22.601562 81.167969 56.25 1.085937 2.898437 3.839844 4.828125 6.933594 4.867187 30.558593.367188 55.421874 25.53125 55.421874 56.089844 0 30.9375-25.171874 56.109375-56.109374 56.109375h-179.652344c-6.480469 0-12.699219-1.421875-18.484375-4.222656-3.730469-1.808594-8.214844-.246094-10.019531 3.480468-1.804688 3.730469-.246094 8.214844 3.480468 10.019532 7.84375 3.796875 16.261719 5.722656 25.023438 5.722656h287.769531c4.144531 0 7.5-3.359375 7.5-7.5s-3.355469-7.5-7.5-7.5h-64.515625c16.71875-13.023438 27.503906-33.324219 27.503906-56.109375 0-18.839844-7.296875-36.59375-20.542968-49.988281-12.042969-12.171875-27.734376-19.472656-44.632813-20.863282-12.203125-28.210937-36.648437-49.132812-65.574219-57.429687 9.941406-17.929687 24.164063-33.152344 41.507813-44.324219 20.011719-12.886718 43.226562-19.699218 67.144531-19.699218 65.558594 0 120.011719 51.207031 123.96875 116.582031.234375 3.859375 3.363281 6.910156 7.230469 7.042969 16.210937.554687 31.363281 7.289062 42.667969 18.960937 11.332031 11.699219 17.570312 27.113281 17.570312 43.402344 0 34.421875-28.003906 62.421875-62.421875 62.421875h-37.246094c-4.140625 0-7.5 3.359375-7.5 7.503906 0 4.140625 3.359375 7.5 7.5 7.5h37.246094c42.691406 0 77.421875-34.734375 77.421875-77.425781 0-20.207031-7.742188-39.324219-21.796875-53.839844zm0 0"/><path d="m394.871094 208.078125c.824218 3.4375 3.898437 5.75 7.285156 5.75.578125 0 1.167969-.070313 1.757812-.210937 4.027344-.96875 6.507813-5.015626 5.539063-9.042969-1.417969-5.90625-3.359375-11.726563-5.773437-17.300781-1.640626-3.800782-6.054688-5.550782-9.859376-3.90625-3.800781 1.644531-5.550781 6.0625-3.902343 9.863281 2.066406 4.78125 3.734375 9.777343 4.953125 14.847656zm0 0"/><path d="m305.566406 122.785156c-4.144531 0-7.5 3.355469-7.5 7.5 0 4.140625 3.355469 7.5 7.5 7.5 25.222656 0 48.769532 10.054688 66.296875 28.316406 1.472657 1.535157 3.4375 2.308594 5.410157 2.308594 1.867187 0 3.738281-.695312 5.191406-2.089844 2.988281-2.867187 3.085937-7.617187.21875-10.605468-20.382813-21.234375-47.769532-32.929688-77.117188-32.929688zm0 0"/><path d="m359.648438 79.234375c0 4.140625 3.355468 7.5 7.5 7.5 4.140624 0 7.5-3.359375 7.5-7.5 0-7.832031 6.371093-14.203125 14.203124-14.203125 5.753907 0 10.707032 3.441406 12.9375 8.371094-3.285156.796875-5.726562 3.75-5.726562 7.277344 0 4.144531 3.359375 7.5 7.5 7.5h13.988281c4.140625 0 7.5-3.355469 7.5-7.5 0-3.527344-2.441406-6.480469-5.726562-7.277344 2.230469-4.929688 7.183593-8.375 12.9375-8.375 7.832031 0 14.203125 6.375 14.203125 14.207031 0 4.140625 3.359375 7.5 7.5 7.5 4.144531 0 7.5-3.359375 7.5-7.5 0-16.105469-13.101563-29.207031-29.203125-29.207031-8.605469 0-16.355469 3.746094-21.703125 9.691406-5.351563-5.945312-13.097656-9.691406-21.707032-9.691406-16.105468.003906-29.203124 13.105468-29.203124 29.207031zm0 0"/><path d="m280.328125 36.707031c4.140625 0 7.5-3.359375 7.5-7.5 0-7.835937 6.371094-14.207031 14.203125-14.207031 5.753906 0 10.707031 3.441406 12.9375 8.371094-3.285156.796875-5.726562 3.75-5.726562 7.28125 0 4.140625 3.355468 7.5 7.5 7.5h13.988281c4.140625 0 7.5-3.359375 7.5-7.5 0-3.53125-2.441407-6.484375-5.726563-7.28125 2.230469-4.929688 7.183594-8.371094 12.9375-8.371094 7.832032 0 14.203125 6.371094 14.203125 14.207031 0 4.140625 3.359375 7.5 7.5 7.5 4.144531 0 7.5-3.359375 7.5-7.5 0-16.105469-13.101562-29.207031-29.203125-29.207031-8.609375 0-16.355468 3.746094-21.703125 9.6875-5.351562-5.941406-13.097656-9.6875-21.707031-9.6875-16.105469 0-29.207031 13.101562-29.207031 29.207031 0 4.140625 3.359375 7.5 7.503906 7.5zm0 0"/><path d="m42.140625 90.648438c-3.285156.800781-5.722656 3.75-5.722656 7.28125 0 4.140624 3.355469 7.5 7.5 7.5h13.984375c4.144531 0 7.5-3.359376 7.5-7.5 0-3.53125-2.441406-6.484376-5.726563-7.28125 2.230469-4.925782 7.1875-8.371094 12.9375-8.371094 7.835938 0 14.207031 6.375 14.207031 14.207031 0 4.140625 3.355469 7.5 7.5 7.5 4.140626 0 7.5-3.359375 7.5-7.5 0-16.105469-13.101562-29.207031-29.207031-29.207031-8.605469 0-16.355469 3.746094-21.703125 9.691406-5.351562-5.945312-13.097656-9.691406-21.703125-9.691406-16.105469 0-29.207031 13.101562-29.207031 29.207031 0 4.140625 3.355469 7.5 7.5 7.5s7.5-3.359375 7.5-7.5c0-7.835937 6.371094-14.207031 14.207031-14.207031 5.75 0 10.703125 3.441406 12.933594 8.371094zm0 0"/></svg>