<svg height="512pt" viewBox="0 -53 512 512" width="512pt" xmlns="http://www.w3.org/2000/svg"><path d="m504.5 202.5c0 90.015625-72.972656 162.984375-162.984375 162.984375-90.015625 0-162.988281-72.96875-162.988281-162.984375s72.972656-162.984375 162.988281-162.984375c90.011719 0 162.984375 72.96875 162.984375 162.984375zm0 0" fill="#fab03c"/><path d="m476.960938 293.1875c-29.246094 43.609375-78.996094 72.300781-135.445313 72.300781-90.015625 0-162.984375-72.96875-162.984375-162.984375 0-90.019531 72.96875-162.988281 162.984375-162.988281 7.257813 0 14.394531.472656 21.398437 1.398437-17.394531 25.921876-27.546874 57.117188-27.546874 90.6875 0 82.757813 61.6875 151.117188 141.59375 161.585938zm0 0" fill="#fd8f3e"/><path d="m304.910156 202.5c0 82.132812-66.582031 148.699219-148.710937 148.699219-26.902344 0-52.136719-7.148438-73.914063-19.648438-21.21875-12.179687-39.148437-29.449219-52.136718-50.125-14.34375-22.871093-22.648438-49.921875-22.648438-78.925781 0-42.5 17.832031-80.847656 46.425781-107.945312 26.652344-25.261719 62.644531-40.753907 102.273438-40.753907 78.78125 0 143.25 61.25 148.378906 138.734375.226563 3.292969.332031 6.613282.332031 9.964844zm0 0" fill="#1e6be7"/><path d="m304.910156 202.5c0 82.132812-66.582031 148.699219-148.710937 148.699219-53.128907 0-99.746094-27.863281-126.050781-69.773438-.222657-3.292969-.328126-6.613281-.328126-9.964843 0-82.132813 66.578126-148.699219 148.710938-148.699219 53.125 0 99.746094 27.863281 126.046875 69.773437.226563 3.292969.332031 6.613282.332031 9.964844zm0 0" fill="#3e4eb7"/><path d="m135.105469 255.511719v23.464843c0 5.808594-2.605469 11.316407-7.089844 15.007813l-45.730469 37.570313c-21.21875-12.183594-39.148437-29.449219-52.136718-50.128907-.738282-1.175781-1.457032-2.371093-2.164063-3.5625-13.015625-22.097656-20.484375-47.855469-20.484375-75.363281 0-42.5 17.832031-80.847656 46.425781-107.945312l54.421875 12.414062c8.835938 2.019531 15.101563 9.878906 15.101563 18.9375v27.011719c0 6.78125-3.535157 13.0625-9.335938 16.589843l-28.144531 17.132813c-5.796875 3.523437-9.335938 9.808594-9.335938 16.589844v4.855469c0 8.371093 5.363282 15.800781 13.316407 18.433593l31.839843 10.558594c7.953126 2.632813 13.316407 10.0625 13.316407 18.433594zm0 0" fill="#38aaff"/><path d="m135.105469 255.511719v23.464843c0 5.808594-2.605469 11.316407-7.089844 15.007813l-45.730469 37.570313c-21.21875-12.183594-39.148437-29.449219-52.136718-50.128907-.738282-1.175781-1.457032-2.371093-2.164063-3.5625 1.15625-3.625 1.835937-5.925781 1.835937-6.402343 0-62.664063 38.761719-116.277344 93.628907-138.160157v19.617188c0 6.78125-3.535157 13.0625-9.335938 16.589843l-28.144531 17.132813c-5.796875 3.523437-9.335938 9.808594-9.335938 16.589844v4.855469c0 8.371093 5.363282 15.800781 13.316407 18.433593l31.839843 10.558594c7.953126 2.632813 13.316407 10.0625 13.316407 18.433594zm0 0" fill="#2081f6"/><path d="m441.050781 146.988281c0 16.089844-13.046875 29.136719-29.136719 29.136719-16.09375 0-29.140624-13.046875-29.140624-29.136719 0-16.09375 13.046874-29.140625 29.140624-29.140625 16.089844 0 29.136719 13.046875 29.136719 29.140625zm0 0" fill="#fbdbb7"/><path d="m441.050781 146.984375c0 16.09375-13.042969 29.136719-29.136719 29.136719s-29.140624-13.042969-29.140624-29.136719c0-3.757813.710937-7.363281 2.023437-10.65625 4.242187 10.820313 14.78125 18.484375 27.117187 18.484375 12.332032 0 22.871094-7.664062 27.117188-18.484375 1.3125 3.292969 2.019531 6.898437 2.019531 10.65625zm0 0" fill="#f4bc8e"/><path d="m474.761719 212.214844c0 10.988281-8.910157 19.898437-19.898438 19.898437s-19.898437-8.910156-19.898437-19.898437c0-10.988282 8.910156-19.898438 19.898437-19.898438s19.898438 8.910156 19.898438 19.898438zm0 0" fill="#fbdbb7"/><path d="m474.761719 212.210938c0 10.992187-8.910157 19.898437-19.898438 19.898437-10.992187 0-19.898437-8.90625-19.898437-19.898437 0-2.566407.484375-5.027344 1.378906-7.273438 2.898438 7.386719 10.097656 12.621094 18.519531 12.621094s15.621094-5.234375 18.519531-12.621094c.894532 2.246094 1.378907 4.707031 1.378907 7.273438zm0 0" fill="#f4bc8e"/><path d="m487.402344 114.242188c-2.148438-3.542969-6.761719-4.675782-10.300782-2.523438-3.542968 2.144531-4.671874 6.757812-2.527343 10.300781 14.671875 24.199219 22.425781 52.027344 22.425781 80.480469 0 46.140625-20.316406 89.613281-55.742188 119.269531-3.175781 2.660157-3.597656 7.390625-.9375 10.566407 1.484376 1.773437 3.609376 2.6875 5.753907 2.6875 1.699219 0 3.40625-.574219 4.8125-1.75 38.839843-32.515626 61.113281-80.179688 61.113281-130.773438 0-31.195312-8.507812-61.714844-24.597656-88.257812zm0 0"/><path d="m415.488281 339.296875c-22.5625 12.226563-48.144531 18.6875-73.976562 18.6875-16.132813 0-32.070313-2.523437-47.242188-7.363281 1.898438-1.765625 3.765625-3.5625 5.589844-5.398438 2.917969-2.9375 2.902344-7.6875-.035156-10.605468-2.9375-2.921876-7.6875-2.90625-10.605469.03125-3.4375 3.460937-7.027344 6.789062-10.734375 9.980468-10.234375-4.535156-19.992187-10.175781-29.078125-16.855468 38.210938-28.5 63-74.046876 63-125.273438 0-51.222656-24.789062-96.765625-62.996094-125.269531 9.082032-6.675781 18.839844-12.320313 29.078125-16.851563 3.671875 3.160156 7.230469 6.457032 10.640625 9.882813 1.464844 1.472656 3.390625 2.210937 5.316406 2.210937 1.914063 0 3.828126-.730468 5.289063-2.1875 2.9375-2.921875 2.949219-7.667968.027344-10.605468-1.792969-1.796876-3.625-3.558594-5.484375-5.292969 15.175781-4.839844 31.113281-7.371094 47.234375-7.371094 43.167969 0 84.757812 18.183594 114.109375 49.886719 1.480468 1.59375 3.488281 2.402344 5.507812 2.402344 1.820313 0 3.648438-.660157 5.09375-1.996094 3.039063-2.8125 3.222656-7.558594.40625-10.597656-32.183594-34.761719-77.785156-54.695313-125.117187-54.695313-20.757813 0-41.242188 3.824219-60.421875 11.085937-2.683594-2.109374-5.414063-4.152343-8.195313-6.117187-3.382812-2.390625-8.0625-1.582031-10.453125 1.800781-2.386718 3.382813-1.582031 8.0625 1.800782 10.449219.359374.253906.714843.519531 1.070312.773437-10.25 5.113282-20.003906 11.265626-29.082031 18.398438-23.421875-14.03125-50.796875-22.109375-80.027344-22.109375-86.132813 0-156.203125 70.070313-156.203125 156.203125 0 24.941406 6.03125 49.765625 17.441406 71.78125 1.90625 3.675781 6.4375 5.113281 10.109375 3.207031 3.679688-1.90625 5.113281-6.433593 3.210938-10.109375-10.457031-20.179687-15.761719-42.007812-15.761719-64.878906 0-38.882812 15.800781-74.144531 41.3125-99.707031l50.363281 11.488281c5.460938 1.246094 9.273438 6.027344 9.273438 11.625v27.007812c0 4.136719-2.195313 8.039063-5.730469 10.1875l-28.152344 17.128907c-7.976562 4.851562-12.933594 13.664062-12.933594 23.003906v4.851563c0 11.628906 7.417969 21.898437 18.457032 25.558593l31.839844 10.550781c4.886718 1.621094 8.171874 6.167969 8.171874 11.320313v23.460937c0 3.582032-1.585937 6.9375-4.355468 9.214844l-41.625 34.203125c-12.367188-7.703125-23.613282-17.351562-33.261719-28.753906-2.671875-3.160156-7.40625-3.558594-10.566406-.882813-3.164063 2.675782-3.558594 7.40625-.882813 10.570313 29.773438 35.191406 73.253906 55.375 119.292969 55.375 29.230469 0 56.609375-8.078125 80.03125-22.109375 9.082031 7.132812 18.828125 13.289062 29.074219 18.402344-.320313.230468-.636719.464844-.960938.695312-3.382812 2.390625-4.183594 7.070313-1.792968 10.453125 1.464843 2.066407 3.777343 3.167969 6.132812 3.167969 1.496094 0 3.007812-.445312 4.324219-1.375 2.738281-1.941406 5.429687-3.957031 8.078125-6.035156 19.171875 7.261718 39.644531 11.082031 60.421875 11.082031 28.320312 0 56.371093-7.089844 81.121093-20.5 3.640626-1.972656 4.996094-6.523437 3.019532-10.167969-1.96875-3.640625-6.523438-4.992187-10.164063-3.019531zm-319.671875-9.152344 36.957032-30.367187c6.246093-5.132813 9.832031-12.714844 9.832031-20.800782v-23.460937c0-11.632813-7.417969-21.902344-18.457031-25.5625l-31.839844-10.550781c-4.890625-1.621094-8.171875-6.167969-8.171875-11.320313v-4.851562c0-4.132813 2.191406-8.039063 5.726562-10.1875l28.152344-17.125c7.980469-4.851563 12.933594-13.667969 12.933594-23.003907v-27.007812c0-12.640625-8.609375-23.4375-20.9375-26.25l-39.792969-9.078125c23.828125-18.351563 53.652344-29.28125 85.984375-29.28125 77.859375 0 141.203125 63.34375 141.203125 141.203125s-63.34375 141.203125-141.203125 141.203125c-21.171875 0-41.738281-4.730469-60.386719-13.558594zm0 0"/><path d="m156.203125 15c5.761719 0 11.578125.265625 17.292969.785156.234375.023438.464844.03125.691406.03125 3.835938 0 7.105469-2.921875 7.460938-6.816406.378906-4.125-2.660157-7.773438-6.785157-8.148438-6.167969-.566406-12.445312-.851562-18.660156-.851562-4.144531 0-7.5 3.355469-7.5 7.5s3.359375 7.5 7.5 7.5zm0 0"/><path d="m236.230469 372.117188c-9.8125 4.636718-20.085938 8.433593-30.539063 11.285156-3.996094 1.089844-6.351562 5.214844-5.261718 9.210937.910156 3.335938 3.933593 5.527344 7.230468 5.527344.652344 0 1.316406-.085937 1.976563-.269531 11.300781-3.082032 22.402343-7.183594 33-12.195313 3.746093-1.769531 5.347656-6.238281 3.578125-9.984375-1.769532-3.746094-6.242188-5.347656-9.984375-3.574218zm0 0"/><path d="m311.957031 320.085938c1.308594.910156 2.804688 1.351562 4.285157 1.351562 2.367187 0 4.699218-1.121094 6.15625-3.210938 6.710937-9.621093 12.613281-19.882812 17.542968-30.492187 1.746094-3.753906.117188-8.214844-3.640625-9.960937-3.753906-1.742188-8.214843-.117188-9.960937 3.640624-4.5625 9.824219-10.03125 19.320313-16.242188 28.230469-2.371094 3.394531-1.535156 8.074219 1.859375 10.441407zm0 0"/><path d="m351.125 211.890625c-4.117188-.359375-7.761719 2.707031-8.113281 6.832031-.925781 10.828125-2.808594 21.621094-5.585938 32.082032-1.0625 4 1.316407 8.109374 5.320313 9.171874.648437.171876 1.292968.253907 1.933594.253907 3.316406 0 6.351562-2.21875 7.242187-5.574219 3.003906-11.300781 5.03125-22.957031 6.035156-34.648438.355469-4.128906-2.703125-7.761718-6.832031-8.117187zm0 0"/><path d="m337.390625 154.066406c2.785156 10.453125 4.675781 21.246094 5.609375 32.074219.335938 3.90625 3.613281 6.851563 7.464844 6.851563.214844 0 .433594-.007813.652344-.023438 4.125-.359375 7.183593-3.992188 6.828124-8.121094-1.011718-11.695312-3.050781-23.351562-6.0625-34.644531-1.066406-4.003906-5.183593-6.378906-9.179687-5.316406-4 1.066406-6.378906 5.175781-5.3125 9.179687zm0 0"/><path d="m322.316406 86.660156c-2.371094-3.394531-7.046875-4.226562-10.441406-1.855468-3.394531 2.375-4.226562 7.050781-1.855469 10.445312 6.222657 8.902344 11.691407 18.394531 16.261719 28.210938 1.269531 2.730468 3.980469 4.335937 6.804688 4.335937 1.058593 0 2.136718-.226563 3.160156-.699219 3.753906-1.75 5.382812-6.210937 3.636718-9.964844-4.941406-10.605468-10.847656-20.859374-17.566406-30.472656zm0 0"/><path d="m205.554688 21.5625c10.460937 2.84375 20.738281 6.636719 30.550781 11.265625 1.035156.488281 2.125.71875 3.195312.71875 2.8125 0 5.507813-1.589844 6.789063-4.300781 1.769531-3.746094.164062-8.214844-3.582032-9.984375-10.605468-5-21.710937-9.097657-33.015624-12.171875-3.992188-1.078125-8.117188 1.269531-9.207032 5.265625-1.085937 3.996093 1.273438 8.117187 5.269532 9.207031zm0 0"/><path d="m173.496094 389.214844c-5.695313.519531-11.515625.785156-17.292969.785156-4.144531 0-7.5 3.355469-7.5 7.5s3.355469 7.5 7.5 7.5c6.230469 0 12.511719-.285156 18.660156-.847656 4.125-.378906 7.164063-4.027344 6.785157-8.152344-.378907-4.125-4.015626-7.167969-8.152344-6.785156zm0 0"/><path d="m448.550781 146.988281c0-20.203125-16.4375-36.640625-36.636719-36.640625-20.203124 0-36.640624 16.4375-36.640624 36.640625 0 20.199219 16.4375 36.636719 36.640624 36.636719 20.199219 0 36.636719-16.4375 36.636719-36.636719zm-36.636719 21.636719c-11.933593 0-21.640624-9.707031-21.640624-21.636719 0-11.933593 9.707031-21.640625 21.640624-21.640625 11.929688 0 21.636719 9.707032 21.636719 21.640625 0 11.929688-9.707031 21.636719-21.636719 21.636719zm0 0"/><path d="m482.261719 212.214844c0-15.109375-12.289063-27.398438-27.398438-27.398438-15.105469 0-27.394531 12.289063-27.394531 27.398438 0 15.105468 12.289062 27.394531 27.394531 27.394531 15.109375 0 27.398438-12.289063 27.398438-27.394531zm-39.796875 0c0-6.835938 5.5625-12.398438 12.398437-12.398438 6.835938 0 12.398438 5.5625 12.398438 12.398438 0 6.835937-5.5625 12.394531-12.398438 12.394531-6.835937 0-12.398437-5.558594-12.398437-12.394531zm0 0"/><path d="m411.914062 211.023438c-4.144531 0-7.5 3.355468-7.5 7.5 0 4.140624 3.355469 7.5 7.5 7.5h.101563c4.140625 0 7.5-3.359376 7.5-7.5 0-4.144532-3.359375-7.5-7.5-7.5zm0 0"/><path d="m408.105469 100.433594h.074219c4.109374 0 7.460937-3.3125 7.5-7.425782.039062-4.144531-3.285157-7.53125-7.425782-7.574218h-.101562c-.027344 0-.050782 0-.078125 0-4.105469 0-7.457031 3.308594-7.496094 7.425781-.039063 4.144531 3.285156 7.53125 7.425781 7.574219zm0 0"/><path d="m387.335938 90.574219h.074218c4.109375 0 7.457032-3.308594 7.5-7.425781.039063-4.140626-3.285156-7.53125-7.429687-7.574219h-.097657c-.027343 0-.050781 0-.078124 0-4.105469 0-7.457032 3.3125-7.496094 7.429687-.039063 4.140625 3.285156 7.53125 7.425781 7.570313zm0 0"/><path d="m347.800781 340.144531h.097657c4.144531 0 7.5-3.355469 7.5-7.5 0-4.140625-3.355469-7.5-7.5-7.5h-.097657c-4.144531 0-7.5 3.359375-7.5 7.5 0 4.144531 3.355469 7.5 7.5 7.5zm0 0"/></svg>