<svg height="511pt" viewBox="-7 1 511 511.999" width="511pt" xmlns="http://www.w3.org/2000/svg"><path d="m359.378906 349.707031c43.625-43.785156 24.109375-102.390625-1.699218-145.671875h-206.636719c-25.8125 43.28125-45.324219 101.886719-1.703125 145.671875zm0 0" fill="#915040"/><path d="m361.519531 198.546875c0 11.84375-9.597656 21.445313-21.441406 21.445313s-21.445313-9.601563-21.445313-21.445313c0-11.839844 9.601563-21.441406 21.445313-21.441406s21.441406 9.601562 21.441406 21.441406zm0 0" fill="#efa66f"/><path d="m190.085938 198.546875c0 11.84375-9.601563 21.445313-21.445313 21.445313-11.839844 0-21.441406-9.601563-21.441406-21.445313 0-11.839844 9.601562-21.441406 21.441406-21.441406 11.84375 0 21.445313 9.601562 21.445313 21.441406zm0 0" fill="#efa66f"/><path d="m389.085938 422.296875v82.203125h-269.449219v-82.203125c0-48.808594 25.957031-91.546875 64.816406-115.191406 20.371094-12.390625 44.308594-19.535157 69.90625-19.535157 25.367187 0 49.082031 7.007813 69.335937 19.199219 9.460938 5.683594 18.167969 12.507813 25.925782 20.265625 24.382812 24.378906 39.464844 58.066406 39.464844 95.261719zm0 0" fill="#f6cb43"/><path d="m119.632812 431.316406h65.089844v38.898438h-65.089844zm0 0" fill="#fc4830"/><path d="m389.082031 422.292969v82.210937h-35.761719v-82.210937c0-37.195313-15.089843-70.875-39.46875-95.253907-7.757812-7.757812-16.464843-14.585937-25.925781-20.273437-15.398437-9.265625-32.808593-15.546875-51.425781-18.019531 5.847656-.777344 11.808594-1.179688 17.859375-1.179688 25.363281 0 49.078125 7.015625 69.339844 19.199219 9.449219 5.6875 18.167969 12.515625 25.925781 20.273437 24.378906 24.378907 39.457031 58.058594 39.457031 95.253907zm0 0" fill="#fab03c"/><path d="m310.839844 326.574219h-112.960938c-21.417968 0-38.78125-17.363281-38.78125-38.78125v-18.882813c0-6.179687 5.011719-11.1875 11.1875-11.1875h168.152344c6.175781 0 11.1875 5.007813 11.1875 11.1875v18.882813c-.003906 21.417969-17.367188 38.78125-38.785156 38.78125zm0 0" fill="#fab03c"/><path d="m175.511719 123.6875v96c0 43.546875 35.300781 78.847656 78.847656 78.847656s78.84375-35.300781 78.84375-78.847656v-96zm0 0" fill="#fbdbb7"/><path d="m333.203125 123.6875v96c0 21.769531-8.824219 41.492188-23.097656 55.753906-14.265625 14.265625-33.976563 23.089844-55.746094 23.089844-4.238281 0-8.394531-.332031-12.457031-.988281 16.78125-2.652344 31.796875-10.621094 43.289062-22.101563 14.261719-14.261718 23.089844-33.984375 23.089844-55.753906v-96zm0 0" fill="#f4bc8e"/><path d="m254.359375 41.578125c-57.9375 0-104.90625 46.96875-104.90625 104.90625v27.820313c68.890625 16.398437 95.101563-13.054688 104.90625-34.335938 9.804687 21.28125 36.019531 50.734375 104.90625 34.335938v-27.820313c0-57.9375-46.96875-104.90625-104.90625-104.90625zm0 0" fill="#915040"/><path d="m359.269531 146.484375v27.824219c-9.632812 2.285156-18.441406 3.695312-26.484375 4.335937v-24.015625c0-54.753906-38.074218-100.59375-89.191406-112.515625 3.535156-.355469 7.128906-.539062 10.765625-.539062 57.933594 0 104.910156 46.976562 104.910156 104.910156zm0 0" fill="#7c3c2f"/><path d="m389.878906 311.167969c.992188-4.023438-1.464844-8.085938-5.488281-9.074219-4.019531-.992188-8.085937 1.464844-9.074219 5.488281-2.144531 8.710938-5.835937 16.914063-10.988281 24.480469-4.921875-5.972656-10.359375-11.585938-16.289063-16.773438 5.703126-7.691406 9.082032-17.207031 9.082032-27.496093v-18.886719c0-10.304688-8.382813-18.6875-18.6875-18.6875h-3.320313c2.722657-7.175781 4.511719-14.800781 5.226563-22.734375 6.886718-.0625 13.207031-2.535156 18.152344-6.625 10.558593 20.25 16.820312 39.269531 18.617187 56.625.398437 3.859375 3.65625 6.730469 7.453125 6.730469.257812 0 .519531-.015625.78125-.042969 4.117188-.425781 7.113281-4.109375 6.6875-8.230469-2.210938-21.351562-10.351562-44.65625-24.175781-69.277344.753906-2.578124 1.164062-5.300781 1.164062-8.117187 0-6.582031-2.25-12.769531-6.089843-17.726563 2.316406-1.300781 3.835937-3.753906 3.835937-6.515624v-27.820313c0-29.394531-11.34375-56.1875-29.882813-76.234375l32.882813-32.882812c2.929687-2.929688 2.929687-7.679688 0-10.609376-2.929687-2.925781-7.679687-2.925781-10.609375 0l-33.164062 33.167969c-19.460938-16.136719-44.433594-25.847656-71.632813-25.847656-16.152344 0-31.75 3.359375-46.359375 9.980469-3.773438 1.710937-5.445312 6.15625-3.734375 9.929687 1.707031 3.769531 6.152344 5.441407 9.925781 3.730469 12.648438-5.730469 26.164063-8.640625 40.167969-8.640625 23.0625 0 44.269531 8.058594 60.972656 21.503906l-25.214843 25.214844c-2.929688 2.929687-2.929688 7.679687 0 10.609375 1.464843 1.460938 3.386718 2.195312 5.304687 2.195312s3.839844-.734374 5.304687-2.195312l25.546876-25.550781c15.828124 17.328125 25.492187 40.371093 25.492187 65.628906v21.808594c-57.222656 11.871093-80.851563-10.324219-90.59375-31.464844-1.222656-2.660156-3.882813-4.363281-6.8125-4.363281-2.925781 0-5.585937 1.703125-6.8125 4.363281-9.738281 21.140625-33.371094 43.335937-90.59375 31.464844v-21.808594c0-27.144531 11.460937-53.261719 31.445313-71.667969 3.046874-2.804687 3.242187-7.550781.4375-10.597656-2.808594-3.046875-7.550782-3.242188-10.597657-.433594-23.058593 21.234375-36.285156 51.375-36.285156 82.695313v27.820312c0 2.746094 1.503906 5.1875 3.792969 6.496094-3.828125 4.9375-6.046875 11.109375-6.046875 17.75 0 2.816406.414062 5.535156 1.167969 8.113281-30.90625 55.050782-32.886719 102.679688-5.800782 138.105469-14.835937 22.765625-22.933594 49.527344-22.933594 77.527344v82.199219c0 4.144531 3.359376 7.5 7.5 7.5 4.140626 0 7.5-3.355469 7.5-7.5v-26.78125h50.089844v26.785156c0 4.140625 3.359375 7.5 7.5 7.5s7.5-3.359375 7.5-7.5v-108.460938c0-4.144531-3.359375-7.5-7.5-7.5s-7.5 3.355469-7.5 7.5v27.78125h-50.089844v-1.519531c0-37.371094 16.109376-72.28125 44.347657-96.523437 7.496093 5.226562 16.59375 8.300781 26.398437 8.300781h19.375c4.140625 0 7.5-3.355469 7.5-7.5s-3.359375-7.5-7.5-7.5h-19.375c-17.246094 0-31.28125-14.03125-31.28125-31.28125v-18.882813c0-2.035156 1.65625-3.6875 3.6875-3.6875h10.757813c15.257812 24.476563 42.410156 40.8125 73.316406 40.8125 30.910156 0 58.0625-16.335937 73.320313-40.8125h10.753906c2.035156 0 3.6875 1.652344 3.6875 3.6875v18.882813c0 17.25-14.03125 31.28125-31.28125 31.28125h-23.300782c-4.144531 0-7.5 3.355469-7.5 7.5s3.355469 7.5 7.5 7.5h23.300782c9.808594 0 18.90625-3.074219 26.398437-8.296875 28.242188 24.238281 44.351563 59.148437 44.351563 96.519531v9.417969c0 4.144531 3.355468 7.5 7.5 7.5 4.140625 0 7.5-3.355469 7.5-7.5v-9.417969c0-28.003906-8.097656-54.765625-22.9375-77.53125 7.78125-10.183594 13.238281-21.464844 16.226562-33.597656zm-212.65625 127.648437v23.898438h-50.089844v-23.898438zm163.484375-226.355468v-27.109376c.882813-.113281 1.789063-.25 2.6875-.378906.128907.042969.257813.089844.390625.128906 6.027344 1.65625 10.234375 7.1875 10.234375 13.445313 0 7.476563-5.917969 13.582031-13.3125 13.914063zm-172.695312 0c-7.394531-.332032-13.3125-6.4375-13.3125-13.914063 0-6.085937 4.0625-11.574219 9.878906-13.34375.230469-.070313.453125-.152344.671875-.242187.925781.132812 1.855469.273437 2.761719.386718zm2.273437 37.761718c-10.304687 0-18.6875 8.382813-18.6875 18.6875v18.882813c0 10.292969 3.378906 19.804687 9.082032 27.5-5.929688 5.183593-11.367188 10.796875-16.289063 16.773437-10.707031-15.746094-14.988281-34.238281-12.726563-55.09375 1.867188-17.214844 8.109376-36.058594 18.566407-56.109375 4.945312 4.085938 11.265625 6.558594 18.152343 6.621094.714844 7.9375 2.503907 15.5625 5.226563 22.738281zm84.074219 40.8125c-39.339844 0-71.34375-32.007812-71.34375-71.347656v-33.167969c1.144531.03125 2.289063.058594 3.40625.058594 36.890625 0 57.066406-16.082031 67.9375-31.59375 10.871094 15.511719 31.042969 31.59375 67.941406 31.59375 1.113281 0 2.257813-.027344 3.40625-.058594v33.167969c0 39.339844-32.007812 71.347656-71.347656 71.347656zm0 0"/><path d="m389.085938 456.875c-4.140626 0-7.5 3.359375-7.5 7.5v40.121094c0 4.144531 3.359374 7.5 7.5 7.5 4.144531 0 7.5-3.355469 7.5-7.5v-40.121094c0-4.140625-3.355469-7.5-7.5-7.5zm0 0"/><path d="m323.996094 388.535156c-4.140625 0-7.5 3.355469-7.5 7.5v108.464844c0 4.140625 3.359375 7.5 7.5 7.5 4.144531 0 7.5-3.359375 7.5-7.5v-108.464844c0-4.144531-3.355469-7.5-7.5-7.5zm0 0"/><path d="m217.425781 191.046875h-.101562c-.023438 0-.046875 0-.074219 0-4.105469 0-7.457031 3.3125-7.496094 7.429687-.042968 4.140626 3.285156 7.53125 7.425782 7.570313h.101562.074219c4.109375 0 7.457031-3.308594 7.496093-7.425781.042969-4.140625-3.285156-7.53125-7.425781-7.574219zm0 0"/><path d="m291.539062 191.046875h-.101562c-.023438 0-.050781 0-.074219 0-4.105469 0-7.457031 3.3125-7.496093 7.429687-.039063 4.140626 3.285156 7.53125 7.425781 7.570313h.101562.074219c4.109375 0 7.457031-3.308594 7.5-7.425781.039062-4.140625-3.289062-7.53125-7.429688-7.574219zm0 0"/><path d="m262.621094 240.839844h-9.023438v-42.292969c0-4.140625-3.355468-7.5-7.5-7.5-4.140625 0-7.5 3.359375-7.5 7.5v49.792969c0 4.140625 3.359375 7.5 7.5 7.5h16.523438c4.140625 0 7.5-3.359375 7.5-7.5 0-4.144532-3.359375-7.5-7.5-7.5zm0 0"/><path d="m262.742188 354.03125h-.117188c-4.152344-.015625-7.527344 3.296875-7.5625 7.4375s3.292969 7.527344 7.4375 7.5625h.117188.0625c4.113281 0 7.464843-3.316406 7.5-7.4375.035156-4.140625-3.296876-7.527344-7.4375-7.5625zm0 0"/><path d="m262.679688 400.914062h-.117188c-4.144531 0-7.5 3.359376-7.5 7.5 0 4.144532 3.355469 7.5 7.5 7.5h.117188c4.144531 0 7.5-3.355468 7.5-7.5 0-4.140624-3.355469-7.5-7.5-7.5zm0 0"/><path d="m262.679688 447.796875h-.117188c-4.144531 0-7.5 3.359375-7.5 7.5 0 4.144531 3.355469 7.5 7.5 7.5h.117188c4.144531 0 7.5-3.355469 7.5-7.5 0-4.140625-3.355469-7.5-7.5-7.5zm0 0"/><path d="m495.609375 24.667969c-2.929687-2.929688-7.675781-2.929688-10.605469 0l-78.625 78.621093c-2.925781 2.929688-2.925781 7.679688 0 10.605469 1.464844 1.464844 3.386719 2.199219 5.304688 2.199219 1.917968 0 3.839844-.734375 5.304687-2.199219l78.621094-78.621093c2.929687-2.929688 2.929687-7.679688 0-10.605469zm0 0"/><path d="m452.03125 103.289062-28.679688 28.679688c-2.929687 2.929688-2.929687 7.679688 0 10.605469 1.464844 1.464843 3.382813 2.199219 5.304688 2.199219 1.917969 0 3.835938-.734376 5.300781-2.199219l28.683594-28.679688c2.925781-2.929687 2.925781-7.675781 0-10.605469-2.933594-2.929687-7.679687-2.929687-10.609375 0zm0 0"/><path d="m154.757812 33.332031c-2.929687-2.929687-7.679687-2.929687-10.605468 0l-141.457032 141.453125c-2.929687 2.929688-2.929687 7.679688 0 10.609375 1.464844 1.464844 3.386719 2.195313 5.304688 2.195313s3.839844-.730469 5.300781-2.195313l141.457031-141.457031c2.929688-2.929688 2.929688-7.675781 0-10.605469zm0 0"/><path d="m115.417969 125.242188c-2.929688-2.925782-7.679688-2.925782-10.609375.003906l-13.460938 13.464844c-2.929687 2.925781-2.929687 7.675781 0 10.605468 1.464844 1.460938 3.382813 2.195313 5.300782 2.195313 1.921874 0 3.839843-.734375 5.304687-2.199219l13.464844-13.460938c2.929687-2.929687 2.925781-7.679687 0-10.609374zm0 0"/><path d="m78.726562 76.78125c1.917969 0 3.839844-.734375 5.304688-2.195312l61.78125-61.78125c2.929688-2.929688 2.929688-7.679688 0-10.609376-2.929688-2.925781-7.679688-2.925781-10.605469 0l-61.785156 61.78125c-2.925781 2.929688-2.925781 7.679688 0 10.605469 1.464844 1.464844 3.386719 2.199219 5.304687 2.199219zm0 0"/><path d="m83.167969 198.730469-14.523438 14.523437c-2.929687 2.929688-2.929687 7.679688 0 10.605469 1.464844 1.464844 3.382813 2.199219 5.300781 2.199219 1.921876 0 3.839844-.734375 5.304688-2.199219l14.523438-14.523437c2.929687-2.929688 2.929687-7.675782 0-10.605469-2.925782-2.929688-7.675782-2.929688-10.605469 0zm0 0"/><path d="m452.03125 193.246094-26.828125 26.824218c-2.925781 2.929688-2.925781 7.679688 0 10.609376 1.464844 1.464843 3.386719 2.195312 5.304687 2.195312 1.917969 0 3.839844-.730469 5.304688-2.195312l26.828125-26.828126c2.925781-2.929687 2.925781-7.675781 0-10.605468-2.933594-2.929688-7.679687-2.929688-10.609375 0zm0 0"/></svg>