<svg height="512pt" viewBox="0 -67 512 511" width="512pt" xmlns="http://www.w3.org/2000/svg"><path d="m473.671875 329.839844h-435.34375v-313.0625h435.34375" fill="#f0f5f7"/><path d="m274.332031 302.378906h172.160157v27.460938h-172.160157zm0 0" fill="#82807f"/><path d="m81.480469 51.53125h349.039062v216.527344h-349.039062zm0 0" fill="#a4d5dd"/><path d="m81.480469 205.054688h349.039062v34.257812h-349.039062zm0 0" fill="#fab03c"/><path d="m81.480469 205.054688h349.039062v17.128906h-349.039062zm0 0" fill="#f6cb43"/><path d="m81.480469 142.664062h349.039062v34.257813h-349.039062zm0 0" fill="#fab03c"/><path d="m81.480469 142.664062h349.039062v17.128907h-349.039062zm0 0" fill="#f6cb43"/><path d="m81.480469 80.273438h349.039062v34.257812h-349.039062zm0 0" fill="#fab03c"/><path d="m81.480469 80.273438h349.039062v17.128906h-349.039062zm0 0" fill="#f6cb43"/><path d="m26.460938 369.402344c-10.472657 0-18.960938-8.488282-18.960938-18.957032v-323.484374c0-10.472657 8.488281-18.960938 18.960938-18.960938 10.46875 0 18.960937 8.488281 18.960937 18.960938v323.484374c0 10.46875-8.488281 18.957032-18.960937 18.957032zm0 0" fill="#82807f"/><path d="m485.539062 369.402344c-10.46875 0-18.960937-8.488282-18.960937-18.957032v-323.484374c0-10.472657 8.492187-18.960938 18.960937-18.960938 10.472657 0 18.960938 8.488281 18.960938 18.960938v323.484374c0 10.46875-8.488281 18.957032-18.960938 18.957032zm0 0" fill="#82807f"/><path d="m192.5 287.433594c4.144531 0 7.5-3.355469 7.5-7.5v-4.375h48.5v4.375c0 4.144531 3.355469 7.5 7.5 7.5s7.5-3.355469 7.5-7.5v-4.375h48.5v4.375c0 4.144531 3.355469 7.5 7.5 7.5s7.5-3.355469 7.5-7.5v-4.375h48.5v4.375c0 4.144531 3.355469 7.5 7.5 7.5s7.5-3.355469 7.5-7.5v-4.375h40.019531c4.144531 0 7.5-3.359375 7.5-7.5v-216.53125c0-4.140625-3.355469-7.5-7.5-7.5h-40.019531v-4.375c0-4.140625-3.355469-7.5-7.5-7.5s-7.5 3.359375-7.5 7.5v4.375h-48.5v-4.375c0-4.140625-3.355469-7.5-7.5-7.5s-7.5 3.359375-7.5 7.5v4.375h-48.5v-4.375c0-4.140625-3.355469-7.5-7.5-7.5s-7.5 3.359375-7.5 7.5v4.375h-48.5v-4.375c0-4.140625-3.355469-7.5-7.5-7.5s-7.5 3.359375-7.5 7.5v4.375h-48.5v-4.375c0-4.140625-3.355469-7.5-7.5-7.5s-7.5 3.359375-7.5 7.5v4.375h-40.019531c-4.144531 0-7.5 3.359375-7.5 7.5v216.53125c0 4.140625 3.355469 7.5 7.5 7.5h40.019531v4.375c0 4.144531 3.355469 7.5 7.5 7.5s7.5-3.355469 7.5-7.5v-4.375h48.5v4.375c0 4.144531 3.355469 7.5 7.5 7.5zm7.5-26.875v-13.746094h48.5v13.746094zm0-110.394532h48.5v19.261719h-48.5zm-15 19.261719h-48.5v-19.261719h48.5zm78.5-19.261719h48.5v19.261719h-48.5zm63.5 0h48.5v19.261719h-48.5zm48.5 34.261719v13.128907h-48.5v-13.128907zm15 0h32.519531v13.128907h-32.519531zm0-15v-19.261719h32.519531v19.261719zm0-34.261719v-13.132812h32.519531v13.132812zm-15 0h-48.5v-13.132812h48.5zm-63.5 0h-48.5v-13.132812h48.5zm-63.5 0h-48.5v-13.132812h48.5zm-63.5 0h-48.5v-13.132812h48.5zm-63.5 0h-32.519531v-13.132812h32.519531zm0 15v19.261719h-32.519531v-19.261719zm0 34.261719v13.128907h-32.519531v-13.128907zm15 0h48.5v13.128907h-48.5zm63.5 0h48.5v13.128907h-48.5zm63.5 0h48.5v13.128907h-48.5zm48.5 28.128907v19.261718h-48.5v-19.261718zm15 0h48.5v19.261718h-48.5zm63.5 0h32.519531v19.261718h-32.519531zm32.519531-105.523438h-32.519531v-19.257812h32.519531zm-47.519531 0h-48.5v-19.257812h48.5zm-63.5 0h-48.5v-19.257812h48.5zm-63.5 0h-48.5v-19.257812h48.5zm-63.5 0h-48.5v-19.257812h48.5zm-63.5 0h-32.519531v-19.257812h32.519531zm-32.519531 105.523438h32.519531v19.261718h-32.519531zm47.519531 0h48.5v19.261718h-48.5zm63.5 0h48.5v19.261718h-48.5zm63.5 48.003906v-13.746094h48.5v13.746094zm63.5 0v-13.746094h48.5v13.746094zm63.5 0v-13.746094h32.519531v13.746094zm32.519531-201.53125v13.746094h-32.519531v-13.746094zm-47.519531 0v13.746094h-48.5v-13.746094zm-63.5 0v13.746094h-48.5v-13.746094zm-63.5 0v13.746094h-48.5v-13.746094zm-63.5 0v13.746094h-48.5v-13.746094zm-63.5 0v13.746094h-32.519531v-13.746094zm-32.519531 201.53125v-13.746094h32.519531v13.746094zm47.519531 0v-13.746094h48.5v13.746094zm0 0"/><path d="m129 298.375c-4.144531 0-7.5 3.355469-7.5 7.5 0 4.140625 3.355469 7.5 7.5 7.5h46.5c4.144531 0 7.5-3.359375 7.5-7.5 0-4.144531-3.355469-7.5-7.5-7.5zm0 0"/><path d="m108 298.375c-4.144531 0-7.5 3.355469-7.5 7.5 0 4.140625 3.355469 7.5 7.5 7.5h.105469c4.140625 0 7.5-3.359375 7.5-7.5 0-4.144531-3.359375-7.5-7.5-7.5zm0 0"/><path d="m88 298.375c-4.144531 0-7.5 3.355469-7.5 7.5 0 4.140625 3.355469 7.5 7.5 7.5h.105469c4.140625 0 7.5-3.359375 7.5-7.5 0-4.144531-3.359375-7.5-7.5-7.5zm0 0"/><path d="m485.539062.5c-7.796874 0-14.816406 3.394531-19.664062 8.777344h-419.75c-4.847656-5.382813-11.867188-8.777344-19.664062-8.777344-14.589844 0-26.460938 11.871094-26.460938 26.460938v323.484374c0 14.589844 11.871094 26.457032 26.460938 26.457032 14.589843 0 26.460937-11.867188 26.460937-26.457032v-13.105468h166.75c4.140625 0 7.5-3.355469 7.5-7.5 0-4.144532-3.359375-7.5-7.5-7.5h-166.75v-295.378906c0-.90625-.046875-1.800782-.136719-2.683594h406.429688c-.085938.882812-.132813 1.777344-.132813 2.683594v295.378906h-5.089843v-19.960938c0-4.144531-3.355469-7.5-7.5-7.5h-172.160157c-4.140625 0-7.5 3.355469-7.5 7.5v19.960938h-14.503906c-4.140625 0-7.5 3.359375-7.5 7.5 0 4.144531 3.359375 7.5 7.5 7.5h206.75v13.105468c0 14.589844 11.871094 26.460938 26.460937 26.460938 14.589844 0 26.460938-11.871094 26.460938-26.460938v-180.371093c0-4.140625-3.355469-7.5-7.5-7.5s-7.5 3.359375-7.5 7.5v180.371093c0 6.316407-5.140625 11.457032-11.460938 11.457032-6.316406 0-11.460937-5.140625-11.460937-11.457032v-323.484374c0-6.320313 5.144531-11.460938 11.460937-11.460938 6.320313 0 11.460938 5.140625 11.460938 11.460938v38.453124c0 4.144532 3.355469 7.5 7.5 7.5s7.5-3.355468 7.5-7.5v-38.453124c0-14.589844-11.871094-26.460938-26.460938-26.460938zm-447.617187 349.945312c0 6.316407-5.144531 11.457032-11.460937 11.457032-6.320313 0-11.460938-5.136719-11.460938-11.457032v-323.484374c0-6.320313 5.140625-11.460938 11.460938-11.460938 6.316406 0 11.460937 5.140625 11.460937 11.460938zm243.910156-40.566406h157.160157v12.460938h-157.160157zm0 0"/><path d="m504.5 90.574219c-4.144531 0-7.5 3.359375-7.5 7.5v39.339843c0 4.144532 3.355469 7.5 7.5 7.5s7.5-3.355468 7.5-7.5v-39.339843c0-4.140625-3.355469-7.5-7.5-7.5zm0 0"/></svg>