<svg height="512pt" viewBox="-12 0 512 512" width="512pt" xmlns="http://www.w3.org/2000/svg"><path d="m29.804688 118.652344h24.882812v385.847656h-24.882812zm0 0" fill="#38aaff"/><path d="m59.730469 230.125h-34.96875c-4.269531 0-7.730469-3.457031-7.730469-7.726562v-40.941407c0-4.269531 3.460938-7.730469 7.730469-7.730469h34.96875c4.269531 0 7.730469 3.460938 7.730469 7.730469v40.941407c0 4.269531-3.460938 7.726562-7.730469 7.726562zm0 0" fill="#dde9ed"/><path d="m59.730469 123.296875h-34.96875c-4.269531 0-7.730469-3.460937-7.730469-7.726563v-40.945312c0-4.269531 3.460938-7.726562 7.730469-7.726562h34.96875c4.269531 0 7.730469 3.457031 7.730469 7.726562v40.941406c0 4.269532-3.460938 7.730469-7.730469 7.730469zm0 0" fill="#dde9ed"/><path d="m67.460938 74.628906v40.941406c0 4.269532-3.460938 7.730469-7.730469 7.730469h-18.5c4.269531 0 7.730469-3.460937 7.730469-7.730469v-40.941406c0-4.269531-3.460938-7.726562-7.730469-7.726562h18.5c4.269531 0 7.730469 3.457031 7.730469 7.726562zm0 0" fill="#c4e1e8"/><path d="m480.960938 201.507812c0 18.433594-3.574219 34.785157-6.472657 45.046876-1.9375 6.839843-7.34375 12.132812-14.230469 13.894531l-13.25 3.394531-26.792968 6.867188-23.636719 6.050781-27.304687 7-12.089844 3.09375c-22.433594 5.742187-45.1875 10.074219-68.121094 12.957031-22.929688 2.890625-46.042969 4.34375-69.191406 4.34375v-205.292969c46.320312 0 92.441406 5.8125 137.3125 17.296875l12.089844 3.09375 27.304687 7 23.636719 6.050782 26.792968 6.867187 13.25 3.394531c6.886719 1.761719 12.292969 7.054688 14.230469 13.894532 2.898438 10.261718 6.472657 26.625 6.472657 45.046874zm0 0" fill="#dde9ed"/><path d="m405.226562 201.507812c0 28.535157-4.03125 54.691407-8.648437 75.253907l-27.300781 6.996093c5.375-20.402343 11.066406-49.703124 11.066406-82.25 0-32.539062-5.691406-61.839843-11.066406-82.253906l27.300781 7c4.617187 20.5625 8.648437 46.71875 8.648437 75.253906zm0 0" fill="#fd8f3e"/><path d="m453 201.507812c0 22.863282-2.585938 44.183594-5.992188 62.335938l-26.792968 6.867188c4.230468-19.03125 7.902344-43.066407 7.902344-69.203126 0-26.128906-3.671876-50.171874-7.902344-69.203124l26.792968 6.867187c3.40625 18.152344 5.992188 39.472656 5.992188 62.335937zm0 0" fill="#fd8f3e"/><path d="m262.179688 201.507812c0 40.191407-9.511719 74.988282-23.398438 91.835938-5.683594 6.917969-12.113281 10.808594-18.910156 10.808594-23.359375 0-42.300782-45.953125-42.300782-102.644532 0-56.691406 18.941407-102.644531 42.300782-102.644531 6.796875 0 13.226562 3.890625 18.910156 10.808594 13.882812 16.847656 23.398438 51.644531 23.398438 91.835937zm0 0" fill="#82807f"/><path d="m262.179688 201.507812c0 40.191407-9.511719 74.988282-23.398438 91.835938-13.875-16.847656-23.390625-51.644531-23.390625-91.835938 0-40.191406 9.515625-74.988281 23.390625-91.835937 13.882812 16.847656 23.398438 51.644531 23.398438 91.835937zm0 0" fill="#6d6d6d"/><path d="m54.6875 28.667969c0 6.871093-5.570312 12.441406-12.441406 12.441406s-12.441406-5.570313-12.441406-12.441406c0-6.871094 5.570312-12.441407 12.441406-12.441407s12.441406 5.570313 12.441406 12.441407zm0 0" fill="#fd8f3e"/><g fill="#00df97"><path d="m387.050781 93.433594c1.316407-9.4375-1.648437-19.359375-8.917969-26.628906-7.269531-7.269532-17.191406-10.234376-26.628906-8.914063-1.320312 9.433594 1.644532 19.359375 8.914063 26.628906s17.195312 10.234375 26.632812 8.914063zm0 0"/><path d="m304.253906 457c9.4375 1.316406 19.363282-1.648438 26.628906-8.917969 7.269532-7.269531 10.238282-17.191406 8.917969-26.628906-9.4375-1.320313-19.363281 1.648437-26.628906 8.917969-7.269531 7.265625-10.238281 17.191406-8.917969 26.628906zm0 0"/><path d="m101.277344 329.347656c9.4375 1.320313 19.359375-1.644531 26.628906-8.914062 7.269531-7.269532 10.234375-17.191406 8.917969-26.628906-9.4375-1.320313-19.363281 1.644531-26.632813 8.914062-7.269531 7.269531-10.234375 17.195312-8.914062 26.628906zm0 0"/></g><path d="m29.804688 297.402344c-4.140626 0-7.5 3.355468-7.5 7.5v199.597656c0 4.144531 3.359374 7.5 7.5 7.5 4.140624 0 7.5-3.355469 7.5-7.5v-199.597656c0-4.144532-3.359376-7.5-7.5-7.5zm0 0"/><path d="m54.6875 416.398438c-4.144531 0-7.5 3.359374-7.5 7.5v80.601562c0 4.144531 3.355469 7.5 7.5 7.5 4.140625 0 7.5-3.355469 7.5-7.5v-80.601562c0-4.140626-3.359375-7.5-7.5-7.5zm0 0"/><path d="m481.703125 154.421875c-2.652344-9.378906-10.15625-16.707031-19.582031-19.121094l-103.078125-26.402343c-45.4375-11.636719-92.257813-17.539063-139.167969-17.539063-14.109375 0-26.847656 11.609375-36.019531 32.75l-112.210938 47.886719c-2.308593-2.902344-5.644531-4.929688-9.457031-5.554688v-35.859375c7.230469-1.179687 12.773438-7.453125 12.773438-15.015625v-40.941406c0-8.394531-6.832032-15.226562-15.230469-15.226562h-9.984375v-12.265626c4.96875-2.027343 8.9375-5.996093 10.964844-10.964843h21.789062c-1.964844 2.597656-2.074219 6.28125-.019531 9.015625 1.472656 1.96875 3.726562 3.003906 6.003906 3.003906 1.566406 0 3.144531-.488281 4.496094-1.5l15.507812-11.628906c1.886719-1.417969 3-3.640625 3-6 0-2.363282-1.113281-4.585938-3-6l-15.507812-11.628906c-3.3125-2.484376-8.015625-1.816407-10.5 1.5-1.855469 2.472656-1.949219 5.71875-.5 8.238281h-21.269531c-2.027344-4.96875-5.996094-8.9375-10.964844-10.964844v-2.703125c0-4.144531-3.359375-7.5-7.5-7.5s-7.5 3.355469-7.5 7.5v2.703125c-4.96875 2.027344-8.9375 5.996094-10.964844 10.964844h-16.28125c-4.140625 0-7.5 3.355469-7.5 7.5s3.359375 7.5 7.5 7.5h16.28125c2.027344 4.96875 5.996094 8.9375 10.964844 10.964843v12.265626h-9.984375c-8.398438 0-15.230469 6.828124-15.230469 15.226562v40.941406c0 7.5625 5.542969 13.835938 12.773438 15.015625v35.859375c-7.230469 1.179688-12.773438 7.453125-12.773438 15.015625v40.941407c0 7.558593 5.542969 13.832031 12.773438 15.011718v34.832032c0 4.140624 3.359374 7.5 7.5 7.5 4.140624 0 7.5-3.359376 7.5-7.5v-34.613282h9.882812v153.613282c0 4.140624 3.355469 7.496093 7.5 7.496093 4.140625 0 7.5-3.355469 7.5-7.496093v-153.832032c3.582031-.582031 6.742188-2.414062 9.023438-5.039062l112.898437 47.117187c9.152344 20.769531 21.789063 32.171875 35.765625 32.171875 25.632812 0 51.558594-1.792968 77.054688-5.332031 4.105468-.570313 6.96875-4.355469 6.398437-8.457031-.570313-4.105469-4.347656-6.964844-8.457031-6.398438-16.109375 2.234375-32.390625 3.738282-48.65625 4.53125 3.878906-5.164062 7.410156-11.539062 10.507812-19.054687 8.355469-20.269531 12.957032-47.0625 12.957032-75.441407 0-28.375-4.601563-55.167968-12.957032-75.4375-3.097656-7.523437-6.636718-13.902343-10.515625-19.070312 36.804688 1.78125 73.402344 7.28125 109.117188 16.433594l7.789062 1.996094c4.671875 18.753906 9.730469 46.003906 9.730469 76.078124 0 30.089844-5.058594 57.335938-9.726562 76.082032l-7.796876 1.996094c-9.113281 2.335937-18.613281 4.496093-28.230468 6.425781-4.0625.8125-6.695313 4.765625-5.882813 8.824219.714844 3.566406 3.84375 6.027343 7.347657 6.027343.488281 0 .984374-.046875 1.480468-.144531 9.875-1.980469 19.636719-4.199219 29.007813-6.601562l103.082031-26.402344c9.425781-2.414063 16.925781-9.742188 19.578125-19.121094 3.082031-10.886719 6.753906-27.894531 6.753906-47.085938-.003906-19.1875-3.675781-36.195312-6.753906-47.085937zm-439.457031-120.8125c-2.726563 0-4.941406-2.21875-4.941406-4.941406 0-2.722657 2.214843-4.941407 4.941406-4.941407 2.726562 0 4.941406 2.21875 4.941406 4.941407 0 2.722656-2.21875 4.941406-4.941406 4.941406zm177.628906 72.75c1.257812 0 2.535156.269531 3.820312.746094l-16.777343 7.160156c4.246093-5.09375 8.710937-7.90625 12.957031-7.90625zm-195.113281 116.269531c-.125 0-.230469-.105468-.230469-.230468v-9.503907l23.328125 9.734375zm22.425781-91.832031v35.429687h-9.882812v-35.429687zm-22.65625 50.660156c0-.128906.101562-.230469.230469-.230469h25.25l-25.480469 10.875zm13.945312 21 21.484376-9.167969v18.132813zm36.484376-15.570312 102.300781-43.65625c-4.675781 17.242187-7.195313 37.324219-7.195313 58.277343 0 21.222657 2.578125 41.554688 7.367188 58.941407l-102.472656-42.765625zm-50.429688-112.261719c0-.125.101562-.226562.230469-.226562h34.96875c.125 0 .226562.101562.226562.226562v40.941406c0 .128906-.101562.230469-.226562.230469h-34.96875c-.128907 0-.230469-.101563-.230469-.230469zm182.71875 214.519531 16.320312 6.808594c-1.242187.449219-2.480468.707031-3.695312.707031-4.132812-.003906-8.476562-2.671875-12.625-7.515625zm35.605469-17.910156c-2.171875 5.265625-4.566407 9.808594-7.078125 13.558594l-40.136719-16.75c-6.828125-18.113281-10.574219-41.5625-10.574219-66.535157 0-24.742187 3.675782-47.996093 10.386719-66.039062l40.34375-17.21875c2.503906 3.746094 4.894531 8.28125 7.058594 13.53125 7.625 18.503906 11.824219 43.265625 11.824219 69.726562 0 26.460938-4.199219 51.222657-11.824219 69.726563zm202.644531-69.726563c0 18.210938-1.707031 37.121094-5.035156 56.269532l-10.507813 2.691406c3.753907-20.0625 5.660157-39.84375 5.660157-58.960938 0-19.117187-1.902344-38.898437-5.65625-58.960937l10.503906 2.691406c3.328125 19.152344 5.035156 38.058594 5.035156 56.269531zm-39.140625 65.003907c4.222656-22.050781 6.367187-43.863281 6.367187-65.003907 0-21.140624-2.144531-42.957031-6.367187-65.003906l7.5 1.921875c4.488281 21.515625 6.761719 42.710938 6.761719 63.082031 0 20.367188-2.273438 41.566407-6.761719 63.082032zm-26.84375-136.882813 10.71875 2.742188c4.972656 23.492187 7.492187 46.730468 7.492187 69.136718s-2.519531 45.644532-7.492187 69.136719l-10.710937 2.742188c4.277343-19.019531 8.320312-44.277344 8.320312-71.878907 0-27.597656-4.046875-52.851562-8.328125-71.878906zm87.753906 114.882813c-1.203125 4.253906-4.601562 7.578125-8.871093 8.671875l-2.074219.53125c2.757812-17.730469 4.175781-35.25 4.175781-52.207032 0-16.957031-1.410156-34.472656-4.167969-52.207031l2.066407.53125c4.269531 1.09375 7.667968 4.417969 8.871093 8.671875 2.820313 9.976563 6.183594 25.535156 6.183594 43.003906 0 17.472657-3.363281 33.027344-6.183594 43.003907zm0 0"/><path d="m390.394531 365.996094h-266.386719c-4.140624 0-7.5 3.355468-7.5 7.5 0 4.140625 3.359376 7.5 7.5 7.5h266.386719c7.433594 0 13.484375 6.046875 13.484375 13.480468 0 7.4375-6.050781 13.484376-13.484375 13.484376-7.433593 0-13.484375-6.046876-13.484375-13.484376 0-4.140624-3.355468-7.5-7.5-7.5-4.140625 0-7.5 3.359376-7.5 7.5 0 15.707032 12.777344 28.484376 28.484375 28.484376s28.484375-12.777344 28.484375-28.484376c0-15.703124-12.777344-28.480468-28.484375-28.480468zm0 0"/><path d="m450.984375 301.109375c-15.703125 0-28.480469 12.777344-28.480469 28.484375 0 4.144531 3.355469 7.5 7.5 7.5 4.140625 0 7.5-3.355469 7.5-7.5 0-7.433594 6.046875-13.484375 13.480469-13.484375 7.4375 0 13.484375 6.050781 13.484375 13.484375s-6.046875 13.484375-13.484375 13.484375h-276.613281c-4.140625 0-7.5 3.355469-7.5 7.5 0 4.140625 3.359375 7.5 7.5 7.5h276.613281c15.707031 0 28.484375-12.777344 28.484375-28.484375s-12.777344-28.484375-28.484375-28.484375zm0 0"/><path d="m167.480469 69.59375h133.5625c15.707031 0 28.484375-12.777344 28.484375-28.484375s-12.777344-28.480469-28.484375-28.480469c-15.703125 0-28.484375 12.773438-28.484375 28.480469 0 4.144531 3.359375 7.5 7.5 7.5 4.144531 0 7.5-3.355469 7.5-7.5 0-7.433594 6.050781-13.484375 13.484375-13.484375 7.4375 0 13.484375 6.050781 13.484375 13.484375s-6.050782 13.484375-13.484375 13.484375h-133.5625c-4.144531 0-7.5 3.355469-7.5 7.5 0 4.140625 3.355469 7.5 7.5 7.5zm0 0"/><path d="m382.570312 101.25c1.824219 0 3.671876-.128906 5.515626-.386719 3.320312-.464843 5.929687-3.070312 6.390624-6.390625 1.710938-12.230468-2.3125-24.246094-11.039062-32.972656s-20.738281-12.75-32.972656-11.039062c-3.316406.464843-5.925782 3.070312-6.386719 6.390624-1.710937 12.226563 2.3125 24.242188 11.039063 32.972657 7.40625 7.40625 17.183593 11.425781 27.453124 11.425781zm-9.738281-29.140625c3.84375 3.84375 6.203125 8.726563 6.847657 13.957031-5.226563-.648437-10.113282-3.007812-13.957032-6.851562s-6.207031-8.726563-6.851562-13.957032c5.230468.644532 10.113281 3.007813 13.960937 6.851563zm0 0"/><path d="m340.839844 414.023438c-12.226563-1.710938-24.246094 2.316406-32.972656 11.042968-8.726563 8.726563-12.75 20.742188-11.039063 32.96875.460937 3.320313 3.070313 5.929688 6.386719 6.390625 1.847656.261719 3.691406.386719 5.519531.386719 10.265625 0 20.046875-4.019531 27.453125-11.425781 8.726562-8.726563 12.75-20.742188 11.039062-32.972657-.460937-3.316406-3.070312-5.925781-6.386718-6.390624zm-15.257813 28.753906c-3.84375 3.847656-8.730469 6.207031-13.957031 6.851562.644531-5.226562 3.003906-10.109375 6.847656-13.957031 3.847656-3.84375 8.730469-6.203125 13.957032-6.847656-.640626 5.226562-3.003907 10.113281-6.847657 13.953125zm0 0"/><path d="m144.25 292.765625c-.464844-3.316406-3.074219-5.925781-6.390625-6.390625-12.230469-1.714844-24.246094 2.3125-32.96875 11.039062-8.726563 8.726563-12.75 20.746094-11.042969 32.972657.464844 3.316406 3.070313 5.925781 6.390625 6.390625 1.847657.257812 3.691407.386718 5.519531.386718 10.265626 0 20.042969-4.019531 27.449219-11.425781 8.726563-8.726562 12.75-20.746093 11.042969-32.972656zm-21.648438 22.363281c-3.84375 3.847656-8.726562 6.207032-13.957031 6.851563.644531-5.230469 3.003907-10.113281 6.851563-13.957031 3.84375-3.847657 8.726562-6.207032 13.957031-6.851563-.644531 5.230469-3.003906 10.113281-6.851563 13.957031zm0 0"/><path d="m273.949219 396.855469h-.105469c-4.140625 0-7.5 3.359375-7.5 7.5 0 4.144531 3.359375 7.5 7.5 7.5h.105469c4.140625 0 7.5-3.355469 7.5-7.5 0-4.140625-3.359375-7.5-7.5-7.5zm0 0"/><path d="m244.28125 411.070312h-.105469c-4.140625 0-7.5 3.355469-7.5 7.5 0 4.144532 3.359375 7.5 7.5 7.5h.105469c4.140625 0 7.5-3.355468 7.5-7.5 0-4.144531-3.359375-7.5-7.5-7.5zm0 0"/><path d="m452.949219 83.160156h.105469c4.140624 0 7.5-3.355468 7.5-7.5 0-4.140625-3.359376-7.5-7.5-7.5h-.105469c-4.140625 0-7.5 3.359375-7.5 7.5 0 4.144532 3.359375 7.5 7.5 7.5zm0 0"/><path d="m158.351562 94.496094h.105469c4.140625 0 7.5-3.355469 7.5-7.5 0-4.144532-3.359375-7.5-7.5-7.5h-.105469c-4.140624 0-7.5 3.355468-7.5 7.5 0 4.144531 3.355469 7.5 7.5 7.5zm0 0"/></svg>