<svg height="512pt" viewBox="0 0 512.0001 512" width="512pt" xmlns="http://www.w3.org/2000/svg"><path d="m146.203125 349.984375h-92.460937l-43.445313-39.632813c-5.75-5.246093-2.039063-14.820312 5.742187-14.820312h67.164063c2.125 0 4.175781.792969 5.742187 2.226562zm0 0" fill="#fc4830"/><path d="m146.203125 362.714844h-92.460937l-43.445313 39.632812c-5.75 5.246094-2.039063 14.824219 5.742187 14.824219h67.164063c2.125 0 4.175781-.796875 5.742187-2.230469zm0 0" fill="#e81610"/><path d="m467.4375 365.558594h-424.121094c-5.085937 0-9.207031-4.125-9.207031-9.207032 0-5.085937 4.125-9.207031 9.207031-9.207031h424.121094zm0 0" fill="#dde9ed"/><path d="m435.484375 378.5625 11.742187-22.179688-11.742187-22.183593c-3.867187-7.308594 3.894531-15.292969 11.3125-11.628907l52.957031 26.167969c6.328125 3.128907 6.328125 12.15625 0 15.285157l-52.957031 26.167968c-7.417969 3.664063-15.179687-4.320312-11.3125-11.628906zm0 0" fill="#fc4830"/><path d="m356.382812 101.289062h-35.367187c-20.503906 0-37.125-16.621093-37.125-37.125v-20.417968c0-20.019532 16.226563-36.246094 36.246094-36.246094 20.015625 0 36.246093 16.226562 36.246093 36.246094zm0 0" fill="#fc4830"/><path d="m344.378906 46.726562c-17.539062 0-31.753906 14.214844-31.753906 31.75v84.882813c0 17.449219-14.144531 31.59375-31.597656 31.59375h-.816406c-17.453126 0-31.597657-14.144531-31.597657-31.59375 0-31.601563-25.617187-57.214844-57.214843-57.214844h-111.109376c-10.964843 0-20.230468 8.59375-20.53125 19.554688-.3125 11.371093 8.8125 20.6875 20.113282 20.6875h24.007812c-11.300781 0-20.425781 9.316406-20.113281 20.6875.300781 10.957031 9.566406 19.554687 20.53125 19.554687h23.589844c-11.300781 0-20.425781 9.316406-20.117188 20.6875.300781 10.960938 9.570313 19.554688 20.535157 19.554688h31.238281c6.074219 0 11 4.925781 11 11 0 40.558594 32.878906 73.4375 73.433593 73.4375h58.714844c40.558594 0 73.4375-32.878906 73.4375-73.4375v-159.394532c.003906-17.535156-14.214844-31.75-31.75-31.75zm0 0" fill="#38aaff"/><path d="m376.136719 78.480469v159.386719c0 40.5625-32.886719 73.441406-73.441407 73.441406h-21.828124c40.558593 0 73.4375-32.878906 73.4375-73.441406v-159.386719c0-13.703125-8.675782-25.371094-20.835938-29.824219 3.40625-1.246094 7.082031-1.929688 10.914062-1.929688 17.535157.003907 31.753907 14.21875 31.753907 31.753907zm0 0" fill="#2081f6"/><path d="m368.226562 77.902344-10.085937 10.089844c-2.34375 2.34375-2.34375 6.144531 0 8.488281l10.085937 10.089843c1.742188 1.738282 4.363282 2.242188 6.625 1.265626l23.390626-10.085938c4.835937-2.085938 4.835937-8.941406 0-11.027344l-23.390626-10.085937c-2.261718-.976563-4.882812-.472657-6.625 1.265625zm0 0" fill="#a0ecff"/><path d="m281.769531 356.351562c0 14.230469-11.535156 25.769532-25.769531 25.769532s-25.769531-11.539063-25.769531-25.769532c0-14.234374 11.535156-25.773437 25.769531-25.773437s25.769531 11.539063 25.769531 25.773437zm0 0" fill="#fc4830"/><path d="m281.769531 356.347656c0 14.234375-11.535156 25.777344-25.769531 25.777344s-25.769531-11.542969-25.769531-25.777344c0-3.832031.839843-7.480468 2.355469-10.746094 4.0625 8.859376 13.023437 15.019532 23.414062 15.019532 10.394531 0 19.351562-6.160156 23.414062-15.019532 1.515626 3.265626 2.355469 6.914063 2.355469 10.746094zm0 0" fill="#e81610"/><path d="m271.003906 177.96875h25.226563c15.128906 0 27.394531 12.265625 27.394531 27.394531 0 28.417969-23.035156 51.457031-51.457031 51.457031h-40.046875c-6.945313 0-12.574219-5.628906-12.574219-12.570312v-14.824219c0-28.417969 23.039063-51.457031 51.457031-51.457031zm0 0" fill="#fc4830"/><path d="m323.628906 205.363281c0 14.210938-5.757812 27.082031-15.070312 36.390625-9.320313 9.308594-22.179688 15.070313-36.386719 15.070313h-21.792969c14.203125 0 27.070313-5.761719 36.382813-15.070313 9.308593-9.308594 15.070312-22.179687 15.070312-36.390625 0-15.128906-12.261719-27.398437-27.390625-27.398437h21.789063c15.128906 0 27.398437 12.269531 27.398437 27.398437zm0 0" fill="#e81610"/><path d="m503.074219 342.015625-52.957031-26.167969c-6.351563-3.136718-13.648438-1.886718-18.585938 3.195313-4.9375 5.078125-5.988281 12.40625-2.675781 18.667969l1.027343 1.933593h-145.128906c-4.558594-7.8125-12.203125-13.609375-21.253906-15.703125v-5.132812h39.195312c44.628907 0 80.9375-36.308594 80.9375-80.9375v-59.96875c0-4.144532-3.359374-7.5-7.5-7.5-4.144531 0-7.5 3.355468-7.5 7.5v59.96875c0 36.355468-29.582031 65.9375-65.9375 65.9375h-58.714843c-11.355469 0-22.566407-2.949219-32.421875-8.53125-3.605469-2.042969-8.183594-.773438-10.222656 2.832031-2.042969 3.605469-.773438 8.183594 2.832031 10.222656 12.105469 6.851563 25.875 10.476563 39.8125 10.476563h4.519531v5.136718c-9.050781 2.09375-16.695312 7.886719-21.253906 15.699219h-81.25l-51.992188-47.425781c-2.957031-2.699219-6.792968-4.1875-10.800781-4.1875h-67.160156c-6.667969 0-12.53125 4.015625-14.941407 10.230469-2.410156 6.21875-.785156 13.136719 4.140626 17.632812l28.996093 26.449219c-4.582031 2.984375-7.628906 8.140625-7.628906 14.007812 0 5.863282 3.046875 11.023438 7.628906 14.003907l-28.996093 26.453125c-4.925782 4.492187-6.550782 11.414062-4.144532 17.628906 2.410156 6.214844 8.277344 10.234375 14.941406 10.234375h67.164063c4.003906 0 7.839844-1.488281 10.800781-4.1875l51.992188-47.429687h81.25c4.554687 7.8125 12.199218 13.609374 21.253906 15.703124v81.644532h-129.644531c-3.046875-8.089844-10.84375-13.875-19.988281-13.875-4.140626 0-7.5 3.359375-7.5 7.5 0 4.144531 3.359374 7.5 7.5 7.5 3.515624 0 6.375 2.859375 6.375 6.375s-2.859376 6.371094-6.375 6.371094c-4.140626 0-7.5 3.359374-7.5 7.5 0 4.144531 3.359374 7.5 7.5 7.5 9.144531 0 16.945312-5.78125 19.988281-13.871094h129.644531v19.097656c0 4.144531 3.359375 7.5 7.5 7.5s7.5-3.355469 7.5-7.5v-19.097656h129.644531c3.046875 8.089844 10.84375 13.871094 19.988281 13.871094 4.140626 0 7.5-3.355469 7.5-7.5 0-4.140626-3.359374-7.5-7.5-7.5-3.515624 0-6.375-2.855469-6.375-6.371094s2.859376-6.375 6.375-6.375c4.140626 0 7.5-3.355469 7.5-7.5 0-4.140625-3.359374-7.5-7.5-7.5-9.144531 0-16.945312 5.785156-19.988281 13.875h-129.644531v-81.644532c9.050781-2.09375 16.695312-7.886718 21.253906-15.703124h145.160156l-1.058593 1.996093c-3.3125 6.261719-2.261719 13.589844 2.675781 18.667969 3.132812 3.222656 7.210938 4.90625 11.398438 4.90625 2.414062 0 4.863281-.5625 7.1875-1.710938l52.957031-26.167968c5.503906-2.71875 8.925781-8.222656 8.925781-14.363282 0-6.140624-3.417969-11.644531-8.925781-14.367187zm-487.988281-38.332031c.253906-.652344.726562-.652344.957031-.652344h67.160156c.257813 0 .5.09375.691406.269531l39.84375 36.34375h-9.847656l-30.304687-27.644531c-3.058594-2.789062-7.804688-2.574219-10.597657.484375-2.789062 3.0625-2.570312 7.804687.488281 10.597656l18.15625 16.5625h-6.527343l-30.304688-27.644531c-3.0625-2.792969-7.804687-2.574219-10.597656.484375-2.792969 3.0625-2.574219 7.804687.488281 10.59375l18.15625 16.566406h-9.3125l-38.183594-34.835937c-.167968-.152344-.519531-.46875-.265624-1.125zm68.808593 105.71875c-.191406.171875-.433593.269531-.691406.269531h-67.160156c-.230469 0-.703125 0-.957031-.65625-.253907-.652344.097656-.972656.265624-1.125l37.65625-34.351563c.171876-.15625.328126-.316406.476563-.480468h8.996094l-17.789063 16.226562c-3.058594 2.792969-3.277344 7.535156-.484375 10.597656 1.476563 1.621094 3.507813 2.441407 5.542969 2.441407 1.800781 0 3.613281-.644531 5.050781-1.957031l29.9375-27.308594h6.527344l-17.789063 16.226562c-3.058593 2.792969-3.277343 7.535156-.484374 10.597656 1.480468 1.621094 3.507812 2.441407 5.542968 2.441407 1.804688 0 3.613282-.644531 5.054688-1.957031l29.9375-27.308594h10.210937zm-40.578125-51.34375c-.941406 0-1.707031-.765625-1.707031-1.707032 0-.941406.765625-1.707031 1.707031-1.707031h179.457032c-.03125.566407-.042969 1.132813-.042969 1.707031 0 .570313.011719 1.140626.042969 1.707032zm212.683594 16.5625c-10.074219 0-18.269531-8.195313-18.269531-18.269532 0-10.078124 8.195312-18.273437 18.269531-18.273437s18.269531 8.195313 18.269531 18.273437c0 10.074219-8.195312 18.269532-18.269531 18.269532zm33.226562-16.5625c.03125-.566406.042969-1.136719.042969-1.707032 0-.574218-.015625-1.140624-.042969-1.707031h148.59375l.921876 1.738281-.886719 1.675782zm207.203126-.757813-52.957032 26.167969c-.234375.113281-.667968.332031-1.1875-.207031-.519531-.53125-.292968-.960938-.171875-1.191407l11.742188-22.179687c1.160156-2.195313 1.160156-4.820313 0-7.015625l-11.742188-22.183594c-.121093-.230468-.347656-.65625.171875-1.191406.519532-.535156.953125-.316406 1.1875-.203125l52.957032 26.167969c.15625.074218.570312.28125.570312.917968 0 .636719-.414062.839844-.570312.917969zm0 0"/><path d="m79.292969 153.882812c-2.105469 4.082032-3.15625 8.65625-3.027344 13.394532.398437 14.480468 12.433594 26.320312 27.042969 26.835937-2.109375 4.085938-3.164063 8.664063-3.035156 13.40625.40625 14.808594 12.980468 26.851563 28.03125 26.851563h31.238281c1.929687 0 3.5 1.570312 3.5 3.5 0 16.609375 5.011719 32.585937 14.492187 46.199218 1.460938 2.09375 3.792969 3.214844 6.164063 3.214844 1.476562 0 2.972656-.4375 4.277343-1.347656 3.402344-2.367188 4.238282-7.039062 1.871094-10.4375-7.722656-11.089844-11.804687-24.101562-11.804687-37.628906 0-10.199219-8.300781-18.5-18.5-18.5h-31.238281c-7.003907 0-12.851563-5.5-13.035157-12.261719-.09375-3.441406 1.171875-6.695313 3.570313-9.160156 2.394531-2.460938 5.609375-3.820313 9.046875-3.820313h.015625 60.960937c4.144531 0 7.5-3.355468 7.5-7.5 0-4.144531-3.355469-7.5-7.5-7.5h-60.976562c-.007813 0-.015625 0-.019531 0h-23.570313c-7 0-12.851563-5.5-13.035156-12.261718-.09375-3.445313 1.171875-6.695313 3.570312-9.160157 2.394531-2.464843 5.609375-3.820312 9.046875-3.820312h54.367188c4.144531 0 7.5-3.355469 7.5-7.5s-3.355469-7.5-7.5-7.5h-78.375c-3.4375 0-6.652344-1.355469-9.046875-3.820313-2.398438-2.464844-3.664063-5.714844-3.570313-9.160156.1875-6.761719 6.03125-12.261719 13.035156-12.261719h33.378907c4.144531 0 7.5-3.359375 7.5-7.5 0-4.144531-3.355469-7.5-7.5-7.5h-33.378907c-15.050781 0-27.621093 12.042969-28.027343 26.847657-.207031 7.53125 2.566406 14.644531 7.8125 20.035156 5.109375 5.25 11.914062 8.203125 19.21875 8.355468zm0 0"/><path d="m146.332031 113.644531h45.066407c27.410156 0 49.710937 22.300781 49.710937 49.714844 0 4.765625.886719 9.453125 2.554687 13.855469-18.777343 9.875-31.617187 29.566406-31.617187 52.210937v14.824219c0 11.066406 9.003906 20.070312 20.070313 20.070312h40.050781c32.507812 0 58.957031-26.445312 58.957031-58.957031 0-11.28125-5.386719-21.324219-13.71875-27.707031 1.777344-4.535156 2.714844-9.402344 2.714844-14.296875v-84.882813c0-13.371093 10.882812-24.25 24.253906-24.25 10.230469 0 19.113281 6.390626 22.632812 15.5625-1.492187.664063-2.878906 1.601563-4.085937 2.808594l-10.085937 10.089844c-2.554688 2.550781-3.957032 5.941406-3.957032 9.546875 0 3.609375 1.402344 7 3.953125 9.550781l10.089844 10.089844c1.636719 1.632812 3.601563 2.78125 5.707031 3.40625v29.960938c0 4.140624 3.355469 7.5 7.5 7.5 4.140625 0 7.5-3.359376 7.5-7.5v-32.917969c0-.035157-.003906-.070313-.003906-.105469l17.585938-7.582031c4.953124-2.136719 8.15625-7.003907 8.15625-12.398438s-3.203126-10.261719-8.15625-12.398437l-18.113282-7.8125c-1.96875-11.914063-9.253906-21.882813-19.21875-27.601563v-.679687c.003906-24.121094-19.621094-43.746094-43.742187-43.746094-24.121094 0-43.746094 19.625-43.746094 43.746094v20.417968c0 18.738282 11.433594 35.148438 28.734375 41.703126v57.492187c0 2.75-.457031 5.40625-1.347656 7.941406-2.429688-.539062-4.957032-.832031-7.546875-.832031h-25.226563c-4.570312 0-9.011718.539062-13.285156 1.527344-1.050781-2.738282-1.609375-5.664063-1.609375-8.636719 0-35.683594-29.027344-64.714844-64.710937-64.714844h-45.066407c-4.144531 0-7.5 3.355469-7.5 7.5 0 4.140625 3.355469 7.5 7.5 7.5zm226.480469-13.097656-8.3125-8.3125 8.3125-8.308594 19.273438 8.308594zm-81.421875-36.382813v-20.417968c0-15.851563 12.894531-28.746094 28.746094-28.746094 14.390625 0 26.34375 10.632812 28.421875 24.457031-1.375-.148437-2.769532-.230469-4.179688-.230469-3.8125 0-7.496094.554688-10.984375 1.574219l-6.847656-11.265625c-2.152344-3.539062-6.765625-4.667968-10.308594-2.511718-3.539062 2.148437-4.664062 6.765624-2.511719 10.304687l6.316407 10.386719c-9.078125 7.195312-14.917969 18.308594-14.917969 30.765625v10.695312c-8.433594-5.320312-13.734375-14.621093-13.734375-25.011719zm4.839844 121.304688c10.96875 0 19.894531 8.925781 19.894531 19.894531 0 24.238281-19.71875 43.957031-43.957031 43.957031h-40.046875c-2.796875 0-5.074219-2.273437-5.074219-5.070312v-14.824219c0-1.527343.082031-3.039062.234375-4.527343h39.054688c4.140624 0 7.5-3.359376 7.5-7.5 0-4.144532-3.359376-7.5-7.5-7.5h-34.695313c7.203125-14.464844 22.140625-24.429688 39.363281-24.429688zm0 0"/><path d="m363.988281 410.695312v19.984376l-17.371093-24.339844c-1.894532-2.652344-5.285157-3.777344-8.390626-2.785156-3.105468.992187-5.214843 3.882812-5.214843 7.140624v43.882813c0 4.140625 3.359375 7.5 7.5 7.5 4.144531 0 7.5-3.359375 7.5-7.5v-20.460937l17.375 24.339843c1.894531 2.652344 5.285156 3.78125 8.390625 2.785157 3.105468-.992188 5.210937-3.882813 5.210937-7.140626v-43.40625c0-4.140624-3.355469-7.5-7.5-7.5-4.140625 0-7.5 3.359376-7.5 7.5zm0 0"/><path d="m151.480469 418.195312c1.21875 0 2.03125.613282 2.410156.976563 2.976563 2.878906 7.726563 2.796875 10.601563-.183594 2.878906-2.976562 2.800781-7.726562-.179688-10.601562-3.460938-3.347657-8.019531-5.191407-12.832031-5.191407-10.183594 0-18.472657 8.285157-18.472657 18.472657 0 10.183593 8.289063 18.46875 18.472657 18.46875 1.914062 0 3.46875 1.558593 3.46875 3.472656 0 1.910156-1.558594 3.46875-3.46875 3.46875-1.058594 0-2.042969-.472656-2.707031-1.300781-2.597657-3.222656-7.320313-3.730469-10.546876-1.132813-3.226562 2.597657-3.734374 7.320313-1.136718 10.542969 3.527344 4.378906 8.769531 6.890625 14.390625 6.890625 10.183593 0 18.46875-8.285156 18.46875-18.46875 0-10.1875-8.285157-18.472656-18.46875-18.472656-1.914063 0-3.472657-1.554688-3.472657-3.46875 0-1.914063 1.558594-3.472657 3.472657-3.472657zm0 0"/></svg>