<svg height="512pt" viewBox="-46 0 512 512" width="512pt" xmlns="http://www.w3.org/2000/svg"><path d="m340.398438 374.410156c0 71.847656-58.246094 130.089844-130.089844 130.089844-71.847656 0-130.089844-58.242188-130.089844-130.089844 0-71.84375 58.242188-130.089844 130.089844-130.089844 71.84375 0 130.089844 58.246094 130.089844 130.089844zm0 0" fill="#f0f5f7"/><path d="m340.398438 374.414062c0 71.839844-58.242188 130.089844-130.089844 130.089844-5.761719 0-11.441406-.378906-17.011719-1.109375 63.800781-8.332031 113.082031-62.902343 113.082031-128.980469 0-66.078124-49.28125-120.660156-113.082031-128.980468 5.570313-.730469 11.25-1.109375 17.011719-1.109375 71.847656 0 130.089844 58.238281 130.089844 130.089843zm0 0" fill="#c4e1e8"/><path d="m228.628906 304.863281c0 10.121094-8.203125 18.324219-18.320312 18.324219-10.121094 0-18.324219-8.203125-18.324219-18.324219 0-10.117187 8.203125-18.320312 18.324219-18.320312 10.117187 0 18.320312 8.203125 18.320312 18.320312zm0 0" fill="#6d6d6d"/><path d="m228.628906 362.195312c0 10.117188-8.203125 18.320313-18.320312 18.320313-10.121094 0-18.324219-8.203125-18.324219-18.320313 0-10.121093 8.203125-18.324218 18.324219-18.324218 10.117187 0 18.320312 8.203125 18.320312 18.324218zm0 0" fill="#6d6d6d"/><path d="m290.585938 167.144531c0 44.335938-35.941407 80.277344-80.277344 80.277344-44.335938 0-80.277344-35.941406-80.277344-80.277344 0-44.335937 35.941406-80.277343 80.277344-80.277343 44.335937 0 80.277344 35.941406 80.277344 80.277343zm0 0" fill="#f0f5f7"/><path d="m290.589844 167.144531c0 44.339844-35.941406 80.277344-80.28125 80.277344-15.210938 0-29.441406-4.230469-41.5625-11.578125 5.410156 1.148438 11.03125 1.757812 16.78125 1.757812 44.339844 0 80.28125-35.9375 80.28125-80.269531 0-29.140625-15.519532-54.648437-38.75-68.71875 36.300781 7.699219 63.53125 39.941407 63.53125 78.53125zm0 0" fill="#c4e1e8"/><path d="m222.289062 259.59375h44.070313v129.96875h-44.070313zm0 0" fill="#fc4830"/><path d="m222.289062 259.59375h44.070313v16.199219h-44.070313zm0 0" fill="#e81610"/><path d="m267.359375 263.796875h-114.101563c-10.6875 0-19.351562-8.664063-19.351562-19.351563s8.664062-19.351562 19.351562-19.351562h114.101563c10.6875 0 19.351563 8.664062 19.351563 19.351562s-8.664063 19.351563-19.351563 19.351563zm0 0" fill="#fc4830"/><path d="m312.59375 107.554688c0-11.34375-45.796875-20.539063-102.285156-20.539063-56.492188 0-102.285156 9.195313-102.285156 20.539063 0 11.339843 45.792968 20.535156 102.285156 20.535156 56.488281 0 102.285156-9.195313 102.285156-20.535156zm0 0" fill="#1e6be7"/><path d="m270.484375 28.5-4.675781 22.433594-6.097656 29.300781-3.636719 17.457031s-15.726563 9.859375-45.765625 9.859375c-28.164063 0-45.769532-9.859375-45.769532-9.859375l-3.699218-17.792968-6.128906-29.429688-4.578126-21.964844c-2.253906-10.839844 6.011719-21.003906 17.078126-21.003906h86.195312c11.066406 0 19.332031 10.164062 17.078125 21zm0 0" fill="#38aaff"/><path d="m270.476562 28.503906-4.667968 22.429688-6.101563 29.300781-3.628906 17.457031s-9.082031 5.691406-26.609375 8.421875c.027344-.011719.039062-.019531.039062-.019531l4.050782-19.472656 6.800781-32.679688 5.21875-25.019531c1.878906-9.039063-2.800781-17.648437-10.441406-21.417969h18.269531c11.0625 0 19.332031 10.160156 17.070312 21zm0 0" fill="#2081f6"/><path d="m265.808594 50.933594-6.101563 29.300781c-7.628906 1.558594-16.160156 2.871094-25.589843 3.71875-7.398438.671875-15.339844 1.0625-23.808594 1.0625-18.941406 0-35.589844-2.171875-49.46875-5.113281l-6.132813-29.429688c13.992188 3.882813 32.941407 7.421875 55.601563 7.421875 11 0 20.890625-.730469 29.621094-1.859375 10.308593-1.34375 18.976562-3.222656 25.878906-5.101562zm0 0" fill="#fc4830"/><path d="m265.808594 50.933594-6.101563 29.300781c-7.628906 1.558594-16.160156 2.871094-25.589843 3.71875l5.8125-27.917969c10.308593-1.34375 18.976562-3.222656 25.878906-5.101562zm0 0" fill="#e81610"/><path d="m225.308594 187.378906c0 8.28125-6.714844 15-15 15s-15-6.71875-15-15c0-8.285156 6.714844-15 15-15s15 6.714844 15 15zm0 0" fill="#fd8f3e"/><path d="m285.332031 471.359375c-21.640625 16.773437-47.585937 25.640625-75.023437 25.640625-67.597656 0-122.589844-54.992188-122.589844-122.589844 0-9.695312 1.144531-19.371094 3.398438-28.753906.96875-4.027344-1.511719-8.078125-5.539063-9.046875s-8.078125 1.511719-9.046875 5.539063c-2.527344 10.535156-3.8125 21.386718-3.8125 32.261718 0 75.867188 61.722656 137.589844 137.589844 137.589844 30.796875 0 59.917968-9.953125 84.214844-28.785156 3.273437-2.535156 3.871093-7.246094 1.332031-10.523438-2.539063-3.273437-7.25-3.867187-10.523438-1.332031zm0 0"/><path d="m334.992188 171.347656h.105468c4.140625 0 7.5-3.359375 7.5-7.5 0-4.144531-3.359375-7.5-7.5-7.5h-.105468c-4.140626 0-7.5 3.355469-7.5 7.5 0 4.140625 3.359374 7.5 7.5 7.5zm0 0"/><path d="m99.203125 171.347656h.105469c4.140625 0 7.5-3.359375 7.5-7.5 0-4.144531-3.359375-7.5-7.5-7.5h-.105469c-4.140625 0-7.5 3.355469-7.5 7.5 0 4.140625 3.359375 7.5 7.5 7.5zm0 0"/><path d="m91.015625 194.128906h.105469.070312c4.109375 0 7.460938-3.3125 7.5-7.429687.039063-4.140625-3.289062-7.53125-7.429687-7.570313h-.105469c-.023438 0-.046875 0-.070312 0-4.109376 0-7.457032 3.3125-7.496094 7.429688-.039063 4.140625 3.285156 7.53125 7.425781 7.570312zm0 0"/><path d="m52.460938 40.929688h.105468.070313c4.109375 0 7.460937-3.3125 7.5-7.429688.039062-4.140625-3.289063-7.53125-7.429688-7.570312h-.105469c-.023437 0-.046874 0-.070312 0-4.109375 0-7.460938 3.3125-7.5 7.429687-.039062 4.140625 3.289062 7.53125 7.429688 7.570313zm0 0"/><path d="m363.390625 49.238281h.105469c4.140625 0 7.5-3.359375 7.5-7.5 0-4.144531-3.359375-7.5-7.5-7.5h-.105469c-4.144531 0-7.5 3.355469-7.5 7.5 0 4.140625 3.359375 7.5 7.5 7.5zm0 0"/><path d="m413.117188 218.621094h-23.84375l16.546874-16.546875c2.929688-2.929688 2.929688-7.679688 0-10.609375-2.929687-2.925782-7.675781-2.929688-10.605468 0l-16.550782 16.550781v-23.84375c0-4.144531-3.355468-7.5-7.5-7.5-4.144531 0-7.5 3.355469-7.5 7.5v38.84375l-55.101562 55.097656c-6.160156-6.285156-12.921875-11.980469-20.179688-16.996093 3.644532-4.582032 5.832032-10.375 5.832032-16.675782 0-10.292968-5.828125-19.25-14.355469-23.753906 11.8125-15.273438 18.226563-33.890625 18.226563-53.542969 0-13.527343-3.105469-26.777343-9.023438-38.785156 21.132812-4.851563 31.03125-11.511719 31.03125-20.808594 0-11.121093-14.863281-16.070312-19.746094-17.699219-8.496094-2.828124-19.996094-5.21875-33.519531-6.980468l11-52.84375c1.535156-7.382813-.3125-14.972656-5.070313-20.820313-4.757812-5.851562-11.8125-9.207031-19.351562-9.207031h-34.769531c-4.140625 0-7.5 3.355469-7.5 7.5s3.359375 7.5 7.5 7.5h34.769531c3.003906 0 5.816406 1.339844 7.714844 3.671875 1.894531 2.332031 2.632812 5.355469 2.019531 8.300781l-3.71875 17.859375c-11.347656 2.75-28.078125 5.558594-49.113281 5.558594-16.914063 0-33.441406-2.039063-49.207032-6.015625l-3.625-17.402344c-.613281-2.945312.125-5.96875 2.019532-8.300781 1.898437-2.332031 4.710937-3.671875 7.714844-3.671875h18.765624c4.144532 0 7.5-3.355469 7.5-7.5s-3.355468-7.5-7.5-7.5h-18.765624c-7.539063 0-14.59375 3.355469-19.351563 9.207031-4.757813 5.847657-6.605469 13.4375-5.070313 20.820313l11 52.84375c-13.535156 1.761718-25.042968 4.15625-33.539062 6.988281-4.878906 1.625-19.726562 6.574219-19.726562 17.691406 0 9.296875 9.894531 15.957031 31.027343 20.808594-5.917969 12.007813-9.019531 25.253906-9.019531 38.785156 0 19.652344 6.414062 38.269531 18.226562 53.542969-8.527343 4.503906-14.351562 13.460938-14.351562 23.753906 0 6.296875 2.183594 12.089844 5.824219 16.671875-7.265625 5.019531-14.015625 10.722657-20.175781 17.003907l-55.101563-55.101563v-38.84375c0-4.144531-3.359375-7.5-7.5-7.5-4.144531 0-7.5 3.355469-7.5 7.5v23.84375l-16.550781-16.550781c-2.929688-2.925782-7.675782-2.925782-10.605469 0-2.929687 2.929687-2.929687 7.679687 0 10.609375l16.550781 16.546875h-23.847656c-4.140625 0-7.5 3.359375-7.5 7.5 0 4.144531 3.359375 7.5 7.5 7.5h38.84375l55.789062 55.789062c-4.496093 5.71875-8.558593 11.792969-12.117187 18.183594-2.015625 3.621094-.714844 8.1875 2.90625 10.203125 1.152344.640625 2.40625.945313 3.640625.945313 2.632812 0 5.1875-1.390626 6.558594-3.851563 2.878906-5.171875 6.132812-10.105469 9.707031-14.785156l1.957031 1.953125c1.460938 1.464844 3.382813 2.199218 5.300782 2.199218 1.921874 0 3.839843-.734374 5.304687-2.199218 2.929687-2.929688 2.929687-7.675782 0-10.605469l-2.730469-2.730469c6.894532-7.050781 14.640625-13.273437 23.070313-18.507812 2.390625.699218 4.914062 1.082031 7.527343 1.082031h61.53125v8.152344c-1.476562-.261719-2.972656-.40625-4.480468-.40625-14.238282 0-25.820313 11.582031-25.820313 25.820312s11.582031 25.820313 25.820313 25.820313c1.507812 0 3.003906-.144532 4.480468-.40625v6.5c-1.476562-.261719-2.972656-.40625-4.480468-.40625-14.238282 0-25.820313 11.582031-25.820313 25.820312 0 14.238282 11.582031 25.824219 25.820313 25.824219 1.507812 0 3.003906-.144531 4.480468-.40625v21.171875c0 4.144531 3.359376 7.5 7.5 7.5 4.144532 0 7.5-3.355469 7.5-7.5v-11.71875h7.039063v11.71875c0 4.144531 3.355469 7.5 7.5 7.5 4.140625 0 7.5-3.355469 7.5-7.5v-11.71875h7.035156v11.71875c0 4.144531 3.355469 7.5 7.5 7.5s7.5-3.355469 7.5-7.5v-138.289062c.347657-.085938.691407-.179688 1.035157-.28125 8.414062 5.226562 16.160156 11.449218 23.0625 18.507812l-2.734376 2.734375c-2.929687 2.929687-2.929687 7.675781 0 10.605469 1.464844 1.464844 3.382813 2.195312 5.304688 2.195312 1.917969 0 3.835938-.730468 5.304688-2.195312l1.964843-1.964844c3.246094 4.25 6.226563 8.714844 8.898438 13.367188 10.597656 18.453124 16.199219 39.53125 16.199219 60.945312 0 27.523438-8.914063 53.523438-25.773438 75.199219-2.542969 3.269531-1.953125 7.980469 1.3125 10.523437 1.371094 1.066406 2.992188 1.582032 4.601562 1.582032 2.234376 0 4.445313-.996094 5.925782-2.894532 18.929687-24.335937 28.933594-53.523437 28.933594-84.410156 0-24.03125-6.289063-47.691406-18.191407-68.417969-3.332031-5.800781-7.09375-11.335937-11.222656-16.582031l55.789063-55.789062h38.84375c4.144531 0 7.5-3.355469 7.5-7.5 0-4.140626-3.359376-7.496094-7.5-7.496094zm-202.808594-153.230469c18.558594 0 34.039062-2.066406 45.761718-4.453125l-2.679687 12.863281c-13.644531 2.457031-28.105469 3.707031-43.082031 3.707031-14.636719 0-29.125-1.351562-43.148438-4l-2.6875-12.921874c14.816406 3.183593 30.179688 4.804687 45.835938 4.804687zm39.804687 24.160156-.648437 3.121094c-5.324219 2.441406-18.636719 7.382813-39.15625 7.382813-19.34375 0-33.398438-5.03125-39.1875-7.53125l-.667969-3.214844c13.03125 2.117187 26.386719 3.203125 39.855469 3.203125 13.71875-.003907 27.054687-1.003907 39.804687-2.960938zm-93.257812 8.050781.335937 1.617188c.441406 2.128906 1.785156 3.957031 3.679688 5.015625.789062.441406 19.664062 10.820313 49.4375 10.820313 31.828125 0 49.039062-10.558594 49.753906-11.007813 1.730469-1.085937 2.945312-2.828125 3.359375-4.828125l.339844-1.617188c24.390625 3.078126 35.851562 7.492188 39.964843 10-8.054687 5.105469-39.773437 12.988282-93.417968 12.988282-53.644532 0-85.367188-7.882813-93.417969-12.988282 4.109375-2.507812 15.574219-6.921874 39.964844-10zm-9.875 33.664063c18.15625 2.800781 40.183593 4.324219 63.328125 4.324219 23.144531 0 45.175781-1.523438 63.328125-4.324219 6.1875 10.902344 9.449219 23.242187 9.449219 35.878906 0 18.992188-7.226563 36.820313-20.351563 50.445313h-104.851563c-13.128906-13.625-20.351562-31.453125-20.351562-50.445313 0-12.640625 3.265625-24.976562 9.449219-35.878906zm-5.578125 113.175781c0-6.535156 5.320312-11.851562 11.855468-11.851562h114.101563c6.535156 0 11.855469 5.316406 11.855469 11.851562 0 6.539063-5.320313 11.855469-11.855469 11.855469h-114.101563c-6.535156 0-11.855468-5.316406-11.855468-11.855469zm68.90625 71.246094c-5.96875 0-10.824219-4.855469-10.824219-10.820312 0-5.96875 4.855469-10.824219 10.824219-10.824219 1.570312 0 3.070312.351562 4.480468 1.003906v19.640625c-1.410156.648438-2.910156 1-4.480468 1zm0 57.328125c-5.96875 0-10.824219-4.855469-10.824219-10.820313 0-5.96875 4.855469-10.824218 10.824219-10.824218 1.570312 0 3.070312.351562 4.480468 1.003906v19.640625c-1.410156.652344-2.910156 1-4.480468 1zm19.480468-101.71875h29.074219v110.769531h-29.074219zm0 0"/><path d="m210.308594 209.878906c12.40625 0 22.5-10.097656 22.5-22.5 0-12.40625-10.09375-22.5-22.5-22.5s-22.5 10.09375-22.5 22.5c0 12.402344 10.09375 22.5 22.5 22.5zm0-30c4.136718 0 7.5 3.363282 7.5 7.5 0 4.132813-3.363282 7.5-7.5 7.5-4.136719 0-7.5-3.367187-7.5-7.5 0-4.136718 3.363281-7.5 7.5-7.5zm0 0"/><path d="m241.574219 167.210938h.105469c4.140624 0 7.5-3.359376 7.5-7.5 0-4.144532-3.359376-7.5-7.5-7.5h-.105469c-4.144531 0-7.5 3.355468-7.5 7.5 0 4.140624 3.355469 7.5 7.5 7.5zm0 0"/><path d="m178.941406 167.210938h.101563c4.144531 0 7.5-3.359376 7.5-7.5 0-4.144532-3.355469-7.5-7.5-7.5h-.101563c-4.144531 0-7.5 3.355468-7.5 7.5 0 4.140624 3.355469 7.5 7.5 7.5zm0 0"/></svg>