<svg height="512pt" viewBox="-27 0 512 512" width="512pt" xmlns="http://www.w3.org/2000/svg"><path d="m253.027344 504.5h-212.308594c-18.347656 0-33.21875-14.875-33.21875-33.222656v-430.558594c0-18.347656 14.871094-33.21875 33.21875-33.21875h212.308594c18.34375 0 33.21875 14.871094 33.21875 33.21875v430.558594c0 18.347656-14.875 33.222656-33.21875 33.222656zm0 0" fill="#82807f"/><path d="m286.242188 40.722656v430.558594c0 18.339844-14.867188 33.222656-33.21875 33.222656h-31.160157c18.339844 0 33.222657-14.882812 33.222657-33.222656v-430.558594c0-18.351562-14.882813-33.21875-33.222657-33.21875h31.160157c18.351562 0 33.21875 14.867188 33.21875 33.21875zm0 0" fill="#6d6d6d"/><path d="m7.503906 61.203125h278.738282v349.378906h-278.738282zm0 0" fill="#00fbaa"/><path d="m255.085938 61.203125h31.160156v349.378906h-31.160156zm0 0" fill="#00df97"/><path d="m286.242188 75.273438v46.28125l-278.738282 278.738281v-46.28125l247.582032-247.578125zm0 0" fill="#78ffce"/><path d="m286.242188 75.273438v46.28125l-31.15625 31.160156v-46.28125zm0 0" fill="#00fbaa"/><path d="m286.242188 149.371094v87.160156l-31.15625 31.160156v-87.160156zm0 0" fill="#00fbaa"/><path d="m7.503906 61.203125h278.738282v37.789063h-278.738282zm0 0" fill="#2081f6"/><path d="m255.085938 61.203125h31.160156v37.789063h-31.160156zm0 0" fill="#1e6be7"/><path d="m286.242188 149.371094v87.160156l-174.046876 174.050781h-87.148437l230.039063-230.050781zm0 0" fill="#78ffce"/><path d="m170.441406 456.253906c0 13.019532-10.550781 23.570313-23.570312 23.570313-13.015625 0-23.566406-10.550781-23.566406-23.570313 0-13.015625 10.550781-23.570312 23.566406-23.570312 13.019531 0 23.570312 10.554687 23.570312 23.570312zm0 0" fill="#565656"/><path d="m397.964844 257.683594c-3.25-53.683594-47.808594-96.21875-102.308594-96.21875-43.957031 0-81.445312 27.667968-96.011719 66.539062-37.851562.457032-68.398437 31.265625-68.398437 69.226563 0 38.246093 31.003906 69.25 69.246094 69.25h195.574218c30.054688 0 54.417969-24.367188 54.417969-54.421875 0-29.417969-23.34375-53.371094-52.519531-54.375zm0 0" fill="#a0ecff"/><path d="m450.488281 312.058594c0 30.054687-24.371093 54.425781-54.425781 54.425781h-4.214844c3.945313-7.535156 6.179688-16.113281 6.179688-25.203125 0-29.417969-23.34375-53.371094-52.519532-54.375-3.25-53.683594-47.8125-96.222656-102.316406-96.222656-7.347656 0-14.511718.773437-21.417968 2.246094 18.644531-19.390626 44.851562-31.460938 73.882812-31.460938 54.5 0 99.0625 42.53125 102.3125 96.222656 29.175781.992188 52.519531 24.949219 52.519531 54.367188zm0 0" fill="#60daff"/><path d="m116.332031 288.699219c2.320313-38.378907 34.179688-68.789063 73.140625-68.789063 31.425782 0 58.226563 19.78125 68.640625 47.570313 27.0625.328125 48.902344 22.355469 48.902344 49.492187 0 27.34375-22.164063 49.507813-49.507813 49.507813-11.445312 0-128.058593 0-139.816406 0-21.488281 0-38.90625-17.417969-38.90625-38.90625-.003906-21.035157 16.6875-38.15625 37.546875-38.875zm0 0" fill="#f0f5f7"/><path d="m307.015625 316.976562c0 27.105469-21.796875 49.125-48.824219 49.492188 8.105469-8.816406 13.042969-20.566406 13.042969-33.476562 0-27.136719-21.835937-49.167969-48.902344-49.496094-10.414062-27.78125-37.210937-47.566406-68.640625-47.566406-3.714844 0-7.359375.277343-10.929687.808593 12.679687-10.511719 28.953125-16.824219 46.710937-16.824219 31.425782 0 58.222656 19.773438 68.640625 47.566407 27.066407.332031 48.902344 22.351562 48.902344 49.496093zm0 0" fill="#dde9ed"/><path d="m177.941406 456.253906c0-17.132812-13.9375-31.066406-31.066406-31.066406-17.132812 0-31.070312 13.9375-31.070312 31.066406 0 17.132813 13.9375 31.070313 31.070312 31.070313s31.066406-13.9375 31.066406-31.070313zm-47.136718 0c0-8.859375 7.207031-16.066406 16.066406-16.066406 8.863281 0 16.070312 7.207031 16.070312 16.066406 0 8.863282-7.207031 16.070313-16.070312 16.070313-8.859375 0-16.066406-7.207031-16.066406-16.070313zm0 0"/><path d="m404.867188 250.769531c-6.554688-54.78125-53.328126-96.804687-109.210938-96.804687-.636719 0-1.273438.023437-1.910156.035156v-113.28125c0-22.453125-18.265625-40.71875-40.71875-40.71875h-212.308594c-22.453125 0-40.71875 18.265625-40.71875 40.71875v203.523438c0 4.144531 3.355469 7.5 7.5 7.5s7.5-3.355469 7.5-7.5v-137.75h263.746094v48.785156c-15.128906 2.339844-29.609375 7.796875-42.574219 16.144531-16.066406 10.347656-29.113281 24.628906-37.953125 41.472656-2.886719-.320312-5.804688-.484375-8.746094-.484375-40.492187 0-74.46875 30.039063-79.992187 69.484375-21.882813 3.851563-38.199219 22.789063-38.199219 45.679688 0 25.589843 20.820312 46.40625 46.410156 46.40625h161.054688v29.097656h-263.746094v-126.175781c0-4.144532-3.355469-7.5-7.5-7.5s-7.5 3.355468-7.5 7.5v194.375c0 22.453125 18.265625 40.722656 40.71875 40.722656h25.945312c4.144532 0 7.5-3.355469 7.5-7.5s-3.355468-7.5-7.5-7.5h-25.945312c-14.179688 0-25.71875-11.539062-25.71875-25.722656v-53.199219h263.746094v53.199219c0 14.183594-11.539063 25.722656-25.722656 25.722656h-153.699219c-4.140625 0-7.5 3.355469-7.5 7.5s3.359375 7.5 7.5 7.5h153.703125c22.453125 0 40.71875-18.269531 40.71875-40.722656v-97.296875h37.917968c4.144532 0 7.5-3.359375 7.5-7.5 0-4.144531-3.355468-7.5-7.5-7.5h-35.664062c11.371094-10.429688 18.515625-25.398438 18.515625-42.007813 0-29.347656-22.566406-53.796875-51.257813-56.707031-9.53125-21.300781-27.894531-37.25-49.683593-44.125 16.902343-28.890625 48.304687-47.175781 82.082031-47.175781 50.148438 0 91.796875 39.167968 94.824219 89.171875.230469 3.859375 3.363281 6.910156 7.226562 7.042969 25.390625.875 45.277344 21.464843 45.277344 46.878906 0 25.871094-21.046875 46.921875-46.917969 46.921875h-31.742187c-4.140625 0-7.5 3.355469-7.5 7.5 0 4.140625 3.359375 7.5 7.5 7.5h31.742187c34.144532 0 61.917969-27.777344 61.917969-61.921875 0-31.289063-22.84375-57.039063-53.117187-61.289063zm-364.148438-235.769531h212.308594c14.183594 0 25.71875 11.535156 25.71875 25.71875v12.984375h-263.746094v-12.984375c0-14.183594 11.539062-25.71875 25.71875-25.71875zm-25.71875 76.492188v-22.789063h263.746094v22.789063zm236.09375 178.621093c1.082031 2.894531 3.835938 4.828125 6.929688 4.867188 22.878906.277343 41.492187 19.113281 41.492187 41.992187 0 23.164063-18.84375 42.007813-42.007813 42.007813h-139.816406c-17.320312 0-31.40625-14.089844-31.40625-31.40625 0-17.011719 13.3125-30.792969 30.304688-31.378907 3.863281-.132812 6.996094-3.183593 7.230468-7.042968 2.09375-34.621094 30.933594-61.742188 65.65625-61.742188 27.28125 0 52.042969 17.160156 61.617188 42.703125zm0 0"/><path d="m370.832031 253.332031c.578125 0 1.167969-.070312 1.757813-.210937 4.027344-.96875 6.507812-5.019532 5.539062-9.046875-1.128906-4.6875-2.667968-9.3125-4.585937-13.734375-1.644531-3.800782-6.0625-5.550782-9.859375-3.902344-3.800782 1.644531-5.550782 6.058594-3.90625 9.859375 1.574218 3.636719 2.839844 7.433594 3.769531 11.285156.824219 3.4375 3.898437 5.75 7.285156 5.75zm0 0"/><path d="m356.875 205.289062c-16.179688-16.859374-37.921875-26.144531-61.21875-26.144531-4.144531 0-7.5 3.359375-7.5 7.5 0 4.144531 3.355469 7.5 7.5 7.5 19.175781 0 37.074219 7.648438 50.398438 21.53125 1.472656 1.53125 3.4375 2.304688 5.410156 2.304688 1.867187 0 3.738281-.691407 5.191406-2.089844 2.992188-2.867187 3.085938-7.613281.21875-10.601563zm0 0"/><path d="m50.023438 142.644531h16.316406c4.140625 0 7.5-3.355469 7.5-7.5 0-4.140625-3.359375-7.5-7.5-7.5h-16.316406c-4.144532 0-7.5 3.359375-7.5 7.5 0 4.144531 3.355468 7.5 7.5 7.5zm0 0"/><path d="m50.023438 169.292969h58.316406c4.140625 0 7.5-3.355469 7.5-7.5s-3.359375-7.5-7.5-7.5h-58.316406c-4.144532 0-7.5 3.355469-7.5 7.5s3.355468 7.5 7.5 7.5zm0 0"/><path d="m50.023438 190.644531h58.316406c4.140625 0 7.5-3.355469 7.5-7.5 0-4.140625-3.359375-7.5-7.5-7.5h-58.316406c-4.144532 0-7.5 3.359375-7.5 7.5 0 4.144531 3.355468 7.5 7.5 7.5zm0 0"/><path d="m49.96875 226.324219h.105469c4.144531 0 7.5-3.355469 7.5-7.5s-3.355469-7.5-7.5-7.5h-.105469c-4.140625 0-7.5 3.355469-7.5 7.5s3.359375 7.5 7.5 7.5zm0 0"/><path d="m69.457031 211.324219c-4.140625 0-7.5 3.355469-7.5 7.5s3.359375 7.5 7.5 7.5h.105469c4.140625 0 7.5-3.355469 7.5-7.5s-3.359375-7.5-7.5-7.5zm0 0"/></svg>