<svg height="511pt" viewBox="0 -27 511.99957 511" width="511pt" xmlns="http://www.w3.org/2000/svg"><path d="m121.492188 216.179688c0 14.863281-12.046876 26.910156-26.910157 26.910156s-26.910156-12.046875-26.910156-26.910156c0-9.753907 11.585937-28.894532 19.554687-40.90625 3.492188-5.261719 11.214844-5.261719 14.710938 0 7.964844 12.011718 19.554688 31.152343 19.554688 40.90625zm0 0" fill="#a0ecff"/><path d="m121.488281 216.183594c0 14.855468-12.039062 26.90625-26.90625 26.90625-3.726562 0-7.277343-.757813-10.507812-2.125 9.648437-4.089844 16.414062-13.648438 16.414062-24.78125 0-8.527344-8.855469-24.234375-16.40625-36.074219 1.082031-1.695313 2.136719-3.3125 3.132813-4.816406 3.496094-5.273438 11.222656-5.289063 14.71875-.019531 7.96875 12.007812 19.554687 31.152343 19.554687 40.910156zm0 0" fill="#60daff"/><path d="m232.726562 114.539062c0 14.863282-12.046874 26.910157-26.910156 26.910157-14.863281 0-26.914062-12.046875-26.914062-26.910157 0-9.753906 11.589844-28.898437 19.558594-40.90625 3.492187-5.261718 11.214843-5.261718 14.707031 0 7.96875 12.007813 19.558593 31.152344 19.558593 40.90625zm0 0" fill="#a0ecff"/><path d="m232.722656 114.542969c0 14.855469-12.042968 26.90625-26.910156 26.90625-3.722656 0-7.273438-.757813-10.503906-2.128907 9.648437-4.085937 16.410156-13.648437 16.410156-24.777343 0-8.53125-8.855469-24.234375-16.402344-36.074219 1.082032-1.695312 2.132813-3.3125 3.132813-4.820312 3.492187-5.269532 11.222656-5.285157 14.71875-.015626 7.964843 12.007813 19.554687 31.152344 19.554687 40.910157zm0 0" fill="#60daff"/><path d="m306.847656 157.074219c0 14.863281-12.046875 26.910156-26.910156 26.910156s-26.910156-12.046875-26.910156-26.910156c0-9.753907 11.585937-28.894531 19.554687-40.90625 3.492188-5.261719 11.214844-5.261719 14.707031 0 7.96875 12.011719 19.558594 31.152343 19.558594 40.90625zm0 0" fill="#a0ecff"/><path d="m306.84375 157.078125c0 14.855469-12.042969 26.90625-26.90625 26.90625-3.726562 0-7.277344-.757813-10.507812-2.125 9.648437-4.089844 16.410156-13.652344 16.410156-24.78125 0-8.527344-8.851563-24.234375-16.402344-36.074219 1.082031-1.695312 2.136719-3.3125 3.132812-4.816406 3.496094-5.273438 11.222657-5.289062 14.71875-.019531 7.96875 12.007812 19.554688 31.152343 19.554688 40.910156zm0 0" fill="#60daff"/><path d="m430.519531 52.851562c0 14.863282-12.050781 26.914063-26.914062 26.914063-14.859375 0-26.910157-12.050781-26.910157-26.914063 0-9.75 11.589844-28.894531 19.558594-40.902343 3.492188-5.265625 11.214844-5.265625 14.707032 0 7.96875 12.007812 19.558593 31.148437 19.558593 40.902343zm0 0" fill="#a0ecff"/><path d="m430.515625 52.855469c0 14.855469-12.042969 26.90625-26.910156 26.90625-3.726563 0-7.273438-.757813-10.503907-2.125 9.648438-4.089844 16.410157-13.648438 16.410157-24.78125 0-8.527344-8.855469-24.234375-16.402344-36.074219 1.082031-1.695312 2.132813-3.3125 3.132813-4.816406 3.492187-5.273438 11.21875-5.289063 14.71875-.019532 7.964843 12.011719 19.554687 31.152344 19.554687 40.910157zm0 0" fill="#60daff"/><path d="m126.285156 348.234375c0 13.222656-10.71875 23.9375-23.941406 23.9375-13.21875 0-23.9375-10.714844-23.9375-23.9375 0-13.21875 10.71875-23.9375 23.9375-23.9375 13.222656 0 23.941406 10.71875 23.941406 23.9375zm0 0" fill="#00fbaa"/><path d="m229.753906 218.132812c0 13.222657-10.71875 23.941407-23.9375 23.941407-13.222656 0-23.9375-10.71875-23.9375-23.941407 0-13.21875 10.714844-23.9375 23.9375-23.9375 13.21875 0 23.9375 10.71875 23.9375 23.9375zm0 0" fill="#fab03c"/><path d="m303.875 266.007812c0 13.222657-10.71875 23.9375-23.9375 23.9375s-23.9375-10.714843-23.9375-23.9375c0-13.21875 10.71875-23.9375 23.9375-23.9375s23.9375 10.71875 23.9375 23.9375zm0 0" fill="#00fbaa"/><path d="m427.542969 148.105469c0 13.21875-10.714844 23.9375-23.9375 23.9375-13.21875 0-23.9375-10.71875-23.9375-23.9375 0-13.222657 10.71875-23.9375 23.9375-23.9375 13.222656 0 23.9375 10.714843 23.9375 23.9375zm0 0" fill="#fab03c"/><path d="m508.019531 193.863281-73.679687-39.164062c.457031-2.125.703125-4.332031.703125-6.59375 0-17.335938-14.101563-31.4375-31.4375-31.4375-17.335938 0-31.4375 14.101562-31.4375 31.4375 0 5.585937 1.472656 10.835937 4.042969 15.390625l-15.960938 15.03125c-3.019531 2.839844-3.160156 7.585937-.320312 10.601562 1.476562 1.566406 3.464843 2.355469 5.460937 2.355469 1.84375 0 3.691406-.675781 5.140625-2.039063l15.9375-15.007812c4.933594 3.222656 10.816406 5.105469 17.136719 5.105469 9.703125 0 18.390625-4.421875 24.160156-11.347657l73.210937 38.914063c1.121094.59375 2.328126.878906 3.515626.878906 2.683593 0 5.28125-1.445312 6.628906-3.980469 1.941406-3.660156.554687-8.203124-3.101563-10.144531zm-104.414062-29.320312c-9.0625 0-16.4375-7.375-16.4375-16.4375 0-9.066407 7.375-16.4375 16.4375-16.4375 9.066406 0 16.4375 7.371093 16.4375 16.4375 0 9.0625-7.371094 16.4375-16.4375 16.4375zm0 0"/><path d="m331.730469 205.378906-35.714844 33.628906c-4.707031-2.8125-10.207031-4.4375-16.078125-4.4375-8.222656 0-15.710938 3.175782-21.320312 8.359376l-23.039063-14.703126c1.078125-3.167968 1.671875-6.5625 1.671875-10.09375 0-17.335937-14.101562-31.4375-31.4375-31.4375-17.332031 0-31.4375 14.101563-31.4375 31.4375 0 7.230469 2.460938 13.894532 6.578125 19.210938l-33.316406 41.890625c-2.578125 3.242187-2.039063 7.960937 1.203125 10.539063 1.378906 1.097656 3.027344 1.628906 4.664062 1.628906 2.207032 0 4.394532-.96875 5.875-2.832032l33.308594-41.882812c3.996094 1.84375 8.441406 2.882812 13.125 2.882812 8.402344 0 16.039062-3.320312 21.683594-8.707031l22.835937 14.570313c-1.183593 3.308594-1.835937 6.867187-1.835937 10.574218 0 17.335938 14.105468 31.4375 31.4375 31.4375 17.335937 0 31.4375-14.101562 31.4375-31.4375 0-6.03125-1.710938-11.667968-4.667969-16.460937l35.308594-33.25c3.015625-2.839844 3.160156-7.585937.320312-10.601563-2.839843-3.015624-7.585937-3.15625-10.601562-.316406zm-125.914063 29.195313c-9.0625 0-16.4375-7.375-16.4375-16.441407 0-9.0625 7.371094-16.4375 16.4375-16.4375 9.0625 0 16.4375 7.375 16.4375 16.4375 0 9.066407-7.375 16.441407-16.4375 16.441407zm74.121094 47.871093c-9.0625 0-16.4375-7.371093-16.4375-16.4375 0-9.0625 7.371094-16.4375 16.4375-16.4375 9.0625 0 16.4375 7.375 16.4375 16.4375 0 9.066407-7.375 16.4375-16.4375 16.4375zm0 0"/><path d="m94.582031 250.589844c18.972657 0 34.410157-15.433594 34.410157-34.410156 0-9.210938-6.804688-23.949219-20.808594-45.050782-3.03125-4.570312-8.117188-7.300781-13.601563-7.300781s-10.570312 2.726563-13.605469 7.300781c-14 21.101563-20.808593 35.839844-20.808593 45.050782.003906 18.976562 15.441406 34.410156 34.414062 34.410156zm-1.105469-71.167969c.261719-.394531.632813-.59375 1.105469-.59375.46875 0 .84375.199219 1.101563.59375 13.5 20.34375 18.308594 32.328125 18.308594 36.757813 0 10.703124-8.707032 19.410156-19.410157 19.410156s-19.410156-8.707032-19.410156-19.410156c0-4.429688 4.808594-16.414063 18.304687-36.757813zm0 0"/><path d="m205.816406 148.949219c18.972656 0 34.410156-15.4375 34.410156-34.410157 0-9.210937-6.808593-23.949218-20.808593-45.050781-3.03125-4.570312-8.117188-7.300781-13.605469-7.300781-5.484375 0-10.570312 2.726562-13.601562 7.300781-14 21.101563-20.808594 35.839844-20.808594 45.050781 0 18.972657 15.4375 34.410157 34.414062 34.410157zm-1.105468-71.167969c.261718-.394531.632812-.59375 1.105468-.59375.46875 0 .84375.199219 1.105469.59375 13.496094 20.34375 18.304687 32.324219 18.304687 36.757812 0 10.703126-8.707031 19.410157-19.410156 19.410157s-19.410156-8.707031-19.410156-19.410157c-.003906-4.433593 4.808594-16.414062 18.304688-36.757812zm0 0"/><path d="m279.9375 191.484375c18.972656 0 34.410156-15.4375 34.410156-34.410156 0-9.210938-6.808594-23.949219-20.808594-45.050781-3.03125-4.570313-8.117187-7.300782-13.601562-7.300782-5.488281 0-10.570312 2.726563-13.605469 7.300782-14 21.101562-20.808593 35.839843-20.808593 45.050781.003906 18.972656 15.441406 34.410156 34.414062 34.410156zm-1.105469-71.167969c.261719-.394531.632813-.59375 1.105469-.59375s.84375.199219 1.105469.59375c13.496093 20.34375 18.304687 32.328125 18.304687 36.757813 0 10.703125-8.707031 19.410156-19.410156 19.410156s-19.410156-8.707031-19.410156-19.410156c0-4.433594 4.808594-16.414063 18.304687-36.757813zm0 0"/><path d="m403.605469 87.261719c18.976562 0 34.414062-15.433594 34.414062-34.410157 0-9.210937-6.808593-23.949218-20.808593-45.050781-3.035157-4.570312-8.121094-7.300781-13.605469-7.300781s-10.570313 2.730469-13.605469 7.300781c-14 21.101563-20.804688 35.839844-20.804688 45.050781 0 18.976563 15.4375 34.410157 34.410157 34.410157zm-1.101563-71.167969c.261719-.394531.632813-.59375 1.105469-.59375.46875 0 .839844.199219 1.101563.59375 13.5 20.34375 18.308593 32.328125 18.308593 36.757812 0 10.703126-8.707031 19.410157-19.410156 19.410157s-19.410156-8.707031-19.410156-19.410157c-.003907-4.429687 4.808593-16.414062 18.304687-36.757812zm0 0"/><path d="m133.785156 348.234375c0-7.230469-2.460937-13.890625-6.578125-19.207031l11.980469-15.070313c2.578125-3.238281 2.042969-7.957031-1.199219-10.535156-3.242187-2.578125-7.960937-2.039063-10.539062 1.199219l-11.976563 15.058594c-3.996094-1.84375-8.441406-2.882813-13.125-2.882813-9.746094 0-18.472656 4.460937-24.242187 11.445313l-67.351563-32.414063c-3.730468-1.796875-8.214844-.230469-10.007812 3.503906-1.800782 3.734375-.230469 8.214844 3.503906 10.011719l67.335938 32.410156c-.441407 2.09375-.675782 4.261719-.675782 6.484375 0 17.332031 14.101563 31.4375 31.4375 31.4375 17.335938 0 31.4375-14.105469 31.4375-31.441406zm-47.875 0c0-9.0625 7.371094-16.4375 16.4375-16.4375 9.0625 0 16.4375 7.375 16.4375 16.4375s-7.375 16.4375-16.4375 16.4375c-9.066406 0-16.4375-7.375-16.4375-16.4375zm0 0"/><path d="m92.332031 394.613281c-4.144531 0-7.5 3.359375-7.5 7.5 0 4.144531 3.355469 7.5 7.5 7.5h16.316407c4.140624 0 7.5-3.355469 7.5-7.5 0-4.140625-3.359376-7.5-7.5-7.5zm0 0"/><path d="m150.648438 421.261719h-58.316407c-4.144531 0-7.5 3.359375-7.5 7.5 0 4.144531 3.355469 7.5 7.5 7.5h58.316407c4.140624 0 7.5-3.355469 7.5-7.5 0-4.140625-3.359376-7.5-7.5-7.5zm0 0"/><path d="m150.648438 442.613281h-58.316407c-4.144531 0-7.5 3.359375-7.5 7.5 0 4.144531 3.355469 7.5 7.5 7.5h58.316407c4.140624 0 7.5-3.355469 7.5-7.5 0-4.140625-3.359376-7.5-7.5-7.5zm0 0"/><path d="m274.71875 331.734375h16.3125c4.144531 0 7.5-3.355469 7.5-7.5 0-4.140625-3.355469-7.5-7.5-7.5h-16.3125c-4.144531 0-7.5 3.359375-7.5 7.5 0 4.144531 3.355469 7.5 7.5 7.5zm0 0"/><path d="m333.03125 343.382812h-58.3125c-4.144531 0-7.5 3.355469-7.5 7.5 0 4.144532 3.355469 7.5 7.5 7.5h58.3125c4.144531 0 7.5-3.355468 7.5-7.5 0-4.144531-3.355469-7.5-7.5-7.5zm0 0"/><path d="m333.03125 364.734375h-58.3125c-4.144531 0-7.5 3.359375-7.5 7.5 0 4.144531 3.355469 7.5 7.5 7.5h58.3125c4.144531 0 7.5-3.355469 7.5-7.5 0-4.140625-3.355469-7.5-7.5-7.5zm0 0"/></svg>