<svg height="512pt" viewBox="0 -63 512 512" width="512pt" xmlns="http://www.w3.org/2000/svg"><path d="m444.617188 117.203125c-3.703126-61.207031-54.507813-109.703125-116.644532-109.703125-50.117187 0-92.859375 31.546875-109.46875 75.863281-43.15625.519531-77.984375 35.648438-77.984375 78.929688 0 43.605469 35.347657 78.953125 78.953125 78.953125h222.980469c34.265625 0 62.046875-27.78125 62.046875-62.046875 0-33.542969-26.621094-60.851563-59.882812-61.996094zm0 0" fill="#a0ecff"/><path d="m504.503906 179.195312c0 34.269532-27.785156 62.054688-62.054687 62.054688h-4.808594c4.5-8.589844 7.046875-18.371094 7.046875-28.734375 0-33.539063-26.617188-60.851563-59.882812-61.996094-3.703126-61.203125-54.507813-109.707031-116.648438-109.707031-8.382812 0-16.550781.882812-24.421875 2.558594 21.257813-22.109375 51.136719-35.867188 84.234375-35.867188 62.140625 0 112.949219 48.492188 116.652344 109.707032 33.265625 1.132812 59.882812 28.445312 59.882812 61.984374zm0 0" fill="#60daff"/><path d="m117.601562 152.566406c2.648438-43.757812 38.96875-78.429687 83.394532-78.429687 35.828125 0 66.386718 22.554687 78.261718 54.234375 30.851563.375 55.753907 25.488281 55.753907 56.429687 0 31.175781-25.273438 56.445313-56.445313 56.445313-13.050781 0-146.003906 0-159.414062 0-24.5 0-44.359375-19.859375-44.359375-44.359375 0-23.980469 19.03125-43.5 42.808593-44.320313zm0 0" fill="#f0f5f7"/><path d="m335.011719 184.804688c0 30.90625-24.851563 56.011718-55.667969 56.433593 9.238281-10.058593 14.871094-23.453125 14.871094-38.171875 0-30.9375-24.894532-56.054687-55.753906-56.429687-11.875-31.679688-42.429688-54.238281-78.261719-54.238281-4.234375 0-8.390625.320312-12.460938.925781 14.457031-11.984375 33.011719-19.183594 53.253907-19.183594 35.835937 0 66.386718 22.546875 78.261718 54.234375 30.863282.375 55.757813 25.480469 55.757813 56.429688zm0 0" fill="#dde9ed"/><g fill="#00fbaa"><path d="m257.121094 201.226562h-237.949219c-6.445313 0-11.671875-5.222656-11.671875-11.671874 0-6.445313 5.226562-11.671876 11.671875-11.671876h237.949219c16.558594 0 30.035156-13.472656 30.035156-30.035156 0-16.558594-13.476562-30.03125-30.035156-30.03125s-30.03125 13.472656-30.03125 30.03125c0 6.449219-5.226563 11.675782-11.675782 11.675782-6.445312 0-11.671874-5.226563-11.671874-11.675782 0-29.433594 23.945312-53.378906 53.378906-53.378906s53.378906 23.945312 53.378906 53.378906-23.945312 53.378906-53.378906 53.378906zm0 0"/><path d="m224.542969 272.046875h-136.886719c-6.449219 0-11.675781 5.226563-11.675781 11.671875s5.226562 11.671875 11.675781 11.671875h136.886719c16.558593 0 30.035156 13.472656 30.035156 30.035156 0 16.558594-13.476563 30.03125-30.035156 30.03125-16.558594 0-30.03125-13.472656-30.03125-30.03125 0-6.449219-5.226563-11.675781-11.675781-11.675781-6.445313 0-11.671876 5.226562-11.671876 11.675781 0 29.433594 23.945313 53.378907 53.378907 53.378907 29.433593 0 53.378906-23.945313 53.378906-53.378907 0-29.433593-23.945313-53.378906-53.378906-53.378906zm0 0"/><path d="m348.933594 225.667969h-293.976563c-6.449219 0-11.675781 5.226562-11.675781 11.671875 0 6.449218 5.226562 11.675781 11.675781 11.675781h293.976563c16.558594 0 30.03125 13.472656 30.03125 30.03125 0 16.5625-13.472656 30.035156-30.03125 30.035156-16.5625 0-30.035156-13.472656-30.035156-30.035156 0-6.445313-5.222657-11.671875-11.671876-11.671875-6.445312 0-11.671874 5.226562-11.671874 11.671875 0 29.433594 23.945312 53.378906 53.378906 53.378906s53.378906-23.945312 53.378906-53.378906-23.945312-53.378906-53.378906-53.378906zm0 0"/></g><path d="m473.390625 224.117188c-9.125 6.300781-19.824219 9.628906-30.9375 9.628906h-52.902344c-10.785156-9.675782-25.023437-15.578125-40.617187-15.578125h-15.804688c6.105469-9.945313 9.382813-21.402344 9.382813-33.367188 0-20.484375-9.808594-39.671875-26.328125-51.703125-6.515625-26.085937-29.902344-45.546875-57.847656-46.097656-.179688-.171875-.367188-.339844-.566407-.5-7.789062-6.21875-16.558593-11.070312-25.867187-14.425781 6.566406-12.003907 15.46875-22.863281 25.996094-31.660157 3.175781-2.65625 3.601562-7.386718.945312-10.5625-2.660156-3.179687-7.386719-3.601562-10.566406-.945312-12.886719 10.769531-23.632813 24.265625-31.226563 39.179688-5.28125-.949219-10.652343-1.449219-16.054687-1.449219-45.894532 0-84.371094 34.25-90.265625 79.078125-15.066407 2.433594-28.199219 11.332031-36.136719 24.667968h-55.421875c-10.570313 0-19.171875 8.601563-19.171875 19.171876 0 10.574218 8.601562 19.175781 19.171875 19.175781h49.492187c.761719 3.242187 1.828126 6.40625 3.195313 9.4375h-16.902344c-10.574219 0-19.175781 8.601562-19.175781 19.175781 0 10.570312 8.601562 19.171875 19.175781 19.171875h293.976563c12.425781 0 22.53125 10.109375 22.53125 22.53125 0 12.425781-10.105469 22.535156-22.53125 22.535156-12.425782 0-22.535156-10.109375-22.535156-22.535156 0-10.570313-8.597657-19.171875-19.171876-19.171875-10.570312 0-19.171874 8.601562-19.171874 19.171875 0 33.570313 27.308593 60.878906 60.878906 60.878906 33.566406 0 60.878906-27.308593 60.878906-60.878906 0-11.027344-2.964844-21.371094-8.113281-30.300781h40.75c14.171875 0 27.816406-4.246094 39.457031-12.28125 3.410156-2.355469 4.265625-7.027344 1.914062-10.433594-2.351562-3.410156-7.023437-4.265625-10.429687-1.914062zm-458.390625-34.5625c0-2.300782 1.871094-4.171876 4.171875-4.171876h139.828125c4.140625 0 7.5-3.359374 7.5-7.5 0-4.140624-3.359375-7.5-7.5-7.5h-65.464844c6.453125-6.265624 15.019532-10 24.324219-10.320312 3.867187-.132812 6.996094-3.183594 7.230469-7.042969 2.421875-40.027343 35.765625-71.382812 75.90625-71.382812 12.675781 0 24.792968 3.046875 35.691406 8.871093-23.546875 8.417969-40.445312 30.941407-40.445312 57.34375 0 10.570313 8.601562 19.171876 19.171874 19.171876 10.574219 0 19.175782-8.601563 19.175782-19.171876 0-12.425781 10.105468-22.535156 22.53125-22.535156 12.425781 0 22.535156 10.109375 22.535156 22.535156 0 12.421876-10.109375 22.53125-22.535156 22.53125h-60.121094c-4.140625 0-7.5 3.359376-7.5 7.5 0 4.140626 3.359375 7.5 7.5 7.5h60.121094c20.695312 0 37.535156-16.835937 37.535156-37.53125 0-20.699218-16.839844-37.535156-37.535156-37.535156-20.695313 0-37.53125 16.835938-37.53125 37.535156 0 2.300782-1.875 4.171876-4.175782 4.171876-2.300781 0-4.171874-1.871094-4.171874-4.171876 0-25.300781 20.582031-45.878906 45.878906-45.878906s45.878906 20.578125 45.878906 45.878906c0 25.296876-20.582031 45.878907-45.878906 45.878907h-237.949219c-2.300781-.003907-4.171875-1.875-4.171875-4.175781zm69.253906 19.171874h172.867188c31.070312 0 56.761718-23.398437 60.414062-53.5 6.378906 8.40625 9.976563 18.75 9.976563 29.574219 0 12.5-4.664063 24.277344-13.152344 33.367188h-225.304687c-2.054688-2.898438-3.660157-6.089844-4.800782-9.441407zm264.679688 116.199219c-25.296875 0-45.878906-20.582031-45.878906-45.878906 0-2.300781 1.871093-4.171875 4.171874-4.171875 2.300782 0 4.175782 1.871094 4.175782 4.171875 0 20.695313 16.835937 37.53125 37.53125 37.53125 20.695312 0 37.535156-16.835937 37.535156-37.53125s-16.839844-37.53125-37.535156-37.53125h-293.976563c-2.300781 0-4.175781-1.875-4.175781-4.175781 0-2.300782 1.875-4.171875 4.175781-4.171875h293.976563c25.296875 0 45.878906 20.582031 45.878906 45.878906 0 25.300781-20.582031 45.878906-45.878906 45.878906zm0 0"/><path d="m492.417969 130.832031c-11.027344-11.386719-25.351563-18.554687-40.875-20.578125-7.046875-62.332031-60.113281-110.253906-123.570313-110.253906-17.417968 0-34.292968 3.550781-50.152344 10.550781-3.792968 1.671875-5.507812 6.097657-3.835937 9.886719s6.101563 5.507812 9.890625 3.835938c13.941406-6.152344 28.777344-9.273438 44.097656-9.273438 57.726563 0 105.675782 45.09375 109.160156 102.660156.234376 3.859375 3.363282 6.910156 7.230469 7.039063 29.515625 1.015625 52.636719 24.957031 52.636719 54.5 0 7.976562-1.691406 15.679687-5.035156 22.890625-1.742188 3.757812-.105469 8.21875 3.652344 9.960937 1.019531.472657 2.089843.695313 3.148437.695313 2.828125 0 5.539063-1.609375 6.808594-4.347656 4.265625-9.207032 6.425781-19.027344 6.425781-29.199219 0-18.152344-6.953125-35.328125-19.582031-48.367188zm0 0"/><path d="m405.53125 105.457031c1.109375 4.5625 1.8125 9.265625 2.101562 13.984375.238282 3.980469 3.542969 7.046875 7.476563 7.046875.152344 0 .308594-.003906.460937-.011719 4.132813-.25 7.28125-3.804687 7.03125-7.941406-.335937-5.601562-1.175781-11.195312-2.496093-16.621094-.976563-4.023437-5.027344-6.5-9.058594-5.515624-4.023437.976562-6.492187 5.03125-5.515625 9.058593zm0 0"/><path d="m351.417969 32.492188c-4.015625-1.023438-8.097657 1.398437-9.125 5.410156-1.023438 4.015625 1.398437 8.097656 5.410156 9.125 21.171875 5.402344 39.425781 19.492187 50.085937 38.648437 1.371094 2.464844 3.925782 3.855469 6.558594 3.855469 1.234375 0 2.484375-.308594 3.640625-.949219 3.617188-2.011719 4.921875-6.582031 2.90625-10.199219-12.652343-22.746093-34.332031-39.46875-59.476562-45.890624zm0 0"/><path d="m224.542969 264.542969h-136.886719c-10.574219 0-19.175781 8.601562-19.175781 19.175781 0 10.570312 8.601562 19.171875 19.175781 19.171875h136.886719c12.425781 0 22.535156 10.109375 22.535156 22.535156 0 12.421875-10.109375 22.53125-22.535156 22.53125s-22.53125-10.109375-22.53125-22.53125c0-10.574219-8.601563-19.175781-19.175781-19.175781-10.570313 0-19.171876 8.601562-19.171876 19.175781 0 33.566407 27.308594 60.875 60.878907 60.875 33.570312 0 60.878906-27.308593 60.878906-60.875 0-33.570312-27.308594-60.882812-60.878906-60.882812zm0 106.761719c-25.296875 0-45.878907-20.582032-45.878907-45.878907 0-2.300781 1.871094-4.175781 4.171876-4.175781 2.300781 0 4.175781 1.875 4.175781 4.175781 0 20.695313 16.835937 37.53125 37.53125 37.53125 20.695312 0 37.535156-16.835937 37.535156-37.53125 0-20.695312-16.839844-37.535156-37.535156-37.535156h-136.886719c-2.304688 0-4.175781-1.871094-4.175781-4.171875s1.871093-4.171875 4.175781-4.171875h136.886719c25.296875 0 45.878906 20.578125 45.878906 45.878906 0 25.296875-20.582031 45.878907-45.878906 45.878907zm0 0"/><path d="m434.277344 278.503906c.019531-4.140625-3.320313-7.515625-7.460938-7.535156h-.105468c-4.152344-.007812-7.515626 3.324219-7.535157 7.464844s3.324219 7.515625 7.464844 7.535156h.101563.039062c4.125 0 7.476562-3.332031 7.496094-7.464844zm0 0"/><path d="m435.679688 296.417969h-.101563c-.011719 0-.023437 0-.035156 0-4.125 0-7.480469 3.335937-7.5 7.464843-.019531 4.144532 3.320312 7.515626 7.464843 7.535157h.101563.039063c4.125 0 7.476562-3.332031 7.496093-7.460938.019531-4.144531-3.320312-7.515625-7.464843-7.539062zm0 0"/><path d="m123.390625 317.925781h-.101563c-.011718 0-.023437 0-.035156 0-4.125 0-7.480468 3.332031-7.5 7.460938-.019531 4.144531 3.320313 7.515625 7.464844 7.539062h.101562.039063c4.125 0 7.476563-3.335937 7.496094-7.464843.019531-4.144532-3.320313-7.515626-7.464844-7.535157zm0 0"/><path d="m68.050781 144.007812h.101563.035156c4.125 0 7.480469-3.335937 7.5-7.464843.019531-4.144531-3.320312-7.515625-7.464844-7.535157h-.101562c-4.113282-.003906-7.515625 3.320313-7.535156 7.464844-.019532 4.140625 3.324218 7.515625 7.464843 7.535156zm0 0"/></svg>