<svg height="512pt" viewBox="0 -10 512 512" width="512pt" xmlns="http://www.w3.org/2000/svg"><path d="m323.421875 330.671875h-67.800781l38-38h-92.335938l-57.179687 57.175781c-6.898438 6.898438-2.003907 18.691406 7.742187 18.691406h64.25l-96.644531 96.648438c-4.632813 4.632812-3.984375 10.589844-.832031 14.554688 3.230468 4.050781 9.101562 6.011718 14.664062 2.289062l196.226563-131.308594c8.992187-6.023437 4.730469-20.050781-6.089844-20.050781zm0 0" fill="#f6cb43"/><path d="m323.421875 330.671875h-67.800781l38-38h-46.167969l-38.636719 38.644531c-6.898437 6.898438-2.015625 18.695313 7.742188 18.695313h64.382812l-162.320312 129.730469c3.230468 4.050781 9.101562 6.011718 14.664062 2.289062l196.226563-131.308594c8.992187-6.023437 4.730469-20.050781-6.089844-20.050781zm0 0" fill="#fab03c"/><path d="m268.84375 105.363281c0 54.046875-43.816406 97.863281-97.863281 97.863281-54.050781 0-97.867188-43.816406-97.867188-97.863281 0-54.050781 43.816407-97.867187 97.867188-97.867187 54.046875 0 97.863281 43.816406 97.863281 97.867187zm0 0" fill="#f6cb43"/><path d="m268.515625 97.355469c4.417969 53.871093-35.664063 101.121093-89.535156 105.539062-47.25 3.875-89.410157-26.484375-102.03125-70.355469 6.355469.75 12.871093.878907 19.496093.335938 53.867188-4.421875 93.953126-51.667969 89.53125-105.539062-.542968-6.625-1.730468-13.03125-3.503906-19.179688 45.339844 5.3125 82.167969 41.960938 86.042969 89.199219zm0 0" fill="#fab03c"/><path d="m434.277344 148.476562c-4.347656-71.78125-63.925782-128.65625-136.800782-128.65625-58.769531 0-108.894531 36.996094-128.375 88.96875-50.613281.609376-91.457031 41.804688-91.457031 92.5625 0 51.136719 41.457031 92.589844 92.59375 92.589844h261.496094c40.1875 0 72.765625-32.578125 72.765625-72.765625 0-39.335937-31.214844-71.359375-70.222656-72.699219zm0 0" fill="#a0ecff"/><path d="m504.503906 221.175781c0 40.1875-32.585937 72.769531-72.773437 72.769531h-5.636719c5.277344-10.074218 8.261719-21.542968 8.261719-33.695312 0-39.335938-31.210938-71.363281-70.222657-72.707031-4.347656-71.777344-63.929687-128.65625-136.804687-128.65625-9.828125 0-19.40625 1.03125-28.640625 3 24.929688-25.925781 59.972656-42.0625 98.789062-42.0625 72.875 0 132.457032 56.867187 136.804688 128.65625 39.007812 1.332031 70.222656 33.359375 70.222656 72.695312zm0 0" fill="#60daff"/><path d="m57.703125 189.945312c3.105469-51.316406 45.703125-91.976562 97.800781-91.976562 42.015625 0 77.851563 26.449219 91.777344 63.601562 36.183594.4375 65.382812 29.890626 65.382812 66.175782 0 36.5625-29.636718 66.195312-66.195312 66.195312-15.300781 0-171.222656 0-186.949219 0-28.730469 0-52.019531-23.289062-52.019531-52.019531 0-28.121094 22.316406-51.019531 50.203125-51.976563zm0 0" fill="#f0f5f7"/><path d="m312.667969 227.753906c0 36.242188-29.144531 65.683594-65.285157 66.175782 10.835938-11.792969 17.441407-27.503907 17.441407-44.765626 0-36.28125-29.195313-65.734374-65.386719-66.175781-13.925781-37.148437-49.753906-63.605469-91.78125-63.605469-4.964844 0-9.839844.375-14.609375 1.085938 16.953125-14.054688 38.714844-22.5 62.453125-22.5 42.023438 0 77.855469 26.445312 91.78125 63.605469 36.191406.441406 65.386719 29.882812 65.386719 66.179687zm0 0" fill="#dde9ed"/><path d="m489.402344 165.359375c-12.96875-13.386719-29.878906-21.722656-48.183594-23.875-2-19.003906-7.675781-37.132813-16.90625-53.976563-1.988281-3.632812-6.542969-4.964843-10.179688-2.972656-3.632812 1.988282-4.964843 6.546875-2.972656 10.179688 9.210938 16.808594 14.46875 35.046875 15.628906 54.210937.230469 3.859375 3.363282 6.910157 7.226563 7.042969 16.949219.582031 32.792969 7.625 44.613281 19.828125 11.847656 12.226563 18.371094 28.34375 18.371094 45.378906 0 35.988281-29.277344 65.265625-65.265625 65.265625h-140.765625c17.726562-13.46875 29.195312-34.765625 29.195312-58.695312 0-19.527344-7.558593-37.925782-21.289062-51.804688-12.519531-12.660156-28.851562-20.234375-46.433594-21.636718-7.691406-17.914063-20.125-33.261719-36.191406-44.597657-9.902344-6.988281-20.785156-12.140625-32.253906-15.347656 10.378906-18.808594 25.265625-34.789063 43.4375-46.492187 20.875-13.441407 45.09375-20.546876 70.042968-20.546876 36.175782 0 70.964844 15.292969 95.449219 41.957032 2.800781 3.054687 7.542969 3.253906 10.59375.453125s3.253907-7.542969.453125-10.59375c-27.316406-29.753907-66.132812-46.816407-106.496094-46.816407-20.371093 0-40.300781 4.265626-58.664062 12.425782-21.1875-17.808594-48.765625-26.667969-76.449219-24.394532-19.546875 1.601563-38.1875 8.582032-53.902343 20.1875-3.332032 2.457032-4.039063 7.15625-1.578126 10.488282 2.460938 3.332031 7.15625 4.039062 10.488282 1.578125 13.472656-9.945313 29.453125-15.929688 46.21875-17.304688 21.605468-1.777343 43.140625 4.363281 60.539062 16.996094-1.621094.957031-3.230468 1.9375-4.816406 2.960937-21.597656 13.910157-39.042969 33.234376-50.667969 56.03125-4.332031-.535156-8.71875-.820312-13.140625-.820312-28.511718 0-54.546875 11.40625-73.621094 29.988281-.425781-2.550781-.757812-5.121093-.96875-7.707031-1.691406-20.632812 3.8125-41.386719 15.5-58.433594 2.34375-3.417968 1.472657-8.085937-1.941406-10.429687-3.417968-2.339844-8.085937-1.46875-10.429687 1.945312-13.628907 19.886719-20.050781 44.085938-18.078125 68.144531.574218 6.988282 1.84375 13.917969 3.765625 20.605469-10.023438 13.964844-16.730469 30.492188-18.925781 48.457031-28.972657 4.195313-50.804688 28.890626-50.804688 58.882813 0 32.820313 26.703125 59.519531 59.519531 59.519531h122.390625l-43.105468 43.101563c-5.292969 5.296875-6.863282 13.191406-4 20.109375 2.867187 6.917968 9.558593 11.390625 17.046874 11.390625h46.136719l-83.835937 83.835937c-6.855469 6.855469-7.363282 17.265625-1.210938 24.757813 3.683594 4.488281 8.863282 6.835937 14.15625 6.835937 3.542969 0 7.132813-1.050781 10.363282-3.210937l108.371093-72.523438c3.445313-2.300781 4.367188-6.960937 2.0625-10.402343-2.300781-3.441407-6.960937-4.367188-10.402343-2.0625l-108.375 72.523437c-2.148438 1.4375-3.679688.425781-4.585938-.679687-.90625-1.101563-1.601562-2.800782.226562-4.632813l96.640626-96.636719c2.144531-2.144531 2.789062-5.371094 1.625-8.175781-1.160157-2.800781-3.894532-4.628906-6.929688-4.628906h-64.242188c-2.082031 0-2.921874-1.488281-3.1875-2.128907-.265624-.644531-.722656-2.289062.75-3.761718l53.664063-53.664063c.011719-.015625.027344-.03125.039063-.046875h71.121093l-23.921875 23.921875c-2.144531 2.144531-2.785156 5.371094-1.625 8.175781 1.160156 2.800782 3.898438 4.628907 6.929688 4.628907h67.800781c2.226563 0 3.023437 1.535156 3.300781 2.449219.277344.914062.46875 2.632812-1.382812 3.871093l-60.175782 40.269531c-3.441406 2.300782-4.367187 6.960938-2.0625 10.402344 1.445313 2.164063 3.820313 3.332032 6.242188 3.332032 1.433594 0 2.882812-.414063 4.164062-1.269532l60.175782-40.269531c6.90625-4.621094 9.808594-12.746094 7.394531-20.695313-2.417969-7.953124-9.347656-13.089843-17.65625-13.089843h-49.695313l21.679688-21.679688c.015625-.015625.027344-.03125.042969-.046875h136.285156c44.257813 0 80.265625-36.003906 80.265625-80.265625 0-20.949219-8.023438-40.773437-22.597656-55.816406zm-429.882813 121.082031c-24.546875 0-44.519531-19.96875-44.519531-44.519531 0-24.117187 18.871094-43.652344 42.960938-44.480469 3.867187-.132812 6.996093-3.183594 7.230468-7.042968 2.882813-47.625 42.550782-84.929688 90.3125-84.929688 37.527344 0 71.585938 23.601562 84.757813 58.734375 1.085937 2.898437 3.835937 4.832031 6.929687 4.867187 31.96875.386719 57.976563 26.707032 57.976563 58.675782 0 32.367187-26.332031 58.695312-58.695313 58.695312zm0 0"/><path d="m389.441406 109.011719c-3.800781 1.644531-5.550781 6.058593-3.90625 9.859375 2.160156 4.996094 3.902344 10.210937 5.175782 15.503906.824218 3.4375 3.898437 5.746094 7.285156 5.746094.578125 0 1.167968-.066406 1.757812-.207032 4.027344-.96875 6.507813-5.019531 5.539063-9.046874-1.472657-6.125-3.488281-12.164063-5.992188-17.949219-1.644531-3.800781-6.058593-5.550781-9.859375-3.90625zm0 0"/><path d="m297.476562 45.988281c-4.140624 0-7.5 3.359375-7.5 7.5 0 4.144531 3.359376 7.5 7.5 7.5 26.335938 0 50.914063 10.5 69.210938 29.5625 1.472656 1.535157 3.441406 2.308594 5.414062 2.308594 1.867188 0 3.738282-.695313 5.191407-2.089844 2.988281-2.871093 3.085937-7.617187.21875-10.605469-21.152344-22.039062-49.574219-34.175781-80.035157-34.175781zm0 0"/></svg>